<svg width="24" height="24" viewBox="0 0 24 24" fill="none" xmlns="http://www.w3.org/2000/svg">
<g clip-path="url(#clip0_9_2421)">
<path d="M5.25 21C4.63125 21 4.10175 20.7987 3.6615 20.3962C3.2205 19.993 3 19.5086 3 18.9429V9.68571C3 9.36 3.07987 9.05143 3.23962 8.76C3.39862 8.46857 3.61875 8.22857 3.9 8.04L10.65 3.41143C10.8563 3.27429 11.0719 3.17143 11.2969 3.10286C11.5219 3.03429 11.7563 3 12 3C12.2437 3 12.4781 3.03429 12.7031 3.10286C12.9281 3.17143 13.1438 3.27429 13.35 3.41143L20.1 8.04C20.3813 8.22857 20.6017 8.46857 20.7615 8.76C20.9205 9.05143 21 9.36 21 9.68571V18.9429C21 19.5086 20.7799 19.993 20.3396 20.3962C19.8986 20.7987 19.3687 21 18.75 21H14.25V13.8H9.75V21H5.25Z" fill="#FBFBFF"/>
</g>
<defs>
<clipPath id="clip0_9_2421">
<rect width="24" height="24" fill="white"/>
</clipPath>
</defs>
</svg>
