<svg width="12" height="14" viewBox="0 0 12 14" fill="none" xmlns="http://www.w3.org/2000/svg">
<path d="M8.3335 7C8.3335 6.88479 8.2926 6.7788 8.21489 6.69585L4.97562 3.11982C4.902 3.04147 4.81202 3 4.70568 3C4.4971 3 4.3335 3.17972 4.3335 3.41935C4.3335 3.53456 4.3744 3.64055 4.43984 3.71889L7.41734 7L4.43984 10.2811C4.3744 10.3594 4.3335 10.4608 4.3335 10.5806C4.3335 10.8203 4.4971 11 4.70568 11C4.81202 11 4.902 10.9585 4.97562 10.8756L8.21489 7.30415C8.2926 7.21659 8.3335 7.11521 8.3335 7Z" fill="#F7F7F7"/>
</svg>
