<svg width="48" height="48" viewBox="0 0 48 48" fill="none" xmlns="http://www.w3.org/2000/svg">
<g id="account (1) 1" clip-path="url(#clip0_303_988)">
<g id="Group">
<path id="Vector" d="M4.21875 0C1.89253 0 0 1.89253 0 4.21875V29.5312C0 31.8575 1.89253 33.75 4.21875 33.75H24L25.875 17.3438L24 0H4.21875Z" fill="#EBF1FF"/>
<path id="Vector_2" d="M43.7812 0H24V33.75H43.7812C46.1075 33.75 48 31.8575 48 29.5312V4.21875C48 1.89253 46.1075 0 43.7812 0Z" fill="#D9E4FF"/>
<path id="Vector_3" d="M12 16.9688C8.12297 16.9688 4.96875 20.123 4.96875 24V26.8125C4.96875 27.5891 5.59837 28.2188 6.375 28.2188H17.625C18.4016 28.2188 19.0312 27.5891 19.0312 26.8125V24C19.0312 20.123 15.877 16.9688 12 16.9688Z" fill="#F15A3C"/>
<path id="Vector_4" d="M12 16.875C15.0548 16.875 17.5312 14.3986 17.5312 11.3438C17.5312 8.28892 15.0548 5.8125 12 5.8125C8.94517 5.8125 6.46875 8.28892 6.46875 11.3438C6.46875 14.3986 8.94517 16.875 12 16.875Z" fill="#FBCD9E"/>
<g id="Group_2">
<path id="Vector_5" d="M28.5 8.53125H43.5C44.2766 8.53125 44.9062 7.90163 44.9062 7.125C44.9062 6.34837 44.2766 5.71875 43.5 5.71875H28.5C27.7234 5.71875 27.0938 6.34837 27.0938 7.125C27.0938 7.90163 27.7234 8.53125 28.5 8.53125Z" fill="#4DA4FF"/>
<path id="Vector_6" d="M33.1875 16.9688H28.5C27.7234 16.9688 27.0938 17.5984 27.0938 18.375C27.0938 19.1516 27.7234 19.7812 28.5 19.7812H33.1875C33.9641 19.7812 34.5938 19.1516 34.5938 18.375C34.5938 17.5984 33.9641 16.9688 33.1875 16.9688Z" fill="#4DA4FF"/>
<path id="Vector_7" d="M43.5 11.3438H28.5C27.7234 11.3438 27.0938 11.9734 27.0938 12.75C27.0938 13.5266 27.7234 14.1562 28.5 14.1562H43.5C44.2766 14.1562 44.9062 13.5266 44.9062 12.75C44.9062 11.9734 44.2766 11.3438 43.5 11.3438Z" fill="#4DA4FF"/>
<path id="Vector_8" d="M43.5 16.9688H38.8125C38.0359 16.9688 37.4062 17.5984 37.4062 18.375C37.4062 19.1516 38.0359 19.7812 38.8125 19.7812H43.5C44.2766 19.7812 44.9062 19.1516 44.9062 18.375C44.9062 17.5984 44.2766 16.9688 43.5 16.9688Z" fill="#4DA4FF"/>
</g>
<path id="Vector_9" d="M30.3769 22.6075C29.9333 22.6075 29.5504 22.9185 29.4594 23.3526L29.1289 24.9292C28.7421 26.7745 26.8375 27.8742 25.046 27.2865L23.5154 26.7845C23.0939 26.6462 22.6331 26.8223 22.4113 27.2065L20.3915 30.7048C20.1697 31.089 20.2475 31.5761 20.5781 31.872L21.7782 32.9465C23.1828 34.2041 23.1828 36.4034 21.7782 37.661L20.5781 38.7355C20.2475 39.0314 20.1697 39.5185 20.3915 39.9027L22.4113 43.401C22.6331 43.7852 23.0939 43.9613 23.5154 43.823L25.0464 43.3208C26.8381 42.7331 28.7429 43.8331 29.1295 45.6787L29.4595 47.2547C29.5504 47.6889 29.9334 48 30.3771 48H32.3967L34.2717 35.3037L32.3967 22.6074L30.3769 22.6075Z" fill="#4D5B98"/>
<path id="Vector_10" d="M44.2151 38.7354L43.0149 37.6613C41.6096 36.4037 41.6096 34.2036 43.0149 32.946L44.2151 31.8719C44.5458 31.576 44.6237 31.0888 44.4018 30.7046L42.3822 27.2066C42.1604 26.8223 41.6995 26.6462 41.2779 26.7846L39.7481 27.2868C37.9566 27.8749 36.0515 26.7752 35.6646 24.9296L35.334 23.3525C35.243 22.9184 34.8601 22.6074 34.4165 22.6074H32.3967V47.9999H34.4163C34.86 47.9999 35.243 47.6888 35.3339 47.2546L35.664 45.6782C36.0505 43.8323 37.9558 42.7324 39.7477 43.3205L41.2779 43.8228C41.6995 43.9611 42.1603 43.785 42.3822 43.4008L44.4018 39.9028C44.6237 39.5184 44.5458 39.0313 44.2151 38.7354Z" fill="#33437D"/>
<path id="Vector_11" d="M28.178 35.3037C28.178 37.6299 30.0705 39.5225 32.3967 39.5225L34.2717 35.3037L32.3967 31.085C30.0705 31.085 28.178 32.9775 28.178 35.3037Z" fill="#5A77B2"/>
<path id="Vector_12" d="M32.3967 31.085V39.5225C34.7229 39.5225 36.6155 37.6299 36.6155 35.3037C36.6155 32.9775 34.7229 31.085 32.3967 31.085Z" fill="#4D5B98"/>
</g>
</g>
<defs>
<clipPath id="clip0_303_988">
<rect width="48" height="48" fill="white"/>
</clipPath>
</defs>
</svg>
