<svg width="48" height="48" viewBox="0 0 48 48" fill="none" xmlns="http://www.w3.org/2000/svg">
<g id="atm 1">
<path id="Vector" d="M43.2462 1.21875H4.75366C3.65623 1.21875 2.7627 2.03325 2.7627 3.03431V15.4281C2.7627 16.4292 3.65585 17.2438 4.75366 17.2438H12.3825V34.9813C12.3825 35.1802 12.4615 35.371 12.6021 35.5116C12.7428 35.6523 12.9336 35.7313 13.1325 35.7313H22.7278V36.488C22.7234 37.6053 23.1176 38.6876 23.8394 39.5405C24.5612 40.3933 25.5634 40.961 26.666 41.1414V41.6906H25.5984C25.3995 41.6906 25.2087 41.7696 25.0681 41.9103C24.9274 42.0509 24.8484 42.2417 24.8484 42.4406V46.0312C24.8484 46.2302 24.9274 46.4209 25.0681 46.5616C25.2087 46.7022 25.3995 46.7812 25.5984 46.7812H40.7695C40.9684 46.7812 41.1592 46.7022 41.2998 46.5616C41.4405 46.4209 41.5195 46.2302 41.5195 46.0312V42.4406C41.5195 42.2417 41.4405 42.0509 41.2998 41.9103C41.1592 41.7696 40.9684 41.6906 40.7695 41.6906H39.7019V28.325C39.7105 27.7045 39.5924 27.0889 39.355 26.5156C39.1176 25.9424 38.7657 25.4236 38.3209 24.9909L35.6175 22.2876V17.2438H43.2462C44.3441 17.2438 45.2373 16.4292 45.2373 15.4281V3.03431C45.2373 2.03325 44.3437 1.21875 43.2462 1.21875Z" fill="#60607C"/>
<path id="Vector_2" d="M12.3825 6.47803H10.9407C10.2162 6.47872 9.52162 6.76676 9.00928 7.27895C8.49693 7.79113 8.20868 8.48564 8.20776 9.21009V9.25528C8.20858 9.97979 8.49679 10.6744 9.00915 11.1866C9.52151 11.6989 10.2162 11.987 10.9407 11.9876H12.3825V6.47803Z" fill="#484868"/>
<path id="Vector_3" d="M37.0598 6.47803H35.6174V11.988H37.0598C37.7842 11.9872 38.4787 11.6991 38.991 11.1868C39.5032 10.6746 39.7914 9.98008 39.7922 9.25565V9.21046C39.7914 8.48603 39.5032 7.7915 38.991 7.27924C38.4787 6.76699 37.7842 6.47885 37.0598 6.47803Z" fill="#484868"/>
<path id="Vector_4" d="M26.6662 41.6911H39.702V28.325C39.7106 27.7046 39.5926 27.0889 39.3551 26.5157C39.1177 25.9424 38.7659 25.4236 38.3211 24.991L35.6176 22.2876V32.7575C35.6266 32.1348 35.5078 31.5169 35.2687 30.9419C35.0296 30.367 34.6752 29.8471 34.2273 29.4144L28.4884 23.705C28.3031 23.5218 28.0831 23.3775 27.8413 23.2805C27.5995 23.1835 27.3408 23.1358 27.0803 23.1402C26.8198 23.1446 26.5628 23.2009 26.3244 23.306C26.086 23.411 25.871 23.5626 25.6919 23.7519L25.4548 24.005C24.6779 24.8224 24.2495 25.9101 24.2603 27.0378C24.2711 28.1655 24.7202 29.2447 25.5127 30.0471L27.9295 32.5063C28.028 32.6024 28.1057 32.7178 28.1576 32.8452C28.2096 32.9726 28.2347 33.1094 28.2314 33.247V35.7323H22.7283V36.4889C22.724 37.6063 23.1181 38.6885 23.8399 39.5414C24.5617 40.3943 25.5639 40.962 26.6666 41.1424L26.6662 41.6911Z" fill="#FFDDAB"/>
<path id="Vector_5" d="M12.3826 6.47803V34.9817C12.3826 35.1806 12.4616 35.3714 12.6022 35.512C12.7429 35.6527 12.9337 35.7317 13.1326 35.7317H28.2314V33.2464C28.2347 33.1088 28.2095 32.972 28.1576 32.8446C28.1056 32.7172 28.0279 32.6018 27.9294 32.5057L25.5126 30.0468C24.7202 29.2444 24.271 28.1651 24.2602 27.0374C24.2494 25.9097 24.6778 24.8221 25.4548 24.0047L25.6919 23.7516C25.8709 23.5623 26.0859 23.4107 26.3244 23.3056C26.5628 23.2006 26.8198 23.1443 27.0803 23.1399C27.3407 23.1355 27.5995 23.1832 27.8413 23.2802C28.0831 23.3772 28.3031 23.5215 28.4883 23.7047L34.2273 29.4141C34.6751 29.8467 35.0295 30.3666 35.2687 30.9416C35.5078 31.5166 35.6265 32.1345 35.6176 32.7572V6.47803H12.3826Z" fill="#679B67"/>
<path id="Vector_6" d="M27.9294 32.5056L25.5126 30.0468C24.7201 29.2444 24.271 28.1651 24.2602 27.0374C24.2494 25.9097 24.6778 24.8221 25.4547 24.0047L25.6918 23.7516C25.8709 23.5623 26.0859 23.4107 26.3243 23.3056C26.5627 23.2006 26.8197 23.1443 27.0802 23.1399C27.3407 23.1355 27.5994 23.1832 27.8412 23.2802C28.083 23.3772 28.303 23.5215 28.4883 23.7047L32.968 28.1616V6.47803H15.032V30.1584C15.032 30.3573 15.111 30.5481 15.2517 30.6888C15.3923 30.8294 15.5831 30.9084 15.782 30.9084C16.1591 30.9092 16.5205 31.0596 16.7869 31.3265C17.0534 31.5934 17.203 31.9551 17.2031 32.3322C17.2031 32.5311 17.2822 32.7219 17.4228 32.8625C17.5635 33.0032 17.7542 33.0822 17.9531 33.0822H28.2192C28.1896 32.8631 28.0875 32.6601 27.9294 32.5056Z" fill="#7EBC7E"/>
<path id="Vector_7" d="M29.7151 6.47803H18.2841C16.8615 7.65446 15.8366 9.24121 15.3492 11.0217C14.8618 12.8023 14.9358 14.6898 15.5609 16.4267C16.1861 18.1637 17.332 19.6654 18.8423 20.7269C20.3525 21.7885 22.1536 22.3581 23.9996 22.3581C25.8456 22.3581 27.6467 21.7885 29.1569 20.7269C30.6672 19.6654 31.8131 18.1637 32.4383 16.4267C33.0634 14.6898 33.1374 12.8023 32.65 11.0217C32.1626 9.24121 31.1377 7.65446 29.7151 6.47803Z" fill="#EAE8E8"/>
<path id="Vector_8" d="M40.7696 41.6912H25.5984C25.1842 41.6912 24.8484 42.0269 24.8484 42.4412V46.0313C24.8484 46.4455 25.1842 46.7813 25.5984 46.7813H40.7696C41.1838 46.7813 41.5196 46.4455 41.5196 46.0313V42.4412C41.5196 42.0269 41.1838 41.6912 40.7696 41.6912Z" fill="#484868"/>
<path id="Vector_9" d="M40.7696 41.6912H25.5984C25.1842 41.6912 24.8484 42.0269 24.8484 42.4412V46.0313C24.8484 46.4455 25.1842 46.7813 25.5984 46.7813H40.7696C41.1838 46.7813 41.5196 46.4455 41.5196 46.0313V42.4412C41.5196 42.0269 41.1838 41.6912 40.7696 41.6912Z" fill="#484868"/>
<path id="Vector_10" d="M40.7695 41.6912H39.7019V45.2699C39.7019 45.4688 39.6228 45.6596 39.4822 45.8002C39.3415 45.9409 39.1508 46.0199 38.9519 46.0199H24.8484V46.0313C24.8484 46.2302 24.9274 46.421 25.0681 46.5617C25.2087 46.7023 25.3995 46.7813 25.5984 46.7813H40.7695C40.9684 46.7813 41.1592 46.7023 41.2998 46.5617C41.4405 46.421 41.5195 46.2302 41.5195 46.0313V42.4407C41.5194 42.2419 41.4403 42.0512 41.2996 41.9107C41.159 41.7701 40.9683 41.6912 40.7695 41.6912Z" fill="#3D3D54"/>
<path id="Vector_11" d="M43.2463 1.21875H41.7463C42.8442 1.21875 43.7374 2.03325 43.7374 3.03431V15.4281C43.7374 16.4292 42.8442 17.2438 41.7463 17.2438H43.2463C44.3442 17.2438 45.2374 16.4292 45.2374 15.4281V3.03431C45.2374 2.03325 44.3439 1.21875 43.2463 1.21875Z" fill="#595975"/>
<path id="Vector_12" d="M37.0598 6.47803H35.6174V7.60303H37.0598C37.6905 7.60386 38.3016 7.82253 38.7897 8.22205C39.2778 8.62157 39.6129 9.17741 39.7384 9.79556C39.7742 9.61781 39.7922 9.43696 39.7922 9.25565V9.21047C39.7914 8.48603 39.5032 7.7915 38.991 7.27924C38.4787 6.76699 37.7842 6.47885 37.0598 6.47803Z" fill="#3D3D54"/>
<path id="Vector_13" d="M12.3825 6.47803H10.9407C10.2162 6.47872 9.52162 6.76676 9.00928 7.27895C8.49693 7.79113 8.20868 8.48564 8.20776 9.21009V9.25528C8.2078 9.43658 8.22582 9.61744 8.26158 9.79518C8.38713 9.17703 8.72235 8.62121 9.21053 8.22176C9.69872 7.8223 10.3099 7.60374 10.9407 7.60303H12.3825V6.47803Z" fill="#3D3D54"/>
<path id="Vector_14" d="M32.968 6.47778H35.6175V7.60278H32.968V6.47778Z" fill="#5B8E5B"/>
<path id="Vector_15" d="M12.3826 6.47778H15.032V7.60278H12.3826V6.47778Z" fill="#5B8E5B"/>
<path id="Vector_16" d="M17.1494 7.60303H30.8499C30.5056 7.19526 30.1258 6.81879 29.715 6.47803H18.284C17.8734 6.81885 17.4937 7.19531 17.1494 7.60303Z" fill="#DDD7D7"/>
<g id="Group">
<path id="Vector_17" d="M29.6538 12.6322H28.9908C28.6827 11.2299 27.5316 10.1848 26.1619 10.1848C23.9054 10.1848 23.52 12.0157 23.265 13.2272C22.9767 14.5975 22.7907 15.077 21.8383 15.077C21.0602 15.077 20.4279 14.3168 20.4279 13.3822C20.4279 12.4476 21.0606 11.6848 21.8383 11.6848C22.0373 11.6848 22.228 11.6058 22.3687 11.4651C22.5093 11.3245 22.5883 11.1337 22.5883 10.9348C22.5883 10.7359 22.5093 10.5451 22.3687 10.4045C22.228 10.2638 22.0373 10.1848 21.8383 10.1848C20.4687 10.1848 19.3176 11.2299 19.0094 12.6322H18.3464C18.1475 12.6322 17.9568 12.7112 17.8161 12.8518C17.6755 12.9925 17.5964 13.1832 17.5964 13.3822C17.5964 13.5811 17.6755 13.7718 17.8161 13.9125C17.9568 14.0531 18.1475 14.1322 18.3464 14.1322H19.0096C19.3179 15.5331 20.4688 16.577 21.8383 16.577C24.0928 16.577 24.4781 14.7471 24.7329 13.5361C25.0216 12.1647 25.2077 11.6848 26.1619 11.6848C26.94 11.6848 27.5724 12.4463 27.5724 13.3822C27.5724 14.3181 26.9397 15.077 26.1619 15.077C25.963 15.077 25.7722 15.156 25.6316 15.2966C25.4909 15.4373 25.4119 15.6281 25.4119 15.827C25.4119 16.0259 25.4909 16.2166 25.6316 16.3573C25.7722 16.498 25.963 16.577 26.1619 16.577C27.5314 16.577 28.6824 15.5331 28.9906 14.1322H29.6538C29.8527 14.1322 30.0435 14.0531 30.1841 13.9125C30.3248 13.7718 30.4038 13.5811 30.4038 13.3822C30.4038 13.1832 30.3248 12.9925 30.1841 12.8518C30.0435 12.7112 29.8527 12.6322 29.6538 12.6322Z" fill="#679B67"/>
<path id="Vector_18" d="M15.032 6.47803V7.60303H17.1494C17.4936 7.19532 17.8732 6.81886 18.2838 6.47803H15.032Z" fill="#679B67"/>
<path id="Vector_19" d="M32.968 6.47803H29.7148C30.1256 6.81879 30.5054 7.19526 30.8498 7.60303H32.9679L32.968 6.47803Z" fill="#679B67"/>
</g>
<path id="Vector_20" d="M38.321 24.9909L37.9746 24.6445C38.2495 25.2566 38.3888 25.9209 38.3829 26.5919L38.3895 41.6911H39.702V28.325C39.7105 27.7045 39.5925 27.0889 39.3551 26.5156C39.1176 25.9424 38.7658 25.4236 38.321 24.9909Z" fill="#F2BF81"/>
<path id="Vector_21" d="M26.9067 33.0823C26.9146 33.1366 26.9186 33.1915 26.9188 33.2464V35.7317H28.2313V33.2464C28.2311 33.1915 28.2271 33.1366 28.2192 33.0823H26.9067Z" fill="#5B8E5B"/>
<path id="Vector_22" d="M27.9294 32.5056L25.5126 30.0468C24.7202 29.2444 24.271 28.1652 24.2602 27.0375C24.2494 25.9098 24.6778 24.8222 25.4548 24.0047L25.6919 23.7516C25.903 23.526 26.1653 23.3544 26.4567 23.2516C26.2364 23.1734 26.0039 23.1356 25.7702 23.14C25.5089 23.1416 25.2507 23.1967 25.0115 23.3019C24.7723 23.4071 24.5572 23.5601 24.3794 23.7516L24.1423 24.0047C23.3653 24.8222 22.9369 25.9098 22.9477 27.0375C22.9585 28.1652 23.4077 29.2444 24.2001 30.0468L26.6169 32.5061C26.7751 32.6606 26.8771 32.8636 26.9068 33.0827H28.2193C28.1897 32.8634 28.0877 32.6603 27.9294 32.5056Z" fill="#679B67"/>
<path id="Vector_23" d="M32.9489 39.4297C32.0962 39.429 31.2785 39.0902 30.6754 38.4875C30.0722 37.8848 29.7327 37.0675 29.7314 36.2148V33.2465C29.7338 32.9146 29.6705 32.5854 29.5451 32.2781C29.4197 31.9708 29.2347 31.6913 29.0008 31.4558L27.3908 29.8177L27.3893 29.8197L26.6282 29.0453C25.8852 28.2928 25.4424 27.295 25.3829 26.2391C25.3235 25.1833 25.6516 24.1421 26.3056 23.311C26.0742 23.4165 25.8657 23.5662 25.6919 23.7517L25.4548 24.0048C24.6778 24.8222 24.2494 25.9099 24.2602 27.0375C24.271 28.1652 24.7202 29.2445 25.5126 30.0469L27.9294 32.5061C28.0279 32.6022 28.1056 32.7175 28.1576 32.845C28.2095 32.9724 28.2346 33.1092 28.2314 33.2468V36.2151C28.2331 37.4654 28.7308 38.6641 29.6152 39.548C30.4996 40.4319 31.6985 40.9289 32.9489 40.9299C33.1478 40.9299 33.3385 40.8509 33.4792 40.7103C33.6198 40.5696 33.6989 40.3789 33.6989 40.1799C33.6989 39.981 33.6198 39.7903 33.4792 39.6496C33.3385 39.509 33.1478 39.4299 32.9489 39.4299V39.4297Z" fill="#F2BF81"/>
<path id="Vector_24" d="M26.9067 45.2139C27.321 45.2139 27.6567 44.8781 27.6567 44.4639C27.6567 44.0497 27.321 43.7139 26.9067 43.7139C26.4925 43.7139 26.1567 44.0497 26.1567 44.4639C26.1567 44.8781 26.4925 45.2139 26.9067 45.2139Z" fill="#3D3D54"/>
</g>
</svg>
