
<svg width="48" height="48" viewBox="0 0 48 48" fill="none" xmlns="http://www.w3.org/2000/svg">
<g id="mobile-banking 1" clip-path="url(#clip0_303_287)">
<g id="Group">
<g id="Group_2">
<path id="Vector" d="M24.8606 34.0134C24.8606 29.0606 28.8899 25.0312 33.8428 25.0312C33.8801 25.0312 33.9172 25.0319 33.9543 25.0326L34.0795 25.0346V21.1763L29.8931 16.9898C28.9726 16.0694 28.4656 14.8456 28.4656 13.5439C28.4656 12.2422 28.9725 11.0183 29.8931 10.0979C30.0509 9.94012 30.2608 9.85322 30.484 9.85322C30.7072 9.85322 30.917 9.94012 31.0749 10.0979L36.0669 15.0899V3.98438C36.0669 2.17219 34.5978 0.703125 32.7856 0.703125H13.2185C11.4063 0.703125 9.93726 2.17219 9.93726 3.98438V12.0117H10.3684C11.609 12.0117 12.6184 13.0211 12.6184 14.2617V15.4707C12.6184 16.7113 11.609 17.7207 10.3684 17.7207V17.9082C11.609 17.9082 12.6184 18.9176 12.6184 20.1582V21.3672C12.6184 22.6078 11.609 23.6172 10.3684 23.6172V23.8047C11.609 23.8047 12.6184 24.8141 12.6184 26.0547V27.2637C12.6184 28.5043 11.609 29.5137 10.3684 29.5137V29.7012C11.609 29.7012 12.6184 30.7106 12.6184 31.9512V33.1602C12.6184 34.4008 11.609 35.4102 10.3684 35.4102H9.93726V41.7254H29.2427C26.6202 40.1552 24.8606 37.2862 24.8606 34.0134Z" fill="#F2FBFF"/>
<g id="Group_3">
<g id="Group_4">
<path id="Vector_2" d="M32.1294 3.98438V11.0201L36.0666 14.9573V3.98438C36.0666 2.17219 34.5976 0.703125 32.7854 0.703125H28.8481C30.6603 0.703125 32.1294 2.17219 32.1294 3.98438Z" fill="#DFF6FD"/>
</g>
<g id="Group_5">
<path id="Vector_3" d="M33.9856 25.033V21.215L32.1294 19.3589V25.1958C32.6842 25.0881 33.2568 25.0311 33.8427 25.0311C33.8988 25.0311 33.9546 25.0327 34.0106 25.0338C34.0022 25.0338 33.994 25.0332 33.9856 25.033Z" fill="#DFF6FD"/>
</g>
</g>
<path id="Vector_4" d="M33.8428 42.9956C32.0986 42.9956 30.4693 42.4953 29.0898 41.6316H9.93726V44.0156C9.93726 45.8277 11.4063 47.2968 13.2185 47.2968H32.7855C34.5977 47.2968 36.0668 45.8277 36.0668 44.0156V42.7167C35.3553 42.8986 34.6102 42.9956 33.8428 42.9956Z" fill="#8379C1"/>
<path id="Vector_5" d="M33.8427 42.9956C33.2569 42.9956 32.6842 42.9386 32.1294 42.831V44.0156C32.1294 45.8278 30.6603 47.2969 28.8481 47.2969H32.7854C34.5976 47.2969 36.0666 45.8278 36.0666 44.0156V42.7168C35.3552 42.8987 34.6101 42.9956 33.8427 42.9956Z" fill="#6E61B6"/>
<g id="Group_6">
<path id="Vector_6" d="M10.3684 12.0117C10.4606 12.0117 10.5511 12.0179 10.6404 12.0288V3.98438C10.6404 2.56275 11.7969 1.40625 13.2185 1.40625H32.7855C34.2072 1.40625 35.3637 2.56275 35.3637 3.98438V14.3867L36.7699 15.7929V3.98438C36.7699 1.78734 34.9826 0 32.7855 0H13.2185C11.0215 0 9.23413 1.78734 9.23413 3.98438V12.0117H10.3684Z" fill="#54469C"/>
<path id="Vector_7" d="M35.3637 42.8662V44.0155C35.3637 45.4372 34.2072 46.5937 32.7855 46.5937H13.2185C11.7969 46.5937 10.6404 45.4372 10.6404 44.0155V35.3931C10.5511 35.4038 10.4605 35.4101 10.3684 35.4101H9.23413V44.0155C9.23413 46.2126 11.0215 47.9999 13.2185 47.9999H32.7855C34.9826 47.9999 36.7699 46.2126 36.7699 44.0155V42.5054C36.3164 42.6622 35.8466 42.7835 35.3637 42.8662Z" fill="#54469C"/>
</g>
<path id="Vector_8" d="M12.712 15.4707V14.2617C12.712 12.9673 11.6626 11.918 10.3682 11.918H7.42505C6.13064 11.918 5.0813 12.9673 5.0813 14.2617V15.4707C5.0813 16.7651 6.13064 17.8145 7.42505 17.8145C6.13064 17.8145 5.0813 18.8638 5.0813 20.1582V21.3672C5.0813 22.6616 6.13064 23.711 7.42505 23.711C6.13064 23.711 5.0813 24.7603 5.0813 26.0547V27.2637C5.0813 28.5581 6.13064 29.6075 7.42505 29.6075C6.13064 29.6075 5.0813 30.6568 5.0813 31.9512V33.1602C5.0813 34.4546 6.13064 35.504 7.42505 35.504H10.3683C11.6627 35.504 12.7121 34.4546 12.7121 33.1602V31.9512C12.7121 30.6568 11.6627 29.6075 10.3683 29.6075C11.6627 29.6075 12.7121 28.5581 12.7121 27.2637V26.0547C12.7121 24.7603 11.6627 23.711 10.3683 23.711C11.6627 23.711 12.7121 22.6616 12.7121 21.3672V20.1582C12.7121 18.8638 11.6627 17.8145 10.3683 17.8145C11.6626 17.8145 12.712 16.7651 12.712 15.4707Z" fill="#FFCEBF"/>
<g id="Group_7">
<g id="Group_8">
<path id="Vector_9" d="M10.3681 11.918H7.44312C8.73752 11.918 9.78687 12.9673 9.78687 14.2617V15.4707C9.78687 16.7651 8.73752 17.8145 7.44312 17.8145H10.3682C11.6626 17.8145 12.712 16.7651 12.712 15.4707V14.2617C12.7119 12.9673 11.6625 11.918 10.3681 11.918Z" fill="#FFB09E"/>
</g>
<g id="Group_9">
<path id="Vector_10" d="M10.3681 17.8145H7.44312C8.73752 17.8145 9.78687 18.8638 9.78687 20.1582V21.3672C9.78687 22.6616 8.73752 23.711 7.44312 23.711H10.3682C11.6626 23.711 12.712 22.6616 12.712 21.3672V20.1582C12.7119 18.8638 11.6625 17.8145 10.3681 17.8145Z" fill="#FFB09E"/>
</g>
<g id="Group_10">
<path id="Vector_11" d="M10.3681 23.7109H7.44312C8.73752 23.7109 9.78687 24.7603 9.78687 26.0547V27.2637C9.78687 28.5581 8.73752 29.6074 7.44312 29.6074H10.3682C11.6626 29.6074 12.712 28.5581 12.712 27.2637V26.0547C12.7119 24.7603 11.6625 23.7109 10.3681 23.7109Z" fill="#FFB09E"/>
</g>
<g id="Group_11">
<path id="Vector_12" d="M10.3681 29.6074H7.44312C8.73752 29.6074 9.78687 30.6568 9.78687 31.9512V33.1602C9.78687 34.4546 8.73752 35.5039 7.44312 35.5039H10.3682C11.6626 35.5039 12.712 34.4546 12.712 33.1602V31.9512C12.7119 30.6568 11.6625 29.6074 10.3681 29.6074Z" fill="#FFB09E"/>
</g>
</g>
<g id="Group_12">
<path id="Vector_13" d="M28.7829 5.01855H17.2212C16.8328 5.01855 16.5181 4.70374 16.5181 4.31543C16.5181 3.92712 16.8328 3.6123 17.2212 3.6123H28.7828C29.1712 3.6123 29.4859 3.92712 29.4859 4.31543C29.4859 4.70374 29.1712 5.01855 28.7829 5.01855Z" fill="#8379C1"/>
</g>
<path id="Vector_14" d="M28.4656 13.5439C28.4656 12.2547 28.9634 11.0424 29.8671 10.125H15.9536C15.6948 10.125 15.4849 10.3349 15.4849 10.5938V14.2809C15.4849 14.5398 15.6948 14.7497 15.9536 14.7497H28.6154C28.5168 14.3602 28.4656 13.956 28.4656 13.5439Z" fill="#A2E62E"/>
<path id="Vector_15" d="M26.1562 14.7497H28.6154C28.5167 14.3602 28.4656 13.956 28.4656 13.5439C28.4656 12.2547 28.9634 11.0424 29.8672 10.125H26.1562C26.4151 10.125 26.625 10.3349 26.625 10.5938V14.2809C26.625 14.5398 26.4151 14.7497 26.1562 14.7497Z" fill="#97D729"/>
<g id="Group_13">
<path id="Vector_16" d="M30.0503 22.2497H15.9536C15.6948 22.2497 15.4849 22.0398 15.4849 21.7809V18.0938C15.4849 17.8349 15.6948 17.625 15.9536 17.625H30.0503C30.3092 17.625 30.5191 17.8349 30.5191 18.0938V21.7809C30.5191 22.0398 30.3092 22.2497 30.0503 22.2497Z" fill="#A2E62E"/>
</g>
<g id="Group_14">
<path id="Vector_17" d="M30.0503 17.625H26.1562C26.4151 17.625 26.625 17.8349 26.625 18.0938V21.7809C26.625 22.0398 26.4151 22.2497 26.1562 22.2497H30.0503C30.3092 22.2497 30.5191 22.0398 30.5191 21.7809V18.0938C30.5191 17.8349 30.3092 17.625 30.0503 17.625Z" fill="#97D729"/>
</g>
<g id="Group_15">
<path id="Vector_18" d="M33.9855 21.215V25.033C37.413 25.0868 40.3806 27.0693 41.8475 29.9412V22.5352C41.8475 21.3845 41.3903 20.281 40.5767 19.4673L31.1409 10.0315C30.778 9.66855 30.1896 9.66855 29.8267 10.0315C27.8869 11.9712 27.8869 15.1163 29.8267 17.0561L33.9855 21.215Z" fill="#FFCEBF"/>
</g>
<g id="Group_16">
<path id="Vector_19" d="M38.9061 23.5V26.5985C40.1443 27.4467 41.1605 28.5964 41.8474 29.9412V22.5352C41.8474 21.3845 41.3903 20.281 40.5766 19.4673L31.1409 10.0315C30.778 9.66855 30.1895 9.66855 29.8266 10.0315C29.3687 10.4893 29.0203 11.0148 28.7786 11.5753L37.6354 20.4322C38.449 21.2458 38.9061 22.3494 38.9061 23.5Z" fill="#FFB09E"/>
</g>
<g id="Group_17">
<g id="Group_18">
<path id="Vector_20" d="M33.8428 43.0894C38.8553 43.0894 42.9187 39.0259 42.9187 34.0134C42.9187 29.0009 38.8553 24.9375 33.8428 24.9375C28.8303 24.9375 24.7668 29.0009 24.7668 34.0134C24.7668 39.0259 28.8303 43.0894 33.8428 43.0894Z" fill="#0ED2B3"/>
</g>
<g id="Group_19">
<path id="Vector_21" d="M33.8427 24.9375C33.1698 24.9375 32.5144 25.0114 31.8833 25.1502C35.9539 26.0461 39 29.6737 39 34.0134C39 38.3531 35.9539 41.9808 31.8833 42.8767C32.5143 43.0155 33.1698 43.0894 33.8427 43.0894C38.8552 43.0894 42.9186 39.026 42.9186 34.0134C42.9186 29.0009 38.8552 24.9375 33.8427 24.9375Z" fill="#0AB69F"/>
</g>
<g id="Group_20">
<path id="Vector_22" d="M32.9117 37.7721C32.7318 37.7721 32.5518 37.7034 32.4144 37.5661L28.9149 34.0666C28.6403 33.792 28.6403 33.3468 28.9149 33.0723C29.1896 32.7977 29.6347 32.7977 29.9093 33.0723L32.9116 36.0746L37.8386 31.1476C38.1133 30.873 38.5584 30.873 38.833 31.1476C39.1076 31.4222 39.1076 31.8674 38.833 32.1419L33.4088 37.5661C33.2716 37.7033 33.0916 37.7721 32.9117 37.7721Z" fill="white"/>
</g>
</g>
<path id="Vector_23" d="M19.847 30.2211H17.3216C16.6964 30.2211 16.1878 29.7126 16.1878 29.0874V28.5517C16.1878 27.9266 16.6964 27.418 17.3216 27.418H19.847C20.472 27.418 20.9806 27.9265 20.9806 28.5517C20.9806 28.94 21.2953 29.2548 21.6837 29.2548C22.0721 29.2548 22.3869 28.94 22.3869 28.5517C22.3869 27.1512 21.2475 26.0118 19.847 26.0118H19.2873V25.0312C19.2873 24.6429 18.9726 24.3281 18.5842 24.3281C18.1958 24.3281 17.8811 24.6429 17.8811 25.0312V26.0118H17.3215C15.9209 26.0118 14.7815 27.1511 14.7815 28.5517V29.0874C14.7815 30.4879 15.9208 31.6273 17.3215 31.6273H19.8469C20.4719 31.6273 20.9805 32.1358 20.9805 32.7609V33.2966C20.9805 33.9217 20.4719 34.4303 19.8469 34.4303H17.3215C16.6963 34.4303 16.1877 33.9217 16.1877 33.2966C16.1877 32.9083 15.873 32.5935 15.4846 32.5935C15.0962 32.5935 14.7815 32.9083 14.7815 33.2966C14.7815 34.6972 15.9208 35.8365 17.3215 35.8365H17.8811V36.817C17.8811 37.2053 18.1958 37.5202 18.5842 37.5202C18.9726 37.5202 19.2873 37.2053 19.2873 36.817V35.8365H19.847C21.2474 35.8365 22.3869 34.6972 22.3869 33.2966V32.7609C22.3869 31.3604 21.2475 30.2211 19.847 30.2211Z" fill="#0AB69F"/>
</g>
</g>
</g>
<defs>
<clipPath id="clip0_303_287">
<rect width="48" height="48" fill="white"/>
</clipPath>
</defs>
</svg>
