<svg width="48" height="48" viewBox="0 0 48 48" fill="none" xmlns="http://www.w3.org/2000/svg">
<g id="coupon 1" clip-path="url(#clip0_303_177)">
<path id="Vector" d="M48 24C48 30.7171 45.2405 36.7885 40.7941 41.1458C36.4653 45.3855 30.5388 48 24 48C16.6883 48 10.1397 44.7301 5.7375 39.5725C2.16 35.3819 0 29.9422 0 24C0 18.718 1.70644 13.8338 4.59825 9.87037C5.17425 9.07987 5.79825 8.3265 6.46537 7.61344C10.8451 2.928 17.0801 0 24 0C26.928 0 29.7336 0.524062 32.3275 1.48509C34.9391 2.44997 37.3362 3.85763 39.4296 5.61703C44.6693 10.0192 48 16.6208 48 24Z" fill="#FFE261"/>
<path id="Vector_2" d="M40.7941 41.1458C36.4653 45.3855 30.5388 48 24 48C16.6884 48 10.1397 44.7301 5.73751 39.5725C6.26458 33.3404 6.30864 27.0758 5.87073 20.8378C5.61311 17.1693 5.18898 13.5095 4.59826 9.87028C4.41995 8.76825 4.22598 7.66819 4.01636 6.57103L6.46529 7.61334L7.25383 7.94841L9.7577 5.47594L12.9953 6.85322L15.4981 4.38075L18.7357 5.75803L21.2385 3.2865L24.4761 4.66284L26.9799 2.19038H26.9809L30.2184 3.56766L32.3275 1.485L32.7223 1.09509L35.9608 2.47237L38.4647 0C38.8212 1.86806 39.1426 3.74006 39.4296 5.61694C39.9928 9.28847 40.4239 12.9746 40.7246 16.6697C41.3858 24.814 41.4093 32.9985 40.7941 41.1458Z" fill="#F2F2F7"/>
<path id="Vector_3" d="M40.7246 16.6697L5.87073 20.8378C5.61311 17.1693 5.18898 13.5095 4.59826 9.87028C4.41995 8.76825 4.22598 7.66819 4.01636 6.57103L6.46529 7.61334L7.25383 7.94841L9.7577 5.47594L12.9953 6.85322L15.4981 4.38075L18.7357 5.75803L21.2385 3.2865L24.4761 4.66284L26.98 2.19038H26.9809L30.2185 3.56766L32.3275 1.485L32.7223 1.09509L35.9608 2.47237L38.4648 0C38.8213 1.86806 39.1427 3.74006 39.4297 5.61694C39.9929 9.28847 40.424 12.9747 40.7246 16.6697Z" fill="#FF526C"/>
<path id="Vector_4" d="M14.6702 32.348V28.7376C14.6702 26.2205 16.323 25.3051 18.484 25.3051C20.6198 25.3051 22.2979 26.2206 22.2979 28.7376V32.348C22.2979 34.8652 20.6197 35.7804 18.484 35.7804C16.323 35.7804 14.6702 34.8651 14.6702 32.348ZM19.7554 28.7375C19.7554 27.8984 19.2724 27.5171 18.484 27.5171C17.6959 27.5171 17.2383 27.8985 17.2383 28.7375V32.3479C17.2383 33.187 17.6959 33.5683 18.484 33.5683C19.2723 33.5683 19.7554 33.1869 19.7554 32.3479V28.7375ZM30.1798 25.6103C30.1798 25.7628 30.1544 25.9407 30.0782 26.0933L21.1283 44.425C20.9503 44.8064 20.4672 45.0607 19.9843 45.0607C19.1198 45.0607 18.5604 44.3487 18.5604 43.7131C18.5604 43.5605 18.6112 43.3826 18.6875 43.2301L27.6118 24.8983C27.8151 24.466 28.222 24.2627 28.6796 24.2627C29.3916 24.2626 30.1798 24.7966 30.1798 25.6103ZM26.3406 40.5351V36.9247C26.3406 34.4075 27.9933 33.4922 30.1545 33.4922C32.2903 33.4922 33.9683 34.4076 33.9683 36.9247V40.5351C33.9683 43.0523 32.2903 43.9675 30.1545 43.9675C27.9932 43.9674 26.3406 43.0521 26.3406 40.5351ZM31.4256 36.9246C31.4256 36.0855 30.9425 35.7041 30.1543 35.7041C29.3661 35.7041 28.9084 36.0856 28.9084 36.9246V40.535C28.9084 41.374 29.3662 41.7553 30.1543 41.7553C30.9424 41.7553 31.4256 41.3739 31.4256 40.535V36.9246Z" fill="#374266"/>
</g>
<defs>
<clipPath id="clip0_303_177">
<rect width="48" height="48" fill="white"/>
</clipPath>
</defs>
</svg>
