<svg width="48" height="48" viewBox="0 0 48 48" fill="none" xmlns="http://www.w3.org/2000/svg">
<g id="donate 1" clip-path="url(#clip0_303_936)">
<g id="Group">
<path id="Vector" d="M48 24C48 28.9705 46.4889 33.5882 43.9012 37.4186C39.5882 43.8026 32.2842 40.6905 24 40.6905C15.8408 40.6905 8.63269 43.9285 4.29628 37.7064C1.58812 33.8205 0 29.0957 0 24C0 10.7452 10.7452 0 24 0C37.2548 0 48 10.7452 48 24Z" fill="#CA245F"/>
<path id="Vector_2" d="M43.7035 4.93226V37.7063C43.1615 38.4841 42.5747 39.2283 41.9466 39.935C37.5506 44.8827 31.1392 42.3739 24.0001 42.3739C16.9243 42.3739 10.5634 44.9378 6.17116 40.0664C5.49869 39.3206 4.87235 38.5323 4.29663 37.7062V4.93226C4.29663 2.97569 5.88288 1.39038 7.83851 1.39038H40.1616C42.1173 1.39038 43.7035 2.97569 43.7035 4.93226Z" fill="#B8BEDE"/>
<path id="Vector_3" d="M21.8799 30.8934C29.0253 30.8934 34.8177 25.1009 34.8177 17.9556C34.8177 10.8103 29.0253 5.01782 21.8799 5.01782C14.7346 5.01782 8.94214 10.8103 8.94214 17.9556C8.94214 25.1009 14.7346 30.8934 21.8799 30.8934Z" fill="#A8ACD3"/>
<path id="Vector_4" d="M41.8285 10.3022V40.0659C41.2379 40.7212 40.6126 41.3437 39.9535 41.9297C35.7141 45.7059 30.1248 42.374 24.0001 42.374C17.8754 42.374 12.286 45.7059 8.04663 41.9297C7.38757 41.3437 6.76226 40.7212 6.17163 40.0659V10.3022C6.17163 9.38342 6.91976 8.63623 7.83851 8.63623H40.1616C41.0804 8.63623 41.8285 9.38342 41.8285 10.3022Z" fill="#D6D8E8"/>
<path id="Vector_5" d="M31.0285 27.104C25.9763 32.1562 17.7844 32.1562 12.7313 27.104C7.67909 22.0519 7.67909 13.86 12.7313 8.80686C12.7885 8.74967 12.8466 8.69248 12.9057 8.63623H30.8541C30.9132 8.69248 30.9713 8.74967 31.0285 8.80686C36.0807 13.86 36.0807 22.0519 31.0285 27.104Z" fill="#B8BEDE"/>
<path id="Vector_6" d="M39.9535 13.2628V41.9297C35.7141 45.7059 30.1248 48 24.0001 48C17.8754 48 12.286 45.7059 8.04663 41.9297V13.2628C8.04663 11.7431 9.27851 10.5112 10.7982 10.5112H37.2019C38.7216 10.5112 39.9535 11.7431 39.9535 13.2628Z" fill="#5E54AC"/>
<path id="Vector_7" d="M31.0284 27.104C25.9762 32.1562 17.7844 32.1562 12.7312 27.104C8.21435 22.5872 7.73529 15.5606 11.2969 10.5112H32.4637C36.0244 15.5606 35.5453 22.5872 31.0284 27.104Z" fill="#453D81"/>
<g id="Group_2">
<path id="Vector_8" d="M7.91769 6.75286C8.88187 6.75286 9.6635 5.97123 9.6635 5.00704C9.6635 4.04286 8.88187 3.26123 7.91769 3.26123C6.9535 3.26123 6.17188 4.04286 6.17188 5.00704C6.17188 5.97123 6.9535 6.75286 7.91769 6.75286Z" fill="#A8ACD3"/>
<path id="Vector_9" d="M12.6377 6.75286C13.6018 6.75286 14.3835 5.97123 14.3835 5.00704C14.3835 4.04286 13.6018 3.26123 12.6377 3.26123C11.6735 3.26123 10.8918 4.04286 10.8918 5.00704C10.8918 5.97123 11.6735 6.75286 12.6377 6.75286Z" fill="#A8ACD3"/>
<path id="Vector_10" d="M17.3576 6.88298C18.3218 6.88298 19.1034 6.10136 19.1034 5.13717C19.1034 4.17298 18.3218 3.39136 17.3576 3.39136C16.3934 3.39136 15.6118 4.17298 15.6118 5.13717C15.6118 6.10136 16.3934 6.88298 17.3576 6.88298Z" fill="#A8ACD3"/>
</g>
<g id="Group_3">
<path id="Vector_11" d="M24 30.8934C31.1454 30.8934 36.9378 25.1009 36.9378 17.9556C36.9378 10.8103 31.1454 5.01782 24 5.01782C16.8547 5.01782 11.0623 10.8103 11.0623 17.9556C11.0623 25.1009 16.8547 30.8934 24 30.8934Z" fill="#EFC64C"/>
<path id="Vector_12" d="M33.7454 26.4654C33.5555 26.6839 33.3564 26.8966 33.1488 27.1042C28.0965 32.1565 19.9049 32.1573 14.8517 27.1042C9.79943 22.0519 9.79943 13.8594 14.8517 8.80707C15.0593 8.59951 15.272 8.40029 15.4905 8.21045C11.0425 13.2915 11.2416 21.0249 16.0863 25.8696C20.9319 30.7151 28.6644 30.9134 33.7454 26.4654Z" fill="#E3A12F"/>
<path id="Vector_13" d="M24.0002 27.3646C29.1965 27.3646 33.409 23.1521 33.409 17.9557C33.409 12.7594 29.1965 8.54688 24.0002 8.54688C18.8038 8.54688 14.5913 12.7594 14.5913 17.9557C14.5913 23.1521 18.8038 27.3646 24.0002 27.3646Z" fill="#E3A12F"/>
<path id="Vector_14" d="M30.6531 11.3026C34.3273 14.9768 34.3273 20.9346 30.6531 24.6089C30.4835 24.7785 30.3088 24.9397 30.1299 25.095C33.3096 21.3988 33.1476 15.8173 29.6429 12.3126C26.1383 8.80798 20.5569 8.64598 16.8606 11.8257C17.0158 11.6468 17.1771 11.4721 17.3467 11.3025C21.021 7.62832 26.9788 7.62832 30.6531 11.3026Z" fill="#DE8635"/>
<path id="Vector_15" d="M23.2481 17.0091C22.3631 17.4318 21.3682 17.961 20.6544 17.961C20.5582 17.961 20.2634 17.8316 20.1038 17.5979C20.0191 17.4739 19.7617 17.0337 20.0058 16.5791C20.506 15.6481 21.3328 15.5461 21.4254 15.5377C21.7374 15.5091 22.01 15.3636 22.2064 15.1495L23.1412 14.2147L22.6137 13.6873L22.4348 13.8662C22.237 13.3883 21.7456 13.0732 21.2035 13.123C20.6903 13.1702 20.0913 13.3492 19.5147 13.6941L19.3154 13.4947L18.5249 12.5706L17.6007 13.4947C17.1272 13.9683 17.1273 14.7359 17.6007 15.2094L17.8542 15.4629C17.2798 16.5602 17.3728 17.8987 18.1013 18.9654C18.7809 19.9608 19.8707 20.4984 20.9453 20.3685C21.9994 20.241 23.1773 19.7302 24.2933 19.1972C25.145 18.7904 25.6447 19.2527 25.8668 19.5646C26.2402 20.0889 26.3477 20.9518 25.701 21.607C25.2728 22.0419 24.2795 22.0183 24.2795 22.0183L23.3395 22.9582C23.0483 23.2381 22.9024 23.6562 22.9912 24.0806C23.1282 24.736 23.7706 25.1563 24.426 25.0194C25.3644 24.8232 25.9566 24.5608 26.5222 24.1307L26.7463 24.3548C27.2198 24.8284 27.9875 24.8284 28.461 24.3548L29.3852 23.4306L28.1469 22.3262C28.8869 20.9029 28.625 19.2575 27.8419 18.1579C26.7794 16.6658 24.9333 16.2041 23.2481 17.0091Z" fill="#DE8635"/>
<path id="Vector_16" d="M24.1723 16.0849C23.2873 16.5076 22.2924 17.0368 21.5786 17.0368C21.4825 17.0368 21.1876 16.9075 21.028 16.6737C20.9433 16.5497 20.6859 16.1096 20.93 15.655C21.4302 14.7239 22.257 14.6219 22.3496 14.6136C23.0164 14.5523 23.5074 13.962 23.446 13.2952C23.3847 12.6283 22.7945 12.1375 22.1276 12.1988C21.6144 12.2459 21.0154 12.4249 20.4388 12.7698L20.2395 12.5705C19.7661 12.0971 18.9984 12.097 18.5248 12.5705C18.0513 13.044 18.0513 13.8117 18.5248 14.2852L18.7783 14.5387C18.2039 15.6359 18.297 16.9745 19.0255 18.0412C19.7051 19.0365 20.7949 19.5742 21.8695 19.4442C22.9235 19.3167 24.1014 18.806 25.2174 18.2729C26.0691 17.8662 26.5688 18.3284 26.7909 18.6403C27.1643 19.1647 27.2716 20.0276 26.625 20.6828C25.9426 21.3759 25.7129 21.5421 24.8539 21.7214C24.1983 21.8585 23.778 22.5009 23.9152 23.1564C24.0522 23.8118 24.6946 24.2321 25.35 24.0951C26.2884 23.8989 26.8806 23.6365 27.4461 23.2064L27.6703 23.4307C28.1439 23.9042 28.9115 23.9042 29.385 23.4307C29.8585 22.9571 29.8585 22.1895 29.385 21.716L29.0709 21.4019C29.8109 19.9786 29.549 18.3331 28.766 17.2336C27.7035 15.7416 25.8575 15.28 24.1723 16.0849Z" fill="#EFC64C"/>
</g>
<path id="Vector_17" d="M36.6786 37.0039C36.6786 37.5721 36.4911 38.0961 36.1752 38.518C36.1021 38.6146 36.0233 38.7055 35.939 38.7899C35.4824 39.2464 34.8505 39.5296 34.153 39.5296H13.7436C12.9168 39.5296 12.1827 39.1321 11.7215 38.518C11.4055 38.0961 11.218 37.5721 11.218 37.0039C11.218 36.3064 11.5011 35.6755 11.9577 35.2189C12.4143 34.7614 13.0461 34.4792 13.7436 34.4792H34.153C35.548 34.4792 36.6786 35.61 36.6786 37.0039Z" fill="#2E4F5F"/>
<path id="Vector_18" d="M36.1754 38.5181C36.1023 38.6147 36.0236 38.7056 35.9392 38.79C35.4826 39.2466 34.8507 39.5297 34.1532 39.5297H13.7439C12.917 39.5297 12.1829 39.1322 11.7217 38.5181C11.7939 38.4216 11.8726 38.3306 11.9579 38.2453C12.4145 37.7878 13.0464 37.5056 13.7439 37.5056H34.1532C34.9811 37.5055 35.7151 37.903 36.1754 38.5181Z" fill="#1F3645"/>
</g>
</g>
<defs>
<clipPath id="clip0_303_936">
<rect width="48" height="48" fill="white"/>
</clipPath>
</defs>
</svg>
