<svg width="48" height="48" viewBox="0 0 48 48" fill="none" xmlns="http://www.w3.org/2000/svg">
<g id="money-transfer 1" clip-path="url(#clip0_303_959)">
<g id="Group">
<path id="Vector" d="M2.93921 43.0744V24.1184C2.93921 21.3982 5.1444 19.1929 7.86474 19.1929H20.9422C23.6625 19.1929 25.8677 21.3981 25.8677 24.1184V43.0744C25.8677 45.7946 23.6625 47.9999 20.9422 47.9999H7.86474C5.1444 47.9999 2.93921 45.7947 2.93921 43.0744Z" fill="#5D84D9"/>
<path id="Vector_2" d="M25.3076 36.5056L25.8678 35.9455V24.1186C25.8678 21.3984 23.6626 19.1931 20.9422 19.1931H14.9938L11.4944 22.6925C9.16789 25.019 9.16789 28.8046 11.4944 31.1312L16.8689 36.5057C19.2012 38.838 22.9756 38.8376 25.3076 36.5056Z" fill="#2E67CF"/>
<path id="Vector_3" d="M8.06022 22.4814C7.04819 22.4814 6.22778 23.3019 6.22778 24.3139V39.7959C6.22778 40.808 7.04819 41.6284 8.06022 41.6284H20.7468C21.7589 41.6284 22.5793 40.808 22.5793 39.7959V38.0647L11.7053 22.4814H8.06022Z" fill="#F8EA69"/>
<path id="Vector_4" d="M22.5792 38.0647V24.3139C22.5792 23.3019 21.7588 22.4814 20.7468 22.4814H11.7052L11.4944 22.6923C9.16789 25.0188 9.16789 28.8044 11.4944 31.131L16.8689 36.5055C18.418 38.0546 20.603 38.5734 22.5792 38.0647Z" fill="#FDC072"/>
<g id="Group_2">
<path id="Vector_5" d="M10.8122 45.5173H9.00464C8.61633 45.5173 8.30151 45.2025 8.30151 44.8142C8.30151 44.4259 8.61633 44.1111 9.00464 44.1111H10.8122C11.2005 44.1111 11.5154 44.4259 11.5154 44.8142C11.5154 45.2025 11.2005 45.5173 10.8122 45.5173Z" fill="white"/>
<path id="Vector_6" d="M19.8025 45.5173H17.9949C17.6066 45.5173 17.2917 45.2025 17.2917 44.8142C17.2917 44.4259 17.6066 44.1111 17.9949 44.1111H19.8025C20.1908 44.1111 20.5056 44.4259 20.5056 44.8142C20.5056 45.2025 20.1908 45.5173 19.8025 45.5173Z" fill="white"/>
</g>
<path id="Vector_7" d="M22.1321 23.8815V4.92553C22.1321 2.20519 24.3374 0 27.0576 0H40.1351C42.8553 0 45.0606 2.20519 45.0606 4.92553V23.8815C45.0606 26.6017 42.8554 28.807 40.1351 28.807H27.0576C24.3374 28.8069 22.1321 26.6017 22.1321 23.8815Z" fill="#5D84D9"/>
<path id="Vector_8" d="M31.131 11.4945C28.7988 9.16215 25.0241 9.16253 22.6922 11.4944L22.1321 12.0545V23.8814C22.1321 26.6016 24.3373 28.8069 27.0576 28.8069H33.0061L36.5056 25.3075C38.832 22.981 38.832 19.1955 36.5055 16.8689L31.131 11.4945Z" fill="#2E67CF"/>
<path id="Vector_9" d="M39.9397 3.28857H27.2531C26.2411 3.28857 25.4207 4.10898 25.4207 5.12101V9.93536C28.1252 12.6398 36.5773 20.9167 38.0962 22.4356H39.9397C40.9517 22.4356 41.7722 21.6152 41.7722 20.6032V5.12101C41.7722 4.10898 40.9517 3.28857 39.9397 3.28857Z" fill="#F8EA69"/>
<path id="Vector_10" d="M31.1311 11.4943C29.5821 9.94522 27.397 9.4265 25.4207 9.93519V20.603C25.4207 21.615 26.2411 22.4354 27.2531 22.4354H38.0962C38.5425 20.4965 38.0131 18.3765 36.5056 16.8689L31.1311 11.4943Z" fill="#FDC072"/>
<g id="Group_3">
<path id="Vector_11" d="M30.0051 26.3245H28.1975C27.8091 26.3245 27.4944 26.0097 27.4944 25.6213C27.4944 25.233 27.8091 24.9182 28.1975 24.9182H30.0051C30.3935 24.9182 30.7082 25.233 30.7082 25.6213C30.7082 26.0097 30.3934 26.3245 30.0051 26.3245Z" fill="white"/>
<path id="Vector_12" d="M38.9953 26.3245H37.1877C36.7993 26.3245 36.4846 26.0097 36.4846 25.6213C36.4846 25.233 36.7993 24.9182 37.1877 24.9182H38.9953C39.3837 24.9182 39.6985 25.233 39.6985 25.6213C39.6985 26.0097 39.3837 26.3245 38.9953 26.3245Z" fill="white"/>
</g>
<path id="Vector_13" d="M34.1486 35.7237L34.6069 36.182C34.7675 36.3426 34.7675 36.6032 34.6069 36.7639L30.5278 40.843C29.8312 41.5396 29.8312 42.669 30.5278 43.3656L32.3008 45.1385C32.9974 45.8351 34.1268 45.8351 34.8233 45.1385L38.9025 41.0595C39.0632 40.8988 39.3237 40.8988 39.4844 41.0595L39.9426 41.5177C40.9726 42.5477 42.7336 41.8182 42.7336 40.3617V34.986C42.7336 33.8521 41.8144 32.9328 40.6804 32.9329H35.3046C33.8481 32.9328 33.1187 34.6938 34.1486 35.7237Z" fill="#5D84D9"/>
<path id="Vector_14" d="M39.4841 41.0595L39.9424 41.5177C40.9047 42.4801 42.5051 41.9061 42.7109 40.6385C40.084 40.4804 36.5661 36.2179 37.7193 32.9329H35.3045C33.848 32.9329 33.1185 34.6939 34.1485 35.7238L34.6067 36.1821C34.7674 36.3427 34.7674 36.6033 34.6067 36.764L30.5275 40.8431C29.831 41.5397 29.831 42.6691 30.5275 43.3656L32.3006 45.1386C32.9971 45.8352 34.1265 45.8352 34.8231 45.1386L38.9022 41.0596C39.0629 40.8988 39.3235 40.8988 39.4841 41.0595Z" fill="#2E67CF"/>
<path id="Vector_15" d="M13.8513 12.2764L13.3931 11.8181C13.2324 11.6574 13.2324 11.3969 13.3931 11.2362L17.4721 7.15706C18.1687 6.4605 18.1687 5.3311 17.4721 4.63453L15.6991 2.86153C15.0026 2.16497 13.8732 2.16497 13.1766 2.86153L9.09745 6.9406C8.93676 7.10128 8.67623 7.10128 8.51554 6.9406L8.05729 6.48235C7.02736 5.45241 5.26636 6.18188 5.26636 7.63838V13.0141C5.26636 14.148 6.18558 15.0672 7.31948 15.0672H12.6952C14.1518 15.0673 14.8813 13.3063 13.8513 12.2764Z" fill="#FF6E80"/>
<g id="Group_4">
<path id="Vector_16" d="M34.3202 19.0542L28.9456 13.6796C27.8223 12.5563 26.001 12.5563 24.8776 13.6796L22.9594 15.5979C20.4195 20.5276 22.3464 29.4795 29.163 28.2793L34.3202 23.1221C35.4435 21.9989 35.4435 20.1776 34.3202 19.0542Z" fill="#38D39A"/>
<path id="Vector_17" d="M22.9595 15.5979L13.6796 24.8777C12.5563 26.0011 12.5563 27.8223 13.6796 28.9457L19.0542 34.3203C20.1775 35.4437 21.9988 35.4437 23.1222 34.3203L29.1632 28.2794C23.6612 27.2352 21.9975 19.5077 22.9595 15.5979Z" fill="#00B662"/>
<path id="Vector_18" d="M26.166 26.1713C27.3168 25.0205 27.2776 23.1155 26.0784 21.9163C24.8792 20.7171 22.9742 20.6779 21.8234 21.8287C20.6726 22.9795 20.7119 24.8845 21.9111 26.0837C23.1102 27.2828 25.0153 27.3221 26.166 26.1713Z" fill="#00B662"/>
<path id="Vector_19" d="M23.0608 21.1042C22.607 21.234 22.182 21.4748 21.8284 21.8285C20.6774 22.9794 20.7167 24.8847 21.9161 26.0841C22.9966 27.1646 24.65 27.303 25.8087 26.4782C24.4079 25.0873 23.5136 23.1073 23.0608 21.1042Z" fill="#008B49"/>
</g>
<path id="Vector_20" d="M14.3935 10.2358C12.9269 9.33959 11.4309 6.8885 11.5773 4.46094L9.0977 6.94053C8.93701 7.10122 8.67648 7.10122 8.51579 6.94053L8.05754 6.48228C7.0276 5.45234 5.2666 6.18181 5.2666 7.63831V13.014C5.2666 14.1479 6.18582 15.0672 7.31973 15.0672H12.6954C14.1519 15.0672 14.8814 13.3062 13.8515 12.2762L13.3932 11.818C13.2325 11.6573 13.2325 11.3967 13.3932 11.2361L14.3935 10.2358Z" fill="#F8475E"/>
<g id="Group_5">
<path id="Vector_21" d="M18.9026 29.8006C18.7227 29.8006 18.5427 29.7319 18.4054 29.5946C18.1308 29.32 18.1308 28.8748 18.4054 28.6003L19.2538 27.7518C19.5284 27.4772 19.9737 27.4772 20.2482 27.7518C20.5228 28.0264 20.5228 28.4717 20.2482 28.7462L19.3997 29.5946C19.2625 29.7319 19.0825 29.8006 18.9026 29.8006Z" fill="#008B49"/>
<path id="Vector_22" d="M28.2486 20.4544C28.0687 20.4544 27.8887 20.3857 27.7514 20.2484C27.4768 19.9738 27.4768 19.5286 27.7514 19.2541L28.5998 18.4057C28.8745 18.1311 29.3196 18.1311 29.5942 18.4057C29.8688 18.6802 29.8688 19.1255 29.5942 19.4L28.7458 20.2484C28.6085 20.3857 28.4285 20.4544 28.2486 20.4544Z" fill="#00B662"/>
</g>
</g>
</g>
<defs>
<clipPath id="clip0_303_959">
<rect width="48" height="48" fill="white"/>
</clipPath>
</defs>
</svg>
