<svg width="144" height="19" viewBox="0 0 144 19" fill="none" xmlns="http://www.w3.org/2000/svg">
<g filter="url(#filter0_iiii_13_1380)">
<path d="M12.8318 3.23118L10.5518 5.00718L10.1438 4.88718C10.0798 4.35918 9.91176 3.85518 9.63976 3.37518C9.38376 2.87918 9.03176 2.47918 8.58376 2.17518C8.13576 1.87118 7.58376 1.71918 6.92776 1.71918C6.15976 1.71918 5.55176 1.95918 5.10376 2.43918C4.65576 2.91918 4.43176 3.48718 4.43176 4.14318C4.43176 4.83118 4.62376 5.42318 5.00776 5.91918C5.39176 6.39918 5.87176 6.82318 6.44776 7.19118C7.02376 7.54318 7.60776 7.87118 8.19976 8.17518C9.14376 8.65518 9.95176 9.12718 10.6238 9.59118C11.3118 10.0392 11.8398 10.5352 12.2078 11.0792C12.5918 11.6232 12.7838 12.2792 12.7838 13.0472C12.7838 13.8632 12.5598 14.6072 12.1118 15.2792C11.6798 15.9512 11.0958 16.5272 10.3598 17.0072C9.63976 17.4872 8.84776 17.8552 7.98376 18.1112C7.13576 18.3672 6.28776 18.4952 5.43976 18.4952C4.46376 18.4952 3.55176 18.2872 2.70376 17.8712C1.85576 17.4552 1.15176 16.8552 0.591764 16.0712L2.91976 13.4552L3.37576 13.6232C3.37576 14.2152 3.51176 14.7992 3.78376 15.3752C4.05576 15.9352 4.44776 16.3992 4.95976 16.7672C5.48776 17.1352 6.10376 17.3192 6.80776 17.3192C7.38376 17.3192 7.90376 17.1832 8.36776 16.9112C8.83176 16.6232 9.19976 16.2552 9.47176 15.8072C9.74376 15.3432 9.87976 14.8632 9.87976 14.3672C9.87976 13.9032 9.75176 13.4872 9.49576 13.1192C9.23976 12.7352 8.93576 12.3832 8.58376 12.0632C8.23176 11.7432 7.77576 11.4312 7.21576 11.1272C6.65576 10.8232 6.06376 10.5032 5.43976 10.1672C4.81576 9.81518 4.22376 9.43118 3.66376 9.01518C3.10376 8.58318 2.64776 8.09518 2.29576 7.55118C1.94376 7.00718 1.76776 6.38318 1.76776 5.67918C1.76776 4.81518 1.94376 4.07118 2.29576 3.44718C2.64776 2.82318 3.11976 2.31918 3.71176 1.93518C4.30376 1.55118 4.96776 1.27118 5.70376 1.09518C6.45576 0.903179 7.22376 0.807178 8.00776 0.807178C9.23976 0.807178 10.2558 0.991179 11.0558 1.35918C11.8718 1.71118 12.4638 2.33518 12.8318 3.23118ZM23.7426 7.23918L25.1826 6.32718L25.5186 6.54318C25.4066 7.63118 25.3106 8.72718 25.2306 9.83118C25.1666 10.9192 25.1346 12.0072 25.1346 13.0952C25.1346 14.1672 25.1666 14.9912 25.2306 15.5672C25.2946 16.1272 25.5266 16.4072 25.9266 16.4072C26.1986 16.4072 26.4866 16.2952 26.7906 16.0712C27.0946 15.8312 27.3666 15.6072 27.6066 15.3992L28.0626 15.9032C27.7426 16.2872 27.3746 16.6792 26.9586 17.0792C26.5586 17.4632 26.1186 17.7912 25.6386 18.0632C25.1586 18.3192 24.6466 18.4472 24.1026 18.4472C23.5586 18.4472 23.1826 18.2712 22.9746 17.9192C22.7826 17.5672 22.6626 17.2152 22.6146 16.8632L22.3026 16.7432C21.6786 17.2072 20.9826 17.6232 20.2146 17.9912C19.4466 18.3432 18.6546 18.5192 17.8386 18.5192C17.1986 18.5192 16.6546 18.3592 16.2066 18.0392C15.7746 17.7192 15.4226 17.3032 15.1506 16.7912C14.8946 16.2792 14.7106 15.7432 14.5986 15.1832C14.4866 14.6072 14.4306 14.0712 14.4306 13.5752C14.4306 11.1432 14.9186 9.31118 15.8946 8.07918C16.8866 6.83118 18.3346 6.20718 20.2386 6.20718C20.8946 6.20718 21.5106 6.30318 22.0866 6.49518C22.6626 6.67118 23.2146 6.91918 23.7426 7.23918ZM22.4706 15.3512C22.5186 14.9992 22.5506 14.5272 22.5666 13.9352C22.5986 13.3272 22.6226 12.6952 22.6386 12.0392C22.6546 11.3672 22.6626 10.7592 22.6626 10.2152C22.6626 9.79918 22.6146 9.35118 22.5186 8.87118C22.4226 8.39118 22.2146 7.98318 21.8946 7.64718C21.5906 7.29518 21.1106 7.11918 20.4546 7.11918C19.7666 7.11918 19.2066 7.30318 18.7746 7.67118C18.3426 8.02318 18.0066 8.48718 17.7666 9.06318C17.5266 9.62318 17.3586 10.2232 17.2626 10.8632C17.1826 11.5032 17.1426 12.0952 17.1426 12.6392C17.1426 13.0552 17.1746 13.4952 17.2386 13.9592C17.3186 14.4232 17.4546 14.8632 17.6466 15.2792C17.8386 15.6792 18.0946 16.0072 18.4146 16.2632C18.7506 16.5192 19.1666 16.6472 19.6626 16.6472C20.2066 16.6472 20.7186 16.5112 21.1986 16.2392C21.6946 15.9672 22.1186 15.6712 22.4706 15.3512ZM33.3103 9.08718C33.3103 9.79118 33.3103 10.5832 33.3103 11.4632C33.3263 12.3432 33.3423 13.2072 33.3583 14.0552C33.3903 14.9032 33.4143 15.6392 33.4303 16.2632C33.4623 16.8872 33.5023 17.2952 33.5503 17.4872L30.9103 18.2552L30.6223 18.0872C30.6383 17.6232 30.6543 17.0872 30.6703 16.4792C30.6863 15.8552 30.7023 15.2312 30.7183 14.6072C30.7343 13.9832 30.7423 13.4072 30.7423 12.8792C30.7583 12.3352 30.7663 11.8952 30.7663 11.5592C30.7823 11.2232 30.7903 11.0552 30.7903 11.0552C30.7903 10.5432 30.7823 10.0552 30.7663 9.59118C30.7503 9.12718 30.6783 8.75118 30.5503 8.46318C30.4223 8.15918 30.1983 8.00718 29.8783 8.00718C29.7183 8.00718 29.5263 8.06318 29.3023 8.17518C29.0783 8.27118 28.8623 8.38318 28.6543 8.51118C28.4623 8.63918 28.3103 8.73518 28.1983 8.79918L27.7663 8.22318C28.1343 7.91918 28.5343 7.61518 28.9663 7.31118C29.3983 7.00718 29.8383 6.75118 30.2863 6.54318C30.7503 6.33518 31.2063 6.23118 31.6543 6.23118C32.2783 6.23118 32.6863 6.40718 32.8783 6.75918C33.0863 7.09518 33.2063 7.47118 33.2383 7.88718L33.5263 7.98318C34.2303 7.55118 34.9983 7.16718 35.8303 6.83118C36.6783 6.47918 37.5023 6.30318 38.3023 6.30318C38.9743 6.30318 39.4783 6.43118 39.8143 6.68718C40.1503 6.94318 40.3823 7.31118 40.5103 7.79118C40.6383 8.25518 40.7023 8.81518 40.7023 9.47118C40.7183 10.1112 40.7263 10.8232 40.7263 11.6072C40.7263 11.9752 40.7103 12.3832 40.6783 12.8312C40.6623 13.2792 40.6543 13.6952 40.6543 14.0792C40.6543 14.7672 40.6863 15.2072 40.7503 15.3992C40.8303 15.5752 40.9263 15.7112 41.0383 15.8072C41.1983 15.9672 41.4223 16.0472 41.7103 16.0472C42.0143 16.0472 42.2943 15.9832 42.5503 15.8552C42.8223 15.7272 43.0783 15.5832 43.3183 15.4232H43.6063L43.8703 15.8312C43.5183 16.1832 43.1263 16.5592 42.6943 16.9592C42.2783 17.3592 41.8463 17.7032 41.3983 17.9912C40.9503 18.2632 40.5023 18.3992 40.0543 18.3992C39.5423 18.3992 39.1103 18.2392 38.7583 17.9192C38.5183 17.6952 38.3583 17.3752 38.2783 16.9592C38.2143 16.5432 38.1823 15.9752 38.1823 15.2552C38.1983 14.5192 38.2063 13.5672 38.2063 12.3992C38.2063 11.9352 38.1983 11.4312 38.1823 10.8872C38.1663 10.3272 38.1103 9.81518 38.0143 9.35118C37.9343 8.88718 37.7823 8.55918 37.5583 8.36718C37.3823 8.19118 37.1743 8.08718 36.9343 8.05518C36.6943 8.00718 36.4543 7.98318 36.2143 7.98318C35.8623 7.98318 35.3983 8.11118 34.8223 8.36718C34.2623 8.60718 33.7583 8.84718 33.3103 9.08718ZM50.6672 2.10318L51.0032 1.88718L55.5872 1.38318L55.8032 1.52718C55.7552 2.21518 55.7152 2.82318 55.6832 3.35118C55.6512 3.86318 55.6192 4.33518 55.5872 4.76718C55.5712 5.19918 55.5552 5.64718 55.5392 6.11118C55.5232 6.57518 55.5152 7.10318 55.5152 7.69518L55.4912 14.7272C55.4912 14.9192 55.5152 15.1432 55.5632 15.3992C55.6112 15.6552 55.6992 15.8792 55.8272 16.0712C55.9552 16.2632 56.1312 16.3592 56.3552 16.3592C56.5792 16.3592 56.8672 16.2552 57.2192 16.0472C57.5712 15.8232 57.8512 15.6312 58.0592 15.4712L58.4672 15.9992C58.1152 16.3512 57.7232 16.7192 57.2912 17.1032C56.8752 17.4712 56.4272 17.7832 55.9472 18.0392C55.4832 18.2952 55.0032 18.4232 54.5072 18.4232C53.9632 18.4232 53.5712 18.2312 53.3312 17.8472C53.1072 17.4472 52.9792 17.0312 52.9472 16.5992C52.2912 17.0472 51.5632 17.4632 50.7632 17.8472C49.9792 18.2152 49.1712 18.3992 48.3392 18.3992C47.6032 18.3992 46.9792 18.2472 46.4672 17.9432C45.9712 17.6392 45.5712 17.2392 45.2672 16.7432C44.9792 16.2472 44.7712 15.7192 44.6432 15.1592C44.5152 14.5992 44.4512 14.0552 44.4512 13.5272C44.4512 12.1032 44.6992 10.8472 45.1952 9.75918C45.7072 8.67118 46.4192 7.82318 47.3312 7.21518C48.2592 6.59118 49.3552 6.27918 50.6192 6.27918C50.9872 6.27918 51.3552 6.29518 51.7232 6.32718C52.0912 6.35918 52.4512 6.43918 52.8032 6.56718L52.9712 6.44718V4.21518C52.9712 3.76718 52.8912 3.45518 52.7312 3.27918C52.5712 3.08718 52.3152 2.95918 51.9632 2.89518C51.6272 2.81518 51.1952 2.74318 50.6672 2.67918V2.10318ZM52.9712 15.4472V9.47118C52.9712 8.52718 52.7952 7.91918 52.4432 7.64718C52.1072 7.35918 51.6592 7.21518 51.0992 7.21518C50.3792 7.21518 49.7792 7.38318 49.2992 7.71918C48.8192 8.05518 48.4352 8.48718 48.1472 9.01518C47.8752 9.54318 47.6832 10.1192 47.5712 10.7432C47.4592 11.3512 47.4032 11.9352 47.4032 12.4952C47.4032 12.9432 47.4352 13.4072 47.4992 13.8872C47.5792 14.3672 47.7152 14.8152 47.9072 15.2312C48.1152 15.6472 48.3952 15.9912 48.7472 16.2632C49.0992 16.5192 49.5552 16.6472 50.1152 16.6472C50.6912 16.6472 51.2112 16.5272 51.6752 16.2872C52.1392 16.0312 52.5712 15.7512 52.9712 15.4472ZM67.8368 7.93518L66.0848 9.71118L65.7248 9.61518C65.6768 9.23118 65.5568 8.85518 65.3648 8.48718C65.1888 8.11918 64.9408 7.81518 64.6208 7.57518C64.3008 7.31918 63.8848 7.19118 63.3728 7.19118C62.8288 7.19118 62.4288 7.35118 62.1728 7.67118C61.9328 7.97518 61.8128 8.39118 61.8128 8.91918C61.8128 9.38318 61.9728 9.79118 62.2928 10.1432C62.6288 10.4792 63.0288 10.7672 63.4928 11.0072C63.9728 11.2472 64.4128 11.4632 64.8128 11.6552C65.5488 11.9912 66.1488 12.3032 66.6128 12.5912C67.0768 12.8792 67.4208 13.1992 67.6448 13.5512C67.8688 13.8872 67.9808 14.3192 67.9808 14.8472C67.9808 15.4712 67.8208 16.0152 67.5008 16.4792C67.1968 16.9432 66.7888 17.3272 66.2768 17.6312C65.7648 17.9352 65.1968 18.1592 64.5728 18.3032C63.9648 18.4472 63.3648 18.5192 62.7728 18.5192C61.9888 18.5192 61.2368 18.4072 60.5168 18.1832C59.8128 17.9592 59.1808 17.5352 58.6208 16.9112L60.1328 14.6552L60.4928 14.6792C60.6208 15.1272 60.7808 15.5832 60.9728 16.0472C61.1808 16.4952 61.4688 16.8712 61.8368 17.1752C62.2048 17.4792 62.6928 17.6312 63.3008 17.6312C63.8288 17.6312 64.2928 17.4792 64.6928 17.1752C65.0928 16.8552 65.2928 16.4232 65.2928 15.8792C65.2928 15.6552 65.2448 15.4552 65.1488 15.2792C65.0528 15.1032 64.9168 14.9352 64.7408 14.7752C64.5008 14.5512 64.1648 14.3352 63.7328 14.1272C63.3008 13.9192 62.8448 13.6952 62.3648 13.4552C61.8848 13.2152 61.4208 12.9512 60.9728 12.6632C60.5408 12.3592 60.1808 12.0152 59.8928 11.6312C59.6208 11.2312 59.4848 10.7592 59.4848 10.2152C59.4848 9.30318 59.7088 8.55918 60.1568 7.98318C60.6208 7.40718 61.2128 6.98318 61.9328 6.71118C62.6688 6.43918 63.4448 6.30318 64.2608 6.30318C64.9648 6.30318 65.6448 6.39918 66.3008 6.59118C66.9728 6.78318 67.4848 7.23118 67.8368 7.93518Z" fill="#E9D1A2"/>
</g>
<g filter="url(#filter1_iiii_13_1380)">
<path d="M88.0128 4.87418L86.0388 6.68018L85.7028 6.61718C85.5488 6.01518 85.3108 5.45518 84.9888 4.93718C84.6808 4.40518 84.2678 3.97818 83.7498 3.65618C83.2318 3.33418 82.5808 3.17318 81.7968 3.17318C80.9008 3.17318 80.1518 3.38318 79.5498 3.80318C78.9478 4.20918 78.4718 4.74118 78.1218 5.39918C77.7718 6.05718 77.5198 6.75718 77.3658 7.49918C77.2118 8.24118 77.1348 8.94118 77.1348 9.59918C77.1348 10.3412 77.2328 11.1042 77.4288 11.8882C77.6388 12.6582 77.9608 13.3792 78.3948 14.0512C78.8288 14.7092 79.3958 15.2412 80.0958 15.6472C80.7958 16.0532 81.6358 16.2562 82.6158 16.2562C83.4698 16.2562 84.2958 16.1232 85.0938 15.8572C85.9058 15.5912 86.6758 15.2832 87.4038 14.9332L87.8448 15.4582C86.9628 16.0742 86.0038 16.5782 84.9678 16.9702C83.9458 17.3482 82.8748 17.5372 81.7548 17.5372C80.3128 17.5372 79.0948 17.3342 78.1008 16.9282C77.1208 16.5222 76.3298 15.9692 75.7278 15.2692C75.1398 14.5692 74.7128 13.7852 74.4468 12.9172C74.1808 12.0352 74.0478 11.1322 74.0478 10.2082C74.0478 9.17218 74.2088 8.15018 74.5308 7.14218C74.8528 6.13418 75.4268 5.25218 76.2528 4.49618C77.0648 3.75418 77.9958 3.19418 79.0458 2.81618C80.1098 2.42418 81.2158 2.22818 82.3638 2.22818C83.6938 2.22818 84.8138 2.43118 85.7238 2.83718C86.6338 3.22918 87.3968 3.90818 88.0128 4.87418ZM97.246 7.60418L98.506 6.80618L98.8 6.99518C98.702 7.94718 98.618 8.90618 98.548 9.87218C98.492 10.8242 98.464 11.7762 98.464 12.7282C98.464 13.6662 98.492 14.3872 98.548 14.8912C98.604 15.3812 98.807 15.6262 99.157 15.6262C99.395 15.6262 99.647 15.5282 99.913 15.3322C100.179 15.1222 100.417 14.9262 100.627 14.7442L101.026 15.1852C100.746 15.5212 100.424 15.8642 100.06 16.2142C99.71 16.5502 99.325 16.8372 98.905 17.0752C98.485 17.2992 98.037 17.4112 97.561 17.4112C97.085 17.4112 96.756 17.2572 96.574 16.9492C96.406 16.6412 96.301 16.3332 96.259 16.0252L95.986 15.9202C95.44 16.3262 94.831 16.6902 94.159 17.0122C93.487 17.3202 92.794 17.4742 92.08 17.4742C91.52 17.4742 91.044 17.3342 90.652 17.0542C90.274 16.7742 89.966 16.4102 89.728 15.9622C89.504 15.5142 89.343 15.0452 89.245 14.5552C89.147 14.0512 89.098 13.5822 89.098 13.1482C89.098 11.0202 89.525 9.41718 90.379 8.33918C91.247 7.24718 92.514 6.70118 94.18 6.70118C94.754 6.70118 95.293 6.78518 95.797 6.95318C96.301 7.10718 96.784 7.32418 97.246 7.60418ZM96.133 14.7022C96.175 14.3942 96.203 13.9812 96.217 13.4632C96.245 12.9312 96.266 12.3782 96.28 11.8042C96.294 11.2162 96.301 10.6842 96.301 10.2082C96.301 9.84418 96.259 9.45218 96.175 9.03218C96.091 8.61218 95.909 8.25518 95.629 7.96118C95.363 7.65318 94.943 7.49918 94.369 7.49918C93.767 7.49918 93.277 7.66018 92.899 7.98218C92.521 8.29018 92.227 8.69618 92.017 9.20018C91.807 9.69018 91.66 10.2152 91.576 10.7752C91.506 11.3352 91.471 11.8532 91.471 12.3292C91.471 12.6932 91.499 13.0782 91.555 13.4842C91.625 13.8902 91.744 14.2752 91.912 14.6392C92.08 14.9892 92.304 15.2762 92.584 15.5002C92.878 15.7242 93.242 15.8362 93.676 15.8362C94.152 15.8362 94.6 15.7172 95.02 15.4792C95.454 15.2412 95.825 14.9822 96.133 14.7022ZM109.23 8.21318L107.697 9.76718L107.382 9.68318C107.34 9.34718 107.235 9.01818 107.067 8.69618C106.913 8.37418 106.696 8.10818 106.416 7.89818C106.136 7.67418 105.772 7.56218 105.324 7.56218C104.848 7.56218 104.498 7.70218 104.274 7.98218C104.064 8.24818 103.959 8.61218 103.959 9.07418C103.959 9.48018 104.099 9.83718 104.379 10.1452C104.673 10.4392 105.023 10.6912 105.429 10.9012C105.849 11.1112 106.234 11.3002 106.584 11.4682C107.228 11.7622 107.753 12.0352 108.159 12.2872C108.565 12.5392 108.866 12.8192 109.062 13.1272C109.258 13.4212 109.356 13.7992 109.356 14.2612C109.356 14.8072 109.216 15.2832 108.936 15.6892C108.67 16.0952 108.313 16.4312 107.865 16.6972C107.417 16.9632 106.92 17.1592 106.374 17.2852C105.842 17.4112 105.317 17.4742 104.799 17.4742C104.113 17.4742 103.455 17.3762 102.825 17.1802C102.209 16.9842 101.656 16.6132 101.166 16.0672L102.489 14.0932L102.804 14.1142C102.916 14.5062 103.056 14.9052 103.224 15.3112C103.406 15.7032 103.658 16.0322 103.98 16.2982C104.302 16.5642 104.729 16.6972 105.261 16.6972C105.723 16.6972 106.129 16.5642 106.479 16.2982C106.829 16.0182 107.004 15.6402 107.004 15.1642C107.004 14.9682 106.962 14.7932 106.878 14.6392C106.794 14.4852 106.675 14.3382 106.521 14.1982C106.311 14.0022 106.017 13.8132 105.639 13.6312C105.261 13.4492 104.862 13.2532 104.442 13.0432C104.022 12.8332 103.616 12.6022 103.224 12.3502C102.846 12.0842 102.531 11.7832 102.279 11.4472C102.041 11.0972 101.922 10.6842 101.922 10.2082C101.922 9.41018 102.118 8.75918 102.51 8.25518C102.916 7.75118 103.434 7.38018 104.064 7.14218C104.708 6.90418 105.387 6.78518 106.101 6.78518C106.717 6.78518 107.312 6.86918 107.886 7.03718C108.474 7.20518 108.922 7.59718 109.23 8.21318ZM111.894 4.11818C111.894 3.74018 112.027 3.41818 112.293 3.15218C112.573 2.87218 112.902 2.73218 113.28 2.73218C113.658 2.73218 113.98 2.87218 114.246 3.15218C114.526 3.41818 114.666 3.74018 114.666 4.11818C114.666 4.49618 114.526 4.82518 114.246 5.10518C113.98 5.37118 113.658 5.50418 113.28 5.50418C112.902 5.50418 112.573 5.37118 112.293 5.10518C112.027 4.82518 111.894 4.49618 111.894 4.11818ZM116.745 14.6602L117.102 14.9962V15.2272C116.836 15.5492 116.528 15.8852 116.178 16.2352C115.828 16.5712 115.45 16.8582 115.044 17.0962C114.652 17.3202 114.246 17.4322 113.826 17.4322C113.574 17.4322 113.336 17.3762 113.112 17.2642C112.888 17.1662 112.706 17.0262 112.566 16.8442C112.384 16.5922 112.265 16.2842 112.209 15.9202C112.153 15.5562 112.132 15.0522 112.146 14.4082C112.16 13.7502 112.167 12.8892 112.167 11.8252V9.36818C112.153 9.14418 112.097 8.92018 111.999 8.69618C111.915 8.45818 111.726 8.33918 111.432 8.33918C111.208 8.33918 110.97 8.40918 110.718 8.54918C110.48 8.67518 110.235 8.82918 109.983 9.01118L109.647 8.54918C109.969 8.28318 110.319 8.01718 110.697 7.75118C111.089 7.48518 111.488 7.26118 111.894 7.07918C112.3 6.89718 112.706 6.80618 113.112 6.80618C113.322 6.80618 113.525 6.84818 113.721 6.93218C113.917 7.00218 114.064 7.12118 114.162 7.28918C114.246 7.42918 114.309 7.60418 114.351 7.81418C114.393 8.02418 114.414 8.43718 114.414 9.05318C114.414 9.47318 114.4 9.90018 114.372 10.3342C114.358 10.7542 114.351 11.1742 114.351 11.5942C114.351 12.4482 114.344 13.1762 114.33 13.7782C114.33 14.3802 114.393 14.8422 114.519 15.1642C114.645 15.4862 114.89 15.6472 115.254 15.6472C115.506 15.6472 115.765 15.5352 116.031 15.3112C116.297 15.0872 116.535 14.8702 116.745 14.6602ZM121.716 9.22118C121.716 9.83718 121.716 10.5302 121.716 11.3002C121.73 12.0702 121.744 12.8262 121.758 13.5682C121.786 14.3102 121.807 14.9542 121.821 15.5002C121.849 16.0462 121.884 16.4032 121.926 16.5712L119.616 17.2432L119.364 17.0962C119.378 16.6902 119.392 16.2212 119.406 15.6892C119.42 15.1432 119.434 14.5972 119.448 14.0512C119.462 13.5052 119.469 13.0012 119.469 12.5392C119.483 12.0632 119.49 11.6782 119.49 11.3842C119.504 11.0902 119.511 10.9432 119.511 10.9432C119.511 10.4952 119.504 10.0682 119.49 9.66218C119.476 9.25618 119.413 8.92718 119.301 8.67518C119.189 8.40918 118.993 8.27618 118.713 8.27618C118.573 8.27618 118.405 8.32518 118.209 8.42318C118.013 8.50718 117.824 8.60518 117.642 8.71718C117.474 8.82918 117.341 8.91318 117.243 8.96918L116.865 8.46518C117.187 8.19918 117.537 7.93318 117.915 7.66718C118.293 7.40118 118.678 7.17718 119.07 6.99518C119.476 6.81318 119.875 6.72218 120.267 6.72218C120.813 6.72218 121.17 6.87618 121.338 7.18418C121.52 7.47818 121.625 7.80718 121.653 8.17118L121.905 8.25518C122.521 7.87718 123.193 7.54118 123.921 7.24718C124.663 6.93918 125.384 6.78518 126.084 6.78518C126.672 6.78518 127.113 6.89718 127.407 7.12118C127.701 7.34518 127.904 7.66718 128.016 8.08718C128.128 8.49318 128.184 8.98318 128.184 9.55718C128.198 10.1172 128.205 10.7402 128.205 11.4262C128.205 11.7482 128.191 12.1052 128.163 12.4972C128.149 12.8892 128.142 13.2532 128.142 13.5892C128.142 14.1912 128.17 14.5762 128.226 14.7442C128.296 14.8982 128.38 15.0172 128.478 15.1012C128.618 15.2412 128.814 15.3112 129.066 15.3112C129.332 15.3112 129.577 15.2552 129.801 15.1432C130.039 15.0312 130.263 14.9052 130.473 14.7652H130.725L130.956 15.1222C130.648 15.4302 130.305 15.7592 129.927 16.1092C129.563 16.4592 129.185 16.7602 128.793 17.0122C128.401 17.2502 128.009 17.3692 127.617 17.3692C127.169 17.3692 126.791 17.2292 126.483 16.9492C126.273 16.7532 126.133 16.4732 126.063 16.1092C126.007 15.7452 125.979 15.2482 125.979 14.6182C125.993 13.9742 126 13.1412 126 12.1192C126 11.7132 125.993 11.2722 125.979 10.7962C125.965 10.3062 125.916 9.85818 125.832 9.45218C125.762 9.04618 125.629 8.75918 125.433 8.59118C125.279 8.43718 125.097 8.34618 124.887 8.31818C124.677 8.27618 124.467 8.25518 124.257 8.25518C123.949 8.25518 123.543 8.36718 123.039 8.59118C122.549 8.80118 122.108 9.01118 121.716 9.22118ZM133.019 16.3822C132.431 15.8502 132.032 15.2202 131.822 14.4922C131.612 13.7502 131.507 13.0082 131.507 12.2662C131.507 11.2442 131.745 10.3342 132.221 9.53618C132.711 8.73818 133.376 8.10818 134.216 7.64618C135.056 7.18418 136.022 6.95318 137.114 6.95318C137.786 6.95318 138.451 7.03718 139.109 7.20518C139.767 7.35918 140.341 7.66018 140.831 8.10818C141.321 8.54218 141.678 9.04618 141.902 9.62018C142.126 10.1942 142.238 10.7892 142.238 11.4052C142.238 12.8472 141.979 14.0092 141.461 14.8912C140.943 15.7592 140.257 16.3962 139.403 16.8022C138.549 17.1942 137.604 17.3902 136.568 17.3902C135.924 17.3902 135.287 17.3272 134.657 17.2012C134.027 17.0752 133.481 16.8022 133.019 16.3822ZM136.988 7.79318C136.442 7.79318 135.987 7.94018 135.623 8.23418C135.259 8.51418 134.972 8.88518 134.762 9.34718C134.566 9.79518 134.426 10.2782 134.342 10.7962C134.258 11.3002 134.216 11.7832 134.216 12.2452C134.216 12.5952 134.251 13.0152 134.321 13.5052C134.391 13.9812 134.517 14.4502 134.699 14.9122C134.881 15.3742 135.133 15.7592 135.455 16.0672C135.791 16.3752 136.218 16.5292 136.736 16.5292C137.408 16.5292 137.933 16.3822 138.311 16.0882C138.689 15.7942 138.962 15.4022 139.13 14.9122C139.312 14.4222 139.424 13.8832 139.466 13.2952C139.508 12.7072 139.529 12.1192 139.529 11.5312C139.529 10.9292 139.452 10.3482 139.298 9.78818C139.158 9.21418 138.899 8.73818 138.521 8.36018C138.157 7.98218 137.646 7.79318 136.988 7.79318Z" fill="#FF0202"/>
</g>
<defs>
<filter id="filter0_iiii_13_1380" x="0.591797" y="0.807129" width="67.3889" height="17.7122" filterUnits="userSpaceOnUse" color-interpolation-filters="sRGB">
<feFlood flood-opacity="0" result="BackgroundImageFix"/>
<feBlend mode="normal" in="SourceGraphic" in2="BackgroundImageFix" result="shape"/>
<feColorMatrix in="SourceAlpha" type="matrix" values="0 0 0 0 0 0 0 0 0 0 0 0 0 0 0 0 0 0 127 0" result="hardAlpha"/>
<feOffset dx="-0.4"/>
<feComposite in2="hardAlpha" operator="arithmetic" k2="-1" k3="1"/>
<feColorMatrix type="matrix" values="0 0 0 0 1 0 0 0 0 0.906124 0 0 0 0 0.645833 0 0 0 1 0"/>
<feBlend mode="normal" in2="shape" result="effect1_innerShadow_13_1380"/>
<feColorMatrix in="SourceAlpha" type="matrix" values="0 0 0 0 0 0 0 0 0 0 0 0 0 0 0 0 0 0 127 0" result="hardAlpha"/>
<feOffset dx="0.5"/>
<feComposite in2="hardAlpha" operator="arithmetic" k2="-1" k3="1"/>
<feColorMatrix type="matrix" values="0 0 0 0 0.941176 0 0 0 0 0.858824 0 0 0 0 0.615686 0 0 0 1 0"/>
<feBlend mode="normal" in2="effect1_innerShadow_13_1380" result="effect2_innerShadow_13_1380"/>
<feColorMatrix in="SourceAlpha" type="matrix" values="0 0 0 0 0 0 0 0 0 0 0 0 0 0 0 0 0 0 127 0" result="hardAlpha"/>
<feOffset dy="-0.3"/>
<feComposite in2="hardAlpha" operator="arithmetic" k2="-1" k3="1"/>
<feColorMatrix type="matrix" values="0 0 0 0 0.458333 0 0 0 0 0.387037 0 0 0 0 0.244444 0 0 0 1 0"/>
<feBlend mode="normal" in2="effect2_innerShadow_13_1380" result="effect3_innerShadow_13_1380"/>
<feColorMatrix in="SourceAlpha" type="matrix" values="0 0 0 0 0 0 0 0 0 0 0 0 0 0 0 0 0 0 127 0" result="hardAlpha"/>
<feOffset dy="0.2"/>
<feComposite in2="hardAlpha" operator="arithmetic" k2="-1" k3="1"/>
<feColorMatrix type="matrix" values="0 0 0 0 0.745098 0 0 0 0 0.678431 0 0 0 0 0.494118 0 0 0 1 0"/>
<feBlend mode="normal" in2="effect3_innerShadow_13_1380" result="effect4_innerShadow_13_1380"/>
</filter>
<filter id="filter1_iiii_13_1380" x="74.0477" y="2.22827" width="68.1899" height="15.3088" filterUnits="userSpaceOnUse" color-interpolation-filters="sRGB">
<feFlood flood-opacity="0" result="BackgroundImageFix"/>
<feBlend mode="normal" in="SourceGraphic" in2="BackgroundImageFix" result="shape"/>
<feColorMatrix in="SourceAlpha" type="matrix" values="0 0 0 0 0 0 0 0 0 0 0 0 0 0 0 0 0 0 127 0" result="hardAlpha"/>
<feOffset dx="-0.4"/>
<feComposite in2="hardAlpha" operator="arithmetic" k2="-1" k3="1"/>
<feColorMatrix type="matrix" values="0 0 0 0 1 0 0 0 0 1 0 0 0 0 1 0 0 0 1 0"/>
<feBlend mode="normal" in2="shape" result="effect1_innerShadow_13_1380"/>
<feColorMatrix in="SourceAlpha" type="matrix" values="0 0 0 0 0 0 0 0 0 0 0 0 0 0 0 0 0 0 127 0" result="hardAlpha"/>
<feOffset dx="0.5"/>
<feComposite in2="hardAlpha" operator="arithmetic" k2="-1" k3="1"/>
<feColorMatrix type="matrix" values="0 0 0 0 0.941176 0 0 0 0 0.615686 0 0 0 0 0.615686 0 0 0 1 0"/>
<feBlend mode="normal" in2="effect1_innerShadow_13_1380" result="effect2_innerShadow_13_1380"/>
<feColorMatrix in="SourceAlpha" type="matrix" values="0 0 0 0 0 0 0 0 0 0 0 0 0 0 0 0 0 0 127 0" result="hardAlpha"/>
<feOffset dy="-0.3"/>
<feComposite in2="hardAlpha" operator="arithmetic" k2="-1" k3="1"/>
<feColorMatrix type="matrix" values="0 0 0 0 0.458333 0 0 0 0 0.244444 0 0 0 0 0.244444 0 0 0 1 0"/>
<feBlend mode="normal" in2="effect2_innerShadow_13_1380" result="effect3_innerShadow_13_1380"/>
<feColorMatrix in="SourceAlpha" type="matrix" values="0 0 0 0 0 0 0 0 0 0 0 0 0 0 0 0 0 0 127 0" result="hardAlpha"/>
<feOffset dy="0.2"/>
<feComposite in2="hardAlpha" operator="arithmetic" k2="-1" k3="1"/>
<feColorMatrix type="matrix" values="0 0 0 0 0.745098 0 0 0 0 0.494118 0 0 0 0 0.494118 0 0 0 1 0"/>
<feBlend mode="normal" in2="effect3_innerShadow_13_1380" result="effect4_innerShadow_13_1380"/>
</filter>
</defs>
</svg>
