<svg width="56" height="56" viewBox="0 0 56 56" fill="none" xmlns="http://www.w3.org/2000/svg">
<g id="AhnLab_V3_logo 1" clip-path="url(#clip0_382_3736)">
<g id="Group">
<path id="Vector" d="M1.08853 55.6054L27.947 28.7885H38.0712C39.3523 28.7885 38.6892 29.5426 38.1574 30.0702L29.0229 39.1329C28.8482 39.4143 28.9112 39.6046 29.1382 39.7321L39.2057 39.9292C39.5863 39.9367 39.6137 40.6043 39.3399 40.8777L24.8294 55.3687C24.5034 55.6942 24.6872 55.9996 25.0719 55.9996H38.0227L52.7207 41.3094C55.4239 38.6076 53.4863 34.5066 49.4785 34.5066H45.6321C45.1848 34.5066 45.022 33.8295 45.3736 33.4782L55.9518 22.9116C56.067 22.6342 55.9785 22.4268 55.7096 22.2812H34.7624C34.6025 22.2812 34.5892 22.157 34.7624 21.9841L55.8952 0.887477C56.0574 0.771709 56.1466 -0.0294237 55.2704 -0.00122648H41.3851L12.4865 28.8407C12.0785 29.2479 11.4572 29.3255 11.4572 28.5828V0.618322C11.4572 0.247815 11.2511 -0.00173947 10.8368 -0.00173947L0.626904 -0.00136638C0.167788 -0.00135061 -0.00344763 0.255425 0.00208246 0.618321V55.3406C0.00208246 56.0955 0.47925 56.2127 1.08942 55.6035L1.08853 55.6054Z" fill="#16A0E8"/>
</g>
</g>
<defs>
<clipPath id="clip0_382_3736">
<rect width="56" height="56" fill="white"/>
</clipPath>
</defs>
</svg>
