<svg width="40" height="40" viewBox="0 0 40 40" fill="none" xmlns="http://www.w3.org/2000/svg">
<g clip-path="url(#clip0_122_427)">
<path d="M29.4359 30.8824C29.3002 31.0176 29.1358 31.1196 28.9441 31.1895L28.7506 31.2476C28.7506 31.2476 2.66005 41.7745 0.631342 39.7384C-1.39736 37.7023 9.22444 11.6503 9.22444 11.6503L9.28327 11.457C9.35385 11.2655 9.45652 11.1015 9.59221 10.9663C11.2152 9.34918 16.9735 12.4963 22.4531 17.9959C27.9327 23.4955 31.0589 29.2653 29.4359 30.8824Z" fill="url(#paint0_linear_122_427)"/>
<path d="M27.8125 31.6218C26.4394 32.1663 23.6901 33.244 20.4437 34.4504C18.4581 35.1885 16.2864 35.9747 14.1299 36.7156C12.2455 37.3632 10.3723 37.9775 8.64624 38.4951C7.46036 37.4984 6.28185 36.4175 5.12726 35.2588C3.97267 34.1 2.89612 32.9175 1.90381 31.728C2.42765 30.0039 3.04875 28.1329 3.70326 26.2508C4.45204 24.097 5.24616 21.9282 5.99149 19.9454C7.20969 16.7034 8.29746 13.9581 8.84687 12.5869C12.3476 14.4853 16.0884 17.2927 19.6107 20.8279C23.1331 24.3632 25.9269 28.1142 27.8125 31.6218Z" fill="url(#paint1_linear_122_427)"/>
<path d="M29.4358 30.8821C29.3004 31.0178 29.1356 31.1193 28.9439 31.1897L28.7507 31.2473C28.7507 31.2473 28.4133 31.3834 27.8127 31.6216C26.4396 32.1661 23.6903 33.2438 20.4438 34.4501C18.4583 35.1883 16.2866 35.9744 14.1301 36.7154C12.2558 35.3017 10.3771 33.6686 8.55678 31.8417C6.73647 30.0147 5.11027 28.1301 3.70337 26.2506C4.45215 24.0968 5.24627 21.928 5.9916 19.9452C7.2098 16.7032 8.29756 13.9578 8.84698 12.5867C9.08737 11.9869 9.2247 11.6501 9.2247 11.6501L9.28306 11.457C9.35419 11.2656 9.45623 11.1012 9.59239 10.9663C11.2154 9.34912 16.9732 12.4965 22.4532 17.9956C27.9325 23.4958 31.0588 29.265 29.4358 30.8821Z" fill="url(#paint2_linear_122_427)"/>
<path d="M29.4358 30.8821C29.3004 31.0177 29.1356 31.1192 28.9439 31.1896L28.7507 31.2472C28.7507 31.2472 28.4133 31.3833 27.8127 31.6215C26.4396 32.166 23.6903 33.2437 20.4439 34.4501C17.8014 32.7098 15.0946 30.5045 12.5062 27.9066C9.91782 25.3087 7.72229 22.5939 5.9917 19.9452C7.2099 16.7032 8.29766 13.9578 8.84707 12.5867C9.08746 11.9869 9.2248 11.6501 9.2248 11.6501L9.28315 11.457C9.35429 11.2656 9.45633 11.1012 9.59248 10.9663C11.2155 9.34912 16.9733 12.4965 22.4533 17.9956C27.9325 23.4957 31.0588 29.2649 29.4358 30.8821Z" fill="url(#paint3_linear_122_427)"/>
<path d="M29.4357 30.8825C27.8124 32.4999 22.0542 29.3528 16.5746 23.8531C11.095 18.3534 7.9687 12.5839 9.592 10.9664C11.2153 9.34895 16.9735 12.4962 22.4531 17.9959C27.9327 23.4955 31.059 29.2651 29.4357 30.8825Z" fill="url(#paint4_linear_122_427)"/>
<path d="M28.4239 29.4001C27.2247 30.595 22.3678 27.6648 17.5759 22.8554C12.784 18.046 9.8715 13.1786 11.0707 11.9837C12.2699 10.7887 17.1268 13.7189 21.9187 18.5284C26.7106 23.3378 29.6232 28.2052 28.4239 29.4001Z" fill="url(#paint5_linear_122_427)"/>
<path d="M29.4357 30.8827C31.0587 29.2656 27.9326 23.4959 22.4529 17.9963C19.2398 14.7715 15.9313 12.3562 13.4165 11.2354C13.5147 11.4161 13.6243 11.5952 13.7467 11.7718C13.9457 12.0589 14.1786 12.3205 14.4409 12.5565L15.8323 13.9575C15.672 14.0303 15.5246 14.0879 15.4007 14.1316C15.1788 14.2098 15.0489 14.4393 15.0953 14.6699L15.5877 17.1157C15.6312 17.3319 15.7829 17.4961 15.9725 17.5679L29.3313 30.9754C29.3677 30.9465 29.4026 30.9157 29.4357 30.8827Z" fill="url(#paint6_linear_122_427)"/>
<path d="M20.5534 23.2837L21.9198 24.9172L28.2851 31.3056C28.7716 31.2919 29.1625 31.1552 29.4358 30.8829C30.8543 29.4695 28.6459 24.8855 24.4096 20.0815C23.0896 20.6328 21.8311 21.3545 20.669 22.2418C20.3407 22.4923 20.2884 22.9669 20.5534 23.2837Z" fill="url(#paint7_linear_122_427)"/>
<path d="M21.9199 24.9173L20.5534 23.2838C20.2884 22.9671 20.3407 22.4925 20.669 22.2419C24.9037 19.0088 30.412 17.9587 35.5564 19.4383C36.8511 19.8106 38.0909 20.3327 39.2514 20.9936C39.6104 21.1981 39.7254 21.6617 39.5049 22.0111L38.3681 23.8119C38.162 24.1384 37.7368 24.2451 37.4 24.0564C36.5093 23.5574 35.5594 23.1614 34.5677 22.8762C30.5446 21.7191 26.2387 22.5265 22.9117 25.0308C22.6033 25.2629 22.1675 25.2133 21.9199 24.9173Z" fill="url(#paint8_linear_122_427)"/>
<path d="M10.112 7.95837L8.87128 6.68174C8.30893 6.10307 8.13959 5.17162 8.46798 4.46339C8.84924 3.64103 9.76422 3.40002 10.5012 3.92778C11.1359 4.38237 11.4474 5.27633 11.2431 6.05696L10.7925 7.77915C10.7128 8.08347 10.3313 8.18402 10.112 7.95837Z" fill="url(#paint9_linear_122_427)"/>
<path d="M7.91748 9.3448L6.15575 9.0888C5.35725 8.9728 4.65528 8.33751 4.48399 7.57586C4.28509 6.69147 4.8636 5.94277 5.76948 5.9121C6.54972 5.88567 7.34156 6.40449 7.65536 7.14794L8.34768 8.78802C8.47011 9.07782 8.22877 9.39006 7.91748 9.3448Z" fill="url(#paint10_linear_122_427)"/>
<path d="M31.505 29.8234L33.278 29.6629C34.0816 29.5902 34.9119 30.0448 35.2556 30.7459C35.6545 31.5597 35.2659 32.4224 34.392 32.6629C33.6392 32.8699 32.7485 32.5493 32.2705 31.8992L31.2159 30.4649C31.0297 30.2114 31.1917 29.8517 31.505 29.8234Z" fill="url(#paint11_linear_122_427)"/>
<path d="M31.8093 27.2453L33.1171 26.0376C33.7099 25.4901 34.6454 25.3446 35.345 25.6909C36.1574 26.093 36.3751 27.0138 35.8286 27.7371C35.3581 28.3601 34.4564 28.6487 33.6813 28.4246L31.9711 27.9302C31.669 27.8428 31.5782 27.4587 31.8093 27.2453Z" fill="url(#paint12_linear_122_427)"/>
<path d="M16.3732 17.5783C16.0263 17.6901 15.6597 17.4729 15.5878 17.1156L15.0954 14.6697C15.049 14.4391 15.1789 14.2097 15.4008 14.1315C15.6601 14.0401 16.0204 13.8897 16.3928 13.6607C15.2679 13.2894 14.3525 12.6454 13.7469 11.7717C12.6051 10.1244 12.5156 8.26763 13.5073 6.80481C14.4888 5.35728 16.3022 4.65108 18.0202 5.04771C19.8984 5.48128 21.2177 7.12465 21.5493 9.44387C21.5631 9.54041 21.5753 9.63649 21.5859 9.73218C22.0467 9.46222 22.419 9.1292 22.6522 8.75641C23.2425 7.81296 23.2985 6.40496 22.7951 5.16943C22.4756 4.38528 21.9823 3.78559 21.426 3.48394C21.1779 3.34943 21.0456 3.0703 21.1121 2.79602L21.6762 0.469982C21.7626 0.113747 22.1421 -0.0912726 22.4844 0.0398647C24.0632 0.644492 25.3622 1.9892 26.108 3.81947C27.0452 6.11971 26.8832 8.73837 25.685 10.6537C24.737 12.169 22.9886 13.2992 20.967 13.777C20.5128 14.7265 19.8332 15.5606 18.9419 16.244C17.99 16.9736 17.0039 17.375 16.3732 17.5783ZM17.0744 8.51767C16.8404 8.51728 16.5892 8.63375 16.4683 8.81226C16.2876 9.07877 16.5277 9.5041 16.687 9.73383C16.9053 10.0489 17.4137 10.2839 18.0541 10.3892C18.0448 10.2466 18.0295 10.1003 18.008 9.95022C17.8937 9.15116 17.5975 8.62151 17.2155 8.53336C17.1701 8.52285 17.1226 8.51775 17.0744 8.51767Z" fill="url(#paint13_radial_122_427)"/>
<path d="M24.1501 12.3055L21.5859 9.73193C21.5859 9.73193 21.7496 12.217 20.9668 13.7769C22.159 13.4951 23.2561 12.9863 24.1501 12.3055Z" fill="url(#paint14_linear_122_427)"/>
<path d="M16.6869 9.73411C16.5703 9.5658 16.4109 9.29278 16.4046 9.05387L12.8225 9.04736C12.8281 9.95411 13.1375 10.8929 13.7468 11.772C14.3525 12.6458 15.2678 13.2897 16.3928 13.661C16.3928 13.661 18.2287 13.1041 18.0541 10.3895C17.4136 10.2842 16.9053 10.0492 16.6869 9.73411Z" fill="url(#paint15_linear_122_427)"/>
<path d="M24.2828 17.8805C23.4513 18.4224 22.7417 19.1362 22.2045 19.9712C22.0836 20.1589 21.8048 20.1585 21.6846 19.9702C21.1503 19.1333 20.4435 18.4169 19.6139 17.8719C19.4297 17.751 19.4303 17.4759 19.6148 17.3557C20.4463 16.8138 21.1558 16.1 21.6932 15.265C21.8139 15.0773 22.0929 15.0777 22.213 15.266C22.7473 16.1029 23.4542 16.8193 24.2838 17.3643C24.4679 17.4852 24.4674 17.7603 24.2828 17.8805Z" fill="url(#paint16_linear_122_427)"/>
<path d="M39.4876 16.7872C38.6561 17.3291 37.9465 18.0429 37.4093 18.8779C37.2885 19.0657 37.0096 19.0652 36.8894 18.877C36.3552 18.04 35.6484 17.3236 34.8187 16.7787C34.6345 16.6577 34.6351 16.3827 34.8196 16.2624C35.6512 15.7206 36.3607 15.0068 36.898 14.1718C37.0188 13.984 37.2977 13.9845 37.4178 14.1727C37.9521 15.0097 38.659 15.7261 39.4886 16.271C39.6727 16.3919 39.6722 16.6669 39.4876 16.7872Z" fill="url(#paint17_linear_122_427)"/>
<path d="M32.367 4.64368C31.5355 5.18556 30.8259 5.89936 30.2887 6.73434C30.1678 6.92211 29.889 6.92164 29.7688 6.7334C29.2346 5.89646 28.5277 5.18007 27.6981 4.63513C27.5139 4.51419 27.5145 4.23913 27.699 4.11889C28.5306 3.57701 29.2401 2.86321 29.7774 2.02823C29.8982 1.84046 30.1771 1.84093 30.2972 2.02917C30.8315 2.86611 31.5384 3.5825 32.368 4.12744C32.5521 4.24838 32.5516 4.52344 32.367 4.64368Z" fill="url(#paint18_linear_122_427)"/>
<path d="M31.5964 13.0173C30.9902 13.4124 30.473 13.9327 30.0814 14.5413C29.9933 14.6782 29.79 14.6778 29.7025 14.5406C29.313 13.9305 28.7978 13.4083 28.193 13.0111C28.0588 12.9229 28.0591 12.7224 28.1937 12.6347C28.7999 12.2397 29.317 11.7194 29.7087 11.1107C29.7968 10.9739 30.0001 10.9742 30.0876 11.1114C30.4771 11.7216 30.9924 12.2438 31.5971 12.641C31.7314 12.7292 31.731 12.9296 31.5964 13.0173Z" fill="url(#paint19_linear_122_427)"/>
<path d="M34.0654 8.31274C33.4592 8.7078 32.942 9.22811 32.5504 9.83674C32.4623 9.9736 32.259 9.97321 32.1715 9.83603C31.782 9.22592 31.2667 8.70372 30.662 8.30647C30.5278 8.21831 30.5281 8.01784 30.6627 7.93015C31.2689 7.53509 31.786 7.01478 32.1777 6.40615C32.2658 6.26929 32.4691 6.2696 32.5566 6.40686C32.9461 7.01698 33.4614 7.53917 34.0661 7.93643C34.2003 8.02458 34.1999 8.22505 34.0654 8.31274Z" fill="url(#paint20_linear_122_427)"/>
</g>
<defs>
<linearGradient id="paint0_linear_122_427" x1="5.52847" y1="19.567" x2="17.1384" y2="36.2749" gradientUnits="userSpaceOnUse">
<stop stop-color="#FFE548"/>
<stop offset="0.1758" stop-color="#FFDE50"/>
<stop offset="0.4446" stop-color="#FFCA65"/>
<stop offset="0.7709" stop-color="#FFAA87"/>
<stop offset="1" stop-color="#FF90A4"/>
</linearGradient>
<linearGradient id="paint1_linear_122_427" x1="14.572" y1="32.6653" x2="12.3304" y2="40.5574" gradientUnits="userSpaceOnUse">
<stop stop-color="#FBA5C2" stop-opacity="0"/>
<stop offset="0.3857" stop-color="#FCA0BA" stop-opacity="0.386"/>
<stop offset="0.9737" stop-color="#FF91A5" stop-opacity="0.974"/>
<stop offset="1" stop-color="#FF90A4"/>
</linearGradient>
<linearGradient id="paint2_linear_122_427" x1="16.8241" y1="27.958" x2="14.0483" y2="37.9159" gradientUnits="userSpaceOnUse">
<stop stop-color="#FBA5C2" stop-opacity="0"/>
<stop offset="0.3857" stop-color="#FCA0BA" stop-opacity="0.386"/>
<stop offset="0.9737" stop-color="#FF91A5" stop-opacity="0.974"/>
<stop offset="1" stop-color="#FF90A4"/>
</linearGradient>
<linearGradient id="paint3_linear_122_427" x1="18.6673" y1="22.5497" x2="15.1998" y2="33.8841" gradientUnits="userSpaceOnUse">
<stop stop-color="#FBA5C2" stop-opacity="0"/>
<stop offset="0.3857" stop-color="#FCA0BA" stop-opacity="0.386"/>
<stop offset="0.9737" stop-color="#FF91A5" stop-opacity="0.974"/>
<stop offset="1" stop-color="#FF90A4"/>
</linearGradient>
<linearGradient id="paint4_linear_122_427" x1="20.6399" y1="18.3872" x2="16.9666" y2="26.6475" gradientUnits="userSpaceOnUse">
<stop stop-color="#FFE548"/>
<stop offset="0.1758" stop-color="#FFDE50"/>
<stop offset="0.4446" stop-color="#FFCA65"/>
<stop offset="0.7709" stop-color="#FFAA87"/>
<stop offset="1" stop-color="#FF90A4"/>
</linearGradient>
<linearGradient id="paint5_linear_122_427" x1="17.1753" y1="24.6294" x2="22.3585" y2="16.6902" gradientUnits="userSpaceOnUse">
<stop stop-color="#FFD00D" stop-opacity="0"/>
<stop offset="1" stop-color="#DB722B"/>
</linearGradient>
<linearGradient id="paint6_linear_122_427" x1="21.9769" y1="21.1482" x2="18.7375" y2="11.2047" gradientUnits="userSpaceOnUse">
<stop stop-color="#FFD00D" stop-opacity="0"/>
<stop offset="1" stop-color="#DB722B"/>
</linearGradient>
<linearGradient id="paint7_linear_122_427" x1="25.8272" y1="26.6331" x2="23.2124" y2="22.335" gradientUnits="userSpaceOnUse">
<stop stop-color="#A34A9E" stop-opacity="0"/>
<stop offset="1" stop-color="#343168"/>
</linearGradient>
<linearGradient id="paint8_linear_122_427" x1="29.9437" y1="25.2895" x2="30.0629" y2="18.7368" gradientUnits="userSpaceOnUse">
<stop stop-color="#A34A9E"/>
<stop offset="1" stop-color="#343168"/>
</linearGradient>
<linearGradient id="paint9_linear_122_427" x1="9.47929" y1="5.58447" x2="10.9197" y2="6.21128" gradientUnits="userSpaceOnUse">
<stop stop-color="#3FA9F5"/>
<stop offset="1" stop-color="#666AD6"/>
</linearGradient>
<linearGradient id="paint10_linear_122_427" x1="6.00271" y1="7.83398" x2="7.52594" y2="7.45343" gradientUnits="userSpaceOnUse">
<stop stop-color="#A34A9E"/>
<stop offset="1" stop-color="#343168"/>
</linearGradient>
<linearGradient id="paint11_linear_122_427" x1="33.6064" y1="30.8597" x2="29.8391" y2="33.131" gradientUnits="userSpaceOnUse">
<stop stop-color="#FF4974"/>
<stop offset="0.4497" stop-color="#FE4773"/>
<stop offset="0.6292" stop-color="#FC406D"/>
<stop offset="0.7605" stop-color="#F73464"/>
<stop offset="0.8683" stop-color="#F12257"/>
<stop offset="0.9606" stop-color="#E80C46"/>
<stop offset="1" stop-color="#E4003D"/>
</linearGradient>
<linearGradient id="paint12_linear_122_427" x1="34.2852" y1="26.1916" x2="32.5263" y2="31.2228" gradientUnits="userSpaceOnUse">
<stop stop-color="#C4F8B6"/>
<stop offset="1" stop-color="#3B8EAC"/>
</linearGradient>
<radialGradient id="paint13_radial_122_427" cx="0" cy="0" r="1" gradientUnits="userSpaceOnUse" gradientTransform="translate(13.3696 2.92559) rotate(0.114591) scale(15.7458)">
<stop stop-color="#FF4974"/>
<stop offset="0.4497" stop-color="#FE4773"/>
<stop offset="0.6292" stop-color="#FC406D"/>
<stop offset="0.7605" stop-color="#F73464"/>
<stop offset="0.8683" stop-color="#F12257"/>
<stop offset="0.9606" stop-color="#E80C46"/>
<stop offset="1" stop-color="#E4003D"/>
</radialGradient>
<linearGradient id="paint14_linear_122_427" x1="24.583" y1="14.1517" x2="18.9073" y2="10.0462" gradientUnits="userSpaceOnUse">
<stop stop-color="#E4003D" stop-opacity="0"/>
<stop offset="0.3434" stop-color="#CD0E2D" stop-opacity="0.343"/>
<stop offset="1" stop-color="#972E07"/>
</linearGradient>
<linearGradient id="paint15_linear_122_427" x1="15.9692" y1="11.2204" x2="17.5562" y2="12.6942" gradientUnits="userSpaceOnUse">
<stop stop-color="#E4003D" stop-opacity="0"/>
<stop offset="0.3434" stop-color="#CD0E2D" stop-opacity="0.343"/>
<stop offset="1" stop-color="#972E07"/>
</linearGradient>
<linearGradient id="paint16_linear_122_427" x1="21.1396" y1="16.543" x2="23.756" y2="20.046" gradientUnits="userSpaceOnUse">
<stop stop-color="#3FA9F5"/>
<stop offset="1" stop-color="#666AD6"/>
</linearGradient>
<linearGradient id="paint17_linear_122_427" x1="36.3447" y1="15.4524" x2="38.961" y2="18.9554" gradientUnits="userSpaceOnUse">
<stop stop-color="#3FA9F5"/>
<stop offset="1" stop-color="#666AD6"/>
</linearGradient>
<linearGradient id="paint18_linear_122_427" x1="29.2263" y1="3.30762" x2="31.8426" y2="6.81067" gradientUnits="userSpaceOnUse">
<stop stop-color="#A34A9E"/>
<stop offset="1" stop-color="#343168"/>
</linearGradient>
<linearGradient id="paint19_linear_122_427" x1="29.3052" y1="12.0448" x2="31.2125" y2="14.5985" gradientUnits="userSpaceOnUse">
<stop stop-color="#C4F8B6"/>
<stop offset="1" stop-color="#3B8EAC"/>
</linearGradient>
<linearGradient id="paint20_linear_122_427" x1="31.775" y1="7.34062" x2="33.6822" y2="9.89425" gradientUnits="userSpaceOnUse">
<stop stop-color="#FFE548"/>
<stop offset="0.1758" stop-color="#FFDE50"/>
<stop offset="0.4446" stop-color="#FFCA65"/>
<stop offset="0.7709" stop-color="#FFAA87"/>
<stop offset="1" stop-color="#FF90A4"/>
</linearGradient>
<clipPath id="clip0_122_427">
<rect width="40" height="40" fill="white"/>
</clipPath>
</defs>
</svg>
