<svg width="100" height="100" viewBox="0 0 100 100" fill="none" xmlns="http://www.w3.org/2000/svg">
<g id="3d-card-game 1" clip-path="url(#clip0_126_856)">
<g id="Group">
<g id="Group_2">
<g id="Group_3">
<g id="Group_4">
<path id="Vector" d="M86.0524 99.9999H52.4489C50.1927 99.9999 48.3638 98.1708 48.3638 95.9147V41.819C48.3638 39.5628 50.1929 37.7339 52.4489 37.7339H86.0524C88.3087 37.7339 90.1376 39.563 90.1376 41.819V95.9147C90.1376 98.1708 88.3085 99.9999 86.0524 99.9999Z" fill="url(#paint0_linear_126_856)"/>
<path id="Vector_2" d="M86.0524 99.9999H52.4489C50.1927 99.9999 48.3638 98.1708 48.3638 95.9147V41.819C48.3638 39.5628 50.1929 37.7339 52.4489 37.7339H86.0524C88.3087 37.7339 90.1376 39.563 90.1376 41.819V95.9147C90.1376 98.1708 88.3085 99.9999 86.0524 99.9999Z" fill="url(#paint1_linear_126_856)"/>
<path id="Vector_3" d="M48.3635 76.4092V95.9145C48.3635 98.1707 50.1926 99.9996 52.4487 99.9996H86.0522C88.3084 99.9996 90.1374 98.1705 90.1374 95.9145V76.4092H48.3635Z" fill="url(#paint2_linear_126_856)"/>
<path id="Vector_4" d="M86.0524 37.7339H65.3149V99.9999H86.0524C88.3087 99.9999 90.1376 98.1708 90.1376 95.9147V41.819C90.1376 39.5628 88.3085 37.7339 86.0524 37.7339Z" fill="url(#paint3_linear_126_856)"/>
</g>
<g id="Group_5">
<g id="Group_6">
<path id="Vector_5" d="M53.2596 50.9459C53.1361 50.9459 53.007 50.9268 52.8723 50.8881C52.7373 50.8496 52.6121 50.7975 52.4967 50.7318C52.3811 50.6664 52.2865 50.5893 52.2133 50.5006C52.14 50.4121 52.1035 50.3137 52.1035 50.2057C52.1035 50.1826 52.1111 50.1402 52.1268 50.0785L54.2771 43.026C54.3387 42.8258 54.4832 42.6754 54.7107 42.575C54.9379 42.475 55.1865 42.4248 55.4564 42.4248C55.7262 42.4248 55.9748 42.475 56.2022 42.575C56.4293 42.6754 56.5738 42.8256 56.6357 43.026L58.7977 50.0785C58.8129 50.1402 58.8209 50.1826 58.8209 50.2057C58.8209 50.3137 58.7842 50.4119 58.7111 50.5006C58.6379 50.5893 58.5434 50.6664 58.4277 50.7318C58.3121 50.7975 58.1869 50.8494 58.0521 50.8881C57.9172 50.9268 57.7879 50.9459 57.6648 50.9459C57.5184 50.9459 57.3932 50.9209 57.2891 50.8707C57.1852 50.8207 57.1137 50.734 57.0752 50.6105L56.682 49.1654H54.2426L53.8494 50.6105C53.8107 50.734 53.7397 50.8207 53.6356 50.8707C53.5313 50.9209 53.4059 50.9459 53.2596 50.9459ZM56.3004 47.7781L55.4563 44.6797L54.6123 47.7781H56.3004Z" fill="url(#paint4_linear_126_856)"/>
</g>
<g id="Group_7">
<path id="Vector_6" d="M85.2415 86.7876C85.3649 86.7876 85.494 86.8067 85.6288 86.8454C85.7638 86.8839 85.889 86.936 86.0044 87.0017C86.12 87.0671 86.2145 87.1442 86.2878 87.2329C86.361 87.3214 86.3976 87.4198 86.3976 87.5278C86.3976 87.5509 86.3899 87.5933 86.3743 87.655L84.2239 94.7075C84.1624 94.9077 84.0179 95.0581 83.7903 95.1585C83.5632 95.2585 83.3145 95.3087 83.0446 95.3087C82.7749 95.3087 82.5263 95.2585 82.2989 95.1585C82.0718 95.0581 81.9272 94.9079 81.8653 94.7075L79.7034 87.655C79.6882 87.5933 79.6802 87.5509 79.6802 87.5278C79.6802 87.4198 79.7169 87.3216 79.7899 87.2329C79.8632 87.1442 79.9577 87.0671 80.0733 87.0017C80.189 86.936 80.3142 86.8841 80.4489 86.8454C80.5839 86.8067 80.7132 86.7876 80.8362 86.7876C80.9827 86.7876 81.1079 86.8126 81.212 86.8628C81.3159 86.9128 81.3874 86.9995 81.4259 87.123L81.819 88.5681H84.2585L84.6517 87.123C84.6903 86.9995 84.7614 86.9128 84.8655 86.8628C84.9698 86.8124 85.0952 86.7876 85.2415 86.7876ZM82.2009 89.9554L83.045 93.0538L83.889 89.9554H82.2009Z" fill="url(#paint5_linear_126_856)"/>
</g>
</g>
</g>
<path id="Vector_7" d="M90.1375 95.9147V71.0437L82.2006 63.1069H69.2504V78.0071L62.0029 81.7083L80.1822 100H86.0523C88.3084 100 90.1375 98.171 90.1375 95.9147Z" fill="url(#paint6_linear_126_856)"/>
<g id="Group_8">
<path id="Vector_8" d="M71.0607 74.3915L70.5037 71.4519L69.2505 71.1733L67.9974 71.4519L67.4404 74.3915C67.1402 75.9763 66.0675 77.2866 64.6025 77.9614C62.9062 78.7425 61.8201 79.9417 61.8201 81.287C61.8201 83.6419 76.6808 83.6419 76.6808 81.287C76.6808 79.9417 75.5947 78.7427 73.8984 77.9614C72.4335 77.2866 71.3611 75.9763 71.0607 74.3915Z" fill="url(#paint7_linear_126_856)"/>
<path id="Vector_9" d="M71.0607 74.3915L70.5037 71.4519L69.2505 71.1733L67.9974 71.4519L67.4404 74.3915C67.1402 75.9763 66.0675 77.2866 64.6025 77.9614C62.9062 78.7425 61.8201 79.9417 61.8201 81.287C61.8201 83.6419 76.6808 83.6419 76.6808 81.287C76.6808 79.9417 75.5947 78.7427 73.8984 77.9614C72.4335 77.2866 71.3611 75.9763 71.0607 74.3915Z" fill="url(#paint8_linear_126_856)"/>
<path id="Vector_10" d="M71.0607 74.3915L70.5037 71.4519L69.2505 71.1733L67.9974 71.4519L67.4404 74.3915C67.1402 75.9763 66.0675 77.2866 64.6025 77.9614C62.9062 78.7425 61.8201 79.9417 61.8201 81.287C61.8201 83.6419 76.6808 83.6419 76.6808 81.287C76.6808 79.9417 75.5947 78.7427 73.8984 77.9614C72.4335 77.2866 71.3611 75.9763 71.0607 74.3915Z" fill="url(#paint9_linear_126_856)"/>
<g id="Group_9">
<path id="Vector_11" d="M82.4457 74.6208C79.3832 77.6853 73.9418 77.4079 69.2504 74.2966C64.561 77.4079 59.1196 77.6853 56.0551 74.6208C54.9309 73.4966 54.2567 72.0519 54.0073 70.4413C53.3612 66.2673 55.8506 62.2364 59.8082 60.7612L62.3657 59.8079C64.2735 59.0968 65.9606 57.8964 67.258 56.3274L68.2178 55.1667C68.7538 54.5187 69.7473 54.5187 70.2831 55.1667L71.2424 56.327C72.5399 57.8964 74.2274 59.0968 76.1354 59.8079L78.692 60.7606C82.6502 62.2358 85.1401 66.2673 84.4934 70.4417C84.2442 72.052 83.57 73.4966 82.4457 74.6208Z" fill="url(#paint10_linear_126_856)"/>
<path id="Vector_12" d="M82.4459 74.6206C83.5701 73.4964 84.2443 72.0519 84.4937 70.4415C85.1404 66.2671 82.6505 62.2356 78.6923 60.7605L76.1357 59.8075C74.2277 59.0964 72.5402 57.896 71.2427 56.3267L70.2834 55.1663C70.0154 54.8423 69.633 54.6802 69.2507 54.6802V74.2962C73.9419 77.4077 79.3834 77.6851 82.4459 74.6206Z" fill="url(#paint11_linear_126_856)"/>
<path id="Vector_13" d="M54.0073 70.4409C54.2565 72.0513 54.9309 73.4962 56.0551 74.6204C59.1196 77.6849 64.561 77.4075 69.2504 74.2962C73.9418 77.4075 79.3832 77.6849 82.4457 74.6204C83.57 73.4962 84.2442 72.0517 84.4936 70.4413C84.7705 68.6532 84.4705 66.8923 83.7278 65.3462H54.7735C54.0307 66.8921 53.7305 68.653 54.0073 70.4409Z" fill="url(#paint12_linear_126_856)"/>
<path id="Vector_14" d="M69.2505 74.2966C64.5611 77.4079 59.1197 77.6852 56.0552 74.6208C54.931 73.4966 54.2568 72.052 54.0075 70.4417C53.3613 66.2675 55.8513 62.2362 59.8093 60.7612L61.8951 59.9839C61.1997 63.7065 62.8365 68.3804 66.4868 72.0308C67.3579 72.902 68.2896 73.6599 69.2505 74.2966Z" fill="url(#paint13_linear_126_856)"/>
</g>
</g>
</g>
<g id="Group_10">
<g id="Group_11">
<path id="Vector_15" d="M64.6982 62.266H31.0947C28.8384 62.266 27.0095 60.4369 27.0095 58.1809V4.08516C27.0095 1.8291 28.8384 0 31.0947 0H64.6982C66.9544 0 68.7833 1.8291 68.7833 4.08516V58.1809C68.7835 60.4371 66.9544 62.266 64.6982 62.266Z" fill="url(#paint14_linear_126_856)"/>
<path id="Vector_16" d="M27.0095 38.6758V58.1811C27.0095 60.4373 28.8386 62.2662 31.0947 62.2662H64.6982C66.9544 62.2662 68.7833 60.4371 68.7833 58.1811V38.6758H27.0095Z" fill="url(#paint15_linear_126_856)"/>
<path id="Vector_17" d="M64.6982 0H43.9609V62.266H64.6984C66.9547 62.266 68.7836 60.4369 68.7836 58.1809V4.08516C68.7836 1.8291 66.9545 0 64.6982 0Z" fill="url(#paint16_linear_126_856)"/>
<path id="Vector_18" d="M50.4551 18.0034V62.2661H64.6982C66.9545 62.2661 68.7834 60.437 68.7834 58.181V36.3317L50.4551 18.0034Z" fill="url(#paint17_linear_126_856)"/>
</g>
<g id="Group_12">
<path id="Vector_19" d="M61.9026 58.7855H33.8903C31.9421 58.7855 30.3628 57.2062 30.3628 55.258V7.00801C30.3628 5.05977 31.9421 3.48047 33.8903 3.48047H61.9026C63.8509 3.48047 65.4302 5.05977 65.4302 7.00801V55.258C65.4302 57.2062 63.8507 58.7855 61.9026 58.7855Z" fill="url(#paint18_linear_126_856)"/>
<path id="Vector_20" d="M30.3628 37.8325V55.1573C30.3628 57.1612 31.8981 58.7858 33.7921 58.7858H62.0007C63.8946 58.7858 65.43 57.1612 65.43 55.1573V37.8325H30.3628Z" fill="url(#paint19_linear_126_856)"/>
<path id="Vector_21" d="M62.0007 3.48047H44.5925V58.7855H62.0007C63.8947 58.7855 65.43 57.1609 65.43 55.157V7.10898C65.4302 5.10508 63.8947 3.48047 62.0007 3.48047Z" fill="url(#paint20_linear_126_856)"/>
</g>
</g>
<path id="Vector_22" d="M65.4303 32.9784L50.4551 18.0034V58.7856H62.0008C63.8947 58.7856 65.4301 57.161 65.4301 55.1571L65.4303 32.9784Z" fill="url(#paint21_linear_126_856)"/>
<g id="Group_13">
<g id="Group_14">
<path id="Vector_23" d="M47.5514 79.057H13.9477C11.6915 79.057 9.86255 77.2279 9.86255 74.9719V20.8762C9.86255 18.6199 11.6917 16.791 13.9477 16.791H47.5512C49.8075 16.791 51.6364 18.6201 51.6364 20.8762V74.9719C51.6366 77.2281 49.8075 79.057 47.5514 79.057Z" fill="url(#paint22_linear_126_856)"/>
<path id="Vector_24" d="M9.86255 55.4668V74.9721C9.86255 77.2283 11.6917 79.0572 13.9477 79.0572H47.5512C49.8075 79.0572 51.6364 77.2281 51.6364 74.9721V55.4668H9.86255Z" fill="url(#paint23_linear_126_856)"/>
<path id="Vector_25" d="M47.5515 16.791H26.814V79.057H47.5515C49.8077 79.057 51.6366 77.2279 51.6366 74.9719V20.8762C51.6366 18.6201 49.8075 16.791 47.5515 16.791Z" fill="url(#paint24_linear_126_856)"/>
</g>
<path id="Vector_26" d="M51.6365 74.9718V46.3405L43.9449 38.6489L20.4412 54.898L44.6001 79.0569H47.5511C49.8074 79.0569 51.6365 77.228 51.6365 74.9718Z" fill="url(#paint25_linear_126_856)"/>
<g id="Group_15">
<path id="Vector_27" d="M43.945 38.6491C40.8815 35.5856 35.4401 35.8634 30.7495 38.9737C26.059 35.8634 20.6174 35.5856 17.554 38.6491C13.8624 42.3407 15.0223 49.4858 20.1448 54.6085C23.336 57.7997 27.3122 59.4526 30.7495 59.3532C34.1868 59.4528 38.1629 57.7999 41.3542 54.6085C46.4766 49.4858 47.6366 42.3407 43.945 38.6491Z" fill="url(#paint26_linear_126_856)"/>
<path id="Vector_28" d="M27.9858 41.2399C28.8575 40.3682 29.7878 39.6116 30.7497 38.9737C26.0593 35.8634 20.6177 35.5856 17.5542 38.6491C13.8626 42.3407 15.0226 49.4858 20.145 54.6085C23.3362 57.7997 27.3124 59.4526 30.7495 59.3532C28.6694 59.2929 26.7866 58.5911 25.395 57.1993C21.7034 53.5075 22.8634 46.3624 27.9858 41.2399Z" fill="url(#paint27_linear_126_856)"/>
<path id="Vector_29" d="M38.8342 36.5054L20.4414 54.8981C23.5801 57.8995 27.418 59.4495 30.7496 59.353C34.1869 59.4526 38.1631 57.7997 41.3543 54.6083C46.4768 49.4858 47.6367 42.3405 43.9451 38.6489C42.6078 37.3118 40.8174 36.6116 38.8342 36.5054Z" fill="url(#paint28_linear_126_856)"/>
<path id="Vector_30" d="M20.145 54.6084C23.3362 57.7996 27.3124 59.4525 30.7497 59.3531C34.187 59.4527 38.1631 57.7998 41.3544 54.6084C44.7635 51.1992 46.4169 46.8943 46.0536 43.3076H15.4458C15.0825 46.8943 16.7358 51.1992 20.145 54.6084Z" fill="url(#paint29_linear_126_856)"/>
</g>
<g id="Group_16">
<g id="Group_17">
<path id="Vector_31" d="M14.7586 30.0035C14.6352 30.0035 14.5061 29.9844 14.3713 29.9457C14.2363 29.9072 14.1111 29.8551 13.9957 29.7895C13.8801 29.724 13.7855 29.6469 13.7123 29.5582C13.6391 29.4697 13.6025 29.3713 13.6025 29.2633C13.6025 29.2402 13.6102 29.1979 13.6258 29.1361L15.7762 22.0836C15.8377 21.8834 15.9822 21.733 16.2098 21.6326C16.4369 21.5326 16.6855 21.4824 16.9555 21.4824C17.2252 21.4824 17.4738 21.5326 17.7012 21.6326C17.9283 21.733 18.0729 21.8832 18.1348 22.0836L20.2967 29.1361C20.3119 29.1979 20.3199 29.2402 20.3199 29.2633C20.3199 29.3713 20.2832 29.4695 20.2102 29.5582C20.1369 29.6469 20.0424 29.724 19.9268 29.7895C19.8111 29.8551 19.6859 29.907 19.5512 29.9457C19.4162 29.9844 19.2869 30.0035 19.1639 30.0035C19.0174 30.0035 18.8922 29.9785 18.7881 29.9283C18.6842 29.8783 18.6127 29.7916 18.5742 29.6682L18.1811 28.223H15.7416L15.3484 29.6682C15.3098 29.7916 15.2387 29.8783 15.1346 29.9283C15.0303 29.9785 14.9049 30.0035 14.7586 30.0035ZM17.7992 26.8355L16.9551 23.7371L16.1111 26.8355H17.7992Z" fill="url(#paint30_linear_126_856)"/>
</g>
<g id="Group_18">
<path id="Vector_32" d="M46.7405 65.8452C46.864 65.8452 46.9931 65.8644 47.1278 65.903C47.2628 65.9415 47.388 65.9936 47.5034 66.0593C47.619 66.1247 47.7136 66.2019 47.7868 66.2905C47.8601 66.379 47.8966 66.4774 47.8966 66.5854C47.8966 66.6085 47.889 66.6509 47.8733 66.7126L45.7229 73.7651C45.6614 73.9653 45.5169 74.1157 45.2894 74.2161C45.0622 74.3161 44.8136 74.3663 44.5437 74.3663C44.2739 74.3663 44.0253 74.3161 43.7979 74.2161C43.5708 74.1157 43.4263 73.9655 43.3644 73.7651L41.2024 66.7126C41.1872 66.6509 41.1792 66.6085 41.1792 66.5854C41.1792 66.4774 41.2159 66.3792 41.289 66.2905C41.3622 66.2019 41.4567 66.1247 41.5724 66.0593C41.688 65.9936 41.8132 65.9417 41.9479 65.903C42.0829 65.8644 42.2122 65.8452 42.3353 65.8452C42.4817 65.8452 42.6069 65.8702 42.711 65.9204C42.8149 65.9704 42.8864 66.0571 42.9249 66.1806L43.3181 67.6257H45.7575L46.1507 66.1806C46.1894 66.0571 46.2604 65.9704 46.3646 65.9204C46.4688 65.8702 46.5942 65.8452 46.7405 65.8452ZM43.6997 69.0132L44.5438 72.1116L45.3878 69.0132H43.6997Z" fill="url(#paint31_linear_126_856)"/>
</g>
</g>
</g>
</g>
</g>
<defs>
<linearGradient id="paint0_linear_126_856" x1="49.8048" y1="53.8821" x2="93.0821" y2="87.2312" gradientUnits="userSpaceOnUse">
<stop stop-color="#EAF9FA"/>
<stop offset="1" stop-color="#B3DAFE"/>
</linearGradient>
<linearGradient id="paint1_linear_126_856" x1="64.2384" y1="65.6298" x2="53.3372" y2="58.5894" gradientUnits="userSpaceOnUse">
<stop stop-color="#7BACDF" stop-opacity="0"/>
<stop offset="1" stop-color="#7BACDF"/>
</linearGradient>
<linearGradient id="paint2_linear_126_856" x1="69.2506" y1="93.4215" x2="69.2506" y2="99.9383" gradientUnits="userSpaceOnUse">
<stop stop-color="#7BACDF" stop-opacity="0"/>
<stop offset="1" stop-color="#7BACDF"/>
</linearGradient>
<linearGradient id="paint3_linear_126_856" x1="85.3644" y1="68.8669" x2="89.7929" y2="68.8669" gradientUnits="userSpaceOnUse">
<stop stop-color="#7BACDF" stop-opacity="0"/>
<stop offset="1" stop-color="#7BACDF"/>
</linearGradient>
<linearGradient id="paint4_linear_126_856" x1="52.6422" y1="45.9609" x2="60.4066" y2="49.143" gradientUnits="userSpaceOnUse">
<stop stop-color="#5A5A5A"/>
<stop offset="1" stop-color="#444444"/>
</linearGradient>
<linearGradient id="paint5_linear_126_856" x1="79.9542" y1="86.8989" x2="85.0017" y2="91.9464" gradientUnits="userSpaceOnUse">
<stop stop-color="#5A5A5A"/>
<stop offset="1" stop-color="#444444"/>
</linearGradient>
<linearGradient id="paint6_linear_126_856" x1="81.3984" y1="83.9345" x2="71.6328" y2="70.081" gradientUnits="userSpaceOnUse">
<stop stop-color="#7BACDF" stop-opacity="0"/>
<stop offset="1" stop-color="#7BACDF"/>
</linearGradient>
<linearGradient id="paint7_linear_126_856" x1="66.5169" y1="77.1132" x2="71.4144" y2="77.1132" gradientUnits="userSpaceOnUse">
<stop stop-color="#5A5A5A"/>
<stop offset="1" stop-color="#444444"/>
</linearGradient>
<linearGradient id="paint8_linear_126_856" x1="69.2507" y1="79.1794" x2="69.2507" y2="82.5216" gradientUnits="userSpaceOnUse">
<stop stop-color="#433F43" stop-opacity="0"/>
<stop offset="1" stop-color="#1A1A1A"/>
</linearGradient>
<linearGradient id="paint9_linear_126_856" x1="70.4982" y1="78.0128" x2="71.6816" y2="75.0888" gradientUnits="userSpaceOnUse">
<stop stop-color="#433F43" stop-opacity="0"/>
<stop offset="1" stop-color="#1A1A1A"/>
</linearGradient>
<linearGradient id="paint10_linear_126_856" x1="64.9018" y1="62.2626" x2="73.4414" y2="75.629" gradientUnits="userSpaceOnUse">
<stop stop-color="#5A5A5A"/>
<stop offset="1" stop-color="#444444"/>
</linearGradient>
<linearGradient id="paint11_linear_126_856" x1="78.8617" y1="68.4446" x2="83.9437" y2="70.4636" gradientUnits="userSpaceOnUse">
<stop stop-color="#433F43" stop-opacity="0"/>
<stop offset="1" stop-color="#1A1A1A"/>
</linearGradient>
<linearGradient id="paint12_linear_126_856" x1="69.2506" y1="70.8948" x2="69.2506" y2="77.7175" gradientUnits="userSpaceOnUse">
<stop stop-color="#433F43" stop-opacity="0"/>
<stop offset="1" stop-color="#1A1A1A"/>
</linearGradient>
<linearGradient id="paint13_linear_126_856" x1="62.0206" y1="73.771" x2="62.9255" y2="76.6251" gradientUnits="userSpaceOnUse">
<stop stop-color="#433F43" stop-opacity="0"/>
<stop offset="1" stop-color="#1A1A1A"/>
</linearGradient>
<linearGradient id="paint14_linear_126_856" x1="28.4507" y1="16.1482" x2="71.7279" y2="49.4973" gradientUnits="userSpaceOnUse">
<stop stop-color="#EAF9FA"/>
<stop offset="1" stop-color="#B3DAFE"/>
</linearGradient>
<linearGradient id="paint15_linear_126_856" x1="47.8964" y1="55.6879" x2="47.8964" y2="62.2047" gradientUnits="userSpaceOnUse">
<stop stop-color="#7BACDF" stop-opacity="0"/>
<stop offset="1" stop-color="#7BACDF"/>
</linearGradient>
<linearGradient id="paint16_linear_126_856" x1="64.0104" y1="31.133" x2="68.4389" y2="31.133" gradientUnits="userSpaceOnUse">
<stop stop-color="#7BACDF" stop-opacity="0"/>
<stop offset="1" stop-color="#7BACDF"/>
</linearGradient>
<linearGradient id="paint17_linear_126_856" x1="63.273" y1="40.1347" x2="52.9598" y2="40.1347" gradientUnits="userSpaceOnUse">
<stop stop-color="#7BACDF" stop-opacity="0"/>
<stop offset="1" stop-color="#7BACDF"/>
</linearGradient>
<linearGradient id="paint18_linear_126_856" x1="31.0638" y1="18.1621" x2="68.5253" y2="47.0295" gradientUnits="userSpaceOnUse">
<stop stop-color="#BBEC6C"/>
<stop offset="1" stop-color="#81B823"/>
</linearGradient>
<linearGradient id="paint19_linear_126_856" x1="47.8964" y1="52.1673" x2="47.8964" y2="63.2595" gradientUnits="userSpaceOnUse">
<stop stop-color="#026841" stop-opacity="0"/>
<stop offset="0.2391" stop-color="#0A6644" stop-opacity="0.239"/>
<stop offset="0.6113" stop-color="#20604D" stop-opacity="0.611"/>
<stop offset="1" stop-color="#3E5959"/>
</linearGradient>
<linearGradient id="paint20_linear_126_856" x1="57.2839" y1="31.133" x2="71.1867" y2="31.133" gradientUnits="userSpaceOnUse">
<stop stop-color="#026841" stop-opacity="0"/>
<stop offset="0.2391" stop-color="#0A6644" stop-opacity="0.239"/>
<stop offset="0.6113" stop-color="#20604D" stop-opacity="0.611"/>
<stop offset="1" stop-color="#3E5959"/>
</linearGradient>
<linearGradient id="paint21_linear_126_856" x1="61.1092" y1="38.3944" x2="48.6293" y2="38.3944" gradientUnits="userSpaceOnUse">
<stop stop-color="#026841" stop-opacity="0"/>
<stop offset="0.2391" stop-color="#0A6644" stop-opacity="0.239"/>
<stop offset="0.6113" stop-color="#20604D" stop-opacity="0.611"/>
<stop offset="1" stop-color="#3E5959"/>
</linearGradient>
<linearGradient id="paint22_linear_126_856" x1="11.3038" y1="32.9395" x2="54.5811" y2="66.2883" gradientUnits="userSpaceOnUse">
<stop stop-color="#EAF9FA"/>
<stop offset="1" stop-color="#B3DAFE"/>
</linearGradient>
<linearGradient id="paint23_linear_126_856" x1="30.7495" y1="72.4789" x2="30.7495" y2="78.9957" gradientUnits="userSpaceOnUse">
<stop stop-color="#7BACDF" stop-opacity="0"/>
<stop offset="1" stop-color="#7BACDF"/>
</linearGradient>
<linearGradient id="paint24_linear_126_856" x1="46.8634" y1="47.924" x2="51.2919" y2="47.924" gradientUnits="userSpaceOnUse">
<stop stop-color="#7BACDF" stop-opacity="0"/>
<stop offset="1" stop-color="#7BACDF"/>
</linearGradient>
<linearGradient id="paint25_linear_126_856" x1="43.7707" y1="60.962" x2="33.9697" y2="47.8515" gradientUnits="userSpaceOnUse">
<stop stop-color="#7BACDF" stop-opacity="0"/>
<stop offset="1" stop-color="#7BACDF"/>
</linearGradient>
<linearGradient id="paint26_linear_126_856" x1="27.9405" y1="40.8118" x2="38.4926" y2="56.2005" gradientUnits="userSpaceOnUse">
<stop stop-color="#FD4755"/>
<stop offset="0.3362" stop-color="#E43F48"/>
<stop offset="1" stop-color="#A72B2B"/>
</linearGradient>
<linearGradient id="paint27_linear_126_856" x1="28.0493" y1="42.2089" x2="31.4567" y2="36.4565" gradientUnits="userSpaceOnUse">
<stop stop-color="#A72B2B" stop-opacity="0"/>
<stop offset="1" stop-color="#481F05"/>
</linearGradient>
<linearGradient id="paint28_linear_126_856" x1="34.8125" y1="49.5274" x2="40.4549" y2="55.463" gradientUnits="userSpaceOnUse">
<stop stop-color="#A72B2B" stop-opacity="0"/>
<stop offset="1" stop-color="#481F05"/>
</linearGradient>
<linearGradient id="paint29_linear_126_856" x1="29.8676" y1="51.0148" x2="28.6952" y2="59.8816" gradientUnits="userSpaceOnUse">
<stop stop-color="#A72B2B" stop-opacity="0"/>
<stop offset="1" stop-color="#481F05"/>
</linearGradient>
<linearGradient id="paint30_linear_126_856" x1="14.1412" y1="25.0184" x2="21.9057" y2="28.2006" gradientUnits="userSpaceOnUse">
<stop stop-color="#FD4755"/>
<stop offset="0.3362" stop-color="#E43F48"/>
<stop offset="1" stop-color="#A72B2B"/>
</linearGradient>
<linearGradient id="paint31_linear_126_856" x1="41.4532" y1="65.9565" x2="46.5007" y2="71.004" gradientUnits="userSpaceOnUse">
<stop stop-color="#FD4755"/>
<stop offset="0.3362" stop-color="#E43F48"/>
<stop offset="1" stop-color="#A72B2B"/>
</linearGradient>
<clipPath id="clip0_126_856">
<rect width="100" height="100" fill="white"/>
</clipPath>
</defs>
</svg>
