<svg width="100" height="100" viewBox="0 0 100 100" fill="none" xmlns="http://www.w3.org/2000/svg">
<g id="online-poker 1" clip-path="url(#clip0_126_1217)">
<path id="Vector" d="M22.2058 93.5651V6.86C22.2058 3.30608 25.0868 0.425293 28.6405 0.425293H71.3591C74.9131 0.425293 77.7939 3.30627 77.7939 6.86V93.5651C77.7939 97.119 74.9129 99.9998 71.3591 99.9998H28.6405C25.0868 99.9998 22.2058 97.1188 22.2058 93.5651Z" fill="url(#paint0_linear_126_1217)"/>
<path id="Vector_2" d="M72.2156 87.227H27.7846C26.6964 87.227 25.8142 86.3448 25.8142 85.2566V15.1691C25.8142 14.0809 26.6964 13.1987 27.7846 13.1987H72.2158C73.304 13.1987 74.1862 14.0809 74.1862 15.1691V85.2564C74.186 86.3448 73.3038 87.227 72.2156 87.227Z" fill="url(#paint1_linear_126_1217)"/>
<path id="Vector_3" d="M23.7603 92.3787V8.04652C23.7603 4.63122 26.5289 1.86279 29.944 1.86279H70.0561C73.4712 1.86279 76.2399 4.63142 76.2399 8.04652V92.3785C76.2399 95.7938 73.4712 98.5622 70.0561 98.5622H29.944C26.5287 98.5624 23.7603 95.7938 23.7603 92.3787Z" fill="url(#paint2_linear_126_1217)"/>
<path id="Vector_4" d="M70.548 85.699H29.4519C28.5317 85.699 27.7856 84.9529 27.7856 84.0327V16.3923C27.7856 15.4722 28.5315 14.7261 29.4519 14.7261H70.5478C71.468 14.7261 72.2141 15.472 72.2141 16.3923V84.0329C72.2141 84.9531 71.4682 85.699 70.548 85.699Z" fill="url(#paint3_linear_126_1217)"/>
<path id="Vector_5" d="M32.8413 18.8652C31.9211 18.8652 31.175 19.6113 31.175 20.5315V85.6994H70.548C71.4682 85.6994 72.2143 84.9533 72.2143 84.0331V18.8652H32.8413Z" fill="url(#paint4_linear_126_1217)"/>
<path id="Vector_6" d="M42.4479 5.32617H57.5522C58.6032 5.32617 59.4551 6.17813 59.4551 7.22931C59.4551 8.28029 58.6032 9.13225 57.5522 9.13225H42.4479C41.3969 9.13225 40.5449 8.28029 40.5449 7.22931C40.5449 6.17813 41.3969 5.32617 42.4479 5.32617Z" fill="url(#paint5_linear_126_1217)"/>
<path id="Vector_7" d="M35.8911 9.15528C36.955 9.15528 37.8174 8.29286 37.8174 7.22901C37.8174 6.16516 36.955 5.30273 35.8911 5.30273C34.8273 5.30273 33.9648 6.16516 33.9648 7.22901C33.9648 8.29286 34.8273 9.15528 35.8911 9.15528Z" fill="url(#paint6_linear_126_1217)"/>
<path id="Vector_8" d="M47.4358 88.2524H52.5639C55.3374 88.2524 57.5856 90.5007 57.5856 93.2742V93.3995C57.5856 96.173 55.3374 98.4215 52.5639 98.4215H47.4358C44.6623 98.4215 42.4141 96.173 42.4141 93.3995V93.2742C42.4141 90.5007 44.6625 88.2524 47.4358 88.2524Z" fill="url(#paint7_linear_126_1217)"/>
<path id="Vector_9" d="M52.3321 97.7422H47.6677C45.2348 97.7422 43.2625 95.7699 43.2625 93.3369C43.2625 90.904 45.2348 88.9316 47.6677 88.9316H52.3321C54.765 88.9316 56.7374 90.904 56.7374 93.3369C56.7374 95.7699 54.7652 97.7422 52.3321 97.7422Z" fill="url(#paint8_linear_126_1217)"/>
<path id="Vector_10" d="M27.7859 75.0996V84.0331C27.7859 84.9533 28.532 85.6994 29.4522 85.6994H70.5481C71.4683 85.6994 72.2143 84.9533 72.2143 84.0331V75.0996H27.7859Z" fill="url(#paint9_linear_126_1217)"/>
<path id="Vector_11" d="M86.935 84.5072L57.2052 78.188C55.9144 77.9136 55.0905 76.6448 55.365 75.3542L65.3309 28.4681C65.6052 27.1774 66.874 26.3534 68.1646 26.628L97.8944 32.9472C99.1852 33.2215 100.009 34.4903 99.7346 35.7809L89.7687 82.6668C89.4944 83.9576 88.2256 84.7815 86.935 84.5072Z" fill="url(#paint10_linear_126_1217)"/>
<path id="Vector_12" d="M66.8615 39.2881C66.867 39.2626 66.885 39.2181 66.9166 39.1538L70.9232 31.9132C71.0358 31.7161 71.225 31.5859 71.4903 31.523C71.7558 31.46 72.045 31.4618 72.3581 31.5283C72.6711 31.5947 72.9362 31.7108 73.153 31.8763C73.3699 32.0418 73.4895 32.2377 73.5125 32.4636L74.2401 40.7104C74.2426 40.7818 74.2413 40.83 74.2358 40.8555C74.1889 41.0757 74.0109 41.2369 73.7019 41.339C73.3926 41.4414 73.0899 41.461 72.7938 41.3981C72.4299 41.3206 72.2401 41.1522 72.2248 40.8924L72.1305 39.2141L69.4525 38.6449L68.6836 40.1398C68.5636 40.371 68.3219 40.4477 67.9581 40.3704C67.6619 40.3075 67.3932 40.1665 67.1526 39.9471C66.9117 39.7279 66.8148 39.5083 66.8615 39.2881ZM70.1825 37.2081L72.0356 37.602L71.8321 34.0034L70.1825 37.2081Z" fill="#9B62CD"/>
<path id="Vector_13" d="M69.5695 28.7915C68.2787 28.5171 67.0101 29.3411 66.7358 30.6317L56.7699 77.5177C56.7336 77.6889 56.7177 77.8595 56.7185 78.0275C56.8719 78.0966 57.034 78.1515 57.2052 78.1879L86.935 84.5071C88.2256 84.7815 89.4944 83.9575 89.7687 82.667L99.7346 35.7809C99.7711 35.6097 99.7868 35.4391 99.786 35.2711C99.6326 35.202 99.4705 35.1469 99.2993 35.1107L69.5695 28.7915Z" fill="url(#paint11_linear_126_1217)"/>
<path id="Vector_14" d="M97.8944 32.9471L97.2499 32.8101L87.421 79.0516C87.1467 80.3424 85.8779 81.1663 84.5873 80.8918L55.502 74.7097L55.3649 75.3542C55.0906 76.645 55.9146 77.9136 57.2051 78.1879L86.935 84.5071C88.2255 84.7814 89.4944 83.9575 89.7687 82.6669L99.7346 35.7808C100.009 34.4903 99.1849 33.2216 97.8944 32.9471Z" fill="url(#paint12_linear_126_1217)"/>
<path id="Vector_15" d="M78.5318 45.2822L70.1716 53.1662C69.7379 53.5752 69.6028 54.2103 69.8328 54.7605L74.2634 65.3632C74.6492 66.2868 75.8394 66.5397 76.5675 65.853L84.9277 57.9691C85.3614 57.5601 85.4965 56.925 85.2665 56.3748L80.8357 45.772C80.45 44.8485 79.26 44.5956 78.5318 45.2822Z" fill="url(#paint13_linear_126_1217)"/>
<path id="Vector_16" d="M81.2776 46.8291C80.9574 46.0631 79.9856 45.7646 79.3335 46.2783C79.2995 46.305 79.2664 46.3336 79.2342 46.364L71.4546 53.7005C70.6715 54.4389 70.4278 55.5854 70.8429 56.5787L74.7766 65.9921C75.3058 66.3527 76.0519 66.3393 76.5676 65.8531L84.9278 57.9691C85.3615 57.5601 85.4966 56.925 85.2666 56.3748L81.2776 46.8291Z" fill="url(#paint14_linear_126_1217)"/>
<path id="Vector_17" d="M78.8002 28.8885L68.1646 26.6279C66.874 26.3536 65.6051 27.1775 65.3308 28.4681L55.3649 75.3542C55.0906 76.6447 55.9146 77.9136 57.2051 78.1879L86.9349 84.5071C88.2257 84.7814 89.4944 83.9575 89.7687 82.6669L97.2732 47.3614L78.8002 28.8885Z" fill="url(#paint15_linear_126_1217)"/>
<path id="Vector_18" d="M71.2837 79.6478L41.0562 76.4708C39.7439 76.3329 38.7919 75.1572 38.9298 73.8449L43.9402 26.1739C44.078 24.8616 45.2537 23.9096 46.566 24.0474L76.7935 27.2245C78.1059 27.3625 79.0578 28.538 78.92 29.8504L73.9096 77.5214C73.7717 78.8337 72.596 79.7859 71.2837 79.6478Z" fill="url(#paint16_linear_126_1217)"/>
<path id="Vector_19" d="M46.5935 36.7745C46.5962 36.7486 46.6096 36.7023 46.6343 36.6353L49.8621 29.0155C49.9535 28.8078 50.128 28.6586 50.3854 28.5682C50.6429 28.4778 50.9305 28.4494 51.2492 28.4827C51.5672 28.5163 51.8431 28.6039 52.076 28.7459C52.309 28.8878 52.4484 29.07 52.4949 29.2921L54.0807 37.4178C54.0907 37.4886 54.0945 37.5367 54.0917 37.5625C54.0682 37.7863 53.908 37.9653 53.6113 38.0992C53.3145 38.2333 53.0154 38.2845 52.7145 38.2529C52.3445 38.2141 52.1382 38.0663 52.0956 37.8096L51.8264 36.1504L49.1035 35.8641L48.4952 37.4312C48.4 37.6735 48.1676 37.7751 47.7978 37.7363C47.4966 37.7047 47.2147 37.5923 46.9525 37.3996C46.6894 37.2066 46.57 36.9984 46.5935 36.7745ZM49.6788 34.3588L51.5629 34.5568L50.9845 30.9992L49.6788 34.3588Z" fill="#9B62CD"/>
<path id="Vector_20" d="M48.1895 26.0528C46.8772 25.915 45.7015 26.8669 45.5636 28.1793L40.5532 75.8503C40.535 76.0242 40.537 76.1956 40.5554 76.3626C40.715 76.4154 40.8821 76.453 41.0562 76.4712L71.2836 79.6483C72.596 79.7862 73.7717 78.8342 73.9095 77.5218L78.9199 29.8511C78.9381 29.6771 78.9362 29.5058 78.9178 29.3387C78.7581 29.286 78.5911 29.2483 78.417 29.2301L48.1895 26.0528Z" fill="url(#paint17_linear_126_1217)"/>
<path id="Vector_21" d="M76.7935 27.2251L76.1382 27.1562L71.1966 74.1717C71.0588 75.4841 69.8831 76.4361 68.5707 76.2982L38.9986 73.19L38.9298 73.8453C38.7919 75.1576 39.7439 76.3333 41.0562 76.4712L71.2837 79.6482C72.596 79.7861 73.7717 78.8341 73.9096 77.5217L78.92 29.851C79.058 28.5386 78.1058 27.3629 76.7935 27.2251Z" fill="url(#paint18_linear_126_1217)"/>
<path id="Vector_22" d="M65.142 48.6639C65.2471 48.3129 65.3228 47.948 65.3626 47.5704C65.7063 44.2994 63.3336 41.3692 60.0626 41.0253C56.7916 40.6816 53.8614 43.0543 53.5177 46.3253C53.4781 46.7029 53.4761 47.0757 53.5061 47.4408C50.4846 47.4265 47.8849 49.7047 47.5624 52.7737C47.2187 56.0447 49.5914 58.9749 52.8624 59.3186C54.282 59.4678 55.6371 59.1047 56.7449 58.379C56.2814 59.5278 55.6465 60.4984 54.9355 61.1506C54.6057 61.4529 54.6363 62.339 54.9777 62.3747L60.5981 62.9655C60.9395 63.0014 61.1534 62.1412 60.8938 61.7767C60.3247 60.9782 59.8728 59.871 59.6367 58.6239C60.5757 59.5998 61.8502 60.2629 63.3024 60.4157C66.5734 60.7594 69.5036 58.3865 69.8473 55.1157C70.1695 52.047 68.1004 49.2782 65.142 48.6639Z" fill="url(#paint19_linear_126_1217)"/>
<path id="Vector_23" d="M69.8469 55.115C69.503 58.3868 66.573 60.7597 63.303 60.416C61.8496 60.2632 60.5761 59.6001 59.6371 58.6234C59.8734 59.8709 60.3239 60.9787 60.8937 61.7771C61.1532 62.1417 60.9384 63.0007 60.5975 62.9648L54.9779 62.3742C54.6369 62.3383 54.6055 61.4534 54.9351 61.1509C55.2353 60.8754 55.5226 60.5438 55.7867 60.1648C56.152 59.6475 56.4773 59.043 56.7447 58.3797C55.6381 59.1054 54.2812 59.4677 52.8614 59.3185C52.8473 59.317 52.8334 59.3156 52.8192 59.314C50.1 59.0091 48.1037 56.543 48.37 53.8197C48.3714 53.805 48.373 53.7903 48.3745 53.7756C48.6971 50.7068 51.2969 48.4293 54.3171 48.4434C54.2877 48.0787 54.289 47.7058 54.3288 47.3275C54.6726 44.0575 57.6028 41.6828 60.8747 42.0268C60.9651 42.0364 61.0551 42.0477 61.1441 42.0613C63.6804 42.444 65.5392 44.7391 65.3857 47.2995C65.3804 47.3893 65.373 47.4793 65.3634 47.5697C65.3235 47.9479 65.2475 48.313 65.143 48.6636C65.4802 48.7348 65.8071 48.8332 66.1179 48.9583C67.2902 49.4187 68.2683 50.2393 68.9306 51.2697C69.6418 52.3695 69.9943 53.7121 69.8469 55.115Z" fill="url(#paint20_linear_126_1217)"/>
<path id="Vector_24" d="M41.0562 76.4709L71.2837 79.6479C72.596 79.7858 73.7717 78.8338 73.9096 77.5214L77.1613 46.5826L55.6598 25.081C55.6402 25.0524 55.6192 25.0248 55.5984 24.9971L49.9994 24.4087L44.4031 24.9969C44.1541 25.3301 43.987 25.7307 43.9404 26.1742L38.9298 73.845C38.7919 75.1573 39.7439 76.333 41.0562 76.4709Z" fill="url(#paint21_linear_126_1217)"/>
<path id="Vector_25" d="M58.9445 76.4706L28.717 79.648C27.4047 79.7861 26.229 78.8339 26.0911 77.5218L21.08 29.8508C20.9419 28.5384 21.8941 27.3627 23.2062 27.2249L53.4337 24.0474C54.746 23.9096 55.9217 24.8616 56.0596 26.1737L61.0707 73.8445C61.2088 75.1569 60.2566 76.3325 58.9445 76.4706Z" fill="url(#paint22_linear_126_1217)"/>
<path id="Vector_26" d="M25.8793 39.6682C25.8766 39.6423 25.8801 39.5943 25.8901 39.5235L27.463 31.3992C27.5091 31.177 27.6489 30.9947 27.8819 30.8529C28.1148 30.711 28.3905 30.6233 28.7089 30.5898C29.027 30.5563 29.315 30.5847 29.5725 30.6751C29.8299 30.7655 30.0042 30.9147 30.0958 31.1223L33.3364 38.7408C33.3607 38.8078 33.3744 38.8541 33.3772 38.88C33.4007 39.1037 33.2811 39.3121 33.0187 39.5047C32.7562 39.6976 32.4744 39.8098 32.1734 39.8415C31.8034 39.8804 31.5709 39.7788 31.476 39.5364L30.8676 37.9694L28.1446 38.2557L27.8754 39.9149C27.8326 40.1717 27.6264 40.3194 27.2566 40.3582C26.9554 40.3898 26.6564 40.3388 26.3597 40.2047C26.0628 40.071 25.9028 39.8919 25.8793 39.6682ZM28.3948 36.6637L30.2789 36.4657L28.9732 33.1061L28.3948 36.6637Z" fill="#9B62CD"/>
<path id="Vector_27" d="M25.2111 28.8489C23.8988 28.9867 22.9468 30.1624 23.0848 31.4747L28.096 79.1455C28.1142 79.3195 28.1519 79.4867 28.2046 79.6463C28.3717 79.6647 28.5431 79.6667 28.717 79.6485L58.9444 76.471C60.2568 76.3332 61.2088 75.1575 61.0707 73.8451L56.0595 26.1743C56.0413 26.0004 56.0037 25.8332 55.9509 25.6736C55.7839 25.6551 55.6125 25.6532 55.4386 25.6714L25.2111 28.8489Z" fill="url(#paint23_linear_126_1217)"/>
<path id="Vector_28" d="M43.3201 62.052L51.7895 51.752C54.2019 48.8183 53.7793 44.4842 50.8454 42.0718C47.9115 39.6595 43.5776 40.082 41.165 43.0159L40.2381 44.143L39.1109 43.2161C36.177 40.8036 31.8431 41.2263 29.4307 44.1602C27.0183 47.0942 27.4409 51.4281 30.3748 53.8406L40.6746 62.31C41.4766 62.9693 42.6609 62.8538 43.3201 62.052Z" fill="url(#paint24_radial_126_1217)"/>
<path id="Vector_29" d="M31.3853 54.659L40.8298 62.4251C41.6229 62.9523 42.7021 62.8037 43.3202 62.0523L51.7896 51.7523C54.076 48.9717 53.8141 44.9347 51.2831 42.4665C48.3813 40.5414 44.4354 41.0859 42.1756 43.8341L41.2488 44.9612L40.2447 44.1355L40.2384 44.1429L39.8335 43.81C36.9102 41.6517 32.7758 42.1388 30.4411 44.9782C28.0288 47.9125 28.4515 52.2466 31.3853 54.659Z" fill="url(#paint25_linear_126_1217)"/>
<path id="Vector_30" d="M53.4338 24.0475L52.7785 24.1163L57.7207 71.1318C57.8587 72.4441 56.9066 73.6198 55.5944 73.7577L26.0225 76.8663L26.0913 77.5216C26.2293 78.834 27.4048 79.7859 28.7172 79.6481L58.9446 76.4706C60.257 76.3328 61.2089 75.1571 61.0709 73.8447L56.0597 26.174C55.9219 24.8616 54.7462 23.9094 53.4338 24.0475Z" fill="url(#paint26_linear_126_1217)"/>
<path id="Vector_31" d="M31.8354 26.6278L21.1738 28.8939C21.0805 29.1945 21.0448 29.5182 21.0799 29.851L26.0911 77.5217C26.2291 78.8341 27.4046 79.7861 28.717 79.6482L58.9444 76.4708C60.2568 76.3329 61.2087 75.1572 61.0707 73.8449L58.7972 52.2162L34.4558 27.8747C33.9756 26.9382 32.9144 26.3984 31.8354 26.6278Z" fill="url(#paint27_linear_126_1217)"/>
<path id="Vector_32" d="M42.795 78.1879L13.0652 84.5073C11.7744 84.7816 10.5058 83.9577 10.2315 82.6671L0.26558 35.7808C-0.00873353 34.49 0.815188 33.2214 2.10578 32.9471L31.8356 26.6279C33.1264 26.3536 34.395 27.1775 34.6693 28.4681L44.6352 75.3542C44.9097 76.6449 44.0858 77.9136 42.795 78.1879Z" fill="url(#paint28_linear_126_1217)"/>
<path id="Vector_33" d="M6.06439 45.0427C6.0589 45.0172 6.05752 44.9692 6.06007 44.8976L6.77517 36.6533C6.79792 36.4276 6.91772 36.2317 7.13458 36.0662C7.35145 35.9008 7.61635 35.7847 7.92949 35.7182C8.24243 35.6517 8.53184 35.65 8.79733 35.7129C9.06282 35.7759 9.25164 35.906 9.36458 36.1031L13.3838 43.3411C13.4152 43.4055 13.4334 43.45 13.4389 43.4753C13.4858 43.6955 13.3885 43.9151 13.1477 44.1341C12.9069 44.3533 12.6383 44.4945 12.3422 44.5572C11.9783 44.6347 11.7365 44.5578 11.6167 44.3268L10.8479 42.8319L8.16988 43.4011L8.07556 45.0794C8.05988 45.3394 7.87007 45.5078 7.50654 45.5851C7.21027 45.648 6.90752 45.6284 6.59851 45.526C6.28909 45.4239 6.11125 45.2627 6.06439 45.0427ZM8.25223 41.7917L10.1054 41.3978L8.45576 38.1931L8.25223 41.7917Z" fill="#9B62CD"/>
<path id="Vector_34" d="M4.26942 34.3521C2.97863 34.6264 2.15471 35.8952 2.42922 37.1858L12.3951 84.0719C12.4316 84.243 12.4865 84.4052 12.5555 84.5585C12.7235 84.5593 12.8941 84.5434 13.0653 84.5072L42.7951 78.188C44.0859 77.9136 44.9098 76.6448 44.6353 75.3542L34.6694 28.4681C34.6329 28.297 34.578 28.1348 34.509 27.9815C34.341 27.9807 34.1704 27.9966 33.9992 28.0328L4.26942 34.3521Z" fill="url(#paint29_linear_126_1217)"/>
<path id="Vector_35" d="M31.8354 26.6279L31.1909 26.7649L41.0199 73.0063C41.2942 74.2971 40.4703 75.5657 39.1797 75.84L10.0942 82.0224L10.2313 82.6669C10.5056 83.9577 11.7744 84.7816 13.065 84.5071L42.7948 78.1879C44.0856 77.9136 44.9095 76.6447 44.635 75.3542L34.6691 28.4681C34.3948 27.1775 33.1262 26.3536 31.8354 26.6279Z" fill="url(#paint30_linear_126_1217)"/>
<path id="Vector_36" d="M31.1921 51.4611L21.3343 45.1643C20.567 44.6741 19.5476 44.8988 19.0574 45.6662L12.7607 55.5241C10.9672 58.3319 11.7894 62.0623 14.5972 63.8559C17.138 65.4788 20.4339 64.9598 22.3668 62.7659C22.2546 63.877 21.9646 64.88 21.5303 65.6482C21.3101 66.0378 21.6129 66.8709 21.9486 66.7996L27.4764 65.6245C27.8121 65.5531 27.7499 64.6688 27.3903 64.4025C26.6472 63.8521 25.9188 63.0074 25.3264 61.9794C28.0399 63.2906 31.366 62.3957 33.0286 59.7929C34.8223 56.9851 33.9999 53.2549 31.1921 51.4611Z" fill="url(#paint31_linear_126_1217)"/>
<path id="Vector_37" d="M33.8452 55.2904C34.163 56.7857 33.9168 58.403 33.0285 59.7928C31.3656 62.3949 28.0391 63.2896 25.3262 61.9796C25.623 62.493 25.9525 62.9612 26.3017 63.3696C26.6509 63.7781 27.0199 64.1267 27.3907 64.4024C27.7499 64.6689 27.8113 65.5522 27.476 65.6236L21.9489 66.7983C21.6136 66.8696 21.3103 66.0377 21.5301 65.6481C21.693 65.3606 21.836 65.041 21.9574 64.6934L21.957 64.6916C22.1575 64.1126 22.2968 63.4606 22.3674 62.7655C21.4926 63.7596 20.336 64.4096 19.0991 64.6726C17.7907 64.9506 16.3903 64.7963 15.1285 64.1585C15.1244 64.1575 15.1226 64.1579 15.124 64.1555C12.7687 62.2485 12.1744 58.8391 13.8426 56.2263L20.1385 46.3685C20.6287 45.6016 21.6474 45.3755 22.4162 45.8651L31.4723 51.6514C32.7317 52.5565 33.5434 53.8702 33.8452 55.2904Z" fill="url(#paint32_linear_126_1217)"/>
<path id="Vector_38" d="M20.3767 19.8285C17.325 21.8173 14.7213 24.4367 12.7493 27.501C12.306 28.19 11.2824 28.1883 10.8416 27.4975C8.88106 24.4259 6.28675 21.7971 3.24224 19.7971C2.56655 19.3532 2.56831 18.3439 3.24577 17.9024C6.29753 15.9137 8.90126 13.2943 10.873 10.23C11.3164 9.541 12.3399 9.54276 12.7807 10.2335C14.7415 13.3051 17.3358 15.9341 20.3801 17.9339C21.056 18.3777 21.054 19.3869 20.3767 19.8285Z" fill="url(#paint33_linear_126_1217)"/>
<path id="Vector_39" d="M27.3497 7.41907C25.1113 8.87789 23.2013 10.7993 21.7548 13.0471C21.4295 13.5526 20.6789 13.5512 20.3554 13.0446C18.9174 10.7914 17.0144 8.86319 14.7811 7.39613C14.2854 7.07044 14.2868 6.33005 14.7836 6.00633C17.0223 4.5475 18.9321 2.62613 20.3785 0.378286C20.7038 -0.127204 21.4544 -0.125832 21.778 0.380835C23.2162 2.63397 25.1191 4.56221 27.3525 6.02927C27.848 6.35495 27.8466 7.09534 27.3497 7.41907Z" fill="url(#paint34_linear_126_1217)"/>
<path id="Vector_40" d="M94.9332 19.5714C92.6946 21.0302 90.7848 22.9516 89.3383 25.1995C89.013 25.7049 88.2624 25.7036 87.9389 25.1969C86.5007 22.9438 84.5979 21.0155 82.3646 19.5485C81.8689 19.2228 81.8703 18.4824 82.3671 18.1587C84.6058 16.6998 86.5156 14.7785 87.962 12.5306C88.2873 12.0251 89.0379 12.0265 89.3614 12.5332C90.7997 14.7863 92.7026 16.7147 94.936 18.1816C95.4315 18.5073 95.4301 19.2477 94.9332 19.5714Z" fill="url(#paint35_linear_126_1217)"/>
</g>
<defs>
<linearGradient id="paint0_linear_126_1217" x1="3.67444" y1="9.74039" x2="88.6901" y2="84.0141" gradientUnits="userSpaceOnUse">
<stop stop-color="#8A7889"/>
<stop offset="1" stop-color="#6E566E"/>
</linearGradient>
<linearGradient id="paint1_linear_126_1217" x1="80.9146" y1="71.7887" x2="-31.2291" y2="-6.47832" gradientUnits="userSpaceOnUse">
<stop stop-color="#8A7889"/>
<stop offset="1" stop-color="#6E566E"/>
</linearGradient>
<linearGradient id="paint2_linear_126_1217" x1="38.3548" y1="39.3879" x2="7.63731" y2="10.8351" gradientUnits="userSpaceOnUse">
<stop stop-color="#8A7889" stop-opacity="0"/>
<stop offset="1" stop-color="#9D8B91"/>
</linearGradient>
<linearGradient id="paint3_linear_126_1217" x1="14.2488" y1="18.9786" x2="79.8588" y2="76.2986" gradientUnits="userSpaceOnUse">
<stop stop-color="#E4F2FF"/>
<stop offset="1" stop-color="#B2CBFF"/>
</linearGradient>
<linearGradient id="paint4_linear_126_1217" x1="63.1209" y1="61.3796" x2="25.2041" y2="31.1909" gradientUnits="userSpaceOnUse">
<stop stop-color="#E4F2FF" stop-opacity="0"/>
<stop offset="1" stop-color="white"/>
</linearGradient>
<linearGradient id="paint5_linear_126_1217" x1="50" y1="10.1719" x2="50" y2="3.39225" gradientUnits="userSpaceOnUse">
<stop stop-color="#8A7889"/>
<stop offset="1" stop-color="#6E566E"/>
</linearGradient>
<linearGradient id="paint6_linear_126_1217" x1="35.8911" y1="10.2078" x2="35.8911" y2="3.34509" gradientUnits="userSpaceOnUse">
<stop stop-color="#8A7889"/>
<stop offset="1" stop-color="#6E566E"/>
</linearGradient>
<linearGradient id="paint7_linear_126_1217" x1="53.4749" y1="101.101" x2="47.4354" y2="87.6068" gradientUnits="userSpaceOnUse">
<stop stop-color="#8A7889"/>
<stop offset="1" stop-color="#6E566E"/>
</linearGradient>
<linearGradient id="paint8_linear_126_1217" x1="47.6311" y1="85.4105" x2="51.2966" y2="97.676" gradientUnits="userSpaceOnUse">
<stop stop-color="#8A7889"/>
<stop offset="1" stop-color="#6E566E"/>
</linearGradient>
<linearGradient id="paint9_linear_126_1217" x1="50" y1="83.7484" x2="50" y2="76.8767" gradientUnits="userSpaceOnUse">
<stop stop-color="#3F3CED" stop-opacity="0"/>
<stop offset="0.2796" stop-color="#3C3DE4" stop-opacity="0.28"/>
<stop offset="0.7305" stop-color="#3541CC" stop-opacity="0.731"/>
<stop offset="1" stop-color="#2F43BB"/>
</linearGradient>
<linearGradient id="paint10_linear_126_1217" x1="74.3458" y1="50.6993" x2="112.05" y2="108.773" gradientUnits="userSpaceOnUse">
<stop stop-color="#E4F2FF"/>
<stop offset="1" stop-color="#B2CBFF"/>
</linearGradient>
<linearGradient id="paint11_linear_126_1217" x1="78.4111" y1="56.8772" x2="51.1738" y2="27.0426" gradientUnits="userSpaceOnUse">
<stop stop-color="white" stop-opacity="0"/>
<stop offset="1" stop-color="white"/>
</linearGradient>
<linearGradient id="paint12_linear_126_1217" x1="88.294" y1="59.6653" x2="161.018" y2="42.888" gradientUnits="userSpaceOnUse">
<stop stop-color="#3F3CED" stop-opacity="0"/>
<stop offset="0.2796" stop-color="#3C3DE4" stop-opacity="0.28"/>
<stop offset="0.7305" stop-color="#3541CC" stop-opacity="0.731"/>
<stop offset="1" stop-color="#2F43BB"/>
</linearGradient>
<linearGradient id="paint13_linear_126_1217" x1="73.8995" y1="51.4073" x2="82.7431" y2="61.6206" gradientUnits="userSpaceOnUse">
<stop stop-color="#FF819C"/>
<stop offset="0.2701" stop-color="#FF7E9B"/>
<stop offset="0.4835" stop-color="#FE7496"/>
<stop offset="0.6776" stop-color="#FC638E"/>
<stop offset="0.8591" stop-color="#FA4C84"/>
<stop offset="1" stop-color="#F83479"/>
</linearGradient>
<linearGradient id="paint14_linear_126_1217" x1="77.249" y1="53.41" x2="71.9695" y2="32.215" gradientUnits="userSpaceOnUse">
<stop stop-color="#FFD9A9" stop-opacity="0"/>
<stop offset="1" stop-color="#FCDBCB"/>
</linearGradient>
<linearGradient id="paint15_linear_126_1217" x1="85.5457" y1="58.2073" x2="57.1567" y2="50.6542" gradientUnits="userSpaceOnUse">
<stop stop-color="#3F3CED" stop-opacity="0"/>
<stop offset="0.2796" stop-color="#3C3DE4" stop-opacity="0.28"/>
<stop offset="0.7305" stop-color="#3541CC" stop-opacity="0.731"/>
<stop offset="1" stop-color="#2F43BB"/>
</linearGradient>
<linearGradient id="paint16_linear_126_1217" x1="55.3048" y1="47.4108" x2="98.8837" y2="101.272" gradientUnits="userSpaceOnUse">
<stop stop-color="#E4F2FF"/>
<stop offset="1" stop-color="#B2CBFF"/>
</linearGradient>
<linearGradient id="paint17_linear_126_1217" x1="59.9949" y1="53.1351" x2="29.7777" y2="26.2851" gradientUnits="userSpaceOnUse">
<stop stop-color="white" stop-opacity="0"/>
<stop offset="1" stop-color="white"/>
</linearGradient>
<linearGradient id="paint18_linear_126_1217" x1="70.1212" y1="54.8794" x2="140.746" y2="30.5979" gradientUnits="userSpaceOnUse">
<stop stop-color="#3F3CED" stop-opacity="0"/>
<stop offset="0.2796" stop-color="#3C3DE4" stop-opacity="0.28"/>
<stop offset="0.7305" stop-color="#3541CC" stop-opacity="0.731"/>
<stop offset="1" stop-color="#2F43BB"/>
</linearGradient>
<linearGradient id="paint19_linear_126_1217" x1="55.4776" y1="48.9912" x2="62.5826" y2="57.7725" gradientUnits="userSpaceOnUse">
<stop stop-color="#9B62CD"/>
<stop offset="0.3003" stop-color="#985DCB"/>
<stop offset="0.6716" stop-color="#8F4EC7"/>
<stop offset="1" stop-color="#833AC1"/>
</linearGradient>
<linearGradient id="paint20_linear_126_1217" x1="59.5059" y1="55.1227" x2="49.2051" y2="33.2593" gradientUnits="userSpaceOnUse">
<stop stop-color="#9B62CD" stop-opacity="0"/>
<stop offset="1" stop-color="#FF75C8"/>
</linearGradient>
<linearGradient id="paint21_linear_126_1217" x1="66.6686" y1="52.0112" x2="41.2557" y2="52.113" gradientUnits="userSpaceOnUse">
<stop stop-color="#3F3CED" stop-opacity="0"/>
<stop offset="0.2796" stop-color="#3C3DE4" stop-opacity="0.28"/>
<stop offset="0.7305" stop-color="#3541CC" stop-opacity="0.731"/>
<stop offset="1" stop-color="#2F43BB"/>
</linearGradient>
<linearGradient id="paint22_linear_126_1217" x1="36.5417" y1="48.226" x2="90.4039" y2="91.8055" gradientUnits="userSpaceOnUse">
<stop stop-color="#E4F2FF"/>
<stop offset="1" stop-color="#B2CBFF"/>
</linearGradient>
<linearGradient id="paint23_linear_126_1217" x1="42.3232" y1="52.8454" x2="7.16645" y2="32.8938" gradientUnits="userSpaceOnUse">
<stop stop-color="white" stop-opacity="0"/>
<stop offset="1" stop-color="white"/>
</linearGradient>
<radialGradient id="paint24_radial_126_1217" cx="0" cy="0" r="1" gradientUnits="userSpaceOnUse" gradientTransform="translate(33.6423 43.0747) rotate(-5.984) scale(20.5918 20.5918)">
<stop stop-color="#FF819C"/>
<stop offset="0.474" stop-color="#FF7F9B"/>
<stop offset="0.6447" stop-color="#FE7898"/>
<stop offset="0.7665" stop-color="#FD6D93"/>
<stop offset="0.8649" stop-color="#FC5C8B"/>
<stop offset="0.9481" stop-color="#FA4681"/>
<stop offset="1" stop-color="#F83479"/>
</radialGradient>
<linearGradient id="paint25_linear_126_1217" x1="41.7271" y1="49.499" x2="29.032" y2="26.9774" gradientUnits="userSpaceOnUse">
<stop stop-color="#FFD9A9" stop-opacity="0"/>
<stop offset="1" stop-color="#FCDBCB"/>
</linearGradient>
<linearGradient id="paint26_linear_126_1217" x1="52.5899" y1="52.4367" x2="116.588" y2="13.95" gradientUnits="userSpaceOnUse">
<stop stop-color="#3F3CED" stop-opacity="0"/>
<stop offset="0.2796" stop-color="#3C3DE4" stop-opacity="0.28"/>
<stop offset="0.7305" stop-color="#3541CC" stop-opacity="0.731"/>
<stop offset="1" stop-color="#2F43BB"/>
</linearGradient>
<linearGradient id="paint27_linear_126_1217" x1="46.8954" y1="51.3641" x2="29.0203" y2="53.5064" gradientUnits="userSpaceOnUse">
<stop stop-color="#3F3CED" stop-opacity="0"/>
<stop offset="0.2796" stop-color="#3C3DE4" stop-opacity="0.28"/>
<stop offset="0.7305" stop-color="#3541CC" stop-opacity="0.731"/>
<stop offset="1" stop-color="#2F43BB"/>
</linearGradient>
<linearGradient id="paint28_linear_126_1217" x1="17.5808" y1="52.4044" x2="75.655" y2="90.1086" gradientUnits="userSpaceOnUse">
<stop stop-color="#E4F2FF"/>
<stop offset="1" stop-color="#B2CBFF"/>
</linearGradient>
<linearGradient id="paint29_linear_126_1217" x1="23.8084" y1="56.393" x2="-13.2128" y2="40.2246" gradientUnits="userSpaceOnUse">
<stop stop-color="white" stop-opacity="0"/>
<stop offset="1" stop-color="white"/>
</linearGradient>
<linearGradient id="paint30_linear_126_1217" x1="33.9703" y1="54.9182" x2="93.5723" y2="9.99771" gradientUnits="userSpaceOnUse">
<stop stop-color="#3F3CED" stop-opacity="0"/>
<stop offset="0.2796" stop-color="#3C3DE4" stop-opacity="0.28"/>
<stop offset="0.7305" stop-color="#3541CC" stop-opacity="0.731"/>
<stop offset="1" stop-color="#2F43BB"/>
</linearGradient>
<linearGradient id="paint31_linear_126_1217" x1="17.8862" y1="53.7803" x2="28.5022" y2="61.9916" gradientUnits="userSpaceOnUse">
<stop stop-color="#9B62CD"/>
<stop offset="0.3003" stop-color="#985DCB"/>
<stop offset="0.6716" stop-color="#8F4EC7"/>
<stop offset="1" stop-color="#833AC1"/>
</linearGradient>
<linearGradient id="paint32_linear_126_1217" x1="24.0372" y1="58.915" x2="10.9512" y2="38.7668" gradientUnits="userSpaceOnUse">
<stop stop-color="#9B62CD" stop-opacity="0"/>
<stop offset="1" stop-color="#FF75C8"/>
</linearGradient>
<linearGradient id="paint33_linear_126_1217" x1="8.84932" y1="14.9077" x2="18.4509" y2="27.7632" gradientUnits="userSpaceOnUse">
<stop stop-color="#FFD945"/>
<stop offset="0.3043" stop-color="#FFCD3E"/>
<stop offset="0.8558" stop-color="#FFAD2B"/>
<stop offset="1" stop-color="#FFA325"/>
</linearGradient>
<linearGradient id="paint34_linear_126_1217" x1="18.8955" y1="3.81205" x2="25.9386" y2="13.2421" gradientUnits="userSpaceOnUse">
<stop stop-color="#FFD945"/>
<stop offset="0.3043" stop-color="#FFCD3E"/>
<stop offset="0.8558" stop-color="#FFAD2B"/>
<stop offset="1" stop-color="#FFA325"/>
</linearGradient>
<linearGradient id="paint35_linear_126_1217" x1="86.4765" y1="15.978" x2="93.5196" y2="25.408" gradientUnits="userSpaceOnUse">
<stop stop-color="#FFD945"/>
<stop offset="0.3043" stop-color="#FFCD3E"/>
<stop offset="0.8558" stop-color="#FFAD2B"/>
<stop offset="1" stop-color="#FFA325"/>
</linearGradient>
<clipPath id="clip0_126_1217">
<rect width="100" height="100" fill="white"/>
</clipPath>
</defs>
</svg>
