<svg width="40" height="40" viewBox="0 0 40 40" fill="none" xmlns="http://www.w3.org/2000/svg">
<g id="icon object" clip-path="url(#clip0_136_428)">
<g id="Group">
<g id="Group_2">
<path id="Vector" d="M40 20C40 31.0457 31.0457 40 20 40C14.1771 40 8.93551 37.5118 5.28082 33.5404C4.32082 32.498 3.47102 31.3526 2.74775 30.1241C1.00163 27.1543 0 23.6939 0 20C0 8.95428 8.95428 0 20 0C23.6947 0 27.1551 1.00163 30.1241 2.74857C31.3526 3.47102 32.4971 4.32082 33.5396 5.28163C37.511 8.93469 40 14.1771 40 20Z" fill="#F0CD00"/>
<path id="Vector_2" d="M40 19.9998C40 30.7965 31.4457 39.5949 20.7445 39.9859C10.0433 39.5949 1.48901 30.7965 1.48901 19.9998C1.48901 9.20306 10.0433 0.404692 20.7445 0.0136719C31.4457 0.404692 40 9.20306 40 19.9998Z" fill="#FFDE50"/>
<path id="Vector_3" d="M33.5396 5.2816L5.28086 33.5404C4.32086 32.4979 3.47107 31.3526 2.7478 30.124L30.1241 2.74854C31.3527 3.47098 32.4972 4.32078 33.5396 5.2816Z" fill="#FFEA94"/>
<path id="Vector_4" d="M38.6205 12.688L12.6875 38.6211C10.8515 37.8995 9.14786 36.9141 7.62378 35.7117L35.7119 7.62354C36.9144 9.14762 37.8997 10.8513 38.6205 12.688Z" fill="#FFEA94"/>
<path id="Vector_5" d="M35.5412 20.0002C35.5412 28.5831 28.5828 35.5414 20 35.5414C17.0106 35.5414 14.2187 34.6974 11.8489 33.2345C10.8163 32.5978 9.86445 31.8427 9.01058 30.9888C8.38282 30.3618 7.80813 29.6802 7.29466 28.9529C6.58772 27.9512 5.99588 26.8623 5.53956 25.7055C4.86364 23.9953 4.48323 22.1357 4.46037 20.1912C4.45874 20.1276 4.45874 20.0639 4.45874 20.0002C4.45874 11.4174 11.4163 4.45898 20 4.45898C20.0636 4.45898 20.1281 4.45898 20.1918 4.46062C22.1363 4.48347 23.9951 4.8647 25.7053 5.5398C26.862 5.99694 27.951 6.58796 28.9526 7.2949C29.68 7.80919 30.3608 8.38307 30.9885 9.01082C31.8424 9.86388 32.5975 10.8165 33.2342 11.8492C34.6971 14.219 35.5412 17.0108 35.5412 20.0002Z" fill="#FAA300"/>
<path id="Vector_6" d="M30.9885 9.01082L9.01058 30.9888C8.38282 30.3618 7.80813 29.6802 7.29466 28.9529C6.58772 27.9512 5.99588 26.8622 5.53956 25.7055C4.86364 23.9953 4.48323 22.1357 4.46037 20.1912C4.45874 20.1276 4.45874 20.0639 4.45874 20.0002C4.45874 11.4174 11.4163 4.45898 20 4.45898C20.0636 4.45898 20.1281 4.45898 20.1918 4.46062C22.1363 4.48347 23.9951 4.8647 25.7053 5.5398C26.862 5.99694 27.951 6.58796 28.9526 7.2949C29.68 7.80919 30.3608 8.38307 30.9885 9.01082Z" fill="#FFBD00"/>
<path id="Vector_7" d="M35.5408 20.0002C35.5408 28.5831 28.5825 35.5414 19.9996 35.5414C19.7049 35.5414 19.4127 35.5333 19.1221 35.5169C27.2968 35.0622 33.7849 28.2884 33.7849 20.0002C33.7849 11.712 27.2968 4.93817 19.1221 4.48347C19.4127 4.46715 19.7049 4.45898 19.9996 4.45898C28.5825 4.45898 35.5408 11.4174 35.5408 20.0002Z" fill="#F68E00"/>
</g>
<path id="Vector_8" d="M29.9628 21.833H27.49L28.3902 19.3513H29.9628C30.8645 19.3513 31.5955 18.6204 31.5955 17.7187C31.5955 16.817 30.8645 16.086 29.9628 16.086H29.5747L30.1697 14.4457C30.4772 13.5981 30.0392 12.6617 29.1916 12.3542C28.3441 12.0468 27.4076 12.4847 27.1001 13.3322L26.1012 16.0859H21.179L20.1983 13.3398C19.9662 12.69 19.3507 12.2563 18.6607 12.2563C17.9707 12.2563 17.3552 12.69 17.1232 13.3398L16.1424 16.0859H11.2203L10.2214 13.3322C9.91394 12.4845 8.97745 12.0467 8.12994 12.3542C7.28226 12.6617 6.84438 13.5981 7.15189 14.4457L7.74692 16.086H6.77181C5.8701 16.086 5.13916 16.817 5.13916 17.7187C5.13916 18.6204 5.8701 19.3513 6.77181 19.3513H8.93132L9.83149 21.833H6.77181C5.8701 21.833 5.13916 22.5639 5.13916 23.4656C5.13916 24.3673 5.8701 25.0983 6.77181 25.0983H11.016L12.1779 28.3012C12.4122 28.9472 13.0258 29.3772 13.7126 29.3771C13.714 29.3771 13.7154 29.3771 13.7167 29.3771C14.4052 29.3754 15.0187 28.9419 15.2502 28.2936L16.3913 25.0983H20.9303L22.0714 28.2936C22.3029 28.942 22.9164 29.3754 23.6049 29.3771C23.6063 29.3771 23.6076 29.3771 23.609 29.3771C24.2958 29.3771 24.9094 28.9471 25.1437 28.3012L26.3056 25.0983H29.9629C30.8646 25.0983 31.5956 24.3673 31.5956 23.4656C31.5956 22.5639 30.8645 21.833 29.9628 21.833ZM24.9167 19.3513L24.0165 21.833H23.2314L22.3451 19.3513H24.9167ZM12.4048 19.3513H14.9764L14.0901 21.833H13.305L12.4048 19.3513ZM17.5574 21.833L18.4436 19.3513H18.8779L19.7641 21.833H17.5574Z" fill="#F68E00"/>
<path id="Vector_9" d="M31.5956 21.833H29.1227L30.0229 19.3513H31.5956C32.4973 19.3513 33.2282 18.6204 33.2282 17.7187C33.2282 16.817 32.4973 16.086 31.5956 16.086H31.2074L31.8024 14.4457C32.1099 13.5981 31.672 12.6617 30.8244 12.3542C29.9769 12.0468 29.0404 12.4847 28.7329 13.3322L27.7339 16.0859H22.8117L21.831 13.3398C21.5989 12.69 20.9834 12.2563 20.2934 12.2563C19.6034 12.2563 18.988 12.69 18.7559 13.3398L17.7752 16.0859H12.853L11.8542 13.3322C11.5467 12.4845 10.6102 12.0467 9.76267 12.3542C8.91499 12.6617 8.47712 13.5981 8.78463 14.4457L9.37965 16.086H8.40463C7.50291 16.086 6.77197 16.817 6.77197 17.7187C6.77197 18.6204 7.50291 19.3513 8.40463 19.3513H10.5641L11.4643 21.833H8.40463C7.50291 21.833 6.77197 22.5639 6.77197 23.4656C6.77197 24.3673 7.50291 25.0983 8.40463 25.0983H12.6488L13.8107 28.3012C14.045 28.9472 14.6586 29.3772 15.3454 29.3771C15.3468 29.3771 15.3482 29.3771 15.3495 29.3771C16.038 29.3754 16.6515 28.9419 16.883 28.2936L18.0241 25.0983H22.5631L23.7042 28.2936C23.9357 28.942 24.5492 29.3754 25.2377 29.3771C25.2391 29.3771 25.2404 29.3771 25.2418 29.3771C25.9286 29.3771 26.5423 28.9471 26.7765 28.3012L27.9384 25.0983H31.5957C32.4974 25.0983 33.2284 24.3673 33.2284 23.4656C33.2284 22.5639 32.4973 21.833 31.5956 21.833ZM26.5494 19.3513L25.6493 21.833H24.8641L23.9778 19.3513H26.5494ZM14.0375 19.3513H16.6091L15.7228 21.833H14.9377L14.0375 19.3513ZM19.1901 21.833L20.0764 19.3513H20.5106L21.3969 21.833H19.1901Z" fill="#FFEA94"/>
</g>
</g>
<defs>
<clipPath id="clip0_136_428">
<rect width="40" height="40" fill="white"/>
</clipPath>
</defs>
</svg>
