<svg width="40" height="40" viewBox="0 0 40 40" fill="none" xmlns="http://www.w3.org/2000/svg">
<g clip-path="url(#clip0_122_392)">
<path fill-rule="evenodd" clip-rule="evenodd" d="M3.39768 31.7048C3.09306 31.7517 2.78843 31.6345 2.6244 31.3768L0.0936416 27.2057C-0.0938218 26.8776 -9.00868e-05 26.4324 0.351404 26.2215L3.06962 24.5812C3.23365 24.464 3.42112 24.4406 3.60858 24.4875C3.79604 24.5343 3.96007 24.6515 4.05381 24.8155L6.58456 28.9632C6.67829 29.1272 6.70173 29.3381 6.65486 29.5256C6.60799 29.713 6.49083 29.8536 6.3268 29.9708L3.60858 31.6111C3.53828 31.6579 3.46798 31.6814 3.39768 31.7048Z" fill="#FBA617"/>
<path fill-rule="evenodd" clip-rule="evenodd" d="M1.6167 25.4482L3.06954 24.5812C3.23357 24.464 3.42103 24.4406 3.6085 24.4875C3.79596 24.5343 3.95999 24.6515 4.05372 24.8155L6.58448 28.9632C6.67821 29.1272 6.70164 29.3381 6.65478 29.5256C6.60791 29.713 6.49075 29.8536 6.32672 29.9708L4.89731 30.8378L1.6167 25.4482Z" fill="#FB9515"/>
<path fill-rule="evenodd" clip-rule="evenodd" d="M34.751 24.4872C34.7276 24.4872 34.7041 24.4872 34.6807 24.4872L13.4973 26.8305C13.2161 26.854 12.935 26.7134 12.7944 26.479L9.13882 20.4568C8.99822 20.199 8.99822 19.8944 9.16225 19.6601L20.9959 1.9682C21.1365 1.7573 21.3708 1.64014 21.6286 1.64014C21.8629 1.64014 22.0972 1.78073 22.2144 1.99163L35.1494 23.2922C35.2197 23.3859 35.29 23.5031 35.3134 23.6202C35.3837 24.0186 35.1494 24.3935 34.751 24.4638V24.4872Z" fill="#FBA617"/>
<path fill-rule="evenodd" clip-rule="evenodd" d="M15.6532 26.5964L13.4973 26.8308C13.2161 26.8542 12.935 26.7136 12.7944 26.4793L9.13882 20.457C8.99822 20.1993 8.99822 19.8946 9.16225 19.6603L10.3573 17.8794C10.4042 17.9497 10.4745 18.02 10.5214 18.0903L15.5126 26.3387C15.5594 26.409 15.6063 26.5027 15.6532 26.5964Z" fill="#FB9515"/>
<path fill-rule="evenodd" clip-rule="evenodd" d="M14.2472 38.7347C13.966 38.7815 13.6379 38.6644 13.4973 38.3832L8.6936 30.4863C8.4827 30.1348 8.59987 29.713 8.92793 29.5021L11.5993 27.8618C11.7633 27.7681 11.9742 27.7446 12.1382 27.7915C12.3257 27.8384 12.4897 27.9555 12.5835 28.1196L17.3872 36.0165C17.5044 36.1805 17.5278 36.3914 17.4809 36.5554C17.4341 36.7429 17.3169 36.9069 17.1529 37.0006L14.4815 38.6409C14.4112 38.6878 14.3175 38.7112 14.2472 38.7347Z" fill="#E1474F"/>
<path fill-rule="evenodd" clip-rule="evenodd" d="M9.56062 31.9157L8.6936 30.4863C8.4827 30.1348 8.59987 29.713 8.92793 29.5021L11.5993 27.8618C11.7633 27.7681 11.9742 27.7446 12.1382 27.7915C12.3257 27.8384 12.4897 27.9555 12.5835 28.1196L13.4739 29.549L9.56062 31.9157Z" fill="#CB4047"/>
<path fill-rule="evenodd" clip-rule="evenodd" d="M7.33448 32.1033C7.24075 32.1268 7.12358 32.1033 7.02985 32.0799C6.84239 32.033 6.67836 31.9159 6.58463 31.7518L1.59341 23.5269C1.47625 23.3628 1.45282 23.1519 1.49968 22.9645C1.54655 22.8005 1.66371 22.6364 1.82774 22.5193L8.71702 18.3482C9.04508 18.1373 9.49031 18.2545 9.70121 18.606L14.6924 26.8309C14.9033 27.1824 14.7861 27.6276 14.4581 27.8385L7.56881 32.0096C7.49851 32.0565 7.42821 32.0799 7.33448 32.1033Z" fill="#FEE14D"/>
<path fill-rule="evenodd" clip-rule="evenodd" d="M33.9777 23.1281C33.9543 23.1515 33.9309 23.1515 33.9074 23.1515L29.7129 24.8387L18.7229 5.78771L21.4411 1.71039C21.5817 1.49949 21.816 1.38232 22.0504 1.38232C22.3081 1.38232 22.519 1.52292 22.6596 1.73382L34.3761 21.9564C34.4464 22.0502 34.5167 22.1673 34.5401 22.2845C34.6104 22.6829 34.3761 23.0578 33.9777 23.1281Z" fill="#FB9515"/>
<path fill-rule="evenodd" clip-rule="evenodd" d="M34.0948 25.7059C32.7591 26.4792 31.0485 26.034 30.2518 24.6749L19.1914 5.53017C18.4181 4.17106 18.8868 2.46046 20.2225 1.68717C21.5816 0.890451 23.2922 1.35911 24.0655 2.71822L35.1258 21.8629C35.9225 23.1986 35.4539 24.9326 34.0948 25.7059Z" fill="#FEE14D"/>
<path fill-rule="evenodd" clip-rule="evenodd" d="M29.4317 7.38141C29.3614 7.38141 29.2911 7.35798 29.2208 7.33454C28.9865 7.21738 28.8927 6.93618 29.0099 6.72529L31.5407 1.52318C31.6578 1.28885 31.939 1.19512 32.1734 1.28885C32.4077 1.40601 32.5014 1.68721 32.3843 1.92154L29.8301 7.12365C29.7598 7.28768 29.5957 7.38141 29.4317 7.38141Z" fill="#CCCCCC"/>
<path fill-rule="evenodd" clip-rule="evenodd" d="M39.5313 15.2546H39.5078L33.7199 14.8797C33.4622 14.8563 33.2747 14.6454 33.2981 14.3876C33.3216 14.1298 33.509 13.9424 33.7902 13.9424L39.5547 14.3407C39.8125 14.3407 39.9999 14.5751 39.9999 14.8328C39.9765 15.0672 39.7656 15.2546 39.5313 15.2546Z" fill="#CCCCCC"/>
<path fill-rule="evenodd" clip-rule="evenodd" d="M31.2595 11.5055C31.0955 11.5055 30.9549 11.4117 30.8611 11.2711C30.744 11.0368 30.8143 10.7556 31.0252 10.6384L35.5946 7.99052C35.8055 7.87336 36.0867 7.94366 36.2273 8.15455C36.3444 8.38888 36.2741 8.67008 36.0632 8.78724L31.4938 11.4352C31.4235 11.482 31.3298 11.5055 31.2595 11.5055Z" fill="#CCCCCC"/>
</g>
<defs>
<clipPath id="clip0_122_392">
<rect width="40" height="40" fill="white"/>
</clipPath>
</defs>
</svg>
