<svg width="50" height="50" viewBox="0 0 50 50" fill="none" xmlns="http://www.w3.org/2000/svg">
<g id="chrome 1" clip-path="url(#clip0_126_1258)">
<path id="Vector" d="M24.9348 0.00447307C24.9348 0.00447307 39.6746 -0.657635 47.4867 14.1291C43.3598 14.1291 23.6817 14.1291 23.6817 14.1291C23.6817 14.1291 19.186 13.9814 15.3536 19.4263C14.2481 21.7068 13.0692 24.0611 14.3958 28.6954C12.4798 25.4591 4.2251 11.113 4.2251 11.113C4.2251 11.113 10.0477 0.592753 24.9348 0.00447307Z" fill="#E16B5A"/>
<path id="Vector_2" d="M24.9349 0.00448034C24.6806 0.0146366 24.4353 0.0345584 24.186 0.0501834C28.1657 0.340026 38.9176 2.24432 45.1965 14.1291C46.1661 14.1291 46.9559 14.1291 47.486 14.1291C39.6743 -0.658018 24.9349 0.00448034 24.9349 0.00448034Z" fill="#CC6152"/>
<path id="Vector_3" d="M46.7195 37.5475C46.7195 37.5475 39.9226 50.6189 23.1875 49.976C25.2519 46.4092 35.0929 29.3994 35.0929 29.3994C35.0929 29.3994 37.4687 25.5866 34.6633 19.5514C33.2371 17.4553 28.9168 15.2585 24.2324 14.0874C27.9996 14.0499 47.4398 14.0897 47.4398 14.0897C47.4398 14.0897 53.6538 24.3846 46.7195 37.5475Z" fill="#FFD464"/>
<path id="Vector_4" d="M47.4394 14.0904C47.4394 14.0904 37.5234 14.0701 30.4828 14.0725C37.2371 14.074 45.3277 14.0904 45.3277 14.0904C45.3277 14.0904 51.5422 24.3849 44.6078 37.5478C44.6078 37.5478 38.3797 49.5025 23.1871 49.9763C39.9223 50.6193 46.7195 37.5478 46.7195 37.5478C53.6539 24.3849 47.4394 14.0904 47.4394 14.0904Z" fill="#F2C95F"/>
<path id="Vector_5" d="M3.25514 37.6466C3.25514 37.6466 -4.68664 25.2342 4.23952 11.0889C6.3024 14.6572 16.1379 31.6701 16.1379 31.6701C16.1379 31.6701 18.2567 35.6302 24.8961 36.2224C27.427 36.038 30.0598 35.8814 33.418 32.4185C31.5664 35.6931 23.245 49.9993 23.245 49.9993C23.245 49.9993 11.2067 50.2236 3.25514 37.6466Z" fill="#74B340"/>
<path id="Vector_6" d="M24.8751 36.5312C31.1314 36.5312 36.2032 31.4594 36.2032 25.2031C36.2032 18.9468 31.1314 13.875 24.8751 13.875C18.6188 13.875 13.547 18.9468 13.547 25.2031C13.547 31.4594 18.6188 36.5312 24.8751 36.5312Z" fill="white"/>
<path id="Vector_7" d="M24.8712 34.1875C29.8331 34.1875 33.8556 30.165 33.8556 25.2031C33.8556 20.2412 29.8331 16.2188 24.8712 16.2188C19.9093 16.2188 15.8868 20.2412 15.8868 25.2031C15.8868 30.165 19.9093 34.1875 24.8712 34.1875Z" fill="#2995CC"/>
<path id="Vector_8" d="M24.8734 16.2207C24.6945 16.2207 24.5176 16.2273 24.3418 16.2375C29.0559 16.5129 32.7941 20.4219 32.7941 25.2047C32.7941 29.9883 29.0559 33.8976 24.3418 34.173C24.518 34.1828 24.6949 34.1898 24.8734 34.1898C29.8348 34.1898 33.8578 30.1668 33.8578 25.2047C33.8578 20.2434 29.8348 16.2207 24.8734 16.2207Z" fill="#268CBF"/>
</g>
<defs>
<clipPath id="clip0_126_1258">
<rect width="50" height="50" fill="white"/>
</clipPath>
</defs>
</svg>
