<svg width="56" height="56" viewBox="0 0 56 56" fill="none" xmlns="http://www.w3.org/2000/svg">
<g clip-path="url(#clip0_107_2199)">
<path d="M21 7C28.732 7 35 6.2165 35 5.25C35 4.2835 28.732 3.5 21 3.5C13.268 3.5 7 4.2835 7 5.25C7 6.2165 13.268 7 21 7Z" fill="#F7F3E1"/>
<path d="M7 5.25C7 6.2125 13.265 7 21 7C28.735 7 35 6.2125 35 5.25C35 4.2875 28.735 3.5 21 3.5C13.265 3.5 7 4.2875 7 5.25ZM21 0.875C32.1125 0.875 41.125 2.835 41.125 5.25C41.125 7.06125 36.0762 8.61 28.875 9.28375C26.46 9.5025 23.7913 9.625 21 9.625C18.2087 9.625 15.54 9.5025 13.125 9.28375C5.92375 8.61 0.875 7.06125 0.875 5.25C0.875 2.835 9.8875 0.875 21 0.875Z" fill="#D1013E"/>
<path d="M28.875 46.0338C36.0763 45.36 41.125 43.8112 41.125 42V47.25C41.125 49.2012 35.245 50.855 27.125 51.4237V46.1737C27.72 46.13 28.3062 46.0775 28.875 46.0338Z" fill="#8F0029"/>
<path d="M13.125 46.0338C13.6938 46.0775 14.28 46.13 14.875 46.1737V51.4237C6.755 50.855 0.875 49.2012 0.875 47.25V42C0.875 43.8112 5.92375 45.36 13.125 46.0338Z" fill="#8F0029"/>
<path d="M27.125 40.9237C27.72 40.8799 28.3062 40.8274 28.875 40.7837V46.0337C28.3062 46.0774 27.72 46.1299 27.125 46.1737C25.1912 46.3049 23.135 46.3749 21 46.3749C18.865 46.3749 16.8088 46.3049 14.875 46.1737C14.28 46.1299 13.6937 46.0774 13.125 46.0337V40.7837C13.6937 40.8274 14.28 40.8799 14.875 40.9237C16.8088 41.0549 18.865 41.1249 21 41.1249C23.135 41.1249 25.1912 41.0549 27.125 40.9237Z" fill="#8F0029"/>
<path d="M14.875 35.6737V40.9237C14.28 40.88 13.6938 40.8275 13.125 40.7837C5.92375 40.11 0.875 38.5612 0.875 36.75V31.5C0.875 33.3112 5.92375 34.86 13.125 35.5338C13.6938 35.5775 14.28 35.63 14.875 35.6737Z" fill="#8F0029"/>
<path d="M28.875 40.7837C28.3062 40.8275 27.72 40.88 27.125 40.9237V35.6737C27.72 35.63 28.3062 35.5775 28.875 35.5338C36.0763 34.86 41.125 33.3112 41.125 31.5V36.75C41.125 38.5612 36.0763 40.11 28.875 40.7837Z" fill="#8F0029"/>
<path d="M27.125 30.4237C27.72 30.3799 28.3062 30.3274 28.875 30.2837V35.5337C28.3062 35.5774 27.72 35.6299 27.125 35.6737C25.1912 35.8049 23.135 35.8749 21 35.8749C18.865 35.8749 16.8088 35.8049 14.875 35.6737C14.28 35.6299 13.6937 35.5774 13.125 35.5337V30.2837C13.6937 30.3274 14.28 30.3799 14.875 30.4237C16.8088 30.5549 18.865 30.6249 21 30.6249C23.135 30.6249 25.1912 30.5549 27.125 30.4237Z" fill="#8F0029"/>
<path d="M28.875 30.2837C28.3062 30.3275 27.72 30.38 27.125 30.4237V25.1737C27.72 25.13 28.3062 25.0775 28.875 25.0338C36.0763 24.36 41.125 22.8112 41.125 21V26.25C41.125 28.0612 36.0763 29.61 28.875 30.2837Z" fill="#A80132"/>
<path d="M14.875 25.1737V30.4237C14.28 30.38 13.6938 30.3275 13.125 30.2837C5.92375 29.61 0.875 28.0612 0.875 26.25V21C0.875 22.8112 5.92375 24.36 13.125 25.0338C13.6938 25.0775 14.28 25.13 14.875 25.1737Z" fill="#A80132"/>
<path d="M27.125 19.9237C27.72 19.8799 28.3062 19.8274 28.875 19.7837V25.0337C28.3062 25.0774 27.72 25.1299 27.125 25.1737C25.1912 25.3049 23.135 25.3749 21 25.3749C18.865 25.3749 16.8088 25.3049 14.875 25.1737C14.28 25.1299 13.6937 25.0774 13.125 25.0337V19.7837C13.6937 19.8274 14.28 19.8799 14.875 19.9237C16.8088 20.0549 18.865 20.1249 21 20.1249C23.135 20.1249 25.1912 20.0549 27.125 19.9237Z" fill="#A80132"/>
<path d="M14.875 14.6737V19.9237C14.28 19.88 13.6938 19.8275 13.125 19.7837C5.92375 19.11 0.875 17.5612 0.875 15.75V10.5C0.875 12.3112 5.92375 13.86 13.125 14.5338C13.6938 14.5775 14.28 14.63 14.875 14.6737Z" fill="#A80132"/>
<path d="M28.875 19.7837C28.3062 19.8275 27.72 19.88 27.125 19.9237V14.6737C27.72 14.63 28.3062 14.5775 28.875 14.5338C36.0763 13.86 41.125 12.3112 41.125 10.5V15.75C41.125 17.5612 36.0763 19.11 28.875 19.7837Z" fill="#A80132"/>
<path d="M27.125 14.6737C25.1912 14.8049 23.135 14.8749 21 14.8749C18.865 14.8749 16.8088 14.8049 14.875 14.6737C14.28 14.6299 13.6937 14.5774 13.125 14.5337V9.28369C15.54 9.50244 18.2087 9.62494 21 9.62494C23.7913 9.62494 26.46 9.50244 28.875 9.28369V14.5337C28.3062 14.5774 27.72 14.6299 27.125 14.6737Z" fill="#A80132"/>
<path d="M27.125 46.1738V51.4238C25.1912 51.5551 23.135 51.6251 21 51.6251C18.865 51.6251 16.8088 51.5551 14.875 51.4238V46.1738C16.8088 46.3051 18.865 46.3751 21 46.3751C23.135 46.3751 25.1912 46.3051 27.125 46.1738Z" fill="#E3DECB"/>
<path d="M41.125 36.75V42C41.125 43.8112 36.0762 45.36 28.875 46.0338V40.7838C36.0762 40.11 41.125 38.5612 41.125 36.75Z" fill="#F7F3E1"/>
<path d="M13.125 40.7838V46.0338C5.92375 45.36 0.875 43.8112 0.875 42V36.75C0.875 38.5612 5.92375 40.11 13.125 40.7838Z" fill="#F7F3E1"/>
<path d="M27.125 35.6738V40.9238C25.1912 41.0551 23.135 41.1251 21 41.1251C18.865 41.1251 16.8088 41.0551 14.875 40.9238V35.6738C16.8088 35.8051 18.865 35.8751 21 35.8751C23.135 35.8751 25.1912 35.8051 27.125 35.6738Z" fill="#F7F3E1"/>
<path d="M41.125 26.25V31.5C41.125 33.3112 36.0762 34.86 28.875 35.5338V30.2838C36.0762 29.61 41.125 28.0612 41.125 26.25Z" fill="#F7F3E1"/>
<path d="M13.125 30.2838V35.5338C5.92375 34.86 0.875 33.3112 0.875 31.5V26.25C0.875 28.0612 5.92375 29.61 13.125 30.2838Z" fill="#F7F3E1"/>
<path d="M27.125 25.1738V30.4238C25.1912 30.5551 23.135 30.6251 21 30.6251C18.865 30.6251 16.8088 30.5551 14.875 30.4238V25.1738C16.8088 25.3051 18.865 25.3751 21 25.3751C23.135 25.3751 25.1912 25.3051 27.125 25.1738Z" fill="#F7F3E1"/>
<path d="M41.125 15.75V21C41.125 22.8112 36.0762 24.36 28.875 25.0338V19.7838C36.0762 19.11 41.125 17.5612 41.125 15.75Z" fill="#F7F3E1"/>
<path d="M13.125 19.7838V25.0338C5.92375 24.36 0.875 22.8112 0.875 21V15.75C0.875 17.5612 5.92375 19.11 13.125 19.7838Z" fill="#F7F3E1"/>
<path d="M27.125 14.6738V19.9238C25.1912 20.0551 23.135 20.1251 21 20.1251C18.865 20.1251 16.8088 20.0551 14.875 19.9238V14.6738C16.8088 14.8051 18.865 14.8751 21 14.8751C23.135 14.8751 25.1912 14.8051 27.125 14.6738Z" fill="#F7F3E1"/>
<path d="M28.875 9.28375C36.0762 8.61 41.125 7.06125 41.125 5.25V10.5C41.125 12.3112 36.0762 13.86 28.875 14.5338V9.28375Z" fill="#F7F3E1"/>
<path d="M13.125 9.28375V14.5338C5.92375 13.86 0.875 12.3112 0.875 10.5V5.25C0.875 7.06125 5.92375 8.61 13.125 9.28375Z" fill="#F7F3E1"/>
<path d="M35 5.25C35 5.39875 34.8512 5.5475 34.5625 5.6875C33.005 4.935 27.5275 4.375 21 4.375C14.4725 4.375 8.995 4.935 7.4375 5.6875C7.14875 5.5475 7 5.39875 7 5.25C7 4.2875 13.265 3.5 21 3.5C28.735 3.5 35 4.2875 35 5.25Z" fill="#C7C3B2"/>
<path d="M27.125 18.1738V19.9238C25.1912 20.0551 23.135 20.1251 21 20.1251C18.865 20.1251 16.8088 20.0551 14.875 19.9238V18.1738C16.8088 18.3051 18.865 18.3751 21 18.3751C23.135 18.3751 25.1912 18.3051 27.125 18.1738Z" fill="#E3DECB"/>
<path d="M41.125 14V15.75C41.125 17.5612 36.0763 19.11 28.875 19.7838C28.3062 19.8275 27.72 19.88 27.125 19.9238V18.1738C27.72 18.13 28.3062 18.0775 28.875 18.0338C36.0763 17.36 41.125 15.8112 41.125 14Z" fill="#7D0126"/>
<path d="M27.125 28.6738V30.4238C25.1912 30.5551 23.135 30.6251 21 30.6251C18.865 30.6251 16.8088 30.5551 14.875 30.4238V28.6738C16.8088 28.8051 18.865 28.8751 21 28.8751C23.135 28.8751 25.1912 28.8051 27.125 28.6738Z" fill="#E3DECB"/>
<path d="M41.125 24.5V26.25C41.125 28.0612 36.0763 29.61 28.875 30.2838C28.3062 30.3275 27.72 30.38 27.125 30.4238V28.6738C27.72 28.63 28.3062 28.5775 28.875 28.5338C36.0763 27.86 41.125 26.3112 41.125 24.5Z" fill="#7D0126"/>
<path d="M27.125 39.1738V40.9238C25.1912 41.0551 23.135 41.1251 21 41.1251C18.865 41.1251 16.8088 41.0551 14.875 40.9238V39.1738C16.8088 39.3051 18.865 39.3751 21 39.3751C23.135 39.3751 25.1912 39.3051 27.125 39.1738Z" fill="#E3DECB"/>
<path d="M41.125 35V36.75C41.125 38.5612 36.0763 40.11 28.875 40.7838C28.3062 40.8275 27.72 40.88 27.125 40.9238V39.1738C27.72 39.13 28.3062 39.0775 28.875 39.0338C36.0763 38.36 41.125 36.8112 41.125 35Z" fill="#7D0126"/>
<path d="M28.875 12.7837V14.5337C28.3062 14.5774 27.72 14.6299 27.125 14.6737C25.1912 14.8049 23.135 14.8749 21 14.8749C18.865 14.8749 16.8088 14.8049 14.875 14.6737C14.28 14.6299 13.6937 14.5774 13.125 14.5337V12.7837C15.54 13.0024 18.2087 13.1249 21 13.1249C23.7913 13.1249 26.46 13.0024 28.875 12.7837Z" fill="#7D0126"/>
<path d="M41.125 8.75V10.5C41.125 12.3112 36.0762 13.86 28.875 14.5338V12.7837C36.0762 12.11 41.125 10.5612 41.125 8.75Z" fill="#E3DECB"/>
<path d="M28.875 23.2837V25.0337C28.3062 25.0774 27.72 25.1299 27.125 25.1737C25.1912 25.3049 23.135 25.3749 21 25.3749C18.865 25.3749 16.8088 25.3049 14.875 25.1737C14.28 25.1299 13.6937 25.0774 13.125 25.0337V23.2837C15.54 23.5024 18.2087 23.6249 21 23.6249C23.7913 23.6249 26.46 23.5024 28.875 23.2837Z" fill="#7D0126"/>
<path d="M41.125 19.25V21C41.125 22.8112 36.0762 24.36 28.875 25.0338V23.2838C36.0762 22.61 41.125 21.0612 41.125 19.25Z" fill="#E3DECB"/>
<path d="M28.875 33.7837V35.5337C28.3062 35.5774 27.72 35.6299 27.125 35.6737C25.1912 35.8049 23.135 35.8749 21 35.8749C18.865 35.8749 16.8088 35.8049 14.875 35.6737C14.28 35.6299 13.6937 35.5774 13.125 35.5337V33.7837C15.54 34.0024 18.2087 34.1249 21 34.1249C23.7913 34.1249 26.46 34.0024 28.875 33.7837Z" fill="#7D0126"/>
<path d="M41.125 29.75V31.5C41.125 33.3112 36.0762 34.86 28.875 35.5338V33.7838C36.0762 33.11 41.125 31.5612 41.125 29.75Z" fill="#E3DECB"/>
<path d="M41.125 40.25V42C41.125 43.8112 36.0762 45.36 28.875 46.0338V44.2838C36.0762 43.61 41.125 42.0612 41.125 40.25Z" fill="#E3DECB"/>
<path d="M41.125 42V47.25C41.125 49.2012 35.245 50.855 27.125 51.4237V46.1737C27.72 46.13 28.3062 46.0775 28.875 46.0338C30.3888 45.8938 31.7975 45.71 33.0925 45.5H37.625C38.5533 45.5 39.4435 45.1313 40.0999 44.4749C40.7563 43.8185 41.125 42.9283 41.125 42Z" fill="#7D0126"/>
<path d="M13.125 46.0338C13.6938 46.0775 14.28 46.13 14.875 46.1737V51.4237C6.755 50.855 0.875 49.2012 0.875 47.25V42C0.875 43.8112 5.92375 45.36 13.125 46.0338Z" fill="#7D0126"/>
<path d="M24.5332 44.5541C21.7973 43.8074 19.2025 42.6164 16.8525 41.0287H16.8438C16.1729 41.0024 15.5167 40.9674 14.875 40.9237C14.28 40.8799 13.6937 40.8274 13.125 40.7837V46.0337C13.6937 46.0774 14.28 46.1299 14.875 46.1737C16.8088 46.3049 18.865 46.3749 21 46.3749C23.135 46.3749 25.1912 46.3049 27.125 46.1737C27.72 46.1299 28.3062 46.0774 28.875 46.0337V44.2837C27.5039 44.4079 26.0444 44.4972 24.5332 44.5541Z" fill="#7D0126"/>
<path d="M14.3754 39.1335C13.0223 37.9711 11.7909 36.6741 10.7004 35.2625C4.82125 34.4925 0.875 33.1012 0.875 31.5V36.75C0.875 38.5612 5.92375 40.11 13.125 40.7837C13.6938 40.8275 14.28 40.88 14.875 40.9237V39.1737C14.7052 39.1615 14.5434 39.1475 14.3754 39.1335Z" fill="#7D0126"/>
<path d="M13.125 28.5338C10.9334 28.3424 8.75575 28.0157 6.6045 27.5555C6.19444 26.3386 5.87908 25.0918 5.66125 23.8262C2.6775 23.0737 0.875 22.085 0.875 21V26.25C0.875 28.0612 5.92375 29.61 13.125 30.2837C13.6938 30.3275 14.28 30.38 14.875 30.4237V28.6737C14.28 28.63 13.6938 28.5775 13.125 28.5338Z" fill="#7D0126"/>
<path d="M13.125 18.0338C10.468 17.8164 7.83384 17.3774 5.25 16.7213V13.2212C2.51125 12.4775 0.875 11.5325 0.875 10.5V15.75C0.875 17.5612 5.92375 19.11 13.125 19.7837C13.6938 19.8275 14.28 19.88 14.875 19.9237V18.1737C14.28 18.13 13.6938 18.0775 13.125 18.0338Z" fill="#7D0126"/>
<path d="M27.125 46.1738V51.4238C25.1912 51.5551 23.135 51.6251 21 51.6251C18.865 51.6251 16.8088 51.5551 14.875 51.4238V46.1738C16.8088 46.3051 18.865 46.3751 21 46.3751C23.135 46.3751 25.1912 46.3051 27.125 46.1738Z" fill="#D9D4C2"/>
<path d="M13.125 40.7838V46.0338C5.92375 45.36 0.875 43.8112 0.875 42V36.75C0.875 38.5612 5.92375 40.11 13.125 40.7838Z" fill="#E3DECB"/>
<path d="M13.125 33.7838C11.788 33.6586 10.5254 33.5029 9.3555 33.3218C8.57046 32.0931 7.88798 30.8019 7.315 29.4612V29.4525C3.35125 28.6562 0.875 27.5188 0.875 26.25V31.5C0.875 33.0995 4.81775 34.4942 10.6995 35.2625C11.4759 35.3628 12.2838 35.4533 13.1233 35.5338L13.125 33.7838Z" fill="#E3DECB"/>
<path d="M5.40487 22.0133C5.30337 21.0956 5.25166 20.1732 5.25 19.25V18.4713C2.51125 17.7275 0.875 16.7825 0.875 15.75V21C0.875 22.8112 5.92375 24.36 13.125 25.0338V23.2838C10.5215 23.0694 7.93972 22.6445 5.40487 22.0133Z" fill="#E3DECB"/>
<path d="M5.25 11.4739V7.97388C2.51125 7.2275 0.875 6.2825 0.875 5.25V10.5C0.875 12.3112 5.92375 13.86 13.125 14.5338V12.7837C10.4681 12.5673 7.83392 12.1292 5.25 11.4739Z" fill="#E3DECB"/>
<path d="M54.6876 30.8264C55.271 33.5784 55.271 36.422 54.6876 39.1739L53.4976 38.6577C52.8851 38.2639 52.0276 38.6402 51.5901 39.4889L48.3876 45.6664C48.1607 46.0173 48.0669 46.4378 48.123 46.8519C48.1792 47.2659 48.3817 47.6462 48.6938 47.9239L49.6563 48.7814C47.1069 51.501 43.8494 53.4555 40.2501 54.4252V53.0252C40.1976 52.6101 39.9855 52.2318 39.6588 51.9705C39.3322 51.7091 38.9165 51.5853 38.5001 51.6252H31.5001C31.0836 51.5853 30.668 51.7091 30.3413 51.9705C30.0146 52.2318 29.8025 52.6101 29.7501 53.0252V54.4252C26.1539 53.4587 22.8992 51.507 20.3526 48.7902L21.3238 47.9239C21.6333 47.6445 21.8339 47.2645 21.89 46.8512C21.946 46.438 21.8539 46.0183 21.6301 45.6664L18.4276 39.4889C17.9813 38.6402 17.1326 38.2639 16.5201 38.6577L15.3126 39.1739C15.0197 37.802 14.8731 36.403 14.8751 35.0002C14.8717 33.594 15.0213 32.1916 15.3213 30.8177L16.5201 31.3339C17.1326 31.7277 17.9813 31.3602 18.4276 30.5027L21.6301 24.3339C21.8545 23.9823 21.9468 23.5624 21.8908 23.1491C21.8347 22.7357 21.6338 22.3556 21.3238 22.0764L20.3613 21.2102C22.9031 18.4918 26.1556 16.5397 29.7501 15.5752V16.9752C29.8025 17.3903 30.0146 17.7686 30.3413 18.0299C30.668 18.2913 31.0836 18.4151 31.5001 18.3752H38.5001C38.9165 18.4151 39.3322 18.2913 39.6588 18.0299C39.9855 17.7686 40.1976 17.3903 40.2501 16.9752V15.5752C43.8478 16.5428 47.103 18.4978 49.6476 21.2189L48.6938 22.0764C48.3817 22.3542 48.1792 22.7345 48.123 23.1485C48.0669 23.5626 48.1607 23.9831 48.3876 24.3339L51.5901 30.5027C52.0276 31.3602 52.8851 31.7277 53.4976 31.3339L54.6876 30.8264ZM48.1251 35.0002C48.1251 32.4043 47.3553 29.8667 45.9131 27.7083C44.4709 25.5499 42.4211 23.8677 40.0228 22.8743C37.6245 21.8809 34.9855 21.621 32.4395 22.1274C29.8935 22.6338 27.5548 23.8839 25.7193 25.7194C23.8837 27.555 22.6337 29.8936 22.1273 32.4396C21.6208 34.9856 21.8807 37.6246 22.8741 40.0229C23.8675 42.4212 25.5498 44.471 27.7082 45.9132C29.8666 47.3554 32.4042 48.1252 35.0001 48.1252C38.4807 48.124 41.8184 46.7409 44.2796 44.2797C46.7407 41.8185 48.1239 38.4808 48.1251 35.0002Z" fill="#D1013E"/>
<path d="M35 21.875C37.5959 21.875 40.1335 22.6448 42.2919 24.087C44.4503 25.5292 46.1325 27.579 47.1259 29.9773C48.1193 32.3756 48.3792 35.0146 47.8728 37.5606C47.3664 40.1066 46.1163 42.4452 44.2808 44.2808C42.4452 46.1163 40.1066 47.3664 37.5606 47.8728C35.0146 48.3792 32.3756 48.1193 29.9773 47.1259C27.579 46.1325 25.5292 44.4503 24.087 42.2919C22.6448 40.1335 21.875 37.5959 21.875 35C21.8762 31.5194 23.2593 28.1817 25.7205 25.7205C28.1817 23.2593 31.5194 21.8762 35 21.875ZM42 35C38.0013 33.8713 35 27.125 35 27.125C35 27.125 31.9988 33.8713 28 35C31.9988 36.1288 35 42.875 35 42.875C35 42.875 38.0013 36.1288 42 35Z" fill="#FFFCED"/>
<path d="M35 27.125C35 27.125 38.0013 33.8713 42 35C38.0013 36.1287 35 42.875 35 42.875C35 42.875 31.9988 36.1287 28 35C31.9988 33.8713 35 27.125 35 27.125Z" fill="#D1013E"/>
<path d="M40.25 53.025V54.425C36.8122 55.3584 33.1878 55.3584 29.75 54.425V53.025C29.8025 52.61 30.0145 52.2316 30.3412 51.9703C30.6679 51.7089 31.0835 51.5851 31.5 51.625H38.5C38.9165 51.5851 39.3321 51.7089 39.6588 51.9703C39.9855 52.2316 40.1975 52.61 40.25 53.025Z" fill="#F7F3E1"/>
<path d="M16.52 38.6574C17.1325 38.2636 17.9812 38.6399 18.4275 39.4886L21.63 45.6661C21.8539 46.0179 21.946 46.4377 21.8899 46.8509C21.8338 47.2641 21.6333 47.6442 21.3238 47.9236L20.3525 48.7899C17.821 46.1083 16.0772 42.7812 15.3125 39.1736L16.52 38.6574Z" fill="#F7F3E1"/>
<path d="M18.4275 30.5025C17.9813 31.36 17.1325 31.7275 16.52 31.3337L15.3213 30.8175C16.0787 27.2099 17.8236 23.8837 20.3613 21.21L21.3238 22.0762C21.6338 22.3554 21.8347 22.7354 21.8908 23.1488C21.9468 23.5622 21.8544 23.9821 21.63 24.3337L18.4275 30.5025Z" fill="#F7F3E1"/>
<path d="M40.25 15.575V16.975C40.1975 17.3901 39.9855 17.7684 39.6588 18.0297C39.3321 18.2911 38.9165 18.4149 38.5 18.375H31.5C31.0835 18.4149 30.6679 18.2911 30.3412 18.0297C30.0145 17.7684 29.8025 17.3901 29.75 16.975V15.575C33.1878 14.6417 36.8122 14.6417 40.25 15.575Z" fill="#F7F3E1"/>
<path d="M53.4976 31.3338C52.8851 31.7275 52.0276 31.36 51.5901 30.5025L48.3876 24.3337C48.1607 23.9829 48.0669 23.5624 48.1231 23.1483C48.1792 22.7343 48.3817 22.354 48.6938 22.0762L49.6476 21.2188C52.1821 23.8947 53.9265 27.22 54.6876 30.8263L53.4976 31.3338Z" fill="#F7F3E1"/>
<path d="M51.5901 39.4886C52.0276 38.6399 52.8851 38.2636 53.4976 38.6574L54.6876 39.1736C53.926 42.7779 52.1851 46.1023 49.6563 48.7811L48.6938 47.9236C48.3817 47.6459 48.1792 47.2656 48.1231 46.8515C48.0669 46.4375 48.1607 46.017 48.3876 45.6661L51.5901 39.4886Z" fill="#F7F3E1"/>
<path d="M35 21C32.2311 21 29.5243 21.8211 27.222 23.3594C24.9197 24.8978 23.1253 27.0843 22.0657 29.6424C21.0061 32.2006 20.7288 35.0155 21.269 37.7313C21.8092 40.447 23.1426 42.9416 25.1005 44.8995C27.0584 46.8574 29.553 48.1908 32.2687 48.731C34.9845 49.2712 37.7994 48.9939 40.3576 47.9343C42.9157 46.8747 45.1022 45.0803 46.6406 42.778C48.1789 40.4757 49 37.7689 49 35C49 31.287 47.525 27.726 44.8995 25.1005C42.274 22.475 38.713 21 35 21ZM35 48.125C32.4041 48.125 29.8665 47.3552 27.7081 45.913C25.5498 44.4708 23.8675 42.421 22.8741 40.0227C21.8807 37.6244 21.6208 34.9854 22.1272 32.4394C22.6336 29.8934 23.8837 27.5548 25.7192 25.7192C27.5548 23.8837 29.8934 22.6336 32.4394 22.1272C34.9854 21.6208 37.6244 21.8807 40.0227 22.8741C42.421 23.8675 44.4709 25.5497 45.913 27.7081C47.3552 29.8665 48.125 32.4041 48.125 35C48.1238 38.4806 46.7407 41.8183 44.2795 44.2795C41.8183 46.7407 38.4806 48.1238 35 48.125Z" fill="#A80132"/>
<path d="M35 21.875C32.4041 21.875 29.8665 22.6448 27.7081 24.087C25.5498 25.5292 23.8675 27.579 22.8741 29.9773C21.8807 32.3756 21.6208 35.0146 22.1272 37.5606C22.6336 40.1066 23.8837 42.4452 25.7192 44.2808C27.5548 46.1163 29.8934 47.3664 32.4394 47.8728C34.9854 48.3792 37.6244 48.1193 40.0227 47.1259C42.421 46.1325 44.4709 44.4503 45.913 42.2919C47.3552 40.1335 48.125 37.5959 48.125 35C48.1238 31.5194 46.7407 28.1817 44.2795 25.7205C41.8183 23.2593 38.4806 21.8762 35 21.875ZM35 47.25C32.5772 47.25 30.2088 46.5316 28.1943 45.1855C26.1798 43.8395 24.6097 41.9263 23.6825 39.6879C22.7553 37.4495 22.5127 34.9864 22.9854 32.6101C23.4581 30.2339 24.6248 28.0511 26.3379 26.3379C28.0511 24.6247 30.2339 23.458 32.6101 22.9854C34.9864 22.5127 37.4495 22.7553 39.6879 23.6825C41.9263 24.6096 43.8395 26.1798 45.1855 28.1943C46.5316 30.2088 47.25 32.5772 47.25 35C47.25 38.2489 45.9594 41.3647 43.6621 43.6621C41.3647 45.9594 38.2489 47.25 35 47.25Z" fill="#E3DECB"/>
<path d="M40.25 53.025V54.425C36.8122 55.3584 33.1878 55.3584 29.75 54.425V53.025C29.8025 52.61 30.0145 52.2316 30.3412 51.9703C30.6679 51.7089 31.0835 51.5851 31.5 51.625H38.5C38.9165 51.5851 39.3321 51.7089 39.6588 51.9703C39.9855 52.2316 40.1975 52.61 40.25 53.025Z" fill="#E3DECB"/>
<path d="M21.3238 47.9236L20.3525 48.7899C17.821 46.1083 16.0772 42.7812 15.3125 39.1736L16.52 38.6574C17.1325 38.2636 17.9812 38.6399 18.4275 39.4886L21.63 45.6661C21.8539 46.0179 21.946 46.4377 21.8899 46.8509C21.8338 47.2641 21.6333 47.6442 21.3238 47.9236Z" fill="#E3DECB"/>
<path d="M54.6876 39.1736C53.926 42.7779 52.1851 46.1023 49.6563 48.7811L48.6938 47.9236C48.3817 47.6459 48.1792 47.2656 48.1231 46.8515C48.0669 46.4375 48.1607 46.017 48.3876 45.6661L51.5901 39.4886C52.0276 38.6399 52.8851 38.2636 53.4976 38.6574L54.6876 39.1736Z" fill="#E3DECB"/>
<path d="M15.7501 34.9998C15.7497 33.7124 15.8778 32.4283 16.1324 31.1664L15.3213 30.8164C15.0212 32.1905 14.8716 33.5933 14.8751 34.9998C14.8731 36.4026 15.0197 37.8016 15.3126 39.1735L16.1316 38.8235C15.8777 37.5648 15.7499 36.2839 15.7501 34.9998Z" fill="#8F0029"/>
<path d="M29.7501 16.4808V15.5752C26.1556 16.5397 22.9032 18.4918 20.3613 21.2102L21.0053 21.7903C23.3876 19.2637 26.4094 17.429 29.7501 16.4808Z" fill="#8F0029"/>
<path d="M21.0044 48.2124L20.3525 48.7934C22.8996 51.509 26.1543 53.4594 29.75 54.4249V53.5193C26.4093 52.572 23.3873 50.7382 21.0044 48.2124Z" fill="#8F0029"/>
<path d="M49 21.7982L49.6449 21.2189C47.101 18.4982 43.8468 16.5433 40.25 15.5752V16.4808C43.5935 17.4303 46.6172 19.2679 49 21.7982Z" fill="#8F0029"/>
<path d="M54.6874 30.8262L53.8684 31.1762C54.3765 33.6988 54.3765 36.2975 53.8684 38.8202L54.6865 39.1745C55.2699 36.4226 55.2699 33.579 54.6865 30.827L54.6874 30.8262Z" fill="#8F0029"/>
<path d="M40.25 53.5193V54.4249C43.8493 53.4553 47.1068 51.5008 49.6562 48.7812L49.0044 48.2002C46.6206 50.7318 43.5952 52.57 40.25 53.5193Z" fill="#8F0029"/>
<path d="M35 54.2502C33.2247 54.2499 31.4579 54.004 29.75 53.5195V54.4252C33.1878 55.3585 36.8122 55.3585 40.25 54.4252V53.5195C38.5421 54.004 36.7753 54.2499 35 54.2502Z" fill="#C7C3B2"/>
<path d="M16.1315 38.8237L15.3125 39.1737C16.0772 42.7813 17.821 46.1084 20.3525 48.79L21.0044 48.209C18.5331 45.5987 16.8447 42.3468 16.1315 38.8237Z" fill="#C7C3B2"/>
<path d="M21.0053 21.7876L20.3613 21.2075C17.8236 23.8812 16.0787 27.2074 15.3213 30.815L16.1324 31.165C16.8473 27.6448 18.5355 24.3959 21.0053 21.7876Z" fill="#E3DECB"/>
<path d="M35 15.75C36.7753 15.7503 38.5421 15.9962 40.25 16.4806V15.575C36.8122 14.6417 33.1878 14.6417 29.75 15.575V16.4806C31.4579 15.9962 33.2247 15.7503 35 15.75Z" fill="#E3DECB"/>
<path d="M53.8685 31.1753L54.6875 30.8253C53.9264 27.219 52.182 23.8937 49.6475 21.2178L49 21.7979C51.4683 24.4066 53.1551 27.6555 53.8685 31.1753Z" fill="#E3DECB"/>
<path d="M49.0044 48.2002L49.6563 48.7812C52.185 46.1023 53.9259 42.778 54.6875 39.1737L53.8694 38.8193C53.1575 42.3399 51.4719 45.5901 49.0044 48.2002Z" fill="#C7C3B2"/>
<path d="M51.625 35.875C52.1082 35.875 52.5 35.4832 52.5 35C52.5 34.5168 52.1082 34.125 51.625 34.125C51.1418 34.125 50.75 34.5168 50.75 35C50.75 35.4832 51.1418 35.875 51.625 35.875Z" fill="#FFFCED"/>
<path d="M18.375 35.875C18.8582 35.875 19.25 35.4832 19.25 35C19.25 34.5168 18.8582 34.125 18.375 34.125C17.8918 34.125 17.5 34.5168 17.5 35C17.5 35.4832 17.8918 35.875 18.375 35.875Z" fill="#FFFCED"/>
<path d="M26.25 49.875C26.7332 49.875 27.125 49.4832 27.125 49C27.125 48.5168 26.7332 48.125 26.25 48.125C25.7668 48.125 25.375 48.5168 25.375 49C25.375 49.4832 25.7668 49.875 26.25 49.875Z" fill="#FFFCED"/>
<path d="M43.75 49.875C44.2332 49.875 44.625 49.4832 44.625 49C44.625 48.5168 44.2332 48.125 43.75 48.125C43.2668 48.125 42.875 48.5168 42.875 49C42.875 49.4832 43.2668 49.875 43.75 49.875Z" fill="#FFFCED"/>
<path d="M26.25 21.875C26.7332 21.875 27.125 21.4832 27.125 21C27.125 20.5168 26.7332 20.125 26.25 20.125C25.7668 20.125 25.375 20.5168 25.375 21C25.375 21.4832 25.7668 21.875 26.25 21.875Z" fill="#FFFCED"/>
<path d="M43.75 21.875C44.2332 21.875 44.625 21.4832 44.625 21C44.625 20.5168 44.2332 20.125 43.75 20.125C43.2668 20.125 42.875 20.5168 42.875 21C42.875 21.4832 43.2668 21.875 43.75 21.875Z" fill="#FFFCED"/>
</g>
<defs>
<clipPath id="clip0_107_2199">
<rect width="56" height="56" fill="white"/>
</clipPath>
</defs>
</svg>
