<svg width="40" height="40" viewBox="0 0 40 40" fill="none" xmlns="http://www.w3.org/2000/svg">
<path d="M37.5855 9.91895H2.41445C1.08102 9.91895 0 11 0 12.3335V31.6929C0 33.0264 1.08102 34.1073 2.41445 34.1073H27.5935C28.0252 34.1073 28.4239 34.3378 28.6395 34.7117L30.9333 38.6917C31.181 39.1214 31.8012 39.1214 32.049 38.6917L34.3428 34.7117C34.5584 34.3377 34.9571 34.1073 35.3888 34.1073H37.5854C38.9189 34.1073 39.9998 33.0263 39.9998 31.6929V12.3335C40 11 38.919 9.91895 37.5855 9.91895Z" fill="#EBEEF2"/>
<path d="M5 12V14.5229C5 16.9956 7.00318 19 9.47428 19H24.8846C27.7098 19 30 16.7083 30 13.8814V12H5Z" fill="#C9CDD3"/>
<path d="M37.5855 9.91895H35.2516C36.5851 9.91895 37.666 11 37.666 12.3334V31.6928C37.666 33.0263 36.585 34.1072 35.2516 34.1072H33.0549C32.6233 34.1072 32.2245 34.3377 32.009 34.7116L30.3242 37.6347L30.9334 38.6917C31.1811 39.1214 31.8013 39.1214 32.0491 38.6917L34.3429 34.7117C34.5584 34.3377 34.9573 34.1073 35.3888 34.1073H37.5855C38.919 34.1073 39.9999 33.0263 39.9999 31.6929V12.3335C40 11 38.919 9.91895 37.5855 9.91895Z" fill="#C9CDD3"/>
<path d="M8.50507 22.686C7.8071 23.2557 7.79288 23.74 7.79288 24.5662C7.79288 24.8226 7.66468 25.079 7.08069 25.079C6.61062 25.079 6.42538 24.8938 6.42538 24.2813C6.42538 22.9566 6.88124 22.3868 7.28007 22.0307C7.77858 21.5606 8.67593 21.0621 8.67593 20.0935C8.67593 19.2959 8.07772 18.8685 7.20882 18.8685C5.81288 18.8685 5.99804 19.8514 5.3428 19.8514C5.01522 19.8514 4.63062 19.6378 4.63062 19.1677C4.63062 18.484 5.52796 17.4868 7.25155 17.4868C9.06054 17.4868 10.1859 18.5267 10.1859 19.8941C10.1859 21.3613 8.93241 22.2871 8.50507 22.686ZM8.06351 27.0732C8.06351 27.586 7.63616 28.0418 7.09491 28.0418C6.55366 28.0418 6.14054 27.586 6.14054 27.0732C6.14054 26.5462 6.56788 26.1046 7.09491 26.1046C7.62194 26.1046 8.06351 26.5462 8.06351 27.0732Z" fill="#243B5D"/>
<path d="M23.5256 17H7.47435C5.00327 17 3 14.9452 3 12.4103V5.58961C3 3.05482 5.00318 1 7.47435 1H23.5256C25.9967 1 28 3.05482 28 5.58961V12.4104C27.9999 14.9452 25.9967 17 23.5256 17Z" fill="#EF9442"/>
<path d="M23.4866 1H21C23.4927 1 25.5135 3.05482 25.5135 5.58961V12.4104C25.5135 14.9452 23.4927 17 21 17H23.4866C25.9793 17 28 14.9452 28 12.4104V5.5897C28 3.05491 25.9793 1 23.4866 1Z" fill="#CD6632"/>
<path d="M7.84814 4.87717C7.84814 4.59183 8.14411 4.44385 8.4506 4.44385H12.1387C12.4346 4.44385 12.5614 4.75034 12.5614 5.03568C12.5614 5.36333 12.4134 5.64867 12.1387 5.64867H9.22201V7.76225H10.8389C11.1136 7.76225 11.2616 8.02644 11.2616 8.31178C11.2616 8.55481 11.1348 8.84015 10.8389 8.84015H9.22201V11.7358C9.22201 12.0211 8.8733 12.169 8.53512 12.169C8.18632 12.169 7.84814 12.021 7.84814 11.7358V4.87717Z" fill="#EBEEF2"/>
<path d="M11.79 11.5982C11.79 11.577 11.8006 11.5348 11.8112 11.4925L13.8508 4.84538C13.9459 4.52835 14.3369 4.38037 14.728 4.38037C15.1296 4.38037 15.5205 4.52826 15.6156 4.84538L17.6553 11.4925C17.6658 11.5348 17.6764 11.5665 17.6764 11.5982C17.6764 11.9258 17.1797 12.1689 16.8099 12.1689C16.5774 12.1689 16.3977 12.0949 16.3449 11.8942L15.9432 10.4886H13.5232L13.1216 11.8942C13.0688 12.0949 12.8891 12.1689 12.6566 12.1689C12.2867 12.1689 11.79 11.9364 11.79 11.5982ZM15.6473 9.41072L14.728 6.1664L13.8086 9.41072H15.6473Z" fill="#EBEEF2"/>
<path d="M20.3495 12.8875V12.2006C19.1765 12.0738 18.3206 11.3974 18.3206 9.81228V6.86383C18.3206 5.08843 19.3984 4.44385 20.7934 4.44385C22.1883 4.44385 23.2767 5.08843 23.2767 6.86383V9.81228C23.2767 11.3869 22.4102 12.0738 21.2266 12.2006V12.8875C21.2266 13.1728 21.0152 13.3207 20.7934 13.3207C20.5714 13.3208 20.3495 13.1728 20.3495 12.8875ZM21.903 6.86383C21.903 6.03959 21.4803 5.64857 20.7934 5.64857C20.0959 5.64857 19.6943 6.03959 19.6943 6.86383V9.81228C19.6943 10.4358 19.9267 10.8057 20.3495 10.943V10.383C20.3495 10.0871 20.5714 9.96026 20.7934 9.96026C21.0153 9.96026 21.2266 10.0871 21.2266 10.383V10.943C21.6493 10.8057 21.903 10.4358 21.903 9.81228V6.86383Z" fill="#EBEEF2"/>
<path d="M15.8855 28.8222C15.5618 28.8222 15.2996 28.5599 15.2996 28.2363V17.5972C15.2996 17.2736 15.5618 17.0112 15.8855 17.0112C16.2092 17.0112 16.4714 17.2736 16.4714 17.5972V28.2363C16.4714 28.5599 16.2092 28.8222 15.8855 28.8222Z" fill="#3872B7"/>
<path d="M34.6086 19.812H21.2351C20.9114 19.812 20.6492 19.5497 20.6492 19.2261C20.6492 18.9025 20.9114 18.6401 21.2351 18.6401H34.6087C34.9324 18.6401 35.1946 18.9025 35.1946 19.2261C35.1946 19.5497 34.9323 19.812 34.6086 19.812Z" fill="#243B5D"/>
<path d="M34.6086 23.5024H21.2351C20.9114 23.5024 20.6492 23.2401 20.6492 22.9165C20.6492 22.5929 20.9114 22.3306 21.2351 22.3306H34.6087C34.9324 22.3306 35.1946 22.5929 35.1946 22.9165C35.1946 23.2401 34.9323 23.5024 34.6086 23.5024Z" fill="#243B5D"/>
<path d="M27.9218 27.1929H21.2351C20.9114 27.1929 20.6492 26.9305 20.6492 26.6069C20.6492 26.2833 20.9114 26.021 21.2351 26.021H27.9218C28.2455 26.021 28.5078 26.2833 28.5078 26.6069C28.5078 26.9305 28.2455 27.1929 27.9218 27.1929Z" fill="#243B5D"/>
</svg>
