<svg width="100" height="100" viewBox="0 0 100 100" fill="none" xmlns="http://www.w3.org/2000/svg">
<g clip-path="url(#clip0_126_602)">
<path d="M0 65.5481V79.1854C0 82.8791 2.72637 86.2625 7.25176 88.8875L11.5064 88.5436L16.7822 92.6057L16.783 92.6065C19.7381 93.352 22.9701 93.8739 26.385 94.125L31.0678 92.7694L35.7506 94.125H35.7508C39.1656 93.8739 42.3975 93.3522 45.3525 92.6065L45.3535 92.6057L50.0922 89.3971L54.8836 88.8875C59.4092 86.2625 62.1355 82.8789 62.1355 79.1852V65.5479C62.1355 57.2028 0 57.2028 0 65.5481Z" fill="url(#paint0_linear_126_602)"/>
<path d="M0 65.5481V79.1854C0 82.8791 2.72637 86.2625 7.25176 88.8875L11.5064 88.5436L16.7822 92.6057L16.783 92.6065C19.7381 93.352 22.9701 93.8739 26.385 94.125L31.0678 92.7694L35.7506 94.125H35.7508C39.1656 93.8739 42.3975 93.3522 45.3525 92.6065L45.3535 92.6057L50.0922 89.3971L54.8836 88.8875C59.4092 86.2625 62.1355 82.8789 62.1355 79.1852V65.5479C62.1355 57.2028 0 57.2028 0 65.5481Z" fill="url(#paint1_linear_126_602)"/>
<path d="M52.781 60.9189V89.1115L54.8835 88.8879C59.4091 86.2629 62.1355 82.8793 62.1355 79.1855V65.5482C62.1355 63.5045 58.4082 61.9617 52.781 60.9189Z" fill="url(#paint2_linear_126_602)"/>
<path d="M7.25122 88.8878C9.87915 90.4146 13.1178 91.6827 16.7821 92.606V59.9214C13.1915 60.2591 9.92759 60.7368 7.25122 61.3548V88.8878Z" fill="url(#paint3_linear_126_602)"/>
<path d="M45.3533 59.9214V92.6062C49.0175 91.6829 52.2562 90.4148 54.8841 88.888V61.3548C52.2078 60.7368 48.9441 60.2591 45.3533 59.9214Z" fill="url(#paint4_linear_126_602)"/>
<path d="M45.3533 59.9214V92.6062C49.0175 91.6829 52.2562 90.4148 54.8841 88.888V61.3548C52.2078 60.7368 48.9441 60.2591 45.3533 59.9214Z" fill="url(#paint5_linear_126_602)"/>
<path d="M26.385 59.3547V94.1252C27.9124 94.2377 29.4758 94.2963 31.0678 94.2963C32.6598 94.2963 34.2233 94.2377 35.7506 94.1252V59.3547C32.6499 59.2698 29.4858 59.2698 26.385 59.3547Z" fill="url(#paint6_linear_126_602)"/>
<path d="M7.25122 88.8878C9.87915 90.4146 13.1178 91.6827 16.7821 92.606V59.9214C13.1915 60.2591 9.92759 60.7368 7.25122 61.3548V88.8878Z" fill="url(#paint7_linear_126_602)"/>
<path d="M26.385 59.3547V94.1252C27.9124 94.2377 29.4758 94.2963 31.0678 94.2963C32.6598 94.2963 34.2233 94.2377 35.7506 94.1252V59.3547C32.6499 59.2698 29.4858 59.2698 26.385 59.3547Z" fill="url(#paint8_linear_126_602)"/>
<path d="M31.0678 80.6586C48.226 80.6586 62.1355 73.8934 62.1355 65.548C62.1355 57.2027 48.226 50.4375 31.0678 50.4375C13.9095 50.4375 0 57.2027 0 65.548C0 73.8934 13.9095 80.6586 31.0678 80.6586Z" fill="url(#paint9_linear_126_602)"/>
<path d="M31.0677 74.6714C44.263 74.6714 54.9599 70.0277 54.9599 64.2993C54.9599 58.571 44.263 53.9272 31.0677 53.9272C17.8724 53.9272 7.17554 58.571 7.17554 64.2993C7.17554 70.0277 17.8724 74.6714 31.0677 74.6714Z" fill="url(#paint10_linear_126_602)"/>
<path d="M31.0677 57.7691C42.7511 57.7691 52.4742 61.41 54.5494 66.2205C54.8179 65.598 54.9599 64.9561 54.9599 64.2998C54.9599 58.5715 44.263 53.9277 31.0677 53.9277C17.8724 53.9277 7.17554 58.5713 7.17554 64.2996C7.17554 64.9561 7.31753 65.5978 7.58608 66.2203C9.66128 61.41 19.3843 57.7691 31.0677 57.7691Z" fill="url(#paint11_linear_126_602)"/>
<path d="M35.7512 74.4688L51.7454 90.4629C52.868 89.9756 53.9178 89.4494 54.8842 88.8879V88.8875C59.4092 86.2625 62.1354 82.8791 62.1354 79.1855V74.4688H35.7512Z" fill="url(#paint12_linear_126_602)"/>
<path d="M28.5 51.1291V64.7664C28.5 68.4602 31.2264 71.8436 35.7518 74.4686L40.0064 74.1246L45.2822 78.1867L45.283 78.1875C48.2381 78.933 51.4701 79.4549 54.885 79.7061L59.5678 78.3504L64.2504 79.7061H64.2506C67.6654 79.4549 70.8973 78.9332 73.8523 78.1875L73.8533 78.1867L78.592 74.9781L83.3834 74.4686C87.909 71.8436 90.6353 68.46 90.6353 64.7662V51.1291C90.6355 42.7838 28.5 42.7838 28.5 51.1291Z" fill="url(#paint13_linear_126_602)"/>
<path d="M28.5 51.1291V64.7664C28.5 68.4602 31.2264 71.8436 35.7518 74.4686L40.0064 74.1246L45.2822 78.1867L45.283 78.1875C48.2381 78.933 51.4701 79.4549 54.885 79.7061L59.5678 78.3504L64.2504 79.7061H64.2506C67.6654 79.4549 70.8973 78.9332 73.8523 78.1875L73.8533 78.1867L78.592 74.9781L83.3834 74.4686C87.909 71.8436 90.6353 68.46 90.6353 64.7662V51.1291C90.6355 42.7838 28.5 42.7838 28.5 51.1291Z" fill="url(#paint14_linear_126_602)"/>
<path d="M28.5 51.1291V64.7664C28.5 68.4602 31.2264 71.8436 35.7518 74.4686L40.0064 74.1246L45.2822 78.1867L45.283 78.1875C48.2381 78.933 51.4701 79.4549 54.885 79.7061L59.5678 78.3504L64.2504 79.7061H64.2506C67.6654 79.4549 70.8973 78.9332 73.8523 78.1875L73.8533 78.1867L78.592 74.9781L83.3834 74.4686C87.909 71.8436 90.6353 68.46 90.6353 64.7662V51.1291C90.6355 42.7838 28.5 42.7838 28.5 51.1291Z" fill="url(#paint15_linear_126_602)"/>
<path d="M81.281 46.5V74.6924L83.3835 74.4688C87.9091 71.8438 90.6355 68.4602 90.6355 64.7664V51.1291C90.6355 49.0854 86.9082 47.5426 81.281 46.5Z" fill="url(#paint16_linear_126_602)"/>
<path d="M35.7512 74.4684C38.3792 75.9951 41.6178 77.2633 45.2821 78.1865V45.502C41.6915 45.8396 38.4276 46.3174 35.7512 46.9354V74.4684Z" fill="url(#paint17_linear_126_602)"/>
<path d="M73.8533 45.502V78.1867C77.5175 77.2635 80.7562 75.9953 83.3841 74.4686V46.9354C80.708 46.3174 77.4441 45.8396 73.8533 45.502Z" fill="url(#paint18_linear_126_602)"/>
<path d="M73.8533 45.502V78.1867C77.5175 77.2635 80.7562 75.9953 83.3841 74.4686V46.9354C80.708 46.3174 77.4441 45.8396 73.8533 45.502Z" fill="url(#paint19_linear_126_602)"/>
<path d="M54.8853 44.9353V79.7056C56.4126 79.8181 57.9761 79.8767 59.5681 79.8767C61.1601 79.8767 62.7235 79.8181 64.2507 79.7056V44.9353C61.1499 44.8503 57.9858 44.8503 54.8853 44.9353Z" fill="url(#paint20_linear_126_602)"/>
<path d="M35.7512 74.4684C38.3792 75.9951 41.6178 77.2633 45.2821 78.1865V45.502C41.6915 45.8396 38.4276 46.3174 35.7512 46.9354V74.4684Z" fill="url(#paint21_linear_126_602)"/>
<path d="M54.8853 44.9353V79.7056C56.4126 79.8181 57.9761 79.8767 59.5681 79.8767C61.1601 79.8767 62.7235 79.8181 64.2507 79.7056V44.9353C61.1499 44.8503 57.9858 44.8503 54.8853 44.9353Z" fill="url(#paint22_linear_126_602)"/>
<path d="M59.5678 66.2396C76.726 66.2396 90.6355 59.4744 90.6355 51.1291C90.6355 42.7838 76.726 36.0186 59.5678 36.0186C42.4095 36.0186 28.5 42.7838 28.5 51.1291C28.5 59.4744 42.4095 66.2396 59.5678 66.2396Z" fill="url(#paint23_linear_126_602)"/>
<path d="M59.5677 60.2524C72.763 60.2524 83.4599 55.6087 83.4599 49.8804C83.4599 44.152 72.763 39.5083 59.5677 39.5083C46.3724 39.5083 35.6755 44.152 35.6755 49.8804C35.6755 55.6087 46.3724 60.2524 59.5677 60.2524Z" fill="url(#paint24_linear_126_602)"/>
<path d="M59.5677 43.3502C71.2511 43.3502 80.9742 46.991 83.0494 51.8016C83.3179 51.1791 83.4599 50.5371 83.4599 49.8809C83.4599 44.1525 72.763 39.5088 59.5677 39.5088C46.3724 39.5088 35.6755 44.1525 35.6755 49.8809C35.6755 50.5373 35.8175 51.1791 36.0861 51.8016C38.1613 46.991 47.8843 43.3502 59.5677 43.3502Z" fill="url(#paint25_linear_126_602)"/>
<path d="M59.5678 66.2396C76.726 66.2396 90.6355 59.4744 90.6355 51.1291C90.6355 42.7838 76.726 36.0186 59.5678 36.0186C42.4095 36.0186 28.5 42.7838 28.5 51.1291C28.5 59.4744 42.4095 66.2396 59.5678 66.2396Z" fill="url(#paint26_linear_126_602)"/>
<path d="M18.897 35.9714V49.6087C18.897 53.3025 21.6233 56.6859 26.1487 59.3109L30.4034 58.9669L35.6792 63.029L35.68 63.0298C38.6351 63.7753 41.8671 64.2972 45.2819 64.5484L49.9647 63.1927L54.6476 64.5484H54.6478C58.0626 64.2972 61.2944 63.7755 64.2495 63.0298L64.2505 63.029L68.9892 59.8204L73.7806 59.3109C78.3062 56.6859 81.0325 53.3023 81.0325 49.6085V35.9712C81.0325 27.6261 18.897 27.6261 18.897 35.9714Z" fill="url(#paint27_linear_126_602)"/>
<path d="M18.897 35.9714V49.6087C18.897 53.3025 21.6233 56.6859 26.1487 59.3109L30.4034 58.9669L35.6792 63.029L35.68 63.0298C38.6351 63.7753 41.8671 64.2972 45.2819 64.5484L49.9647 63.1927L54.6476 64.5484H54.6478C58.0626 64.2972 61.2944 63.7755 64.2495 63.0298L64.2505 63.029L68.9892 59.8204L73.7806 59.3109C78.3062 56.6859 81.0325 53.3023 81.0325 49.6085V35.9712C81.0325 27.6261 18.897 27.6261 18.897 35.9714Z" fill="url(#paint28_linear_126_602)"/>
<path d="M71.678 31.3423V59.5347L73.7803 59.311C78.3059 56.686 81.0323 53.3024 81.0323 49.6087V35.9714C81.0325 33.9278 77.3051 32.3849 71.678 31.3423Z" fill="url(#paint29_linear_126_602)"/>
<path d="M26.1482 59.3106C28.7761 60.8374 32.0148 62.1056 35.6791 63.0288V30.3442C32.0884 30.6819 28.8246 31.1597 26.1482 31.7776V59.3106Z" fill="url(#paint30_linear_126_602)"/>
<path d="M64.2505 30.3442V63.029C67.9147 62.1058 71.1534 60.8376 73.7813 59.3108V31.7776C71.105 31.1599 67.8411 30.6819 64.2505 30.3442Z" fill="url(#paint31_linear_126_602)"/>
<path d="M64.2505 30.3442V63.029C67.9147 62.1058 71.1534 60.8376 73.7813 59.3108V31.7776C71.105 31.1599 67.8411 30.6819 64.2505 30.3442Z" fill="url(#paint32_linear_126_602)"/>
<path d="M45.2822 29.7776V64.5481C46.8096 64.6606 48.373 64.7192 49.965 64.7192C51.557 64.7192 53.1205 64.6606 54.6479 64.5481V29.7776C51.5469 29.6926 48.3828 29.6926 45.2822 29.7776Z" fill="url(#paint33_linear_126_602)"/>
<path d="M26.1482 59.3106C28.7761 60.8374 32.0148 62.1056 35.6791 63.0288V30.3442C32.0884 30.6819 28.8246 31.1597 26.1482 31.7776V59.3106Z" fill="url(#paint34_linear_126_602)"/>
<path d="M45.2822 29.7776V64.5481C46.8096 64.6606 48.373 64.7192 49.965 64.7192C51.557 64.7192 53.1205 64.6606 54.6479 64.5481V29.7776C51.5469 29.6926 48.3828 29.6926 45.2822 29.7776Z" fill="url(#paint35_linear_126_602)"/>
<path d="M49.9647 51.0819C67.123 51.0819 81.0325 44.3167 81.0325 35.9714C81.0325 27.6261 67.123 20.8608 49.9647 20.8608C32.8065 20.8608 18.897 27.6261 18.897 35.9714C18.897 44.3167 32.8065 51.0819 49.9647 51.0819Z" fill="url(#paint36_linear_126_602)"/>
<path d="M49.9647 45.0947C63.16 45.0947 73.8569 40.451 73.8569 34.7227C73.8569 28.9943 63.16 24.3506 49.9647 24.3506C36.7694 24.3506 26.0725 28.9943 26.0725 34.7227C26.0725 40.451 36.7694 45.0947 49.9647 45.0947Z" fill="url(#paint37_linear_126_602)"/>
<path d="M49.9647 28.1925C61.6481 28.1925 71.3711 31.8333 73.4463 36.6438C73.7149 36.0214 73.8569 35.3794 73.8569 34.7231C73.8569 28.9948 63.16 24.3511 49.9647 24.3511C36.7694 24.3511 26.0725 28.9948 26.0725 34.7231C26.0725 35.3796 26.2145 36.0214 26.4831 36.6438C28.5583 31.8333 38.2813 28.1925 49.9647 28.1925Z" fill="url(#paint38_linear_126_602)"/>
<path d="M41.1206 41.1592L63.2349 63.2734C63.5763 63.1949 63.9153 63.1143 64.2497 63.0299L64.2507 63.0291C67.9149 62.1059 71.1536 60.8377 73.7815 59.3109V59.3105C78.3065 56.6855 81.0327 53.3021 81.0327 49.6086V41.1592H41.1206Z" fill="url(#paint39_linear_126_602)"/>
<path d="M37.8645 20.8146V34.452C37.8645 38.1457 40.5909 41.5291 45.1163 44.1541L49.3709 43.8102L54.6467 47.8723L54.6475 47.873C57.6026 48.6186 60.8346 49.1404 64.2495 49.3916L68.9323 48.0359L73.6151 49.3916H73.6153C77.0301 49.1404 80.262 48.6187 83.217 47.873L83.218 47.8723L87.9567 44.6637L92.7481 44.1541C97.2737 41.5291 100 38.1455 100 34.4518V20.8146C100 12.4693 37.8645 12.4693 37.8645 20.8146Z" fill="url(#paint40_linear_126_602)"/>
<path d="M37.8645 20.8146V34.452C37.8645 38.1457 40.5909 41.5291 45.1163 44.1541L49.3709 43.8102L54.6467 47.8723L54.6475 47.873C57.6026 48.6186 60.8346 49.1404 64.2495 49.3916L68.9323 48.0359L73.6151 49.3916H73.6153C77.0301 49.1404 80.262 48.6187 83.217 47.873L83.218 47.8723L87.9567 44.6637L92.7481 44.1541C97.2737 41.5291 100 38.1455 100 34.4518V20.8146C100 12.4693 37.8645 12.4693 37.8645 20.8146Z" fill="url(#paint41_linear_126_602)"/>
<path d="M90.6458 16.1855V44.3779L92.7483 44.1543C97.2739 41.5293 100 38.1457 100 34.452V20.8146C100 18.7711 96.2727 17.2283 90.6458 16.1855Z" fill="url(#paint42_linear_126_602)"/>
<path d="M45.1157 44.1544C47.7437 45.6812 50.9823 46.9493 54.6466 47.8726V15.188C51.056 15.5257 47.7921 16.0034 45.1157 16.6214V44.1544Z" fill="url(#paint43_linear_126_602)"/>
<path d="M83.218 15.188V47.8728C86.8823 46.9495 90.1209 45.6813 92.7489 44.1546V16.6214C90.0725 16.0034 86.8086 15.5257 83.218 15.188Z" fill="url(#paint44_linear_126_602)"/>
<path d="M83.218 15.188V47.8728C86.8823 46.9495 90.1209 45.6813 92.7489 44.1546V16.6214C90.0725 16.0034 86.8086 15.5257 83.218 15.188Z" fill="url(#paint45_linear_126_602)"/>
<path d="M64.2498 14.6213V49.3918C65.7771 49.5043 67.3406 49.5629 68.9326 49.5629C70.5246 49.5629 72.088 49.5043 73.6154 49.3918V14.6213C70.5144 14.5364 67.3503 14.5364 64.2498 14.6213Z" fill="url(#paint46_linear_126_602)"/>
<path d="M45.1157 44.1544C47.7437 45.6812 50.9823 46.9493 54.6466 47.8726V15.188C51.056 15.5257 47.7921 16.0034 45.1157 16.6214V44.1544Z" fill="url(#paint47_linear_126_602)"/>
<path d="M64.2498 14.6213V49.3918C65.7771 49.5043 67.3406 49.5629 68.9326 49.5629C70.5246 49.5629 72.088 49.5043 73.6154 49.3918V14.6213C70.5144 14.5364 67.3503 14.5364 64.2498 14.6213Z" fill="url(#paint48_linear_126_602)"/>
<path d="M68.9323 35.9252C86.0905 35.9252 100 29.16 100 20.8146C100 12.4693 86.0905 5.7041 68.9323 5.7041C51.774 5.7041 37.8645 12.4693 37.8645 20.8146C37.8645 29.16 51.774 35.9252 68.9323 35.9252Z" fill="url(#paint49_linear_126_602)"/>
<path d="M68.9322 29.9385C82.1275 29.9385 92.8244 25.2947 92.8244 19.5664C92.8244 13.8381 82.1275 9.19434 68.9322 9.19434C55.7369 9.19434 45.04 13.8381 45.04 19.5664C45.04 25.2947 55.7369 29.9385 68.9322 29.9385Z" fill="url(#paint50_linear_126_602)"/>
<path d="M68.9322 13.0357C80.6156 13.0357 90.3387 16.6766 92.4139 21.4871C92.6824 20.8646 92.8244 20.2227 92.8244 19.5664C92.8244 13.8381 82.1275 9.19434 68.9322 9.19434C55.7369 9.19434 45.04 13.8381 45.04 19.5664C45.04 20.2229 45.182 20.8646 45.4506 21.4871C47.5258 16.6766 57.2488 13.0357 68.9322 13.0357Z" fill="url(#paint51_linear_126_602)"/>
</g>
<defs>
<linearGradient id="paint0_linear_126_602" x1="19.424" y1="76.7071" x2="50.9338" y2="76.7071" gradientUnits="userSpaceOnUse">
<stop stop-color="#EAF9FA"/>
<stop offset="1" stop-color="#B3DAFE"/>
</linearGradient>
<linearGradient id="paint1_linear_126_602" x1="31.0678" y1="85.0436" x2="31.0678" y2="94.3451" gradientUnits="userSpaceOnUse">
<stop stop-color="#7BACDF" stop-opacity="0"/>
<stop offset="1" stop-color="#7BACDF"/>
</linearGradient>
<linearGradient id="paint2_linear_126_602" x1="55.8542" y1="75.0152" x2="61.7458" y2="75.0152" gradientUnits="userSpaceOnUse">
<stop stop-color="#7BACDF" stop-opacity="0"/>
<stop offset="1" stop-color="#7BACDF"/>
</linearGradient>
<linearGradient id="paint3_linear_126_602" x1="4.03853" y1="74.0019" x2="48.4079" y2="81.8769" gradientUnits="userSpaceOnUse">
<stop stop-color="#62DBFB"/>
<stop offset="0.1912" stop-color="#57D5FA"/>
<stop offset="0.5232" stop-color="#3BC5F7"/>
<stop offset="0.954" stop-color="#0DABF2"/>
<stop offset="1" stop-color="#08A9F1"/>
</linearGradient>
<linearGradient id="paint4_linear_126_602" x1="4.93863" y1="68.9296" x2="49.308" y2="76.8046" gradientUnits="userSpaceOnUse">
<stop stop-color="#62DBFB"/>
<stop offset="0.1912" stop-color="#57D5FA"/>
<stop offset="0.5232" stop-color="#3BC5F7"/>
<stop offset="0.954" stop-color="#0DABF2"/>
<stop offset="1" stop-color="#08A9F1"/>
</linearGradient>
<linearGradient id="paint5_linear_126_602" x1="37.415" y1="76.2638" x2="57.483" y2="76.2638" gradientUnits="userSpaceOnUse">
<stop stop-color="#0593FC" stop-opacity="0"/>
<stop offset="0.6831" stop-color="#0389FC" stop-opacity="0.683"/>
<stop offset="1" stop-color="#0182FC"/>
</linearGradient>
<linearGradient id="paint6_linear_126_602" x1="4.39282" y1="72.0055" x2="48.7622" y2="79.8805" gradientUnits="userSpaceOnUse">
<stop stop-color="#62DBFB"/>
<stop offset="0.1912" stop-color="#57D5FA"/>
<stop offset="0.5232" stop-color="#3BC5F7"/>
<stop offset="0.954" stop-color="#0DABF2"/>
<stop offset="1" stop-color="#08A9F1"/>
</linearGradient>
<linearGradient id="paint7_linear_126_602" x1="12.1932" y1="84.8218" x2="12.3325" y2="93.0366" gradientUnits="userSpaceOnUse">
<stop stop-color="#0593FC" stop-opacity="0"/>
<stop offset="0.6831" stop-color="#0389FC" stop-opacity="0.683"/>
<stop offset="1" stop-color="#0182FC"/>
</linearGradient>
<linearGradient id="paint8_linear_126_602" x1="31.1993" y1="84.4997" x2="31.3385" y2="92.7145" gradientUnits="userSpaceOnUse">
<stop stop-color="#0593FC" stop-opacity="0"/>
<stop offset="0.6831" stop-color="#0389FC" stop-opacity="0.683"/>
<stop offset="1" stop-color="#0182FC"/>
</linearGradient>
<linearGradient id="paint9_linear_126_602" x1="23.0072" y1="51.7633" x2="40.6781" y2="81.983" gradientUnits="userSpaceOnUse">
<stop stop-color="#62DBFB"/>
<stop offset="0.1912" stop-color="#57D5FA"/>
<stop offset="0.5232" stop-color="#3BC5F7"/>
<stop offset="0.954" stop-color="#0DABF2"/>
<stop offset="1" stop-color="#08A9F1"/>
</linearGradient>
<linearGradient id="paint10_linear_126_602" x1="31.0677" y1="78.897" x2="31.0677" y2="57.4817" gradientUnits="userSpaceOnUse">
<stop stop-color="#62DBFB"/>
<stop offset="0.1912" stop-color="#57D5FA"/>
<stop offset="0.5232" stop-color="#3BC5F7"/>
<stop offset="0.954" stop-color="#0DABF2"/>
<stop offset="1" stop-color="#08A9F1"/>
</linearGradient>
<linearGradient id="paint11_linear_126_602" x1="31.0677" y1="79.5377" x2="31.0677" y2="34.7596" gradientUnits="userSpaceOnUse">
<stop stop-color="#0593FC" stop-opacity="0"/>
<stop offset="0.6831" stop-color="#0389FC" stop-opacity="0.683"/>
<stop offset="1" stop-color="#0182FC"/>
</linearGradient>
<linearGradient id="paint12_linear_126_602" x1="47.9518" y1="82.9166" x2="48.8909" y2="77.4531" gradientUnits="userSpaceOnUse">
<stop stop-color="#0593FC" stop-opacity="0"/>
<stop offset="0.6831" stop-color="#0389FC" stop-opacity="0.683"/>
<stop offset="1" stop-color="#0182FC"/>
</linearGradient>
<linearGradient id="paint13_linear_126_602" x1="47.9242" y1="62.2881" x2="79.4338" y2="62.2881" gradientUnits="userSpaceOnUse">
<stop stop-color="#EAF9FA"/>
<stop offset="1" stop-color="#B3DAFE"/>
</linearGradient>
<linearGradient id="paint14_linear_126_602" x1="59.5678" y1="70.6246" x2="59.5678" y2="79.9262" gradientUnits="userSpaceOnUse">
<stop stop-color="#7BACDF" stop-opacity="0"/>
<stop offset="1" stop-color="#7BACDF"/>
</linearGradient>
<linearGradient id="paint15_linear_126_602" x1="60.373" y1="67.0967" x2="59.5193" y2="57.5355" gradientUnits="userSpaceOnUse">
<stop stop-color="#7BACDF" stop-opacity="0"/>
<stop offset="1" stop-color="#7BACDF"/>
</linearGradient>
<linearGradient id="paint16_linear_126_602" x1="84.3542" y1="60.5961" x2="90.246" y2="60.5961" gradientUnits="userSpaceOnUse">
<stop stop-color="#7BACDF" stop-opacity="0"/>
<stop offset="1" stop-color="#7BACDF"/>
</linearGradient>
<linearGradient id="paint17_linear_126_602" x1="32.5385" y1="59.5824" x2="76.9078" y2="67.4576" gradientUnits="userSpaceOnUse">
<stop stop-color="#FD4755"/>
<stop offset="0.3362" stop-color="#E43F48"/>
<stop offset="1" stop-color="#A72B2B"/>
</linearGradient>
<linearGradient id="paint18_linear_126_602" x1="33.4386" y1="54.5102" x2="77.808" y2="62.3852" gradientUnits="userSpaceOnUse">
<stop stop-color="#FD4755"/>
<stop offset="0.3362" stop-color="#E43F48"/>
<stop offset="1" stop-color="#A72B2B"/>
</linearGradient>
<linearGradient id="paint19_linear_126_602" x1="65.9152" y1="61.8443" x2="85.983" y2="61.8443" gradientUnits="userSpaceOnUse">
<stop stop-color="#A72B2B" stop-opacity="0"/>
<stop offset="1" stop-color="#481F05"/>
</linearGradient>
<linearGradient id="paint20_linear_126_602" x1="32.8929" y1="57.5861" x2="77.2622" y2="65.4611" gradientUnits="userSpaceOnUse">
<stop stop-color="#FD4755"/>
<stop offset="0.3362" stop-color="#E43F48"/>
<stop offset="1" stop-color="#A72B2B"/>
</linearGradient>
<linearGradient id="paint21_linear_126_602" x1="39.6084" y1="69.7135" x2="38.4946" y2="78.4852" gradientUnits="userSpaceOnUse">
<stop stop-color="#A72B2B" stop-opacity="0"/>
<stop offset="1" stop-color="#481F05"/>
</linearGradient>
<linearGradient id="paint22_linear_126_602" x1="58.3272" y1="72.0906" x2="57.2134" y2="80.8623" gradientUnits="userSpaceOnUse">
<stop stop-color="#A72B2B" stop-opacity="0"/>
<stop offset="1" stop-color="#481F05"/>
</linearGradient>
<linearGradient id="paint23_linear_126_602" x1="51.5072" y1="37.3443" x2="69.1781" y2="67.5641" gradientUnits="userSpaceOnUse">
<stop stop-color="#FD4755"/>
<stop offset="0.3362" stop-color="#E43F48"/>
<stop offset="1" stop-color="#A72B2B"/>
</linearGradient>
<linearGradient id="paint24_linear_126_602" x1="59.5677" y1="64.4782" x2="59.5677" y2="43.0628" gradientUnits="userSpaceOnUse">
<stop stop-color="#FD4755"/>
<stop offset="0.3362" stop-color="#E43F48"/>
<stop offset="1" stop-color="#A72B2B"/>
</linearGradient>
<linearGradient id="paint25_linear_126_602" x1="59.5677" y1="65.1187" x2="59.5677" y2="20.3406" gradientUnits="userSpaceOnUse">
<stop stop-color="#A72B2B" stop-opacity="0"/>
<stop offset="1" stop-color="#481F05"/>
</linearGradient>
<linearGradient id="paint26_linear_126_602" x1="69.1211" y1="67.9428" x2="64.3191" y2="59.4914" gradientUnits="userSpaceOnUse">
<stop stop-color="#A72B2B" stop-opacity="0"/>
<stop offset="1" stop-color="#481F05"/>
</linearGradient>
<linearGradient id="paint27_linear_126_602" x1="38.3212" y1="47.1304" x2="69.8308" y2="47.1304" gradientUnits="userSpaceOnUse">
<stop stop-color="#EAF9FA"/>
<stop offset="1" stop-color="#B3DAFE"/>
</linearGradient>
<linearGradient id="paint28_linear_126_602" x1="49.9647" y1="55.4669" x2="49.9647" y2="64.7685" gradientUnits="userSpaceOnUse">
<stop stop-color="#7BACDF" stop-opacity="0"/>
<stop offset="1" stop-color="#7BACDF"/>
</linearGradient>
<linearGradient id="paint29_linear_126_602" x1="74.7512" y1="45.4384" x2="80.643" y2="45.4384" gradientUnits="userSpaceOnUse">
<stop stop-color="#7BACDF" stop-opacity="0"/>
<stop offset="1" stop-color="#7BACDF"/>
</linearGradient>
<linearGradient id="paint30_linear_126_602" x1="22.9355" y1="44.4247" x2="67.3048" y2="52.2999" gradientUnits="userSpaceOnUse">
<stop stop-color="#62DBFB"/>
<stop offset="0.1912" stop-color="#57D5FA"/>
<stop offset="0.5232" stop-color="#3BC5F7"/>
<stop offset="0.954" stop-color="#0DABF2"/>
<stop offset="1" stop-color="#08A9F1"/>
</linearGradient>
<linearGradient id="paint31_linear_126_602" x1="23.8359" y1="39.3524" x2="68.205" y2="47.2274" gradientUnits="userSpaceOnUse">
<stop stop-color="#62DBFB"/>
<stop offset="0.1912" stop-color="#57D5FA"/>
<stop offset="0.5232" stop-color="#3BC5F7"/>
<stop offset="0.954" stop-color="#0DABF2"/>
<stop offset="1" stop-color="#08A9F1"/>
</linearGradient>
<linearGradient id="paint32_linear_126_602" x1="56.3122" y1="46.6866" x2="76.38" y2="46.6866" gradientUnits="userSpaceOnUse">
<stop stop-color="#0593FC" stop-opacity="0"/>
<stop offset="0.6831" stop-color="#0389FC" stop-opacity="0.683"/>
<stop offset="1" stop-color="#0182FC"/>
</linearGradient>
<linearGradient id="paint33_linear_126_602" x1="23.2898" y1="42.4284" x2="67.6592" y2="50.3034" gradientUnits="userSpaceOnUse">
<stop stop-color="#62DBFB"/>
<stop offset="0.1912" stop-color="#57D5FA"/>
<stop offset="0.5232" stop-color="#3BC5F7"/>
<stop offset="0.954" stop-color="#0DABF2"/>
<stop offset="1" stop-color="#08A9F1"/>
</linearGradient>
<linearGradient id="paint34_linear_126_602" x1="30.5425" y1="50.9925" x2="29.2894" y2="63.1058" gradientUnits="userSpaceOnUse">
<stop stop-color="#0593FC" stop-opacity="0"/>
<stop offset="0.6831" stop-color="#0389FC" stop-opacity="0.683"/>
<stop offset="1" stop-color="#0182FC"/>
</linearGradient>
<linearGradient id="paint35_linear_126_602" x1="49.3672" y1="52.9399" x2="48.1143" y2="65.0532" gradientUnits="userSpaceOnUse">
<stop stop-color="#0593FC" stop-opacity="0"/>
<stop offset="0.6831" stop-color="#0389FC" stop-opacity="0.683"/>
<stop offset="1" stop-color="#0182FC"/>
</linearGradient>
<linearGradient id="paint36_linear_126_602" x1="41.9042" y1="22.1866" x2="59.5751" y2="52.4063" gradientUnits="userSpaceOnUse">
<stop stop-color="#62DBFB"/>
<stop offset="0.1912" stop-color="#57D5FA"/>
<stop offset="0.5232" stop-color="#3BC5F7"/>
<stop offset="0.954" stop-color="#0DABF2"/>
<stop offset="1" stop-color="#08A9F1"/>
</linearGradient>
<linearGradient id="paint37_linear_126_602" x1="49.9647" y1="49.3205" x2="49.9647" y2="27.9051" gradientUnits="userSpaceOnUse">
<stop stop-color="#62DBFB"/>
<stop offset="0.1912" stop-color="#57D5FA"/>
<stop offset="0.5232" stop-color="#3BC5F7"/>
<stop offset="0.954" stop-color="#0DABF2"/>
<stop offset="1" stop-color="#08A9F1"/>
</linearGradient>
<linearGradient id="paint38_linear_126_602" x1="49.9647" y1="49.961" x2="49.9647" y2="5.18291" gradientUnits="userSpaceOnUse">
<stop stop-color="#0593FC" stop-opacity="0"/>
<stop offset="0.6831" stop-color="#0389FC" stop-opacity="0.683"/>
<stop offset="1" stop-color="#0182FC"/>
</linearGradient>
<linearGradient id="paint39_linear_126_602" x1="61.5179" y1="55.8061" x2="61.0911" y2="41.6352" gradientUnits="userSpaceOnUse">
<stop stop-color="#0593FC" stop-opacity="0"/>
<stop offset="0.6831" stop-color="#0389FC" stop-opacity="0.683"/>
<stop offset="1" stop-color="#0182FC"/>
</linearGradient>
<linearGradient id="paint40_linear_126_602" x1="57.2887" y1="31.9736" x2="88.7983" y2="31.9736" gradientUnits="userSpaceOnUse">
<stop stop-color="#EAF9FA"/>
<stop offset="1" stop-color="#B3DAFE"/>
</linearGradient>
<linearGradient id="paint41_linear_126_602" x1="68.9323" y1="40.3104" x2="68.9323" y2="49.6117" gradientUnits="userSpaceOnUse">
<stop stop-color="#7BACDF" stop-opacity="0"/>
<stop offset="1" stop-color="#7BACDF"/>
</linearGradient>
<linearGradient id="paint42_linear_126_602" x1="93.7188" y1="30.2818" x2="99.6106" y2="30.2818" gradientUnits="userSpaceOnUse">
<stop stop-color="#7BACDF" stop-opacity="0"/>
<stop offset="1" stop-color="#7BACDF"/>
</linearGradient>
<linearGradient id="paint43_linear_126_602" x1="41.903" y1="29.2685" x2="86.2724" y2="37.1435" gradientUnits="userSpaceOnUse">
<stop stop-color="#FD4755"/>
<stop offset="0.3362" stop-color="#E43F48"/>
<stop offset="1" stop-color="#A72B2B"/>
</linearGradient>
<linearGradient id="paint44_linear_126_602" x1="42.8034" y1="24.196" x2="87.1725" y2="32.0712" gradientUnits="userSpaceOnUse">
<stop stop-color="#FD4755"/>
<stop offset="0.3362" stop-color="#E43F48"/>
<stop offset="1" stop-color="#A72B2B"/>
</linearGradient>
<linearGradient id="paint45_linear_126_602" x1="75.2797" y1="31.5302" x2="95.3477" y2="31.5302" gradientUnits="userSpaceOnUse">
<stop stop-color="#A72B2B" stop-opacity="0"/>
<stop offset="1" stop-color="#481F05"/>
</linearGradient>
<linearGradient id="paint46_linear_126_602" x1="42.2574" y1="27.2719" x2="86.6267" y2="35.1471" gradientUnits="userSpaceOnUse">
<stop stop-color="#FD4755"/>
<stop offset="0.3362" stop-color="#E43F48"/>
<stop offset="1" stop-color="#A72B2B"/>
</linearGradient>
<linearGradient id="paint47_linear_126_602" x1="49.4421" y1="35.1954" x2="47.4929" y2="48.2831" gradientUnits="userSpaceOnUse">
<stop stop-color="#A72B2B" stop-opacity="0"/>
<stop offset="1" stop-color="#481F05"/>
</linearGradient>
<linearGradient id="paint48_linear_126_602" x1="68.0449" y1="37.9659" x2="66.0957" y2="51.0538" gradientUnits="userSpaceOnUse">
<stop stop-color="#A72B2B" stop-opacity="0"/>
<stop offset="1" stop-color="#481F05"/>
</linearGradient>
<linearGradient id="paint49_linear_126_602" x1="60.8717" y1="7.02988" x2="78.5426" y2="37.2498" gradientUnits="userSpaceOnUse">
<stop stop-color="#FD4755"/>
<stop offset="0.3362" stop-color="#E43F48"/>
<stop offset="1" stop-color="#A72B2B"/>
</linearGradient>
<linearGradient id="paint50_linear_126_602" x1="68.9322" y1="34.1641" x2="68.9322" y2="12.7486" gradientUnits="userSpaceOnUse">
<stop stop-color="#FD4755"/>
<stop offset="0.3362" stop-color="#E43F48"/>
<stop offset="1" stop-color="#A72B2B"/>
</linearGradient>
<linearGradient id="paint51_linear_126_602" x1="68.9322" y1="34.8043" x2="68.9322" y2="-9.97383" gradientUnits="userSpaceOnUse">
<stop stop-color="#A72B2B" stop-opacity="0"/>
<stop offset="1" stop-color="#481F05"/>
</linearGradient>
<clipPath id="clip0_126_602">
<rect width="100" height="100" fill="white"/>
</clipPath>
</defs>
</svg>
