<svg width="100" height="100" viewBox="0 0 100 100" fill="none" xmlns="http://www.w3.org/2000/svg">
<g id="slot-machine 1" clip-path="url(#clip0_107_2154)">
<path id="Vector" d="M90.1343 25.4927H94.7049V61.3101H90.1343V25.4927Z" fill="url(#paint0_linear_107_2154)"/>
<path id="Vector_2" d="M90.1343 30.187L94.7049 34.7576V25.4927H90.1343V30.187Z" fill="url(#paint1_linear_107_2154)"/>
<path id="Vector_3" d="M92.4195 30.5207C96.606 30.5207 99.9999 27.1268 99.9999 22.9403C99.9999 18.7537 96.606 15.3599 92.4195 15.3599C88.233 15.3599 84.8391 18.7537 84.8391 22.9403C84.8391 27.1268 88.233 30.5207 92.4195 30.5207Z" fill="url(#paint2_linear_107_2154)"/>
<path id="Vector_4" d="M92.4197 29.2667C95.9137 29.2667 98.7462 26.4343 98.7462 22.9402C98.7462 19.4462 95.9137 16.6138 92.4197 16.6138C88.9257 16.6138 86.0933 19.4462 86.0933 22.9402C86.0933 26.4343 88.9257 29.2667 92.4197 29.2667Z" fill="url(#paint3_linear_107_2154)"/>
<path id="Vector_5" d="M95.8106 16.1592C96.3218 17.1796 96.61 18.3311 96.61 19.5502C96.61 23.7366 93.2161 27.1306 89.0297 27.1306C87.8106 27.1306 86.6591 26.8423 85.6387 26.3311C86.8834 28.8153 89.4522 30.5206 92.4197 30.5206C96.6063 30.5206 100 27.1266 100 22.9402C100 19.9727 98.2946 17.4037 95.8106 16.1592Z" fill="url(#paint4_linear_107_2154)"/>
<path id="Vector_6" d="M91.5813 67.8353H88.1641V55.5649H91.5813C93.689 55.5649 95.3976 57.2736 95.3976 59.3812V64.0191C95.3976 66.1267 93.689 67.8353 91.5813 67.8353Z" fill="url(#paint5_linear_107_2154)"/>
<path id="Vector_7" d="M89.518 55.5649H88.1641V67.8353H91.5813C93.689 67.8353 95.3976 66.1267 95.3976 64.0191V61.4446L89.518 55.5649Z" fill="url(#paint6_linear_107_2154)"/>
<path id="Vector_8" d="M85.9754 70.9927H78.5854V52.4072H85.9754C87.9451 52.4072 89.5419 54.0039 89.5419 55.9737V67.4262C89.5419 69.396 87.9453 70.9927 85.9754 70.9927Z" fill="url(#paint7_linear_107_2154)"/>
<path id="Vector_9" d="M82.329 52.4653L82.4145 52.4072H78.5857V70.9927H85.9757C87.9453 70.9927 89.5422 69.396 89.5422 67.4262V59.6782L82.329 52.4653Z" fill="url(#paint8_linear_107_2154)"/>
<path id="Vector_10" d="M51.0767 31.9463H31.2583V25.2691C31.2583 19.7963 35.6948 15.3599 41.1677 15.3599C46.6405 15.3599 51.0769 19.7963 51.0769 25.2691V31.9463H51.0767Z" fill="url(#paint9_linear_107_2154)"/>
<path id="Vector_11" d="M45.7036 16.4588C43.8623 15.5092 41.703 15.5092 39.8617 16.4588C36.6707 18.1043 34.4885 21.4313 34.4885 25.2692V31.9464H51.0768V25.2692C51.0766 21.4313 48.8946 18.1045 45.7036 16.4588Z" fill="url(#paint10_linear_107_2154)"/>
<path id="Vector_12" d="M41.1674 15.3599C40.4776 15.3599 39.8043 15.4306 39.1543 15.565C43.6617 16.4952 47.0506 20.4863 47.0506 25.2693V31.9465H51.0766V25.2693C51.0766 19.7963 46.6402 15.3599 41.1674 15.3599Z" fill="url(#paint11_linear_107_2154)"/>
<path id="Vector_13" d="M41.1674 26.0944C44.9895 26.0944 48.088 23.8552 48.088 21.0929C48.088 18.3306 44.9895 16.0913 41.1674 16.0913C37.3453 16.0913 34.2468 18.3306 34.2468 21.0929C34.2468 23.8552 37.3453 26.0944 41.1674 26.0944Z" fill="url(#paint12_linear_107_2154)"/>
<path id="Vector_14" d="M54.307 33.9268H28.0278V28.5292C28.0278 26.8484 29.3904 25.4858 31.0712 25.4858H51.2637C52.9445 25.4858 54.307 26.8484 54.307 28.5292V33.9268Z" fill="url(#paint13_linear_107_2154)"/>
<path id="Vector_15" d="M54.3071 33.9268V28.5291C54.3071 27.8976 54.1146 27.3111 53.7854 26.8248C53.3852 26.6311 52.9379 26.5195 52.4634 26.5195H32.2709C30.5901 26.5195 29.2275 27.8821 29.2275 29.5629V33.9268H54.3071Z" fill="url(#paint14_linear_107_2154)"/>
<path id="Vector_16" d="M73.4628 93.2191H8.87221C6.0428 93.2191 3.74927 90.9256 3.74927 88.0962V35.3046C3.74927 32.4752 6.0428 30.1816 8.87221 30.1816H73.4628C76.292 30.1816 78.5857 32.4752 78.5857 35.3046V88.0962C78.5857 90.9254 76.292 93.2191 73.4628 93.2191Z" fill="url(#paint15_linear_107_2154)"/>
<path id="Vector_17" d="M55.6479 38.6014H26.6872C25.3558 38.6014 24.2764 37.5219 24.2764 36.1906C24.2764 34.8592 25.3558 33.7798 26.6872 33.7798H55.6479C56.9793 33.7798 58.0587 34.8592 58.0587 36.1906C58.0587 37.5221 56.9793 38.6014 55.6479 38.6014Z" fill="url(#paint16_linear_107_2154)"/>
<path id="Vector_18" d="M11.0448 32.3545C8.2156 32.3545 5.92188 34.648 5.92188 37.4774V90.269C5.92188 91.1241 6.13246 91.9294 6.50286 92.6382C7.21148 93.0086 8.01697 93.2192 8.87207 93.2192H73.4627C76.2919 93.2192 78.5856 90.9257 78.5856 88.0963V35.3047C78.5856 34.4496 78.375 33.6443 78.0046 32.9355C77.296 32.5651 76.4905 32.3545 75.6354 32.3545H11.0448Z" fill="url(#paint17_linear_107_2154)"/>
<path id="Vector_19" d="M3.75024 78.3535V81.0098L15.9602 93.2198H73.4636C76.291 93.2198 78.5846 90.9263 78.5846 88.0967V78.3535H3.75024Z" fill="url(#paint18_linear_107_2154)"/>
<path id="Vector_20" d="M0 46.2697V77.1309C0 79.0511 1.41314 80.6817 3.31471 80.9486C28.4949 84.4829 53.84 84.4831 79.0204 80.9486C80.9218 80.6817 82.3351 79.0509 82.3351 77.1309C82.3351 66.8438 82.3351 56.5568 82.3351 46.2697C82.3351 44.3495 80.922 42.7189 79.0204 42.4521C53.8402 38.9178 28.4949 38.9176 3.31471 42.4521C1.41314 42.7189 0 44.3495 0 46.2697Z" fill="url(#paint19_linear_107_2154)"/>
<path id="Vector_21" d="M5.07276 43.9175C3.17139 44.1843 1.75806 45.8151 1.75806 47.7351V78.5963C1.75806 79.3651 1.98747 80.0853 2.38119 80.6924C2.67512 80.814 2.98688 80.903 3.31453 80.9489C28.4947 84.4832 53.8398 84.4834 79.0202 80.9489C80.9216 80.682 82.3349 79.0512 82.3349 77.1312C82.3349 66.8442 82.3349 56.5571 82.3349 46.27C82.3349 45.5012 82.1055 44.781 81.7118 44.174C81.4179 44.0524 81.1061 43.9634 80.7785 43.9175C55.5983 40.383 30.253 40.383 5.07276 43.9175Z" fill="url(#paint20_linear_107_2154)"/>
<path id="Vector_22" d="M25.4809 48.1072V75.2936C25.4809 75.9829 24.8088 76.5317 24.0137 76.4874C18.4074 76.1748 12.8025 75.7093 7.23151 75.0956C6.5423 75.0197 6.02661 74.5101 6.02661 73.9091V49.4919C6.02661 48.8907 6.5423 48.3813 7.23151 48.3054C12.8025 47.6917 18.4074 47.2262 24.0137 46.9136C24.8088 46.8693 25.4809 47.418 25.4809 48.1072Z" fill="url(#paint21_linear_107_2154)"/>
<path id="Vector_23" d="M50.8948 47.7458V75.6551C50.8948 76.2994 50.3042 76.83 49.5601 76.8506C46.7575 76.9286 43.9589 76.9668 41.1699 76.9668C41.1677 76.9668 41.1677 76.9668 41.1677 76.9668C38.3768 76.9668 35.5779 76.9284 32.7754 76.8506C32.0311 76.8298 31.4407 76.2994 31.4407 75.6551V47.7458C31.4407 47.1015 32.0313 46.5709 32.7754 46.5504C35.5781 46.4723 38.3769 46.4341 41.1677 46.4341C43.9587 46.4341 46.7575 46.4725 49.5601 46.5504C50.3042 46.5709 50.8948 47.1015 50.8948 47.7458Z" fill="url(#paint22_linear_107_2154)"/>
<path id="Vector_24" d="M76.3083 49.4916V73.9086C76.3083 74.5098 75.7926 75.0192 75.1034 75.0951C69.5324 75.7088 63.9275 76.1743 58.3213 76.4869C57.5264 76.5312 56.854 75.9826 56.854 75.2932V48.1069C56.854 47.4177 57.5262 46.8688 58.3213 46.9132C63.9275 47.2257 69.5324 47.6912 75.1034 48.3049C75.7926 48.381 76.3083 48.8904 76.3083 49.4916Z" fill="url(#paint23_linear_107_2154)"/>
<path id="Vector_25" d="M25.4809 48.1072V54.4729C18.9897 54.8474 12.5029 55.458 6.02661 56.3025V49.4923C6.02661 48.8902 6.54151 48.3817 7.23073 48.3051C12.8027 47.6923 18.4068 47.2264 24.0129 46.9137C24.8088 46.869 25.4809 47.4178 25.4809 48.1072Z" fill="url(#paint24_linear_107_2154)"/>
<path id="Vector_26" d="M50.8947 47.7459V54.1945C44.412 53.9604 37.923 53.9604 31.4404 54.1945V47.7459C31.4404 47.1011 32.0318 46.5715 32.7744 46.5502C35.5785 46.4713 38.3761 46.4331 41.1675 46.4331C43.9589 46.4331 46.7565 46.4713 49.5606 46.5502C50.3032 46.5715 50.8947 47.1011 50.8947 47.7459Z" fill="url(#paint25_linear_107_2154)"/>
<path id="Vector_27" d="M76.3083 49.4923V56.3025C69.832 55.4578 63.3452 54.8472 56.854 54.4729V48.1072C56.854 47.4178 57.5264 46.869 58.322 46.9137C63.9281 47.2264 69.532 47.6923 75.1042 48.3051C75.7934 48.3817 76.3083 48.8904 76.3083 49.4923Z" fill="url(#paint26_linear_107_2154)"/>
<path id="Vector_28" d="M25.481 75.2936V54.2269L22.8706 51.6165C22.7594 51.4638 22.601 51.3175 22.3916 51.1779C21.9451 50.8803 21.4935 50.7314 21.0373 50.7314H10.4704C9.95413 50.7314 9.48805 50.8803 9.07139 51.1779C8.65472 51.4756 8.44629 51.803 8.44629 52.1601V56.774C8.44629 57.1244 8.6206 57.4279 8.96805 57.6854L14.6569 63.3763L11.0953 69.5438C10.9563 69.802 10.8871 70.0601 10.8871 70.3177C10.8871 70.9252 11.1506 71.4461 11.6716 71.8828L15.7002 75.9114C18.4684 76.1403 21.241 76.3326 24.0137 76.4871C24.8088 76.5316 25.481 75.9828 25.481 75.2936Z" fill="url(#paint27_linear_107_2154)"/>
<path id="Vector_29" d="M8.44629 56.774V52.1601C8.44629 51.803 8.65452 51.4754 9.07139 51.1779C9.48825 50.8803 9.95413 50.7314 10.4704 50.7314H21.0375C21.4937 50.7314 21.9453 50.8803 22.3918 51.1779C22.8384 51.4756 23.0616 51.803 23.0616 52.1601V55.8809C23.0616 56.5758 22.7439 57.5181 22.109 58.7087L15.1435 72.044C14.9249 72.4607 14.4886 72.6691 13.8337 72.6691C13.0794 72.6691 12.4 72.4412 11.7949 71.9844C11.1892 71.5281 10.8871 70.9724 10.8871 70.3175C10.8871 70.0599 10.9563 69.8016 11.0953 69.5436L18.4179 56.863V54.7795H13.0898V56.7738C13.0898 57.171 12.8516 57.5083 12.3753 57.7858C11.899 58.064 11.353 58.2026 10.7382 58.2026C10.103 58.2026 9.56256 58.064 9.1159 57.7858C8.66943 57.5085 8.44629 57.1712 8.44629 56.774Z" fill="url(#paint28_linear_107_2154)"/>
<path id="Vector_30" d="M13.8339 71.9847C13.2265 71.9847 12.6945 71.8059 12.2073 71.4383C11.6373 71.0089 11.5716 70.5932 11.5716 70.3177C11.5716 70.1757 11.6116 70.0312 11.6938 69.8761L19.1024 57.0465V54.0951H12.4053V56.7738C12.4053 56.9081 12.2792 57.0496 12.0306 57.1945C11.6575 57.4124 11.2349 57.5183 10.7381 57.5183C10.2283 57.5183 9.8161 57.4157 9.47767 57.2049C9.13061 56.9891 9.13062 56.8328 9.13062 56.7738V52.1598C9.13062 52 9.34258 51.8247 9.46905 51.7345C9.76963 51.5198 10.0973 51.4155 10.4704 51.4155H21.0375C21.3587 51.4155 21.6775 51.524 22.0122 51.7471C22.2408 51.8995 22.3773 52.0538 22.3773 52.1598V55.8806C22.3773 56.2777 22.2259 57.0345 21.5053 58.3865L14.5373 71.7271C14.5039 71.79 14.402 71.9847 13.8339 71.9847Z" fill="url(#paint29_linear_107_2154)"/>
<path id="Vector_31" d="M50.8947 54.2263V75.655C50.8947 76.2997 50.3031 76.8293 49.5608 76.8507C47.0908 76.9209 44.6249 76.9571 42.1677 76.9656L37.1082 71.9062L37.0849 71.8828C36.5637 71.4467 36.2998 70.9254 36.2998 70.3169C36.2998 70.0595 36.37 69.802 36.5082 69.5446L40.0698 63.3767L34.3808 57.6856C34.0339 57.4281 33.8596 57.1238 33.8596 56.7728V52.1603C33.8596 51.8028 34.068 51.4752 34.4851 51.1773C34.9022 50.8795 35.3681 50.7305 35.8851 50.7305H46.4506C46.9081 50.7305 47.359 50.8795 47.8059 51.1773C48.0143 51.3177 48.1739 51.4646 48.2845 51.6156L50.8947 54.2263Z" fill="url(#paint30_linear_107_2154)"/>
<path id="Vector_32" d="M50.8946 54.2264V75.655C50.8946 76.2997 50.3031 76.8293 49.5607 76.8507C47.0907 76.9209 44.6248 76.9572 42.1676 76.9656L37.1082 71.9062C37.1401 71.9317 37.174 71.9593 37.2082 71.985C37.8144 72.4425 38.4933 72.6701 39.2485 72.6701C39.9017 72.6701 40.3378 72.4617 40.557 72.0446L47.5227 58.7091C48.1568 57.5178 48.4758 56.5752 48.4758 55.8817V52.1605C48.4758 51.9733 48.414 51.7925 48.2885 51.6201L50.8946 54.2264Z" fill="url(#paint31_linear_107_2154)"/>
<path id="Vector_33" d="M33.8599 56.774V52.1601C33.8599 51.803 34.0681 51.4754 34.485 51.1779C34.9018 50.8803 35.3677 50.7314 35.884 50.7314H46.451C46.9073 50.7314 47.3589 50.8803 47.8054 51.1779C48.2518 51.4756 48.4752 51.803 48.4752 52.1601V55.8809C48.4752 56.5758 48.1575 57.5181 47.5226 58.7087L40.5573 72.044C40.3387 72.4607 39.9024 72.6691 39.2475 72.6691C38.493 72.6691 37.8136 72.4412 37.2085 71.9844C36.6028 71.5281 36.3006 70.9724 36.3006 70.3175C36.3006 70.0599 36.3699 69.8016 36.5089 69.5436L43.8314 56.863V54.7795H38.5032V56.7738C38.5032 57.171 38.265 57.5083 37.7887 57.7858C37.3124 58.064 36.7663 58.2026 36.1516 58.2026C35.5163 58.2026 34.9759 58.064 34.5293 57.7858C34.083 57.5085 33.8599 57.1712 33.8599 56.774Z" fill="url(#paint32_linear_107_2154)"/>
<path id="Vector_34" d="M39.2475 71.9847C38.6401 71.9847 38.1081 71.8059 37.6209 71.4383C37.0509 71.0089 36.985 70.5932 36.985 70.3177C36.985 70.1757 37.025 70.0312 37.1071 69.8761L44.5158 57.0465V54.0951H37.8189V56.7738C37.8189 56.9081 37.6928 57.0496 37.4442 57.1945C37.0711 57.4124 36.6485 57.5183 36.1516 57.5183C35.6418 57.5183 35.2297 57.4157 34.8912 57.2049C34.5442 56.9891 34.5442 56.8328 34.5442 56.7738V52.1598C34.5442 52 34.7561 51.8247 34.8826 51.7345C35.1832 51.5198 35.5109 51.4155 35.884 51.4155H46.4511C46.7722 51.4155 47.0911 51.524 47.4258 51.7471C47.6544 51.8995 47.7909 52.0538 47.7909 52.1598V55.8806C47.7909 56.2777 47.6395 57.0345 46.9189 58.3865L39.9509 71.7271C39.9177 71.79 39.8156 71.9847 39.2475 71.9847Z" fill="url(#paint33_linear_107_2154)"/>
<path id="Vector_35" d="M76.3082 54.2263V73.9083C76.3082 74.5105 75.7933 75.0189 75.1041 75.0956C72.2702 75.4083 69.4235 75.6807 66.5769 75.9167C66.5747 75.9167 66.5747 75.9167 66.5726 75.9167C66.5577 75.9146 66.5428 75.9146 66.5279 75.9124L62.4982 71.8828C61.9771 71.4467 61.7131 70.9254 61.7131 70.3169C61.7131 70.0595 61.7833 69.802 61.9216 69.5446L65.4831 63.3767L59.7941 57.6856C59.4473 57.4281 59.2729 57.1238 59.2729 56.7728V52.1603C59.2729 51.8028 59.4814 51.4752 59.8984 51.1773C60.3155 50.8795 60.7814 50.7305 61.2984 50.7305H71.8639C72.3214 50.7305 72.7724 50.8795 73.2192 51.1773C73.4277 51.3177 73.5873 51.4646 73.6979 51.6156L76.3082 54.2263Z" fill="url(#paint34_linear_107_2154)"/>
<path id="Vector_36" d="M76.3082 54.2264V73.9084C76.3082 74.5105 75.7933 75.0189 75.1041 75.0956C72.268 75.4084 69.4213 75.6807 66.5727 75.9168C66.5578 75.9146 66.5429 75.9146 66.528 75.9125L62.5217 71.9062C62.5537 71.9317 62.5876 71.9593 62.6217 71.985C63.228 72.4425 63.9068 72.6701 64.6621 72.6701C65.3153 72.6701 65.7513 72.4617 65.9706 72.0446L72.9362 58.7091C73.5702 57.5178 73.8894 56.5752 73.8894 55.8817V52.1605C73.8894 51.9733 73.8276 51.7925 73.7021 51.6201L76.3082 54.2264Z" fill="url(#paint35_linear_107_2154)"/>
<path id="Vector_37" d="M59.2734 56.774V52.1601C59.2734 51.803 59.4817 51.4754 59.8985 51.1779C60.3154 50.8803 60.7813 50.7314 61.2976 50.7314H71.8646C72.3209 50.7314 72.7725 50.8803 73.2189 51.1779C73.6654 51.4756 73.8887 51.803 73.8887 52.1601V55.8809C73.8887 56.5758 73.5711 57.5181 72.9362 58.7087L65.9709 72.044C65.7523 72.4607 65.316 72.6691 64.6611 72.6691C63.9066 72.6691 63.2272 72.4412 62.6223 71.9844C62.0166 71.5281 61.7144 70.9724 61.7144 70.3175C61.7144 70.0599 61.7836 69.8016 61.9227 69.5436L69.2452 56.863V54.7795H63.917V56.7738C63.917 57.171 63.6787 57.5083 63.2025 57.7858C62.7262 58.064 62.1801 58.2026 61.5654 58.2026C60.9301 58.2026 60.3897 58.064 59.943 57.7858C59.4968 57.5085 59.2734 57.1712 59.2734 56.774Z" fill="url(#paint36_linear_107_2154)"/>
<path id="Vector_38" d="M64.6609 71.9847C64.0534 71.9847 63.5215 71.8059 63.0342 71.4383C62.4642 71.0089 62.3985 70.5932 62.3985 70.3177C62.3985 70.1757 62.4385 70.0312 62.5207 69.8761L69.9293 57.0465V54.0951H63.2325V56.7738C63.2325 56.9081 63.1064 57.0496 62.8578 57.1945C62.4848 57.4124 62.0621 57.5183 61.5652 57.5183C61.0554 57.5183 60.6433 57.4157 60.3048 57.2049C59.9578 56.9891 59.9578 56.8328 59.9578 56.7738V52.1598C59.9578 52 60.1697 51.8247 60.2962 51.7345C60.5968 51.5198 60.9244 51.4155 61.2976 51.4155H71.8646C72.1858 51.4155 72.5046 51.524 72.8391 51.7471C73.0678 51.8995 73.2042 52.0538 73.2042 52.1598V55.8806C73.2042 56.2777 73.0529 57.0345 72.3323 58.3865L65.3642 71.7271C65.3311 71.79 65.2291 71.9847 64.6609 71.9847Z" fill="url(#paint37_linear_107_2154)"/>
<path id="Vector_39" d="M25.4811 54.2264V75.2935C25.4811 75.9827 24.8087 76.5317 24.013 76.487C21.2409 76.3338 18.4687 76.1401 15.7007 75.9125L11.6946 71.9062C11.7265 71.9317 11.7605 71.9593 11.7946 71.985C12.4009 72.4425 13.0797 72.6701 13.835 72.6701C14.4881 72.6701 14.9244 72.4617 15.1434 72.0446L22.1091 58.7091C22.743 57.5178 23.0622 56.5752 23.0622 55.8817V52.1605C23.0622 51.9733 23.0005 51.7925 22.875 51.6201L25.4811 54.2264Z" fill="url(#paint38_linear_107_2154)"/>
<path id="Vector_40" d="M42.6997 11.5032V8.31263C42.6997 7.46635 42.0136 6.78027 41.1674 6.78027C40.3211 6.78027 39.635 7.46635 39.635 8.31263V11.5032C39.635 12.3497 40.3211 13.0356 41.1674 13.0356C42.0136 13.0356 42.6997 12.3497 42.6997 11.5032Z" fill="url(#paint39_linear_107_2154)"/>
<path id="Vector_41" d="M53.5123 23.2517H56.7029C57.5492 23.2517 58.2353 22.5656 58.2353 21.7194C58.2353 20.8731 57.5492 20.187 56.7029 20.187H53.5123C52.6661 20.187 51.98 20.8731 51.98 21.7194C51.9798 22.5656 52.6661 23.2517 53.5123 23.2517Z" fill="url(#paint40_linear_107_2154)"/>
<path id="Vector_42" d="M25.632 23.2517H28.8227C29.669 23.2517 30.3551 22.5656 30.3551 21.7194C30.3551 20.8731 29.669 20.187 28.8227 20.187H25.632C24.7857 20.187 24.0996 20.8731 24.0996 21.7194C24.0994 22.5656 24.7855 23.2517 25.632 23.2517Z" fill="url(#paint41_linear_107_2154)"/>
<path id="Vector_43" d="M50.7276 15.6034L52.9837 13.3473C53.5822 12.7489 53.5822 11.7787 52.9837 11.1803C52.3853 10.5818 51.4151 10.5818 50.8165 11.1803L48.5604 13.4363C47.962 14.0348 47.962 15.005 48.5604 15.6036C49.1588 16.2018 50.1292 16.2018 50.7276 15.6034Z" fill="url(#paint42_linear_107_2154)"/>
<path id="Vector_44" d="M29.3513 13.347L31.6073 15.6031C32.2058 16.2015 33.176 16.2015 33.7744 15.6031C34.3728 15.0047 34.3728 14.0343 33.7744 13.4359L31.5183 11.1798C30.9199 10.5813 29.9497 10.5813 29.3511 11.1798C28.7528 11.7784 28.7526 12.7486 29.3513 13.347Z" fill="url(#paint43_linear_107_2154)"/>
</g>
<defs>
<linearGradient id="paint0_linear_107_2154" x1="90.7233" y1="43.4015" x2="94.5811" y2="43.4015" gradientUnits="userSpaceOnUse">
<stop stop-color="#E4F2FF"/>
<stop offset="1" stop-color="#B2CBFF"/>
</linearGradient>
<linearGradient id="paint1_linear_107_2154" x1="98.5011" y1="33.9623" x2="88.5094" y2="23.9035" gradientUnits="userSpaceOnUse">
<stop stop-color="#3F3CED" stop-opacity="0"/>
<stop offset="0.2796" stop-color="#3C3DE4" stop-opacity="0.28"/>
<stop offset="0.7305" stop-color="#3541CC" stop-opacity="0.731"/>
<stop offset="1" stop-color="#2F43BB"/>
</linearGradient>
<linearGradient id="paint2_linear_107_2154" x1="89.5832" y1="20.104" x2="99.4011" y2="29.922" gradientUnits="userSpaceOnUse">
<stop stop-color="#91F27F"/>
<stop offset="1" stop-color="#00B302"/>
</linearGradient>
<linearGradient id="paint3_linear_107_2154" x1="93.1748" y1="23.6953" x2="86.3148" y2="16.8353" gradientUnits="userSpaceOnUse">
<stop stop-color="#91F27F" stop-opacity="0"/>
<stop offset="1" stop-color="#FFED82"/>
</linearGradient>
<linearGradient id="paint4_linear_107_2154" x1="92.1316" y1="26.0439" x2="112.344" y2="9.62584" gradientUnits="userSpaceOnUse">
<stop stop-color="#005A01" stop-opacity="0"/>
<stop offset="1" stop-color="#005A01"/>
</linearGradient>
<linearGradient id="paint5_linear_107_2154" x1="91.7807" y1="59.3671" x2="91.7807" y2="68.9089" gradientUnits="userSpaceOnUse">
<stop stop-color="#9B62CD"/>
<stop offset="0.3003" stop-color="#985DCB"/>
<stop offset="0.6716" stop-color="#8F4EC7"/>
<stop offset="1" stop-color="#833AC1"/>
</linearGradient>
<linearGradient id="paint6_linear_107_2154" x1="93.516" y1="64.1712" x2="84.8713" y2="59.6018" gradientUnits="userSpaceOnUse">
<stop stop-color="#833AC1" stop-opacity="0"/>
<stop offset="1" stop-color="#6E566E"/>
</linearGradient>
<linearGradient id="paint7_linear_107_2154" x1="84.0639" y1="58.1664" x2="84.0639" y2="72.6188" gradientUnits="userSpaceOnUse">
<stop stop-color="#FF7044"/>
<stop offset="1" stop-color="#F82814"/>
</linearGradient>
<linearGradient id="paint8_linear_107_2154" x1="87.4439" y1="65.3704" x2="73.7273" y2="58.1202" gradientUnits="userSpaceOnUse">
<stop stop-color="#F82814" stop-opacity="0"/>
<stop offset="1" stop-color="#C0272D"/>
</linearGradient>
<linearGradient id="paint9_linear_107_2154" x1="41.1675" y1="18.0552" x2="41.1675" y2="35.7606" gradientUnits="userSpaceOnUse">
<stop stop-color="#FF7044"/>
<stop offset="1" stop-color="#F82814"/>
</linearGradient>
<linearGradient id="paint10_linear_107_2154" x1="41.453" y1="25.1643" x2="34.8973" y2="16.0755" gradientUnits="userSpaceOnUse">
<stop stop-color="#FF7044" stop-opacity="0"/>
<stop offset="1" stop-color="#FFA325"/>
</linearGradient>
<linearGradient id="paint11_linear_107_2154" x1="45.1155" y1="15.652" x2="45.1155" y2="33.3577" gradientUnits="userSpaceOnUse">
<stop stop-color="#F82814" stop-opacity="0"/>
<stop offset="1" stop-color="#C0272D"/>
</linearGradient>
<linearGradient id="paint12_linear_107_2154" x1="41.1674" y1="21.5639" x2="41.1674" y2="5.36307" gradientUnits="userSpaceOnUse">
<stop stop-color="white" stop-opacity="0"/>
<stop offset="1" stop-color="white"/>
</linearGradient>
<linearGradient id="paint13_linear_107_2154" x1="41.1674" y1="26.8576" x2="41.1674" y2="35.868" gradientUnits="userSpaceOnUse">
<stop stop-color="#8A7889"/>
<stop offset="1" stop-color="#6E566E"/>
</linearGradient>
<linearGradient id="paint14_linear_107_2154" x1="43.8058" y1="33.6785" x2="34.9495" y2="20.9576" gradientUnits="userSpaceOnUse">
<stop stop-color="#8A7889" stop-opacity="0"/>
<stop offset="1" stop-color="#9D8B91"/>
</linearGradient>
<linearGradient id="paint15_linear_107_2154" x1="21.2804" y1="41.6822" x2="60.9628" y2="81.626" gradientUnits="userSpaceOnUse">
<stop stop-color="#9B62CD"/>
<stop offset="0.3003" stop-color="#985DCB"/>
<stop offset="0.6716" stop-color="#8F4EC7"/>
<stop offset="1" stop-color="#833AC1"/>
</linearGradient>
<linearGradient id="paint16_linear_107_2154" x1="41.1675" y1="37.7904" x2="41.1675" y2="32.4406" gradientUnits="userSpaceOnUse">
<stop stop-color="#9B62CD"/>
<stop offset="0.1454" stop-color="#965ACB"/>
<stop offset="0.672" stop-color="#8843C4"/>
<stop offset="1" stop-color="#833AC1"/>
</linearGradient>
<linearGradient id="paint17_linear_107_2154" x1="59.5899" y1="74.6808" x2="-16.7652" y2="22.2949" gradientUnits="userSpaceOnUse">
<stop stop-color="#9B62CD" stop-opacity="0"/>
<stop offset="1" stop-color="#FF75C8"/>
</linearGradient>
<linearGradient id="paint18_linear_107_2154" x1="41.5516" y1="96.5804" x2="41.0657" y2="75.2063" gradientUnits="userSpaceOnUse">
<stop stop-color="#833AC1" stop-opacity="0"/>
<stop offset="1" stop-color="#6E566E"/>
</linearGradient>
<linearGradient id="paint19_linear_107_2154" x1="39.8176" y1="52.4758" x2="44.8618" y2="86.9448" gradientUnits="userSpaceOnUse">
<stop stop-color="#FFD945"/>
<stop offset="0.3043" stop-color="#FFCD3E"/>
<stop offset="0.8558" stop-color="#FFAD2B"/>
<stop offset="1" stop-color="#FFA325"/>
</linearGradient>
<linearGradient id="paint20_linear_107_2154" x1="47.4685" y1="71.734" x2="21.7212" y2="27.5659" gradientUnits="userSpaceOnUse">
<stop stop-color="#FFD945" stop-opacity="0"/>
<stop offset="1" stop-color="#FBED21"/>
</linearGradient>
<linearGradient id="paint21_linear_107_2154" x1="15.7539" y1="55.5356" x2="15.7539" y2="72.8844" gradientUnits="userSpaceOnUse">
<stop stop-color="white"/>
<stop offset="1" stop-color="#E4F2FF"/>
</linearGradient>
<linearGradient id="paint22_linear_107_2154" x1="41.1675" y1="55.5357" x2="41.1675" y2="72.8845" gradientUnits="userSpaceOnUse">
<stop stop-color="white"/>
<stop offset="1" stop-color="#E4F2FF"/>
</linearGradient>
<linearGradient id="paint23_linear_107_2154" x1="66.5811" y1="55.5353" x2="66.5811" y2="72.8841" gradientUnits="userSpaceOnUse">
<stop stop-color="white"/>
<stop offset="1" stop-color="#E4F2FF"/>
</linearGradient>
<linearGradient id="paint24_linear_107_2154" x1="15.7539" y1="48.8584" x2="15.7539" y2="43.3907" gradientUnits="userSpaceOnUse">
<stop stop-color="#3F3CED" stop-opacity="0"/>
<stop offset="0.2796" stop-color="#3C3DE4" stop-opacity="0.28"/>
<stop offset="0.7305" stop-color="#3541CC" stop-opacity="0.731"/>
<stop offset="1" stop-color="#2F43BB"/>
</linearGradient>
<linearGradient id="paint25_linear_107_2154" x1="41.1675" y1="48.8588" x2="41.1675" y2="43.3911" gradientUnits="userSpaceOnUse">
<stop stop-color="#3F3CED" stop-opacity="0"/>
<stop offset="0.2796" stop-color="#3C3DE4" stop-opacity="0.28"/>
<stop offset="0.7305" stop-color="#3541CC" stop-opacity="0.731"/>
<stop offset="1" stop-color="#2F43BB"/>
</linearGradient>
<linearGradient id="paint26_linear_107_2154" x1="66.5811" y1="48.8586" x2="66.5811" y2="43.3909" gradientUnits="userSpaceOnUse">
<stop stop-color="#3F3CED" stop-opacity="0"/>
<stop offset="0.2796" stop-color="#3C3DE4" stop-opacity="0.28"/>
<stop offset="0.7305" stop-color="#3541CC" stop-opacity="0.731"/>
<stop offset="1" stop-color="#2F43BB"/>
</linearGradient>
<linearGradient id="paint27_linear_107_2154" x1="16.5628" y1="61.0038" x2="6.59237" y2="50.7979" gradientUnits="userSpaceOnUse">
<stop stop-color="#3F3CED" stop-opacity="0"/>
<stop offset="0.2796" stop-color="#3C3DE4" stop-opacity="0.28"/>
<stop offset="0.7305" stop-color="#3541CC" stop-opacity="0.731"/>
<stop offset="1" stop-color="#2F43BB"/>
</linearGradient>
<linearGradient id="paint28_linear_107_2154" x1="8.44629" y1="61.7005" x2="23.0616" y2="61.7005" gradientUnits="userSpaceOnUse">
<stop stop-color="#FFD945"/>
<stop offset="0.3043" stop-color="#FFCD3E"/>
<stop offset="0.8558" stop-color="#FFAD2B"/>
<stop offset="1" stop-color="#FFA325"/>
</linearGradient>
<linearGradient id="paint29_linear_107_2154" x1="9.13062" y1="61.7002" x2="22.3773" y2="61.7002" gradientUnits="userSpaceOnUse">
<stop stop-color="#FF7044"/>
<stop offset="1" stop-color="#F82814"/>
</linearGradient>
<linearGradient id="paint30_linear_107_2154" x1="42.0526" y1="61.0818" x2="31.9933" y2="50.7852" gradientUnits="userSpaceOnUse">
<stop stop-color="#3F3CED" stop-opacity="0"/>
<stop offset="0.2796" stop-color="#3C3DE4" stop-opacity="0.28"/>
<stop offset="0.7305" stop-color="#3541CC" stop-opacity="0.731"/>
<stop offset="1" stop-color="#2F43BB"/>
</linearGradient>
<linearGradient id="paint31_linear_107_2154" x1="47.466" y1="65.6946" x2="35.8025" y2="58.3895" gradientUnits="userSpaceOnUse">
<stop stop-color="#3F3CED" stop-opacity="0"/>
<stop offset="0.2796" stop-color="#3C3DE4" stop-opacity="0.28"/>
<stop offset="0.7305" stop-color="#3541CC" stop-opacity="0.731"/>
<stop offset="1" stop-color="#2F43BB"/>
</linearGradient>
<linearGradient id="paint32_linear_107_2154" x1="33.8599" y1="61.7005" x2="48.4752" y2="61.7005" gradientUnits="userSpaceOnUse">
<stop stop-color="#FFD945"/>
<stop offset="0.3043" stop-color="#FFCD3E"/>
<stop offset="0.8558" stop-color="#FFAD2B"/>
<stop offset="1" stop-color="#FFA325"/>
</linearGradient>
<linearGradient id="paint33_linear_107_2154" x1="34.5442" y1="61.7002" x2="47.7909" y2="61.7002" gradientUnits="userSpaceOnUse">
<stop stop-color="#FF7044"/>
<stop offset="1" stop-color="#F82814"/>
</linearGradient>
<linearGradient id="paint34_linear_107_2154" x1="67.1451" y1="60.3607" x2="57.1984" y2="48.3389" gradientUnits="userSpaceOnUse">
<stop stop-color="#3F3CED" stop-opacity="0"/>
<stop offset="0.2796" stop-color="#3C3DE4" stop-opacity="0.28"/>
<stop offset="0.7305" stop-color="#3541CC" stop-opacity="0.731"/>
<stop offset="1" stop-color="#2F43BB"/>
</linearGradient>
<linearGradient id="paint35_linear_107_2154" x1="72.6166" y1="65.3331" x2="61.6674" y2="58.4754" gradientUnits="userSpaceOnUse">
<stop stop-color="#3F3CED" stop-opacity="0"/>
<stop offset="0.2796" stop-color="#3C3DE4" stop-opacity="0.28"/>
<stop offset="0.7305" stop-color="#3541CC" stop-opacity="0.731"/>
<stop offset="1" stop-color="#2F43BB"/>
</linearGradient>
<linearGradient id="paint36_linear_107_2154" x1="59.2734" y1="61.7005" x2="73.8887" y2="61.7005" gradientUnits="userSpaceOnUse">
<stop stop-color="#FFD945"/>
<stop offset="0.3043" stop-color="#FFCD3E"/>
<stop offset="0.8558" stop-color="#FFAD2B"/>
<stop offset="1" stop-color="#FFA325"/>
</linearGradient>
<linearGradient id="paint37_linear_107_2154" x1="59.9578" y1="61.7002" x2="73.2042" y2="61.7002" gradientUnits="userSpaceOnUse">
<stop stop-color="#FF7044"/>
<stop offset="1" stop-color="#F82814"/>
</linearGradient>
<linearGradient id="paint38_linear_107_2154" x1="22.0683" y1="65.5078" x2="10.5526" y2="58.2952" gradientUnits="userSpaceOnUse">
<stop stop-color="#3F3CED" stop-opacity="0"/>
<stop offset="0.2796" stop-color="#3C3DE4" stop-opacity="0.28"/>
<stop offset="0.7305" stop-color="#3541CC" stop-opacity="0.731"/>
<stop offset="1" stop-color="#2F43BB"/>
</linearGradient>
<linearGradient id="paint39_linear_107_2154" x1="40.8105" y1="9.90792" x2="43.9636" y2="9.90792" gradientUnits="userSpaceOnUse">
<stop stop-color="#FFD945"/>
<stop offset="0.3043" stop-color="#FFCD3E"/>
<stop offset="0.8558" stop-color="#FFAD2B"/>
<stop offset="1" stop-color="#FFA325"/>
</linearGradient>
<linearGradient id="paint40_linear_107_2154" x1="55.1076" y1="21.3625" x2="55.1076" y2="24.5156" gradientUnits="userSpaceOnUse">
<stop stop-color="#FFD945"/>
<stop offset="0.3043" stop-color="#FFCD3E"/>
<stop offset="0.8558" stop-color="#FFAD2B"/>
<stop offset="1" stop-color="#FFA325"/>
</linearGradient>
<linearGradient id="paint41_linear_107_2154" x1="27.2273" y1="21.3625" x2="27.2273" y2="24.5156" gradientUnits="userSpaceOnUse">
<stop stop-color="#FFD945"/>
<stop offset="0.3043" stop-color="#FFCD3E"/>
<stop offset="0.8558" stop-color="#FFAD2B"/>
<stop offset="1" stop-color="#FFA325"/>
</linearGradient>
<linearGradient id="paint42_linear_107_2154" x1="50.4772" y1="13.1328" x2="52.7067" y2="15.3622" gradientUnits="userSpaceOnUse">
<stop stop-color="#FFD945"/>
<stop offset="0.3043" stop-color="#FFCD3E"/>
<stop offset="0.8558" stop-color="#FFAD2B"/>
<stop offset="1" stop-color="#FFA325"/>
</linearGradient>
<linearGradient id="paint43_linear_107_2154" x1="31.8238" y1="13.096" x2="29.5944" y2="15.3254" gradientUnits="userSpaceOnUse">
<stop stop-color="#FFD945"/>
<stop offset="0.3043" stop-color="#FFCD3E"/>
<stop offset="0.8558" stop-color="#FFAD2B"/>
<stop offset="1" stop-color="#FFA325"/>
</linearGradient>
<clipPath id="clip0_107_2154">
<rect width="100" height="100" fill="white"/>
</clipPath>
</defs>
</svg>
