<svg width="40" height="40" viewBox="0 0 40 40" fill="none" xmlns="http://www.w3.org/2000/svg">
<g id="icon object">
<g id="Icon">
<g id="_97">
<g id="Group">
<path id="Vector" d="M15.3125 29.4062H24.6875C25.5469 29.4062 26.25 30.1094 26.25 30.9688V33.7031H13.75V30.9688C13.75 30.1094 14.4531 29.4062 15.3125 29.4062Z" fill="#B24E1D"/>
<path id="Vector_2" d="M12.7734 33.7031H27.2266C28.4141 33.7031 29.375 34.6641 29.375 35.8516C29.375 37.0391 28.4141 38 27.2266 38H12.7734C11.5859 38 10.625 37.0391 10.625 35.8516C10.625 34.6641 11.5859 33.7031 12.7734 33.7031Z" fill="#FFA017"/>
</g>
<g id="Group_2">
<g id="Group_3">
<path id="Vector_3" d="M28.5313 8.50791C30.4454 6.59385 33.4376 6.26572 35.0235 6.24229C35.6563 6.23447 36.1173 6.69541 36.1095 7.32822C36.0782 8.90635 35.7579 11.8985 33.8438 13.8204C31.9298 15.7423 28.9376 16.0626 27.3517 16.086C26.7188 16.0938 26.2579 15.6329 26.2657 15.0001C26.297 13.422 26.6173 10.422 28.5313 8.50791Z" fill="#FF7129"/>
<path id="Vector_4" d="M30.3437 12.2735C32.6953 10.9219 35.664 11.3907 37.2031 11.7735C37.8203 11.9297 38.1406 12.4922 37.9687 13.1016C37.5312 14.6172 36.4375 17.4219 34.0859 18.7735C31.7343 20.1251 28.7656 19.6563 27.2265 19.2735C26.6093 19.1172 26.289 18.5547 26.4609 17.9454C26.8984 16.4297 28 13.6251 30.3437 12.2735Z" fill="#F2540F"/>
<path id="Vector_5" d="M31.3907 15.6015C34.0704 15.1796 36.6797 16.6796 37.9688 17.5859C38.4922 17.9531 38.5938 18.5937 38.2032 19.1015C37.25 20.3593 35.2266 22.5859 32.5469 23.0078C29.8672 23.4296 27.2579 21.9296 25.9688 21.0234C25.4454 20.6562 25.3438 20.0156 25.7344 19.5078C26.6875 18.25 28.711 16.0234 31.3907 15.6015Z" fill="#FF7129"/>
<path id="Vector_6" d="M29.8126 18.6719C32.3673 19.5782 33.9532 22.1328 34.6563 23.5469C34.9376 24.1172 34.7267 24.7266 34.1485 24.9922C32.711 25.6485 29.8673 26.6485 27.3126 25.7422C24.7579 24.836 23.172 22.2735 22.4688 20.8672C22.1876 20.2969 22.3985 19.6797 22.9766 19.4219C24.4141 18.7578 27.2579 17.7657 29.8126 18.6719Z" fill="#F2540F"/>
</g>
<g id="Group_4">
<path id="Vector_7" d="M11.4688 8.50791C9.55479 6.59385 6.5626 6.26572 4.97666 6.24229C4.34385 6.23447 3.88291 6.69541 3.89072 7.32822C3.92197 8.90635 4.24229 11.8985 6.15635 13.8204C8.07041 15.7423 11.0626 16.0626 12.6485 16.086C13.2813 16.0938 13.7423 15.6329 13.7345 15.0001C13.7032 13.422 13.3829 10.422 11.4688 8.50791Z" fill="#FF7129"/>
<path id="Vector_8" d="M9.65622 12.2735C7.30466 10.9219 4.32809 11.3907 2.79684 11.7735C2.17966 11.9297 1.85935 12.4922 2.03122 13.1016C2.46872 14.6172 3.56247 17.4219 5.91403 18.7735C8.26559 20.1251 11.2422 19.6563 12.7734 19.2735C13.3906 19.1172 13.7187 18.5547 13.539 17.9454C13.0937 16.4297 12 13.6251 9.65622 12.2735Z" fill="#F2540F"/>
<path id="Vector_9" d="M8.60942 15.6015C5.93755 15.1796 3.32817 16.6796 2.0313 17.5859C1.50786 17.9531 1.4063 18.5937 1.79692 19.1015C2.75005 20.3593 4.77348 22.5859 7.45317 23.0078C10.1329 23.4296 12.7422 21.9296 14.0313 21.0234C14.5547 20.6562 14.6485 20.0156 14.2735 19.5078C13.3125 18.25 11.2891 16.0234 8.60942 15.6015Z" fill="#FF7129"/>
<path id="Vector_10" d="M10.1877 18.6719C7.63297 19.5782 6.04703 22.1328 5.34391 23.5469C5.06266 24.1172 5.28141 24.7266 5.85953 24.9922C7.29703 25.6485 10.1408 26.6485 12.6955 25.7422C15.2502 24.836 16.8361 22.2735 17.5392 20.8672C17.8205 20.2969 17.6095 19.6797 17.0236 19.4219C15.5861 18.7578 12.7423 17.7657 10.1877 18.6719Z" fill="#F2540F"/>
</g>
</g>
<g id="Group_5">
<path id="Vector_11" d="M18.5156 2.28906L11.3125 5.24219C9.84375 5.84375 8.89062 7.27344 8.89062 8.85938V18.3281C8.89062 26.8438 16.3203 29.5312 19.0312 30.2266C19.6719 30.3906 20.3359 30.3906 20.9766 30.2266C23.6875 29.5312 31.1172 26.8438 31.1172 18.3281V8.85938C31.1172 7.27344 30.1562 5.84375 28.6953 5.24219L21.4844 2.28906C20.5312 1.89844 19.4688 1.89844 18.5156 2.28906Z" fill="#FFB031"/>
<path id="Vector_12" d="M20 28.3906C19.8359 28.3906 19.6719 28.3672 19.5156 28.3281C18.3516 28.0312 16.1016 27.2891 14.1875 25.7031C11.9688 23.8594 10.8359 21.375 10.8359 18.3281V8.85938C10.8359 8.0625 11.3125 7.35156 12.0469 7.05469L19.25 4.10156C19.4844 4.00781 19.7344 3.95312 19.9922 3.95312C20.25 3.95312 20.5 4 20.7344 4.10156L27.9375 7.05469C28.6719 7.35938 29.1484 8.0625 29.1484 8.85938V18.3281C29.1484 21.3828 28.0234 23.8594 25.7969 25.7031C23.8828 27.2891 21.6406 28.0312 20.4688 28.3281C20.3281 28.3672 20.1641 28.3906 20 28.3906Z" fill="#FFA017"/>
</g>
</g>
</g>
<path id="Subtract" fill-rule="evenodd" clip-rule="evenodd" d="M28 16.5C28 20.6421 24.6421 24 20.5 24C16.3579 24 13 20.6421 13 16.5C13 12.3579 16.3579 9 20.5 9C24.6421 9 28 12.3579 28 16.5ZM18.991 20.89C19.3943 21.0513 19.8123 21.132 20.245 21.132C20.817 21.132 21.3267 21.011 21.774 20.769C22.2213 20.5197 22.5733 20.1823 22.83 19.757C23.094 19.3243 23.226 18.8403 23.226 18.305C23.226 17.7697 23.116 17.3003 22.896 16.897C22.6833 16.4937 22.379 16.1783 21.983 15.951C21.587 15.7163 21.114 15.599 20.564 15.599C20.1167 15.599 19.75 15.6687 19.464 15.808C19.431 15.8245 19.3988 15.8421 19.3671 15.8608L19.5822 14.235H22.929V12.805H18.353L17.693 17.392L19.09 17.722C19.1853 17.4873 19.3357 17.315 19.541 17.205C19.7463 17.0877 19.981 17.029 20.245 17.029C20.5017 17.029 20.7253 17.084 20.916 17.194C21.1067 17.2967 21.2533 17.4433 21.356 17.634C21.466 17.8247 21.521 18.0483 21.521 18.305C21.521 18.5617 21.466 18.789 21.356 18.987C21.2533 19.1777 21.1067 19.328 20.916 19.438C20.7253 19.5407 20.5017 19.592 20.245 19.592C19.9443 19.592 19.673 19.5113 19.431 19.35C19.189 19.1887 19.013 18.932 18.903 18.58L17.396 19.086C17.484 19.5113 17.671 19.878 17.957 20.186C18.243 20.4867 18.5877 20.7213 18.991 20.89Z" fill="#FFF0C5"/>
</g>
</svg>
