<svg width="80" height="80" viewBox="0 0 80 80" fill="none" xmlns="http://www.w3.org/2000/svg">
<g id="shield 1">
<g id="Group">
<g id="Group_2">
<path id="Vector" d="M65.4887 15.0577C57.998 15.0577 50.7362 12.4768 44.9256 7.74961C42.0567 5.41549 37.9434 5.41549 35.0745 7.74961C29.264 12.4769 22.002 15.0577 14.5115 15.0577C12.1725 15.0577 10.2764 16.9538 10.2764 19.2929V30.6438C10.2764 45.2051 16.8333 58.9925 28.1288 68.1822L31.615 71.0185C36.4991 74.9921 43.5015 74.9921 48.3856 71.0185L51.8718 68.1822C63.1672 58.9927 69.7242 45.2046 69.7242 30.6432C69.7242 26.2854 69.7242 22.1901 69.7242 19.292C69.7238 16.9529 67.8277 15.0577 65.4887 15.0577Z" fill="url(#paint0_linear_228_3702)"/>
<path id="Vector_2" d="M39.9998 70.2617C39.1833 70.2617 38.3846 69.9778 37.7511 69.4625L31.0833 64.0377C26.2131 60.0753 22.2134 54.9839 19.5169 49.3139C16.8203 43.644 15.395 37.3283 15.395 31.0498V22.0421C15.395 20.9523 16.2859 20.0257 17.3742 19.9682C24.7951 19.5758 31.9693 16.824 37.7511 12.12C38.3847 11.6045 39.1833 11.3208 39.9998 11.3208C40.8164 11.3208 41.615 11.6045 42.2484 12.1199C48.0305 16.824 55.2049 19.5758 62.6258 19.9682C63.7138 20.0257 64.6045 20.9522 64.6045 22.0418V31.0492C64.6045 37.3279 63.1792 43.6436 60.4827 49.3137C57.7862 54.9839 53.7866 60.0753 48.9164 64.0377L42.2484 69.4625C41.615 69.978 40.8164 70.2617 39.9998 70.2617Z" fill="url(#paint1_linear_228_3702)"/>
<path id="Vector_3" d="M40.0001 67.7758C39.2523 67.7758 38.5211 67.5159 37.9411 67.0441L31.836 62.0771C27.3767 58.4492 23.7146 53.7873 21.2457 48.5959C18.7767 43.4044 17.4717 37.6217 17.4717 31.8729V23.6253C17.4717 22.6276 18.2874 21.7792 19.2838 21.7264C26.0784 21.3671 32.6473 18.8475 37.9411 14.5405C38.5213 14.0686 39.2525 13.8086 40.0001 13.8086C40.7478 13.8086 41.479 14.0685 42.0588 14.5403C47.3529 18.8475 53.922 21.3671 60.7166 21.7264C61.7128 21.7791 62.5284 22.6273 62.5284 23.6249V31.8722C62.5284 37.621 61.2234 43.4038 58.7545 48.5955C56.2855 53.7872 52.6234 58.449 48.1641 62.077L42.0588 67.0439C41.479 67.5159 40.7478 67.7758 40.0001 67.7758Z" fill="url(#paint2_linear_228_3702)"/>
<path id="Vector_4" d="M69.7234 19.292C69.7234 16.953 67.8273 15.0578 65.4883 15.0578C57.9976 15.0578 50.7358 12.4769 44.9252 7.74968C43.4907 6.58262 41.7452 5.99902 39.9996 5.99902V73.9987C42.9712 73.9987 45.9428 73.0053 48.3849 71.0185L51.8712 68.1823C63.1665 58.9927 69.7234 45.2047 69.7236 30.6433C69.7234 26.2853 69.7234 22.19 69.7234 19.292Z" fill="url(#paint3_linear_228_3702)"/>
</g>
<path id="Vector_5" d="M62.1903 25.7865C60.8581 24.4545 58.6984 24.7275 57.3663 26.0595L40.7465 42.6792C40.5845 42.8412 40.1267 43.1482 40.0003 43.1482C39.8739 43.1482 39.6891 43.1142 39.527 42.9521L33.1563 36.5815C31.8242 35.2495 29.801 35.2495 28.4689 36.5815C27.1368 37.9136 27.0002 39.8003 28.3324 41.1324L53.761 66.561C63.2448 57.9994 68.9585 46.0281 69.6521 33.274L62.1903 25.7865Z" fill="url(#paint4_linear_228_3702)"/>
<path id="Vector_6" d="M51.8713 68.1821C59.9335 61.6229 65.5808 52.7207 68.1537 42.867L52.7825 27.4959C49.5745 24.1077 45.0342 22.2666 39.9999 22.2666C30.4081 22.2665 22.6719 30.0028 22.672 39.5946C22.672 44.629 24.5131 49.1691 27.9014 52.3771L46.3757 70.8514C46.9401 71.4158 47.8401 71.4619 48.4593 70.9582L51.8713 68.1821Z" fill="url(#paint5_linear_228_3702)"/>
<path id="Vector_7" d="M40.0001 57.1953C49.7208 57.1953 57.6009 49.3152 57.6009 39.5945C57.6009 29.8738 49.7208 21.9937 40.0001 21.9937C30.2794 21.9937 22.3993 29.8738 22.3993 39.5945C22.3993 49.3152 30.2794 57.1953 40.0001 57.1953Z" fill="url(#paint6_linear_228_3702)"/>
<path id="Vector_8" d="M54.2134 29.2134L40.7466 42.6801C40.5846 42.8421 40.1267 43.1492 40.0003 43.1492C39.8739 43.1492 39.6891 43.1152 39.527 42.953L33.1563 36.5824C31.8242 35.2504 29.801 35.2504 28.4689 36.5824C27.1368 37.9145 27.0002 39.8012 28.3324 41.1333L43.9496 56.7506C51.7686 54.9579 57.6011 47.9577 57.6011 39.5948C57.6011 35.7121 56.3428 32.1239 54.2134 29.2134Z" fill="url(#paint7_linear_228_3702)"/>
<path id="Vector_9" d="M40.0001 49.6974C37.9991 49.6974 36.1178 48.9181 34.7028 47.5031L28.3322 41.1326C27.0001 39.8005 27.0001 37.6408 28.3322 36.3087C29.6642 34.9767 31.8239 34.9767 33.1562 36.3087L39.5268 42.6793C39.6889 42.8414 39.8737 42.8754 40.0001 42.8754C40.1265 42.8754 40.3113 42.8414 40.4735 42.6793L57.3662 25.7866C58.6983 24.4546 60.858 24.4546 62.1901 25.7866C63.5222 27.1187 63.5222 29.2784 62.1901 30.6106L45.2974 47.5031C43.8825 48.9181 42.0012 49.6974 40.0001 49.6974Z" fill="url(#paint8_linear_228_3702)"/>
</g>
</g>
<defs>
<linearGradient id="paint0_linear_228_3702" x1="15.0958" y1="9.20921" x2="66.3577" y2="60.471" gradientUnits="userSpaceOnUse">
<stop stop-color="#B5DBFF"/>
<stop offset="1" stop-color="#76E2F8"/>
</linearGradient>
<linearGradient id="paint1_linear_228_3702" x1="73.4489" y1="68.3786" x2="28.0929" y2="23.0225" gradientUnits="userSpaceOnUse">
<stop stop-color="#B5DBFF" stop-opacity="0"/>
<stop offset="0.2428" stop-color="#93CEF6" stop-opacity="0.243"/>
<stop offset="0.5763" stop-color="#6ABFEC" stop-opacity="0.576"/>
<stop offset="0.8403" stop-color="#51B5E5" stop-opacity="0.84"/>
<stop offset="1" stop-color="#48B2E3"/>
</linearGradient>
<linearGradient id="paint2_linear_228_3702" x1="31.2307" y1="26.6556" x2="51.1545" y2="46.5795" gradientUnits="userSpaceOnUse">
<stop stop-color="#EDF5FF"/>
<stop offset="1" stop-color="#D5E8FE"/>
</linearGradient>
<linearGradient id="paint3_linear_228_3702" x1="46.1775" y1="41.1443" x2="5.24531" y2="21.497" gradientUnits="userSpaceOnUse">
<stop stop-color="#B5DBFF" stop-opacity="0"/>
<stop offset="0.1734" stop-color="#8FC5E9" stop-opacity="0.173"/>
<stop offset="0.4541" stop-color="#56A4C8" stop-opacity="0.454"/>
<stop offset="0.6955" stop-color="#2D8DB1" stop-opacity="0.696"/>
<stop offset="0.8853" stop-color="#147EA2" stop-opacity="0.885"/>
<stop offset="1" stop-color="#0B799D"/>
</linearGradient>
<linearGradient id="paint4_linear_228_3702" x1="61.8364" y1="49.0894" x2="47.8285" y2="38.4469" gradientUnits="userSpaceOnUse">
<stop stop-color="#B5DBFF" stop-opacity="0"/>
<stop offset="0.1734" stop-color="#8FC5E9" stop-opacity="0.173"/>
<stop offset="0.4541" stop-color="#56A4C8" stop-opacity="0.454"/>
<stop offset="0.6955" stop-color="#2D8DB1" stop-opacity="0.696"/>
<stop offset="0.8853" stop-color="#147EA2" stop-opacity="0.885"/>
<stop offset="1" stop-color="#0B799D"/>
</linearGradient>
<linearGradient id="paint5_linear_228_3702" x1="59.4778" y1="59.0724" x2="36.1313" y2="35.726" gradientUnits="userSpaceOnUse">
<stop stop-color="#B5DBFF" stop-opacity="0"/>
<stop offset="0.1734" stop-color="#8FC5E9" stop-opacity="0.173"/>
<stop offset="0.4541" stop-color="#56A4C8" stop-opacity="0.454"/>
<stop offset="0.6955" stop-color="#2D8DB1" stop-opacity="0.696"/>
<stop offset="0.8853" stop-color="#147EA2" stop-opacity="0.885"/>
<stop offset="1" stop-color="#0B799D"/>
</linearGradient>
<linearGradient id="paint6_linear_228_3702" x1="31.8136" y1="31.4081" x2="48.7785" y2="48.3728" gradientUnits="userSpaceOnUse">
<stop stop-color="#B9DD39"/>
<stop offset="1" stop-color="#90CC1C"/>
</linearGradient>
<linearGradient id="paint7_linear_228_3702" x1="55.9983" y1="49.8989" x2="49.6899" y2="43.5904" gradientUnits="userSpaceOnUse">
<stop stop-color="#66BB00" stop-opacity="0"/>
<stop offset="1" stop-color="#66BB00"/>
</linearGradient>
<linearGradient id="paint8_linear_228_3702" x1="38.4511" y1="26.6494" x2="56.0221" y2="44.2203" gradientUnits="userSpaceOnUse">
<stop stop-color="#0B799D"/>
<stop offset="1" stop-color="#07485E"/>
</linearGradient>
</defs>
</svg>
