<svg width="80" height="80" viewBox="0 0 80 80" fill="none" xmlns="http://www.w3.org/2000/svg">
<g id="team-viewer 1">
<g id="Group">
<g id="Group_2">
<path id="Vector" d="M45.5279 58.2832H39.9999H34.4719L30.7219 69.5332H39.9999H49.2779L45.5279 58.2832Z" fill="#CCE6FF"/>
<path id="Vector_2" d="M45.5277 58.2832H39.9998V69.5332H49.2777L45.5277 58.2832Z" fill="#B3CCFF"/>
<path id="Vector_3" d="M39.9998 8.00098H7.99988V60.751H39.9998H71.9998V8.00098H39.9998Z" fill="#333E73"/>
<path id="Vector_4" d="M39.9998 8.00098H71.9997V60.751H39.9998V8.00098Z" fill="#1F2859"/>
<path id="Vector_5" d="M39.9998 11.751H11.7499V57.001H39.9998H68.2498V11.751H39.9998Z" fill="#66CCFF"/>
<path id="Vector_6" d="M39.9998 11.751H68.2497V57.001H39.9998V11.751Z" fill="#4DA6FF"/>
<path id="Vector_7" d="M39.9997 68.2505H23.1248V72.0005H39.9997H56.8747V68.2505H39.9997Z" fill="#E6F7FF"/>
<path id="Vector_8" d="M39.9998 68.2505H56.8747V72.0005H39.9998V68.2505Z" fill="#CCE6FF"/>
</g>
<path id="Vector_9" d="M39.9995 53.251C50.3548 53.251 58.7495 44.8004 58.7495 34.376C58.7495 23.9516 50.3548 15.501 39.9995 15.501C29.6442 15.501 21.2495 23.9516 21.2495 34.376C21.2495 44.8004 29.6442 53.251 39.9995 53.251Z" fill="#EDF5FF"/>
<path id="Vector_10" d="M58.7497 34.376C58.7497 24.0379 50.3379 15.501 39.9998 15.501V53.251C50.3379 53.251 58.7497 44.7141 58.7497 34.376Z" fill="#D5E8FE"/>
<path id="Vector_11" d="M52.1617 34.3764L43.7499 29.1177V32.5014H39.9999H36.2499V29.1177L27.838 34.3764L36.2499 39.6352V36.2514H39.9999H43.7499V39.6352L52.1617 34.3764Z" fill="#66CCFF"/>
<path id="Vector_12" d="M43.7498 39.6352L52.1616 34.3764L43.7498 29.1177V32.5014H39.9998V36.2514H43.7498V39.6352Z" fill="#4DA6FF"/>
</g>
</g>
</svg>
