<svg width="80" height="80" viewBox="0 0 80 80" fill="none" xmlns="http://www.w3.org/2000/svg">
<g id="trust 1">
<g id="Group">
<g id="Group_2">
<path id="Vector" d="M38.6897 3.35549L24.8429 9.8283C23.6657 10.3783 22.9429 11.6327 23.0282 12.9739C23.2688 16.7414 24.1816 24.4646 27.6379 30.2258C31.9975 37.493 37.411 39.3949 39.306 39.8552C39.7631 39.9655 40.2366 39.9655 40.6935 39.8552C42.5881 39.3949 48.0019 37.493 52.3616 30.2258C55.8181 24.4649 56.7306 16.7411 56.9712 12.9739C57.0566 11.6327 56.3331 10.3783 55.1566 9.8283L41.3097 3.35549C40.4766 2.96549 39.5225 2.96549 38.6897 3.35549Z" fill="#FFA91A"/>
<path id="Vector_2" d="M32.8546 34.5244C32.6965 34.5244 32.5384 34.465 32.4168 34.3456C31.0452 32.9994 29.7981 31.3966 28.7096 29.5825C26.2759 25.5262 25.174 20.4297 24.6781 16.8681C24.6306 16.5262 24.869 16.2106 25.2109 16.1631C25.5534 16.1125 25.8684 16.3537 25.9162 16.6959C26.3962 20.1419 27.4562 25.0631 29.7815 28.9391C30.8156 30.6628 31.9968 32.1816 33.2924 33.4531C33.539 33.695 33.5424 34.0906 33.3006 34.3372C33.1784 34.4619 33.0165 34.5244 32.8546 34.5244ZM25.0106 14.9228C24.6912 14.9228 24.4187 14.6794 24.389 14.355L24.3709 14.1534C24.3412 13.8094 24.5962 13.5069 24.9399 13.4772C25.2815 13.4428 25.5865 13.7022 25.6162 14.0459L25.6337 14.2406C25.6653 14.5844 25.4121 14.8884 25.0684 14.92C25.049 14.9219 25.0296 14.9228 25.0106 14.9228Z" fill="#FFC91D"/>
<path id="Vector_3" d="M55.1563 9.82836L49.77 7.31055C50.4197 7.95617 50.7825 8.87898 50.721 9.84898C50.48 13.6162 49.5679 21.3399 46.1113 27.1009C41.7516 34.368 36.3382 36.2699 34.4432 36.7302C34.0566 36.8237 33.6588 36.833 33.2682 36.7684C35.8754 38.8184 38.1951 39.5855 39.3057 39.8552C39.7629 39.9655 40.2363 39.9655 40.6932 39.8552C42.5879 39.3949 48.0016 37.4927 52.3613 30.2259C55.8178 24.4646 56.7303 16.7412 56.971 12.974C57.0563 11.6327 56.3328 10.3784 55.1563 9.82836Z" fill="#F79219"/>
<path id="Vector_4" d="M55.1566 9.8284L52.6638 8.66309C53.4588 9.30809 53.9153 10.3315 53.8466 11.4115C53.6056 15.1787 52.6935 22.9025 49.2369 28.6634C44.8772 35.9306 39.4638 37.8325 37.5688 38.2928C37.1119 38.4031 36.6385 38.4031 36.1813 38.2928C35.8376 38.2093 35.3766 38.0775 34.8285 37.8756C36.7766 39.1128 38.4235 39.6409 39.3063 39.8553C39.7635 39.9656 40.2369 39.9656 40.6938 39.8553C42.5885 39.395 48.0022 37.4928 52.3619 30.2259C55.8185 24.4646 56.731 16.7412 56.9716 12.974C57.0566 11.6328 56.3331 10.3784 55.1566 9.8284Z" fill="#EF7816"/>
<path id="Vector_5" d="M39.0778 8.72898L29.3316 13.2849C28.5028 13.6721 27.9944 14.5549 28.0541 15.499C28.2234 18.1509 28.8659 23.5868 31.2987 27.6418C34.3675 32.7568 38.1775 34.0955 39.5112 34.4196C39.8331 34.4974 40.1662 34.4974 40.4878 34.4196C41.8215 34.0955 45.6318 32.7568 48.7003 27.6418C51.1331 23.5868 51.7753 18.1505 51.945 15.499C52.005 14.5549 51.4959 13.6721 50.6675 13.2849L40.9215 8.72898C40.3353 8.45492 39.6637 8.45492 39.0778 8.72898Z" fill="#F1F2F2"/>
<path id="Vector_6" d="M50.6674 13.2837L45.1168 10.689C45.5143 11.1362 45.7349 11.7387 45.6946 12.3727C45.5252 15.0243 44.883 20.4605 42.4499 24.5155C39.3812 29.6305 35.5712 30.9693 34.2374 31.293C34.2184 31.2977 34.199 31.2993 34.1799 31.3033C36.4343 33.4668 38.5781 34.1915 39.5105 34.418C39.8324 34.4958 40.1656 34.4958 40.4871 34.418C41.8209 34.094 45.6312 32.7552 48.6996 27.6405C51.1324 23.5855 51.7746 18.1493 51.9443 15.4977C52.0046 14.554 51.4955 13.6708 50.6674 13.2837Z" fill="#E6E7E8"/>
<path id="Vector_7" d="M39.3558 27.7525C38.968 27.7525 38.5924 27.6082 38.3033 27.3447L33.8202 23.2585C33.1824 22.6772 33.1365 21.6891 33.718 21.0513C34.299 20.4135 35.2874 20.3675 35.9252 20.9491L39.1446 23.8835L44.5061 16.8163C45.0274 16.1291 46.0077 15.9944 46.6955 16.516C47.3827 17.0375 47.5174 18.0178 46.9958 18.7053L40.6005 27.135C40.3352 27.4844 39.9352 27.7066 39.4983 27.7466C39.4508 27.7503 39.4033 27.7525 39.3558 27.7525Z" fill="#414042"/>
</g>
<g id="Group_3">
<path id="Vector_8" d="M47.2356 53.6093C47.7675 53.415 48.2368 53.0409 48.5418 52.5121L50.274 49.5118C50.3603 49.3625 50.309 49.1712 50.1596 49.085L37.4106 41.7243C35.9159 40.8615 34.0047 41.3734 33.1418 42.8681L32.014 44.8212L47.2356 53.6093Z" fill="#FCC4AE"/>
<g id="Group_4">
<path id="Vector_9" d="M56.109 40.1309L31.9672 54.0693L42.7278 72.7074L53.0659 66.7387C55.0637 65.5852 56.7152 63.9165 57.8481 61.9068L65.9727 57.2162L56.109 40.1309Z" fill="#F2AD97"/>
<path id="Vector_10" d="M56.9498 60.3525L65.0742 55.6618L65.971 57.2149L57.8465 61.9057L56.9498 60.3525Z" fill="#E59076"/>
<g id="Group_5">
<path id="Vector_11" d="M69.539 58.392L77.499 53.7964L64.8328 31.8579L56.8728 36.4535C55.6771 37.1438 55.2675 38.6729 55.9578 39.8685L66.124 57.477C66.8143 58.6726 68.3434 59.0823 69.539 58.392Z" fill="#377DE2"/>
<path id="Vector_12" d="M56.8728 36.4544L57.0374 36.3594L65.8449 51.6147C66.3403 52.4725 67.4371 52.7663 68.2949 52.2713L74.5371 48.6672L77.499 53.7972L69.539 58.3928C68.3434 59.0831 66.8143 58.6734 66.124 57.4778L55.9578 39.8694C55.2675 38.6738 55.6771 37.1447 56.8728 36.4544Z" fill="#2266D3"/>
</g>
<path id="Vector_13" d="M56.9518 60.3535L57.8487 61.9066C56.7159 63.9163 55.0643 65.5851 53.0665 66.7385L42.7284 72.7073L41.8315 71.1541L52.1697 65.1854C54.1675 64.032 55.819 62.3632 56.9518 60.3535Z" fill="#E59076"/>
</g>
<g id="Group_6">
<path id="Vector_14" d="M60.1657 61.0746L23.8898 40.1309L14.0258 57.2156L22.1504 61.9062C23.2832 63.9159 24.9348 65.5846 26.9326 66.7381L35.2323 71.5299L43.9688 76.574C45.2554 77.3168 46.9007 76.8762 47.6438 75.5893C48.3866 74.3027 47.946 72.6574 46.6591 71.9146L51.3185 74.6046C52.6051 75.3474 54.2504 74.9068 54.9932 73.6199C55.736 72.3334 55.2954 70.6881 54.0085 69.9452L56.3382 71.2902C57.6248 72.0331 59.2701 71.5924 60.0129 70.3056C60.7557 69.0187 60.3148 67.3737 59.0282 66.6306L57.4751 65.734C58.7616 66.4768 60.4069 66.0359 61.1497 64.7493C61.8932 63.4627 61.4523 61.8177 60.1657 61.0746Z" fill="#FCC4AE"/>
<g id="Group_7">
<path id="Vector_15" d="M10.4597 58.392L2.49976 53.7964L15.166 31.8579L23.126 36.4535C24.3216 37.1438 24.7313 38.6729 24.041 39.8685L13.8747 57.477C13.1844 58.6726 11.6554 59.0823 10.4597 58.392Z" fill="#377DE2"/>
<path id="Vector_16" d="M23.1259 36.4544L22.9612 36.3594L14.1537 51.6147C13.6584 52.4725 12.5615 52.7663 11.7037 52.2713L5.4615 48.6672L2.49963 53.7972L10.4596 58.3928C11.6552 59.0831 13.1843 58.6734 13.8746 57.4778L24.0409 39.8694C24.7312 38.6738 24.3215 37.1447 23.1259 36.4544Z" fill="#2266D3"/>
</g>
<g id="Group_8">
<path id="Vector_17" d="M55.3085 72.7201C54.4672 73.4141 53.256 73.5588 52.256 72.9816L41.9663 67.041L41.0288 68.6648L51.3185 74.6054C52.605 75.3482 54.2504 74.9076 54.9935 73.6207C55.1588 73.3338 55.2569 73.0285 55.3085 72.7201Z" fill="#F2AD97"/>
<path id="Vector_18" d="M60.3283 69.4062C59.4871 70.1003 58.2759 70.245 57.2759 69.6678L44.6565 62.3818L43.719 64.0056L56.3384 71.2915C57.6249 72.0343 59.2702 71.5937 60.013 70.3068C60.1787 70.02 60.2765 69.7147 60.3283 69.4062Z" fill="#F2AD97"/>
<path id="Vector_19" d="M61.4654 63.8492C60.6242 64.5432 59.4129 64.6879 58.4129 64.1107L47.3467 57.7217L46.4092 59.3454L57.4754 65.7345C58.762 66.4773 60.4073 66.0364 61.1501 64.7498C61.3157 64.4629 61.4138 64.1576 61.4654 63.8492Z" fill="#F2AD97"/>
<g id="Group_9">
<path id="Vector_20" d="M14.0243 57.2178L14.921 55.6647L23.0454 60.3554L22.1487 61.9086L14.0243 57.2178Z" fill="#F2AD97"/>
<path id="Vector_21" d="M44.9062 74.9507L27.8293 65.1854C25.8315 64.0319 24.18 62.3632 23.0471 60.3535L22.1503 61.9066C23.2831 63.9163 24.9346 65.5851 26.9324 66.7385L43.9687 76.5745C45.2552 77.3173 46.9005 76.8763 47.6437 75.5898C47.8093 75.3032 47.9071 74.9976 47.9587 74.6891C47.1174 75.3832 45.9059 75.5279 44.9062 74.9507Z" fill="#F2AD97"/>
</g>
</g>
</g>
<g id="Group_10">
<path id="Vector_22" d="M36.0301 76.5746L40.1073 74.2209C41.3939 73.4781 41.8348 71.8327 41.092 70.5462C40.3492 69.2596 38.7039 68.8187 37.4173 69.5615L33.3401 71.9152C32.0536 72.6581 31.6126 74.3034 32.3554 75.5899C33.0982 76.8765 34.7436 77.3174 36.0301 76.5746Z" fill="#F2AD97"/>
<path id="Vector_23" d="M39.2104 72.6683L35.1332 75.0221C34.1204 75.6068 32.8916 75.449 32.0494 74.7318C32.1035 75.0255 32.1969 75.3171 32.3551 75.5908C33.0979 76.8774 34.7432 77.3183 36.0297 76.5755L40.1069 74.2218C41.3935 73.479 41.8344 71.8337 41.0916 70.5471C40.9335 70.2733 40.7282 70.0465 40.5007 69.853C40.701 70.9402 40.2235 72.0833 39.2104 72.6683Z" fill="#E59076"/>
<path id="Vector_24" d="M28.6804 74.6056L36.6404 70.0099C37.9269 69.2671 38.3679 67.6218 37.6251 66.3352C36.8823 65.0487 35.2369 64.6077 33.9504 65.3506L25.9904 69.9462C24.7038 70.689 24.2629 72.3343 25.0057 73.6209C25.7485 74.9074 27.3938 75.3484 28.6804 74.6056Z" fill="#F2AD97"/>
<path id="Vector_25" d="M35.7438 68.4569L27.7838 73.0525C26.771 73.6372 25.5423 73.4794 24.7001 72.7622C24.7541 73.056 24.8476 73.3475 25.0057 73.6213C25.7485 74.9079 27.3938 75.3488 28.6804 74.606L36.6404 70.0104C37.9269 69.2675 38.3679 67.6222 37.6251 66.3357C37.4669 66.0619 37.2616 65.835 37.0341 65.6416C37.2344 66.7288 36.7566 67.8719 35.7438 68.4569Z" fill="#E59076"/>
<path id="Vector_26" d="M23.6605 71.2905L33.1736 65.798C34.4602 65.0552 34.9011 63.4099 34.1583 62.1233C33.4155 60.8368 31.7702 60.3958 30.4836 61.1386L20.9705 66.6311C19.6839 67.374 19.243 69.0193 19.9858 70.3058C20.7286 71.5924 22.3739 72.0333 23.6605 71.2905Z" fill="#F2AD97"/>
<path id="Vector_27" d="M32.277 64.2463L22.7639 69.7388C21.7511 70.3235 20.5224 70.1657 19.6802 69.4482C19.7342 69.7419 19.8277 70.0335 19.9858 70.3072C20.7286 71.5938 22.3739 72.0347 23.6605 71.2919L33.1736 65.7994C34.4602 65.0566 34.9011 63.4113 34.1583 62.1247C34.0002 61.851 33.7948 61.6241 33.5673 61.4307C33.7677 62.5185 33.2898 63.6616 32.277 64.2463Z" fill="#E59076"/>
<path id="Vector_28" d="M22.5235 65.7346L29.707 61.5871C30.9935 60.8443 31.4344 59.199 30.6916 57.9124C29.9488 56.6258 28.3035 56.1849 27.017 56.9277L19.8335 61.0752C18.547 61.818 18.106 63.4633 18.8488 64.7499C19.5917 66.0364 21.2367 66.4774 22.5235 65.7346Z" fill="#F2AD97"/>
<path id="Vector_29" d="M28.8106 60.0344L21.6272 64.1816C20.6144 64.7663 19.3856 64.6084 18.5435 63.8913C18.5975 64.185 18.691 64.4766 18.8491 64.7503C19.5919 66.0369 21.2372 66.4778 22.5238 65.735L29.7072 61.5878C30.9938 60.845 31.4347 59.1997 30.6919 57.9128C30.5337 57.6391 30.3284 57.4122 30.1009 57.2188C30.3009 58.3066 29.8234 59.4497 28.8106 60.0344Z" fill="#E59076"/>
<g id="Group_11">
<path id="Vector_30" d="M28.8292 61.0592L29.4585 60.6957C30.2057 60.2642 30.462 59.3086 30.0304 58.5614L29.7995 58.1614C29.3679 57.4142 28.4123 57.1579 27.6651 57.5895L27.0357 57.9529C26.7367 58.1254 26.6345 58.5076 26.807 58.8067L27.9754 60.8304C28.1479 61.1292 28.5301 61.2317 28.8292 61.0592Z" fill="#FFD2C0"/>
<path id="Vector_31" d="M32.2956 65.2701L32.925 64.9067C33.6721 64.4751 33.9284 63.5195 33.4968 62.7723L33.2659 62.3723C32.8343 61.6251 31.8787 61.3689 31.1315 61.8004L30.2234 62.3248C30.0784 62.4086 30.0287 62.5939 30.1125 62.7389L31.4418 65.0414C31.6143 65.3404 31.9965 65.4429 32.2956 65.2701Z" fill="#FFD2C0"/>
<path id="Vector_32" d="M35.7624 69.4806L36.3918 69.1171C37.1389 68.6856 37.3952 67.7299 36.9636 66.9828L36.7327 66.5828C36.3011 65.8356 35.3455 65.5793 34.5983 66.0109L33.969 66.3743C33.6699 66.5468 33.5677 66.929 33.7402 67.2281L34.9086 69.2518C35.0811 69.5506 35.4636 69.6531 35.7624 69.4806Z" fill="#FFD2C0"/>
<path id="Vector_33" d="M39.2291 73.6915L39.8584 73.3281C40.6056 72.8965 40.8619 71.9409 40.4303 71.1937L40.1994 70.7937C39.7678 70.0465 38.8122 69.7903 38.065 70.2218L37.4356 70.5853C37.1366 70.7578 37.0344 71.1399 37.2069 71.439L38.3753 73.4628C38.5478 73.7615 38.93 73.864 39.2291 73.6915Z" fill="#FFD2C0"/>
</g>
</g>
<path id="Vector_34" d="M37.3079 52.021L48.4328 45.5979L46.8569 42.8682C45.9941 41.3735 44.0828 40.8613 42.5882 41.7245L29.8391 49.0851C29.6897 49.1713 29.6385 49.3626 29.7247 49.512L30.0507 50.0767C31.5179 52.6176 34.7669 53.4882 37.3079 52.021Z" fill="#F2AD97"/>
<path id="Vector_35" d="M34.2676 49.5273L35.6942 48.7035C36.1229 48.456 36.2701 47.9076 36.0223 47.4785L35.1723 46.0063L31.1217 48.3451L31.3533 48.7463C31.9426 49.7667 33.2473 50.1163 34.2676 49.5273Z" fill="#FFD2C0"/>
</g>
</g>
</g>
</svg>
