<svg width="80" height="80" viewBox="0 0 80 80" fill="none" xmlns="http://www.w3.org/2000/svg">
<g id="poker-cards 1" clip-path="url(#clip0_228_3651)">
<path id="Vector" d="M69.6741 64.2727L45.7886 59.1957C44.7516 58.9753 44.0896 57.956 44.31 56.919L52.3169 19.2498C52.5373 18.2128 53.5566 17.5508 54.5936 17.7714L78.4791 22.8484C79.5161 23.0688 80.1781 24.0881 79.9577 25.1251L71.9509 62.7943C71.7302 63.8312 70.7109 64.4931 69.6741 64.2727Z" fill="url(#paint0_linear_228_3651)"/>
<path id="Vector_2" d="M53.5468 27.9411C53.5512 27.9207 53.5658 27.8848 53.591 27.8332L56.81 22.0159C56.9004 21.8577 57.0524 21.753 57.2657 21.7024C57.4789 21.6519 57.7113 21.6533 57.9629 21.7066C58.2144 21.7601 58.4274 21.8533 58.6015 21.9863C58.7758 22.1193 58.872 22.2767 58.8903 22.458L59.4749 29.0837C59.477 29.1411 59.4759 29.1799 59.4715 29.2003C59.4338 29.3772 59.2908 29.5066 59.0425 29.5887C58.794 29.6709 58.5509 29.6867 58.3129 29.636C58.0205 29.5739 57.868 29.4385 57.8556 29.2298L57.7799 27.8814L55.6282 27.4239L55.0105 28.6249C54.914 28.8106 54.7198 28.8723 54.4276 28.8101C54.1895 28.7595 53.9738 28.6462 53.7804 28.4701C53.5871 28.2944 53.5091 28.1179 53.5468 27.9411ZM56.2147 26.2701L57.7035 26.5865L57.54 23.6953L56.2147 26.2701Z" fill="#9B62CD"/>
<path id="Vector_3" d="M55.722 19.5091C54.685 19.2887 53.6657 19.9507 53.4453 20.9876L45.4386 58.6567C45.4094 58.7942 45.3967 58.9313 45.3974 59.0663C45.5205 59.1218 45.6509 59.1659 45.7883 59.1951L69.6737 64.2721C70.7107 64.4925 71.73 63.8306 71.9504 62.7935L79.9572 25.1245C79.9863 24.9869 79.999 24.85 79.9984 24.7149C79.8753 24.6594 79.7449 24.6153 79.6075 24.586L55.722 19.5091Z" fill="url(#paint1_linear_228_3651)"/>
<path id="Vector_4" d="M78.4791 22.8479L77.9613 22.7378L70.0645 59.889C69.8441 60.926 68.8248 61.588 67.7878 61.3676L44.4201 56.4007L44.31 56.9185C44.0896 57.9555 44.7516 58.9748 45.7885 59.1952L69.6739 64.2722C70.7109 64.4926 71.7302 63.8307 71.9506 62.7936L79.9574 25.1246C80.1779 24.0876 79.5159 23.0683 78.4791 22.8479Z" fill="url(#paint2_linear_228_3651)"/>
<path id="Vector_5" d="M62.9227 32.7582L56.206 39.0923C55.8575 39.4209 55.7491 39.9312 55.9337 40.3732L59.4934 48.8917C59.8035 49.6336 60.7596 49.8369 61.3447 49.2851L68.0614 42.9509C68.4099 42.6223 68.5183 42.112 68.3337 41.6702L64.774 33.1517C64.4639 32.4098 63.5077 32.2065 62.9227 32.7582Z" fill="url(#paint3_linear_228_3651)"/>
<path id="Vector_6" d="M65.1288 34.0016C64.8716 33.3861 64.0909 33.1464 63.5668 33.5591C63.5395 33.5806 63.513 33.6035 63.4871 33.628L57.2369 39.5222C56.6077 40.1156 56.412 41.0366 56.7455 41.8345L59.9058 49.3974C60.331 49.6869 60.9304 49.6764 61.3447 49.2857L68.0614 42.9516C68.4099 42.6229 68.5183 42.1127 68.3337 41.6706L65.1288 34.0016Z" fill="url(#paint4_linear_228_3651)"/>
<path id="Vector_7" d="M63.1384 19.5877L54.5936 17.7713C53.5566 17.5509 52.5373 18.2129 52.3169 19.2498L44.31 56.9191C44.0896 57.9561 44.7516 58.9754 45.7885 59.1958L69.6739 64.2728C70.7109 64.4932 71.7302 63.8313 71.9506 62.7942L77.9798 34.4292L63.1384 19.5877Z" fill="url(#paint5_linear_228_3651)"/>
<path id="Vector_8" d="M57.0997 60.3694L32.8144 57.8169C31.7601 57.7062 30.9953 56.7616 31.106 55.7073L35.1314 17.4075C35.2421 16.3533 36.1868 15.5884 37.241 15.6991L61.5263 18.2516C62.5806 18.3624 63.3455 19.307 63.2347 20.3613L59.2093 58.661C59.0986 59.7154 58.154 60.4803 57.0997 60.3694Z" fill="url(#paint6_linear_228_3651)"/>
<path id="Vector_9" d="M37.2628 25.9236C37.265 25.9029 37.2759 25.8657 37.2955 25.8117L39.8887 19.6898C39.9621 19.5229 40.1024 19.4031 40.3091 19.3305C40.5159 19.2578 40.7471 19.2349 41.0029 19.2619C41.2585 19.2887 41.4801 19.3593 41.6672 19.4732C41.8544 19.5873 41.9665 19.7336 42.0037 19.9121L43.2777 26.4404C43.2857 26.4974 43.2887 26.536 43.2865 26.5567C43.2677 26.7364 43.1389 26.8803 42.9005 26.9879C42.6621 27.0957 42.4217 27.1367 42.1799 27.1113C41.8826 27.0801 41.7168 26.9614 41.6828 26.7551L41.4665 25.4221L39.2788 25.1921L38.7901 26.4511C38.7135 26.6458 38.5268 26.7273 38.2297 26.6961C37.9877 26.6707 37.7614 26.5805 37.5505 26.4255C37.3399 26.2707 37.2439 26.1033 37.2628 25.9236ZM39.7416 23.9827L41.2553 24.1418L40.7905 21.2836L39.7416 23.9827Z" fill="#9B62CD"/>
<path id="Vector_10" d="M38.5457 17.3085C37.4914 17.1978 36.5468 17.9626 36.436 19.0169L32.4106 57.3167C32.3959 57.4564 32.3976 57.594 32.4124 57.7283C32.5407 57.7706 32.6749 57.8009 32.8147 57.8155L57.1 60.368C58.1543 60.4787 59.0989 59.714 59.2096 58.6596L63.235 20.36C63.2498 20.2202 63.2481 20.0826 63.2333 19.9484C63.105 19.906 62.9709 19.8757 62.831 19.8611L38.5457 17.3085Z" fill="url(#paint7_linear_228_3651)"/>
<path id="Vector_11" d="M61.5259 18.2497L60.9993 18.1943L57.0291 55.9675C56.9184 57.0218 55.9737 57.7868 54.9195 57.6759L31.1608 55.1788L31.1054 55.7052C30.9946 56.7595 31.7595 57.7041 32.8138 57.8149L57.0991 60.3674C58.1534 60.4781 59.098 59.7134 59.2087 58.659L63.2341 20.3594C63.3452 19.3049 62.5803 18.3605 61.5259 18.2497Z" fill="url(#paint8_linear_228_3651)"/>
<path id="Vector_12" d="M52.165 35.4741C52.2496 35.1922 52.3103 34.8989 52.3423 34.5955C52.6185 31.9676 50.712 29.6134 48.0841 29.3371C45.4562 29.0609 43.102 30.9674 42.8257 33.5953C42.7939 33.8987 42.7923 34.1982 42.8163 34.4915C40.3889 34.4801 38.3003 36.3103 38.0411 38.7761C37.7649 41.404 39.6714 43.7582 42.2993 44.0344C43.4399 44.1543 44.5286 43.8626 45.4185 43.2796C45.0461 44.2026 44.536 44.9823 43.9647 45.5062C43.6998 45.7492 43.7243 46.4609 43.9985 46.4898L48.5141 46.9644C48.7884 46.9933 48.9602 46.3022 48.7515 46.0095C48.2944 45.3681 47.9313 44.4783 47.7415 43.4764C48.496 44.2604 49.5199 44.7933 50.6866 44.916C53.3145 45.1922 55.6687 43.2857 55.9449 40.6578C56.2042 38.1922 54.5418 35.9676 52.165 35.4741Z" fill="url(#paint9_linear_228_3651)"/>
<path id="Vector_13" d="M55.9448 40.6574C55.6686 43.2862 53.3144 45.1924 50.6872 44.9163C49.5196 44.7936 48.4965 44.2607 47.742 43.4761C47.9318 44.4783 48.2938 45.3685 48.7516 46.0099C48.9599 46.3028 48.7875 46.993 48.5136 46.9641L43.9988 46.4896C43.7249 46.4607 43.6996 45.7498 43.9644 45.5067C44.2057 45.2854 44.4364 45.019 44.6485 44.7144C44.942 44.2987 45.2033 43.8131 45.4182 43.2804C44.5291 43.8634 43.4391 44.1545 42.2984 44.0345C42.2871 44.0333 42.2758 44.0322 42.2645 44.0309C40.0797 43.7859 38.476 41.8047 38.6899 39.6168C38.691 39.6051 38.6923 39.5933 38.6935 39.5814C38.9527 37.1158 41.0414 35.2862 43.4678 35.2974C43.4441 35.0044 43.4454 34.7048 43.4772 34.401C43.7533 31.7738 46.1076 29.8661 48.7362 30.1423C48.809 30.15 48.8811 30.1592 48.9527 30.1699C50.9905 30.4774 52.4836 32.3213 52.3603 34.3784C52.3561 34.4505 52.3501 34.5229 52.3425 34.5955C52.3105 34.8993 52.2494 35.1927 52.1654 35.4744C52.4363 35.5316 52.699 35.6107 52.9487 35.7111C53.8905 36.081 54.6764 36.7403 55.2085 37.568C55.7803 38.4516 56.0634 39.5302 55.9448 40.6574Z" fill="url(#paint10_linear_228_3651)"/>
<path id="Vector_14" d="M32.8144 57.8156L57.0997 60.368C58.154 60.4788 59.0986 59.7139 59.2093 58.6596L61.8219 33.8029L44.5471 16.528C44.5314 16.505 44.5145 16.4829 44.4978 16.4606L39.9993 15.9878L35.5032 16.4604C35.3032 16.728 35.1687 17.0499 35.1314 17.4063L31.106 55.7061C30.9953 56.7602 31.7601 57.7048 32.8144 57.8156Z" fill="url(#paint11_linear_228_3651)"/>
<path id="Vector_15" d="M47.1859 57.8168L22.9008 60.3696C21.8465 60.4805 20.9019 59.7156 20.7911 58.6612L16.7651 20.3616C16.6542 19.3073 17.419 18.3627 18.4735 18.2519L42.7586 15.6991C43.8129 15.5884 44.7575 16.3531 44.8683 17.4075L48.8943 55.7071C49.0052 56.7614 48.2403 57.7059 47.1859 57.8168Z" fill="url(#paint12_linear_228_3651)"/>
<path id="Vector_16" d="M20.6212 28.2474C20.619 28.2267 20.6218 28.1881 20.63 28.1312L21.8937 21.6039C21.9307 21.4254 22.043 21.2791 22.2301 21.165C22.4173 21.051 22.6388 20.9806 22.8946 20.9538C23.1501 20.9269 23.3817 20.9497 23.5884 21.0223C23.7952 21.0949 23.9352 21.2148 24.0088 21.3817L26.6124 27.5025C26.632 27.5564 26.643 27.5936 26.6452 27.6143C26.664 27.7941 26.568 27.9614 26.3572 28.1163C26.1464 28.2712 25.9199 28.3614 25.6781 28.3869C25.3809 28.4181 25.1941 28.3365 25.1178 28.1418L24.629 26.8829L22.4414 27.1128L22.2251 28.4458C22.1908 28.6523 22.0251 28.7709 21.728 28.8021C21.486 28.8275 21.2458 28.7864 21.0074 28.6786C20.7688 28.5709 20.6402 28.4272 20.6212 28.2474ZM22.6422 25.8336L24.1559 25.6745L23.107 22.9754L22.6422 25.8336Z" fill="#9B62CD"/>
<path id="Vector_17" d="M20.0843 19.5547C19.03 19.6656 18.2651 20.6101 18.3759 21.6644L22.4019 59.964C22.4167 60.1037 22.4469 60.238 22.4891 60.3663C22.6234 60.3811 22.761 60.3828 22.9007 60.3681L47.186 57.8153C48.2403 57.7045 49.0052 56.7599 48.8944 55.7056L44.8684 17.406C44.8537 17.2662 44.8234 17.132 44.7812 17.0037C44.6469 16.9889 44.5093 16.9872 44.3696 17.0019L20.0843 19.5547Z" fill="url(#paint13_linear_228_3651)"/>
<path id="Vector_18" d="M34.6332 46.2312L41.4377 37.9561C43.3759 35.5989 43.0363 32.117 40.6793 30.1786C38.3221 28.2404 34.8401 28.58 32.9019 30.9371L32.1573 31.8426L31.2517 31.098C28.8945 29.1598 25.4125 29.4994 23.4743 31.8564C21.5361 34.2135 21.8757 37.6955 24.2327 39.6337L32.5078 46.4383C33.1521 46.9681 34.1036 46.8753 34.6332 46.2312Z" fill="url(#paint14_radial_228_3651)"/>
<path id="Vector_19" d="M25.0444 40.2909L32.6323 46.5304C33.2695 46.9539 34.1366 46.8347 34.6331 46.231L41.4376 37.9558C43.2745 35.7219 43.0641 32.4783 41.0307 30.4954C38.6994 28.9488 35.5292 29.3862 33.7135 31.5942L32.9689 32.4998L32.1622 31.8364L32.1571 31.8426L31.8318 31.5751C29.4831 29.8411 26.1615 30.2325 24.2859 32.5136C22.3477 34.8706 22.6873 38.3527 25.0444 40.2909Z" fill="url(#paint15_linear_228_3651)"/>
<path id="Vector_20" d="M42.759 15.6992L42.2324 15.7545L46.2031 53.5277C46.314 54.582 45.5491 55.5266 44.4947 55.6374L20.736 58.1349L20.7913 58.6614C20.9022 59.7156 21.8467 60.4805 22.901 60.3698L47.1863 57.817C48.2405 57.7062 49.0054 56.7616 48.8947 55.7073L44.8686 17.4077C44.7579 16.3531 43.8133 15.5883 42.759 15.6992Z" fill="url(#paint16_linear_228_3651)"/>
<path id="Vector_21" d="M25.6519 18.0433L17.0863 19.864C17.0113 20.1054 16.9828 20.3655 17.0108 20.6329L21.0369 58.9325C21.1478 59.9868 22.0923 60.7517 23.1465 60.6409L47.4318 58.0881C48.4861 57.9772 49.251 57.0328 49.1402 55.9785L47.3136 38.6015L27.7572 19.045C27.3715 18.2925 26.5188 17.8589 25.6519 18.0433Z" fill="url(#paint17_linear_228_3651)"/>
<path id="Vector_22" d="M34.2112 59.1957L10.3258 64.2727C9.28875 64.4931 8.26946 63.8311 8.04907 62.7941L0.0423326 25.1251C-0.178059 24.088 0.483901 23.0687 1.52076 22.8484L25.4062 17.7713C26.4432 17.5509 27.4625 18.2129 27.6829 19.2498L35.6897 56.9189C35.9102 57.956 35.2482 58.9753 34.2112 59.1957Z" fill="url(#paint18_linear_228_3651)"/>
<path id="Vector_23" d="M4.70122 32.5665C4.69682 32.5461 4.69573 32.5074 4.69777 32.45L5.27235 25.8263C5.29055 25.6449 5.38686 25.4874 5.56114 25.3546C5.73541 25.2216 5.94827 25.1284 6.19988 25.0749C6.45133 25.0214 6.6838 25.02 6.89698 25.0707C7.11031 25.1213 7.262 25.226 7.35266 25.3842L10.5817 31.1993C10.6068 31.2509 10.6217 31.2867 10.6259 31.3071C10.6636 31.484 10.5854 31.6605 10.392 31.8365C10.1985 32.0126 9.98278 32.126 9.74497 32.1765C9.45258 32.2387 9.25823 32.177 9.16207 31.9914L8.54435 30.7905L6.39267 31.2479L6.3169 32.5963C6.30435 32.8051 6.15188 32.9405 5.85965 33.0026C5.62153 33.0532 5.37839 33.0374 5.13008 32.9552C4.88177 32.8729 4.73886 32.7433 4.70122 32.5665ZM6.45886 29.9546L7.94764 29.6382L6.62231 27.0634L6.45886 29.9546Z" fill="#9B62CD"/>
<path id="Vector_24" d="M3.25871 23.9772C2.22169 24.1976 1.55973 25.2169 1.78013 26.2539L9.78702 63.9231C9.81619 64.0606 9.86043 64.1908 9.9158 64.314C10.0509 64.3146 10.1878 64.3019 10.3254 64.2727L34.2108 59.1957C35.2478 58.9753 35.9098 57.956 35.6893 56.919L27.6825 19.25C27.6533 19.1124 27.6091 18.982 27.5537 18.8589C27.4187 18.8583 27.2816 18.871 27.1442 18.9002L3.25871 23.9772Z" fill="url(#paint19_linear_228_3651)"/>
<path id="Vector_25" d="M25.4061 17.7713L24.8883 17.8815L32.785 55.0327C33.0054 56.0697 32.3435 57.089 31.3066 57.3094L7.93896 62.2763L8.04908 62.7941C8.26947 63.8311 9.28877 64.4931 10.3258 64.2725L34.2112 59.1955C35.2483 58.9751 35.9102 57.9558 35.6897 56.9188L27.6829 19.2498C27.4624 18.2129 26.4431 17.5509 25.4061 17.7713Z" fill="url(#paint20_linear_228_3651)"/>
<path id="Vector_26" d="M24.8894 37.722L16.9694 32.663C16.3529 32.2693 15.5339 32.4497 15.1402 33.0662L10.0812 40.9862C8.64012 43.2422 9.30083 46.239 11.5567 47.6801C13.5981 48.9841 16.2459 48.567 17.799 46.8044C17.7088 47.6971 17.4759 48.5029 17.127 49.1201C16.9501 49.4331 17.1934 50.1024 17.4632 50.0452L21.9044 49.1012C22.1742 49.0439 22.1242 48.3335 21.8352 48.1195C21.2382 47.6773 20.653 46.9986 20.177 46.1727C22.3571 47.2262 25.0293 46.5071 26.365 44.4161C27.8059 42.16 27.1453 39.1631 24.8894 37.722Z" fill="url(#paint21_linear_228_3651)"/>
<path id="Vector_27" d="M27.021 40.7996C27.2764 42.001 27.0786 43.3003 26.365 44.4169C25.0289 46.5076 22.3564 47.2263 20.1768 46.1739C20.4152 46.5865 20.6799 46.9626 20.9605 47.2908C21.2411 47.6189 21.5376 47.8991 21.8355 48.1204C22.1241 48.3345 22.1734 49.0442 21.904 49.1014L17.4636 50.0453C17.1941 50.1025 16.9505 49.4341 17.1271 49.1212C17.2581 48.8903 17.3727 48.6335 17.4703 48.3543L17.47 48.3529C17.6312 47.8878 17.7429 47.3639 17.7997 46.8054C17.097 47.6042 16.1677 48.1264 15.1738 48.3377C14.1225 48.5611 12.9975 48.4371 11.9837 47.9247C11.9804 47.9239 11.979 47.9242 11.9801 47.9223C10.0879 46.3902 9.61039 43.6509 10.9508 41.5518L16.009 33.6318C16.4027 33.0156 17.2212 32.834 17.8389 33.2274L25.1147 37.8762C26.1264 38.6029 26.7785 39.6585 27.021 40.7996Z" fill="url(#paint22_linear_228_3651)"/>
</g>
<defs>
<linearGradient id="paint0_linear_228_3651" x1="59.5728" y1="37.0956" x2="89.8649" y2="83.7535" gradientUnits="userSpaceOnUse">
<stop stop-color="#E4F2FF"/>
<stop offset="1" stop-color="#B2CBFF"/>
</linearGradient>
<linearGradient id="paint1_linear_228_3651" x1="62.8386" y1="42.0585" x2="40.9558" y2="18.0888" gradientUnits="userSpaceOnUse">
<stop stop-color="white" stop-opacity="0"/>
<stop offset="1" stop-color="white"/>
</linearGradient>
<linearGradient id="paint2_linear_228_3651" x1="70.779" y1="44.2986" x2="129.207" y2="30.8192" gradientUnits="userSpaceOnUse">
<stop stop-color="#3F3CED" stop-opacity="0"/>
<stop offset="0.2796" stop-color="#3C3DE4" stop-opacity="0.28"/>
<stop offset="0.7305" stop-color="#3541CC" stop-opacity="0.731"/>
<stop offset="1" stop-color="#2F43BB"/>
</linearGradient>
<linearGradient id="paint3_linear_228_3651" x1="59.214" y1="37.6641" x2="66.3191" y2="45.8695" gradientUnits="userSpaceOnUse">
<stop stop-color="#FF819C"/>
<stop offset="0.2701" stop-color="#FF7E9B"/>
<stop offset="0.4835" stop-color="#FE7496"/>
<stop offset="0.6776" stop-color="#FC638E"/>
<stop offset="0.8591" stop-color="#FA4C84"/>
<stop offset="1" stop-color="#F83479"/>
</linearGradient>
<linearGradient id="paint4_linear_228_3651" x1="61.905" y1="39.2735" x2="57.6634" y2="22.2453" gradientUnits="userSpaceOnUse">
<stop stop-color="#FFD9A9" stop-opacity="0"/>
<stop offset="1" stop-color="#FCDBCB"/>
</linearGradient>
<linearGradient id="paint5_linear_228_3651" x1="68.558" y1="43.143" x2="45.7497" y2="37.0747" gradientUnits="userSpaceOnUse">
<stop stop-color="#3F3CED" stop-opacity="0"/>
<stop offset="0.2796" stop-color="#3C3DE4" stop-opacity="0.28"/>
<stop offset="0.7305" stop-color="#3541CC" stop-opacity="0.731"/>
<stop offset="1" stop-color="#2F43BB"/>
</linearGradient>
<linearGradient id="paint6_linear_228_3651" x1="44.2268" y1="34.4343" x2="79.2389" y2="77.7076" gradientUnits="userSpaceOnUse">
<stop stop-color="#E4F2FF"/>
<stop offset="1" stop-color="#B2CBFF"/>
</linearGradient>
<linearGradient id="paint7_linear_228_3651" x1="47.9951" y1="39.0317" x2="23.7181" y2="17.4601" gradientUnits="userSpaceOnUse">
<stop stop-color="white" stop-opacity="0"/>
<stop offset="1" stop-color="white"/>
</linearGradient>
<linearGradient id="paint8_linear_228_3651" x1="56.1301" y1="40.4324" x2="112.871" y2="20.9243" gradientUnits="userSpaceOnUse">
<stop stop-color="#3F3CED" stop-opacity="0"/>
<stop offset="0.2796" stop-color="#3C3DE4" stop-opacity="0.28"/>
<stop offset="0.7305" stop-color="#3541CC" stop-opacity="0.731"/>
<stop offset="1" stop-color="#2F43BB"/>
</linearGradient>
<linearGradient id="paint9_linear_228_3651" x1="44.3653" y1="35.7017" x2="50.0736" y2="42.7568" gradientUnits="userSpaceOnUse">
<stop stop-color="#9B62CD"/>
<stop offset="0.3003" stop-color="#985DCB"/>
<stop offset="0.6716" stop-color="#8F4EC7"/>
<stop offset="1" stop-color="#833AC1"/>
</linearGradient>
<linearGradient id="paint10_linear_228_3651" x1="47.6017" y1="40.6283" x2="39.3258" y2="23.0629" gradientUnits="userSpaceOnUse">
<stop stop-color="#9B62CD" stop-opacity="0"/>
<stop offset="1" stop-color="#FF75C8"/>
</linearGradient>
<linearGradient id="paint11_linear_228_3651" x1="53.3918" y1="38.1643" x2="32.9747" y2="38.246" gradientUnits="userSpaceOnUse">
<stop stop-color="#3F3CED" stop-opacity="0"/>
<stop offset="0.2796" stop-color="#3C3DE4" stop-opacity="0.28"/>
<stop offset="0.7305" stop-color="#3541CC" stop-opacity="0.731"/>
<stop offset="1" stop-color="#2F43BB"/>
</linearGradient>
<linearGradient id="paint12_linear_228_3651" x1="29.2224" y1="35.0894" x2="72.4962" y2="70.1019" gradientUnits="userSpaceOnUse">
<stop stop-color="#E4F2FF"/>
<stop offset="1" stop-color="#B2CBFF"/>
</linearGradient>
<linearGradient id="paint13_linear_228_3651" x1="33.8677" y1="38.7989" x2="5.62208" y2="22.7694" gradientUnits="userSpaceOnUse">
<stop stop-color="white" stop-opacity="0"/>
<stop offset="1" stop-color="white"/>
</linearGradient>
<radialGradient id="paint14_radial_228_3651" cx="0" cy="0" r="1" gradientUnits="userSpaceOnUse" gradientTransform="translate(26.8444 31.0148) rotate(-5.984) scale(16.5437 16.5437)">
<stop stop-color="#FF819C"/>
<stop offset="0.474" stop-color="#FF7F9B"/>
<stop offset="0.6447" stop-color="#FE7898"/>
<stop offset="0.7665" stop-color="#FD6D93"/>
<stop offset="0.8649" stop-color="#FC5C8B"/>
<stop offset="0.9481" stop-color="#FA4681"/>
<stop offset="1" stop-color="#F83479"/>
</radialGradient>
<linearGradient id="paint15_linear_228_3651" x1="33.3884" y1="36.11" x2="23.189" y2="18.0158" gradientUnits="userSpaceOnUse">
<stop stop-color="#FFD9A9" stop-opacity="0"/>
<stop offset="1" stop-color="#FCDBCB"/>
</linearGradient>
<linearGradient id="paint16_linear_228_3651" x1="42.1161" y1="38.4723" x2="93.5332" y2="7.55152" gradientUnits="userSpaceOnUse">
<stop stop-color="#3F3CED" stop-opacity="0"/>
<stop offset="0.2796" stop-color="#3C3DE4" stop-opacity="0.28"/>
<stop offset="0.7305" stop-color="#3541CC" stop-opacity="0.731"/>
<stop offset="1" stop-color="#2F43BB"/>
</linearGradient>
<linearGradient id="paint17_linear_228_3651" x1="37.7515" y1="37.9167" x2="23.3903" y2="39.6379" gradientUnits="userSpaceOnUse">
<stop stop-color="#3F3CED" stop-opacity="0"/>
<stop offset="0.2796" stop-color="#3C3DE4" stop-opacity="0.28"/>
<stop offset="0.7305" stop-color="#3541CC" stop-opacity="0.731"/>
<stop offset="1" stop-color="#2F43BB"/>
</linearGradient>
<linearGradient id="paint18_linear_228_3651" x1="13.9409" y1="38.4655" x2="60.5988" y2="68.7577" gradientUnits="userSpaceOnUse">
<stop stop-color="#E4F2FF"/>
<stop offset="1" stop-color="#B2CBFF"/>
</linearGradient>
<linearGradient id="paint19_linear_228_3651" x1="18.9438" y1="41.6702" x2="-10.7995" y2="28.6801" gradientUnits="userSpaceOnUse">
<stop stop-color="white" stop-opacity="0"/>
<stop offset="1" stop-color="white"/>
</linearGradient>
<linearGradient id="paint20_linear_228_3651" x1="27.1085" y1="40.485" x2="74.9939" y2="4.3952" gradientUnits="userSpaceOnUse">
<stop stop-color="#3F3CED" stop-opacity="0"/>
<stop offset="0.2796" stop-color="#3C3DE4" stop-opacity="0.28"/>
<stop offset="0.7305" stop-color="#3541CC" stop-opacity="0.731"/>
<stop offset="1" stop-color="#2F43BB"/>
</linearGradient>
<linearGradient id="paint21_linear_228_3651" x1="14.1864" y1="39.57" x2="22.7154" y2="46.1671" gradientUnits="userSpaceOnUse">
<stop stop-color="#9B62CD"/>
<stop offset="0.3003" stop-color="#985DCB"/>
<stop offset="0.6716" stop-color="#8F4EC7"/>
<stop offset="1" stop-color="#833AC1"/>
</linearGradient>
<linearGradient id="paint22_linear_228_3651" x1="19.1283" y1="43.6964" x2="8.61484" y2="27.5089" gradientUnits="userSpaceOnUse">
<stop stop-color="#9B62CD" stop-opacity="0"/>
<stop offset="1" stop-color="#FF75C8"/>
</linearGradient>
<clipPath id="clip0_228_3651">
<rect width="79.9999" height="80" fill="white"/>
</clipPath>
</defs>
</svg>
