<svg width="62" height="62" viewBox="0 0 62 62" fill="none" xmlns="http://www.w3.org/2000/svg">
<g id="team-viewer (1) 1" clip-path="url(#clip0_382_7010)">
<g id="Layer 2">
<g id="Color Icon">
<g id="55.Teamviewer">
<path id="Background" d="M4.89474 0H57.1053C59.8086 0 62 2.19145 62 4.89474V57.1053C62 59.8086 59.8086 62 57.1053 62H4.89474C2.19145 62 0 59.8086 0 57.1053V4.89474C0 2.19145 2.19145 0 4.89474 0Z" fill="#0D8AE7"/>
<path id="Icon" d="M31.0006 14.6841C34.2276 14.6841 37.3821 15.641 40.0652 17.4338C42.7483 19.2266 44.8395 21.7748 46.0744 24.7561C47.3093 27.7374 47.6324 31.018 47.0029 34.1829C46.3733 37.3479 44.8194 40.2551 42.5376 42.5369C40.2558 44.8187 37.3486 46.3726 34.1837 47.0022C31.0187 47.6317 27.7381 47.3086 24.7568 46.0737C21.7755 44.8388 19.2273 42.7476 17.4345 40.0644C15.6417 37.3813 14.6848 34.2268 14.6848 30.9999C14.702 26.6779 16.4265 22.5379 19.4826 19.4819C22.5387 16.4258 26.6787 14.7013 31.0006 14.6841ZM26.1589 35.76V32.9047H35.8423V35.76L42.5767 30.9999L35.8423 26.2193V29.0746H26.1589V26.2193L19.4735 30.9999L26.1589 35.76Z" fill="white"/>
</g>
</g>
</g>
</g>
<defs>
<clipPath id="clip0_382_7010">
<rect width="62" height="62" fill="white" transform="matrix(-1 0 0 1 62 0)"/>
</clipPath>
</defs>
</svg>
