<svg width="48" height="48" viewBox="0 0 48 48" fill="none" xmlns="http://www.w3.org/2000/svg">
<g id="baccarat (1) 1" clip-path="url(#clip0_333_2043)">
<g id="Group">
<g id="Group_2">
<path id="Vector" d="M31.6263 3.04712H16.3737C12.0287 3.04712 7.86188 4.77409 4.79081 7.84778C1.72313 10.9181 0 15.0807 0 19.4208V42.7329C0 43.9589 0.993844 44.9527 2.21981 44.9527H45.7803C47.0062 44.9527 48.0001 43.9589 48.0001 42.7329V19.4208C48.0001 15.0807 46.277 10.9181 43.2093 7.84787C40.1381 4.77409 35.9713 3.04712 31.6263 3.04712Z" fill="#22B27F"/>
<path id="Vector_2" d="M31.6263 3.04712H16.3737C12.0287 3.04712 7.86188 4.77409 4.79081 7.84778C1.72313 10.9181 0 15.0807 0 19.4208V42.7329C0 43.9589 0.993844 44.9527 2.21981 44.9527H45.7803C47.0062 44.9527 48.0001 43.9589 48.0001 42.7329V19.4208C48.0001 15.0807 46.277 10.9181 43.2093 7.84787C40.1381 4.77409 35.9713 3.04712 31.6263 3.04712Z" fill="#22B27F"/>
<path id="Vector_3" d="M46.6875 19.421L46.5745 43.5012L42.4815 43.5147L1.31152 43.649V19.421C1.31152 17.2509 1.7423 15.1252 2.55737 13.1579C3.37149 11.1916 4.56915 9.3836 6.10281 7.84797C9.17405 4.77382 13.3405 3.979 17.6856 3.979H31.454C31.5351 3.979 31.6153 3.979 31.6954 3.97994C33.7642 3.99447 35.5325 4.19922 37.1532 4.76032C38.8366 5.34363 40.3606 6.31038 41.8962 7.84797C44.9635 10.9182 46.6875 15.0808 46.6875 19.421Z" fill="#22B27F"/>
</g>
<path id="Vector_4" d="M11.839 43.6489L17.3419 41.3964L15.3541 36.7646H13.2852C12.4864 36.7646 11.8389 37.4123 11.8389 38.211L11.839 43.6489Z" fill="#09A76D"/>
<path id="Vector_5" d="M46.8591 19.4211L46.7462 43.5012L42.6531 43.5147C42.7439 43.2714 42.7941 43.0077 42.7941 42.7324V19.4211C42.7941 17.2509 42.3633 15.1253 41.5492 13.1579C40.7351 11.1916 39.5374 9.38364 38.0028 7.84801C36.2557 6.09892 34.1541 4.78642 31.8672 3.97998C33.936 3.99451 35.7043 4.19926 37.3249 4.76036C39.0083 5.34367 40.5323 6.31042 42.0679 7.84801C45.1352 10.9182 46.8591 15.0808 46.8591 19.4211Z" fill="#09A76D"/>
<path id="Vector_6" d="M43.2097 7.84785C40.1384 4.77473 35.971 3.04785 31.6259 3.04785H16.3741C12.029 3.04785 7.86159 4.77473 4.79034 7.84785C3.25669 9.38254 2.05912 11.1914 1.24491 13.1578C0.495469 14.9696 0.0705 16.9147 0.00871875 18.9061C0.00675 18.9612 0.004875 19.0172 0.00384375 19.0732C0.00196875 19.1892 0 19.305 0 19.4209V42.7333C0 43.9589 0.993844 44.9527 2.21944 44.9527H13.9075L14.8733 42.345H3.37453C2.95153 42.345 1.67859 42.0013 1.67859 41.5772L1.4835 19.559C1.4835 15.8378 2.92931 12.2412 5.57653 9.62676C8.16966 7.06448 12.7253 5.65541 16.3741 5.65541H31.4869C35.2052 5.65541 38.798 7.09738 41.4133 9.73973C43.9794 12.3329 45.3923 15.7682 45.3923 19.4208L46.1428 27.5171L45.4291 41.6167C45.4088 42.0242 45.0717 42.3449 44.6632 42.3449H33.1267L34.0926 44.9526H45.7807C47.0062 44.9526 48.0001 43.9588 48.0001 42.7332V19.4209C48 15.0807 46.277 10.9181 43.2097 7.84785Z" fill="#DC8758"/>
<path id="Vector_7" d="M14.8734 42.345L13.9076 44.9525H11.8389V42.345H14.8734Z" fill="#C86D36"/>
<g id="Group_3">
<path id="Vector_8" d="M43.21 7.84761C40.1387 4.77448 35.9713 3.04761 31.6262 3.04761H29.0186C33.3637 3.04761 37.5311 4.77448 40.6023 7.84761C43.5878 10.836 45.2991 14.8592 45.3883 19.0738C45.3911 19.1892 45.3926 19.3049 45.3926 19.4208V42.3452V42.7334C45.3926 43.959 44.3988 44.9528 43.1732 44.9528H45.7809C47.0065 44.9528 48.0003 43.959 48.0003 42.7334V19.4207C48.0003 15.0804 46.2773 10.9178 43.21 7.84761Z" fill="#C86D36"/>
<path id="Vector_9" d="M2.60766 19.5592V41.5774C2.60766 42.0015 2.95144 42.3452 3.37453 42.3452H1.04981C0.470344 42.3451 0 41.8748 0 41.2953V19.421C0 19.3051 0.00196875 19.1893 0.00384375 19.0733C0.00478125 19.0172 0.00675 18.9613 0.00871875 18.9062C0.137156 15.3985 1.57331 12.1196 4.08337 9.63558C6.68813 7.05783 10.2326 5.65552 13.8978 5.65552H16.3741C12.7253 5.65552 9.29381 7.06458 6.70069 9.62686C4.05347 12.2414 2.60766 15.838 2.60766 19.5592Z" fill="#C86D36"/>
</g>
<g id="Group_4">
<path id="Vector_10" d="M17.3419 26.8208L15.1788 31.6151H14.5548C14.1752 31.6151 13.8672 31.307 13.8672 30.9274V26.6393C13.8672 26.2597 14.1752 25.9517 14.5548 25.9517H15.4443C15.8238 25.9517 17.3419 26.4412 17.3419 26.8208Z" fill="#FE646F"/>
<path id="Vector_11" d="M17.8578 26.6393V30.9274C17.8578 31.307 17.5497 31.6151 17.1701 31.6151H15.1787V29.2576C15.1787 29.0673 15.256 28.8954 15.3806 28.7708C15.5051 28.6462 15.6771 28.569 15.8673 28.569C16.0045 28.569 16.1156 28.4579 16.1156 28.3207V26.6393C16.1156 26.2646 15.8171 25.9604 15.4443 25.9517H17.1701C17.5496 25.9517 17.8578 26.2597 17.8578 26.6393Z" fill="#FD4755"/>
<path id="Vector_12" d="M18.1919 34.2328H17.3197C16.9398 34.2328 16.6318 33.9248 16.6318 33.5449V29.2567C16.6318 28.8768 16.9398 28.5688 17.3197 28.5688H18.1919C18.5718 28.5688 20.1699 28.8768 20.1699 29.2567V33.5449C20.1699 33.9248 18.5718 34.2328 18.1919 34.2328Z" fill="#F9F3F1"/>
<path id="Vector_13" d="M19.935 28.5688H18.1924C18.5723 28.5688 18.8802 28.8768 18.8802 29.2567V33.5449C18.8802 33.9248 18.5723 34.2328 18.1924 34.2328H19.935C20.3149 34.2328 20.6229 33.9248 20.6229 33.5449V29.2567C20.6228 28.8768 20.3148 28.5688 19.935 28.5688Z" fill="#F3EAE6"/>
</g>
<path id="Vector_14" d="M13.9073 44.9525H32.0236L32.9174 38.2108C32.9174 37.4119 31.3759 36.7644 30.5771 36.7644H15.3536C14.5548 36.7644 13.9072 37.412 13.9072 38.2108L13.9073 44.9525Z" fill="#F9F3F1"/>
<path id="Vector_15" d="M32.646 36.7644H30.5771C31.376 36.7644 32.0235 37.412 32.0235 38.2108V44.9525H34.0924V38.2108C34.0924 37.412 33.4448 36.7644 32.646 36.7644Z" fill="#F3EAE6"/>
<g id="Group_5">
<path id="Vector_16" d="M18.2628 42.43C19.1307 42.43 19.8343 41.7264 19.8343 40.8585C19.8343 39.9907 19.1307 39.2871 18.2628 39.2871C17.395 39.2871 16.6914 39.9907 16.6914 40.8585C16.6914 41.7264 17.395 42.43 18.2628 42.43Z" fill="#6C7FD8"/>
<path id="Vector_17" d="M24.0001 42.43C24.868 42.43 25.5716 41.7264 25.5716 40.8585C25.5716 39.9907 24.868 39.2871 24.0001 39.2871C23.1323 39.2871 22.4287 39.9907 22.4287 40.8585C22.4287 41.7264 23.1323 42.43 24.0001 42.43Z" fill="#8AC9FE"/>
<path id="Vector_18" d="M29.7375 42.43C30.6053 42.43 31.3089 41.7264 31.3089 40.8585C31.3089 39.9907 30.6053 39.2871 29.7375 39.2871C28.8696 39.2871 28.166 39.9907 28.166 40.8585C28.166 41.7264 28.8696 42.43 29.7375 42.43Z" fill="#FE646F"/>
</g>
<path id="Vector_19" d="M41.3011 12.589C40.91 12.054 40.4695 11.5401 39.9837 11.0543C37.6465 8.71808 34.6584 7.44036 31.7658 7.53495C31.7281 7.53298 31.6905 7.53401 31.6528 7.53786H16.3362C13.4138 7.40942 10.3811 8.69098 8.01592 11.0543C5.64395 13.4254 4.35845 16.4666 4.49074 19.3998C4.50424 19.7049 4.70899 19.9696 5.00167 20.0594L14.8499 23.0736C14.8528 23.0746 14.8557 23.0756 14.8586 23.0765C14.8596 23.0775 14.8606 23.0775 14.8615 23.0775L16.881 23.6956C17.6556 23.9322 18.4591 24.053 19.2694 24.053H28.7304C29.5406 24.053 30.3442 23.9322 31.1187 23.6956L33.1382 23.0775C33.1391 23.0775 33.1402 23.0765 33.1411 23.0765C33.144 23.0756 33.1469 23.0746 33.1498 23.0736L42.7943 20.1222C42.7943 20.1222 43.3063 19.5529 43.3198 19.2476C43.425 16.9153 42.6106 14.9294 41.3011 12.589ZM30.7073 8.98667L27.6979 17.6421H20.3008L17.2915 8.98667H30.7073ZM14.6026 21.4831L5.93167 18.8291C5.97902 16.4581 7.09352 14.0242 9.03958 12.0792C10.9769 10.1437 13.3953 9.03401 15.7557 8.98095L18.8221 17.8015C18.0399 18.0014 17.2749 18.3819 16.5844 18.9257C15.7027 19.6172 15.017 20.5076 14.6026 21.4831ZM19.2694 22.6043C18.603 22.6043 17.9424 22.5049 17.305 22.3098L15.9992 21.9109C16.6299 20.5645 17.9385 19.4945 19.3022 19.1806L20.4921 22.6043H19.2694ZM25.972 22.6043H22.0257L20.804 19.0908H27.1937L25.972 22.6043ZM30.6947 22.3098C30.0573 22.5049 29.3966 22.6043 28.7303 22.6043H27.5066L28.6965 19.1806C30.0602 19.4925 31.3698 20.5646 32.0005 21.9109L30.6947 22.3098ZM33.397 21.4831C32.9827 20.5076 32.297 19.6172 31.4153 18.9257C30.7238 18.3819 29.9589 18.0014 29.1765 17.8015L32.2429 8.98095C34.6033 9.03308 37.0226 10.1428 38.96 12.0792C40.9061 14.0243 42.0206 16.4581 42.0679 18.8291L33.397 21.4831Z" fill="#F3EAE6"/>
<path id="Vector_20" d="M43.5096 19.3999C43.4961 19.705 43.2913 19.9697 42.9986 20.0595L42.7948 20.1223V19.4211C42.7948 17.251 42.364 15.1253 41.5499 13.158C41.4707 12.9667 41.3876 12.7775 41.3018 12.5891C42.8238 14.6665 43.6149 17.0675 43.5096 19.3999Z" fill="#E3D7D1"/>
<g id="Group_6">
<path id="Vector_21" d="M30.8517 26.8208L28.6885 31.6151H28.0646C27.685 31.6151 27.377 31.307 27.377 30.9274V26.6393C27.377 26.2597 27.685 25.9517 28.0646 25.9517H28.9541C29.3336 25.9517 30.8517 26.4412 30.8517 26.8208Z" fill="#FE646F"/>
<path id="Vector_22" d="M31.3676 26.6393V30.9274C31.3676 31.307 31.0595 31.6151 30.6799 31.6151H28.6885V29.2576C28.6885 29.0673 28.7657 28.8954 28.8903 28.7708C29.0149 28.6462 29.1868 28.569 29.3771 28.569C29.5142 28.569 29.6253 28.4579 29.6253 28.3207V26.6393C29.6253 26.2646 29.3269 25.9604 28.9541 25.9517H30.6799C31.0595 25.9517 31.3676 26.2597 31.3676 26.6393Z" fill="#FD4755"/>
<path id="Vector_23" d="M31.7017 34.2328H30.8294C30.4496 34.2328 30.1416 33.9248 30.1416 33.5449V29.2567C30.1416 28.8768 30.4496 28.5688 30.8294 28.5688H31.7017C32.0816 28.5688 33.6796 28.8768 33.6796 29.2567V33.5449C33.6796 33.9248 32.0816 34.2328 31.7017 34.2328Z" fill="#F9F3F1"/>
<path id="Vector_24" d="M33.4448 28.5688H31.7021C32.082 28.5688 32.39 28.8768 32.39 29.2567V33.5449C32.39 33.9248 32.082 34.2328 31.7021 34.2328H33.4448C33.8246 34.2328 34.1326 33.9248 34.1326 33.5449V29.2567C34.1325 28.8768 33.8246 28.5688 33.4448 28.5688Z" fill="#F3EAE6"/>
</g>
</g>
</g>
<defs>
<clipPath id="clip0_333_2043">
<rect width="48" height="48" fill="white"/>
</clipPath>
</defs>
</svg>
