<svg width="48" height="48" viewBox="0 0 48 48" fill="none" xmlns="http://www.w3.org/2000/svg">
<g id="baccarat 1">
<path id="Vector" d="M24 2.25C11.9878 2.25 2.25 11.9878 2.25 24V45.75H45.75V24C45.75 11.9878 36.0122 2.25 24 2.25ZM10.5 24C10.5 16.5442 16.5442 10.5 24 10.5C31.4558 10.5 37.5 16.5442 37.5 24H10.5Z" fill="#35A872"/>
<path id="Vector_2" d="M45.75 24C45.75 11.9878 36.0122 2.25 24 2.25C11.9878 2.25 2.25 11.9878 2.25 24H10.5C10.5 16.5442 16.5442 10.5 24 10.5C31.4558 10.5 37.5 16.5442 37.5 24H45.75Z" fill="#3DC285"/>
<g id="Group">
<path id="Vector_3" d="M24.75 2.26312V10.5206C24.5016 10.5066 24.2513 10.5 24 10.5C23.7488 10.5 23.4984 10.5066 23.25 10.5206V2.26312C23.4994 2.25469 23.7488 2.25 24 2.25C24.2513 2.25 24.5006 2.25469 24.75 2.26312Z" fill="#E9EEF2"/>
<path id="Vector_4" d="M15.0005 13.9388C14.6265 14.2716 14.2721 14.626 13.9393 15.0001L8.09961 9.16037C8.44086 8.79475 8.79523 8.44037 9.16086 8.09912L15.0005 13.9388Z" fill="#E9EEF2"/>
<path id="Vector_5" d="M39.9011 9.16037L34.2807 14.7807C34.2029 14.8576 34.1129 14.9147 34.0173 14.9504C33.7117 14.611 33.3892 14.2885 33.0498 13.9829C33.0854 13.8863 33.1426 13.7963 33.2195 13.7194L38.8398 8.09912C39.2054 8.44037 39.5598 8.79475 39.9011 9.16037Z" fill="#E9EEF2"/>
<path id="Vector_6" d="M19.617 11.2274C19.1407 11.3905 18.6766 11.5799 18.2257 11.7936L14.7363 4.31613C15.1873 4.10332 15.6476 3.90551 16.1154 3.72363L19.617 11.2274Z" fill="#E9EEF2"/>
<path id="Vector_7" d="M33.2634 4.31613L29.7741 11.7936C29.3231 11.5799 28.8591 11.3905 28.3828 11.2274L31.8844 3.72363C32.3522 3.90551 32.8125 4.10332 33.2634 4.31613Z" fill="#E9EEF2"/>
<path id="Vector_8" d="M11.8239 18.1632C11.6074 18.6142 11.4152 19.0782 11.2493 19.5545L3.40332 16.9942C3.56551 16.5179 3.74363 16.0492 3.93676 15.5889L11.8239 18.1632Z" fill="#E9EEF2"/>
<path id="Vector_9" d="M44.4403 16.5497L37.605 19.7044C37.5037 19.7513 37.3969 19.7738 37.2909 19.7738C37.2844 19.7738 37.2788 19.7738 37.2722 19.7728C37.1194 19.3397 36.945 18.9169 36.75 18.5053C36.8128 18.4397 36.8888 18.3834 36.9769 18.3431L43.8769 15.1584C44.0803 15.6141 44.2687 16.0781 44.4403 16.5497Z" fill="#E9EEF2"/>
<path id="Vector_10" d="M10.5 13.5303H22.5V33H10.5V13.5303Z" fill="#E9EEF2"/>
<path id="Vector_11" d="M25.5 13.5303H37.5V33H25.5V13.5303Z" fill="#E9EEF2"/>
</g>
<path id="Vector_12" d="M31.5 19.4999C31.308 19.4999 31.1161 19.4267 30.9697 19.2803L30.2197 18.5303C29.9268 18.2373 29.9268 17.7626 30.2197 17.4696C30.5126 17.1768 30.9874 17.1768 31.2803 17.4696L31.5 17.6893L31.7197 17.4696C32.0126 17.1768 32.4874 17.1768 32.7803 17.4696C33.0732 17.7626 33.0732 18.2373 32.7803 18.5303L32.0303 19.2803C31.8839 19.4267 31.692 19.4999 31.5 19.4999Z" fill="#EB423F"/>
<path id="Vector_13" d="M38.25 27H37.5V35.25L35.0357 37.7143L33.75 36V31.5C33.75 30.2573 32.7427 29.25 31.5 29.25C30.2573 29.25 29.25 30.2573 29.25 31.5V39L33.75 45.75H42.75V30L38.25 27Z" fill="#F7CCA9"/>
<path id="Vector_14" d="M31.5 29.2499C31.308 29.2499 31.1161 29.1767 30.9697 29.0303L30.2197 28.2803C29.9268 27.9873 29.9268 27.5126 30.2197 27.2196C30.5126 26.9268 30.9874 26.9268 31.2803 27.2196L31.5 27.4393L31.7197 27.2196C32.0126 26.9268 32.4874 26.9268 32.7803 27.2196C33.0732 27.5126 33.0732 27.9873 32.7803 28.2803L32.0303 29.0303C31.8839 29.1767 31.692 29.2499 31.5 29.2499Z" fill="#EB423F"/>
<path id="Vector_15" d="M31.5 24.7499C31.308 24.7499 31.1161 24.6767 30.9697 24.5303L30.2197 23.7803C29.9268 23.4873 29.9268 23.0126 30.2197 22.7196C30.5126 22.4268 30.9874 22.4268 31.2803 22.7196L31.5 22.9393L31.7197 22.7196C32.0126 22.4268 32.4874 22.4268 32.7803 22.7196C33.0732 23.0126 33.0732 23.4873 32.7803 23.7803L32.0303 24.5303C31.8839 24.6767 31.692 24.7499 31.5 24.7499Z" fill="#EB423F"/>
<path id="Vector_16" d="M20.25 42.75H27.75V45.75H20.25V42.75Z" fill="#95573A"/>
<path id="Vector_17" d="M12.75 11.25C14.8211 11.25 16.5 9.57107 16.5 7.5C16.5 5.42893 14.8211 3.75 12.75 3.75C10.6789 3.75 9 5.42893 9 7.5C9 9.57107 10.6789 11.25 12.75 11.25Z" fill="#EB423F"/>
<path id="Vector_18" d="M35.25 11.25C37.3211 11.25 39 9.57107 39 7.5C39 5.42893 37.3211 3.75 35.25 3.75C33.1789 3.75 31.5 5.42893 31.5 7.5C31.5 9.57107 33.1789 11.25 35.25 11.25Z" fill="#395A8D"/>
<path id="Vector_19" d="M36.0006 39.75C35.7726 39.75 35.5474 39.6465 35.4 39.45L34.275 37.95C34.0266 37.6187 34.0936 37.1486 34.4251 36.9C34.7561 36.6516 35.2264 36.7185 35.4751 37.0501L36.6001 38.5501C36.8485 38.8814 36.7815 39.3516 36.45 39.6001C36.3151 39.7012 36.1572 39.75 36.0006 39.75Z" fill="#E0B999"/>
<path id="Vector_20" d="M9.75 27H10.5V35.25L12.9643 37.7143L14.25 36V31.5C14.25 30.2573 15.2573 29.25 16.5 29.25C17.7427 29.25 18.75 30.2573 18.75 31.5V39L14.25 45.75H5.25V30L9.75 27Z" fill="#F7CCA9"/>
<path id="Vector_21" d="M11.9995 39.75C12.2275 39.75 12.4527 39.6465 12.6001 39.45L13.7251 37.95C13.9735 37.6187 13.9065 37.1486 13.575 36.9C13.244 36.6516 12.7737 36.7185 12.525 37.0501L11.4 38.5501C11.1516 38.8814 11.2186 39.3516 11.5501 39.6001C11.685 39.7012 11.8429 39.75 11.9995 39.75Z" fill="#E0B999"/>
<path id="Vector_22" d="M13.5 18.75C13.5 19.1642 13.8358 19.5 14.25 19.5C14.6642 19.5 15 19.1642 15 18.75C15.4142 18.75 15.75 18.4142 15.75 18C15.75 17.5858 15.4142 17.25 15 17.25C15 16.8358 14.6642 16.5 14.25 16.5C13.8358 16.5 13.5 16.8358 13.5 17.25C13.0858 17.25 12.75 17.5858 12.75 18C12.75 18.4142 13.0858 18.75 13.5 18.75Z" fill="#414649"/>
<path id="Vector_23" d="M18 18.75C18 19.1642 18.3358 19.5 18.75 19.5C19.1642 19.5 19.5 19.1642 19.5 18.75C19.9142 18.75 20.25 18.4142 20.25 18C20.25 17.5858 19.9142 17.25 19.5 17.25C19.5 16.8358 19.1642 16.5 18.75 16.5C18.3358 16.5 18 16.8358 18 17.25C17.5858 17.25 17.25 17.5858 17.25 18C17.25 18.4142 17.5858 18.75 18 18.75Z" fill="#414649"/>
<path id="Vector_24" d="M15 27C15 26.5858 14.6642 26.25 14.25 26.25C13.8358 26.25 13.5 26.5858 13.5 27C13.0858 27 12.75 27.3358 12.75 27.75C12.75 28.1642 13.0858 28.5 13.5 28.5C13.5 28.9142 13.8358 29.25 14.25 29.25C14.6642 29.25 15 28.9142 15 28.5C15.4142 28.5 15.75 28.1642 15.75 27.75C15.75 27.3358 15.4142 27 15 27Z" fill="#414649"/>
<path id="Vector_25" d="M19.5 27C19.5 26.5858 19.1642 26.25 18.75 26.25C18.3358 26.25 18 26.5858 18 27C17.5858 27 17.25 27.3358 17.25 27.75C17.25 28.1642 17.5858 28.5 18 28.5C18 28.9142 18.3358 29.25 18.75 29.25C19.1642 29.25 19.5 28.9142 19.5 28.5C19.9142 28.5 20.25 28.1642 20.25 27.75C20.25 27.3358 19.9142 27 19.5 27Z" fill="#414649"/>
<path id="Vector_26" d="M18 23.25C18 22.8358 17.6642 22.5 17.25 22.5C17.25 22.0858 16.9142 21.75 16.5 21.75C16.0858 21.75 15.75 22.0858 15.75 22.5C15.3358 22.5 15 22.8358 15 23.25C15 23.6642 15.3358 24 15.75 24C15.75 24.4142 16.0858 24.75 16.5 24.75C16.9142 24.75 17.25 24.4142 17.25 24C17.6642 24 18 23.6642 18 23.25Z" fill="#414649"/>
</g>
</svg>
