<svg width="48" height="48" viewBox="0 0 48 48" fill="none" xmlns="http://www.w3.org/2000/svg">
<g id="baccarat (2) 1" clip-path="url(#clip0_333_774)">
<g id="Group">
<path id="Vector" d="M1.34025 0C0.600094 0 0 0.600094 0 1.34025V22.9922C0 25.4479 0.0654375 27.5019 0.862312 30.3924C3.66075 40.5438 12.959 48 24 48C35.041 48 44.3392 40.5438 47.1377 30.3924C47.9089 27.5949 48 25.5352 48 22.9922V1.34025C48 0.600094 47.3999 0 46.6598 0L1.34025 0Z" fill="#685E68"/>
<path id="Vector_2" d="M24.0002 45.1027C19.2872 45.1027 14.8306 43.5838 11.1119 40.7104C7.50677 37.9246 4.8588 33.9869 3.65562 29.6224C2.95193 27.0696 2.89746 25.2641 2.89746 22.9922V0H45.1027V22.9922C45.1027 25.1907 45.0468 27.0749 44.3445 29.6223C43.1414 33.9868 40.4935 37.9245 36.8883 40.7104C33.1697 43.5838 28.713 45.1027 24.0002 45.1027Z" fill="#80D261"/>
<path id="Vector_3" d="M24.0001 43.364C19.6754 43.364 15.5863 41.9707 12.1747 39.3346C8.86546 36.7773 6.43518 33.164 5.33137 29.1602C4.68421 26.8124 4.63574 25.1936 4.63574 22.992V2.37944C4.63574 2.02534 4.9228 1.73828 5.2769 1.73828H42.723C43.0771 1.73828 43.3641 2.02534 43.3641 2.37944V22.992C43.3641 25.1263 43.3143 26.8179 42.6685 29.1601C41.5648 33.164 39.1345 36.7773 35.8252 39.3346C32.4138 41.9707 28.3247 43.364 24.0001 43.364Z" fill="#97DA7B"/>
<path id="Vector_4" d="M39.4118 32.2039C39.4117 32.2039 39.4117 32.2038 39.4117 32.2037L36.6712 25.2175C36.5464 24.8995 36.2921 24.6465 35.9735 24.5234C35.6551 24.4004 35.2971 24.4165 34.9913 24.5677C27.9735 28.037 20.0269 28.0372 13.0091 24.5677C12.7032 24.4164 12.3454 24.4003 12.0269 24.5234C11.7083 24.6466 11.454 24.8995 11.3291 25.2175C11.3291 25.2175 11.3291 25.2176 11.329 25.2177L8.58862 32.2038C8.35621 32.7962 8.61074 33.4588 9.18055 33.7452C18.6245 38.4928 29.3759 38.4932 38.8197 33.7452C39.3894 33.4588 39.644 32.7962 39.4118 32.2039ZM12.5884 25.9745C14.6261 26.9592 16.7572 27.6775 18.9359 28.1145L18.819 29.0193L18.0116 35.2699C15.2623 34.7265 12.5757 33.8104 10.0123 32.5412L12.5884 25.9745ZM19.4405 35.5178L20.365 28.3598C22.7809 28.7054 25.2195 28.7054 27.6352 28.3598L28.5598 35.5178C25.5306 35.9709 22.4697 35.9709 19.4405 35.5178ZM29.9886 35.2699L29.1812 29.0193L29.0643 28.1145C31.243 27.6775 33.3741 26.9592 35.4119 25.9745L37.9879 32.5412C35.4246 33.8103 32.7379 34.7265 29.9886 35.2699Z" fill="#FAF7F7"/>
<g id="Group_2">
<g id="Group_3">
<path id="Vector_5" d="M14.4095 5.0775H12.1553C11.7913 5.0775 11.4961 4.78237 11.4961 4.41825V0H15.0686V4.41825C15.0687 4.78237 14.7736 5.0775 14.4095 5.0775Z" fill="#FEF056"/>
</g>
<g id="Group_4">
<path id="Vector_6" d="M17.9817 5.0775H15.7276C15.3636 5.0775 15.0684 4.78237 15.0684 4.41825V0H18.6409V4.41825C18.641 4.78237 18.3459 5.0775 17.9817 5.0775Z" fill="#FDB441"/>
</g>
<g id="Group_5">
<path id="Vector_7" d="M21.555 5.0775H19.3009C18.9368 5.0775 18.6416 4.78237 18.6416 4.41825V0H22.2141V4.41825C22.2141 4.78237 21.919 5.0775 21.555 5.0775Z" fill="#FE646F"/>
</g>
<g id="Group_6">
<path id="Vector_8" d="M25.1272 5.0775H22.8731C22.5091 5.0775 22.2139 4.78237 22.2139 4.41825V0H25.7864V4.41825C25.7865 4.78237 25.4913 5.0775 25.1272 5.0775Z" fill="#0573CE"/>
</g>
<g id="Group_7">
<path id="Vector_9" d="M28.6995 5.0775H26.4454C26.0813 5.0775 25.7861 4.78237 25.7861 4.41825V0H29.3587V4.41825C29.3588 4.78237 29.0636 5.0775 28.6995 5.0775Z" fill="#FE9901"/>
</g>
<g id="Group_8">
<path id="Vector_10" d="M32.2718 5.0775H30.0176C29.6535 5.0775 29.3584 4.78237 29.3584 4.41825V0H32.9309V4.41825C32.931 4.78237 32.6359 5.0775 32.2718 5.0775Z" fill="#FD4755"/>
</g>
<g id="Group_9">
<path id="Vector_11" d="M35.845 5.0775H33.5909C33.2269 5.0775 32.9316 4.78237 32.9316 4.41825V0H36.5042V4.41825C36.5042 4.78237 36.209 5.0775 35.845 5.0775Z" fill="#FED402"/>
</g>
</g>
<path id="Vector_12" d="M14.4996 19.8357H10.3886C10.044 19.8357 9.76465 19.5564 9.76465 19.2118V12.8041C9.76465 12.4596 10.0439 12.1802 10.3886 12.1802H14.4996C14.8441 12.1802 15.1235 12.4595 15.1235 12.8041V19.2118C15.1234 19.5564 14.8441 19.8357 14.4996 19.8357Z" fill="#D2CFE9"/>
<path id="Vector_13" d="M17.1793 19.8357H13.0682C12.7237 19.8357 12.4443 19.5564 12.4443 19.2118V12.8041C12.4443 12.4596 12.7236 12.1802 13.0682 12.1802H17.1793C17.5238 12.1802 17.8032 12.4595 17.8032 12.8041V19.2118C17.8032 19.5564 17.5238 19.8357 17.1793 19.8357Z" fill="#DEDBEE"/>
<path id="Vector_14" d="M19.858 19.8357H15.747C15.4024 19.8357 15.123 19.5564 15.123 19.2118V12.8041C15.123 12.4596 15.4023 12.1802 15.747 12.1802H19.858C20.2025 12.1802 20.4819 12.4595 20.4819 12.8041V19.2118C20.4819 19.5564 20.2026 19.8357 19.858 19.8357Z" fill="#FAF7F7"/>
<path id="Vector_15" d="M32.2525 19.8357H28.1415C27.797 19.8357 27.5176 19.5564 27.5176 19.2118V12.8041C27.5176 12.4596 27.7969 12.1802 28.1415 12.1802H32.2525C32.597 12.1802 32.8764 12.4595 32.8764 12.8041V19.2118C32.8764 19.5564 32.597 19.8357 32.2525 19.8357Z" fill="#D2CFE9"/>
<path id="Vector_16" d="M34.9322 19.8357H30.8212C30.4766 19.8357 30.1973 19.5564 30.1973 19.2118V12.8041C30.1973 12.4596 30.4765 12.1802 30.8212 12.1802H34.9322C35.2767 12.1802 35.5561 12.4595 35.5561 12.8041V19.2118C35.5561 19.5564 35.2768 19.8357 34.9322 19.8357Z" fill="#DEDBEE"/>
<path id="Vector_17" d="M37.6119 19.8357H33.5009C33.1563 19.8357 32.877 19.5564 32.877 19.2118V12.8041C32.877 12.4596 33.1562 12.1802 33.5009 12.1802H37.6119C37.9564 12.1802 38.2358 12.4595 38.2358 12.8041V19.2118C38.2358 19.5564 37.9564 19.8357 37.6119 19.8357Z" fill="#FAF7F7"/>
<g id="Group_10">
<path id="Vector_18" d="M25.985 23.7499H22.0153C21.6152 23.7499 21.291 23.4256 21.291 23.0256C21.291 22.6256 21.6153 22.3013 22.0153 22.3013H25.985C26.3851 22.3013 26.7093 22.6256 26.7093 23.0256C26.7093 23.4256 26.385 23.7499 25.985 23.7499Z" fill="#FE646F"/>
</g>
<g id="Group_11">
<g id="Group_12">
<path id="Vector_19" d="M16.2718 30.3247C16.2566 30.3247 16.2413 30.3242 16.2259 30.3233C15.3395 30.2678 14.4504 29.9578 13.5835 29.402C13.2467 29.1861 13.1487 28.7382 13.3647 28.4013C13.5806 28.0647 14.0287 27.9666 14.3654 28.1825C15.0224 28.6037 15.6788 28.8375 16.3164 28.8774C16.7157 28.9024 17.0191 29.2463 16.9941 29.6456C16.9701 30.0295 16.6512 30.3247 16.2718 30.3247Z" fill="#528FD8"/>
</g>
<g id="Group_13">
<path id="Vector_20" d="M15.3525 32.7809C14.2732 32.7809 13.3727 32.4408 12.6737 31.7691C12.3852 31.4919 12.376 31.0334 12.6532 30.7449C12.9305 30.4566 13.389 30.4472 13.6775 30.7245C14.1227 31.1523 14.702 31.3508 15.4531 31.3308C15.8522 31.3215 16.1857 31.6359 16.1963 32.0357C16.207 32.4357 15.8913 32.7684 15.4914 32.779C15.4447 32.7802 15.3983 32.7809 15.3525 32.7809Z" fill="#528FD8"/>
</g>
</g>
<g id="Group_14">
<g id="Group_15">
<path id="Vector_21" d="M31.7276 30.3247C31.3482 30.3247 31.0293 30.0294 31.0053 29.6456C30.9803 29.2463 31.2838 28.9024 31.683 28.8774C32.3205 28.8375 32.9769 28.6037 33.6339 28.1826C33.9706 27.9667 34.4188 28.0644 34.6346 28.4014C34.8506 28.7382 34.7526 29.1862 34.4158 29.4021C33.5489 29.9579 32.6599 30.2678 31.7735 30.3233C31.7581 30.3242 31.7428 30.3247 31.7276 30.3247Z" fill="#FE646F"/>
</g>
<g id="Group_16">
<path id="Vector_22" d="M32.6467 32.7809C32.6007 32.7809 32.5545 32.7802 32.5079 32.779C32.108 32.7684 31.7923 32.4357 31.803 32.0357C31.8136 31.6358 32.1483 31.3204 32.5462 31.3308C33.2953 31.3508 33.8767 31.1524 34.322 30.7245C34.6103 30.4472 35.069 30.4566 35.3462 30.7449C35.6234 31.0333 35.6142 31.4919 35.3257 31.7691C34.6267 32.4409 33.7258 32.7809 32.6467 32.7809Z" fill="#FE646F"/>
</g>
</g>
<g id="Group_17">
<g id="Group_18">
<path id="Vector_23" d="M23.9997 31.5965C23.4892 31.5965 22.9786 31.5061 22.4716 31.3254C22.0947 31.1911 21.8981 30.7768 22.0325 30.4C22.1668 30.0233 22.5813 29.8266 22.9579 29.9609C23.6591 30.2106 24.3404 30.2106 25.0416 29.9609C25.4181 29.8261 25.8327 30.0231 25.967 30.4C26.1013 30.7768 25.9047 31.1912 25.5279 31.3254C25.021 31.5061 24.5103 31.5965 23.9997 31.5965Z" fill="#FEF056"/>
</g>
<g id="Group_19">
<path id="Vector_24" d="M23.9997 33.9412C23.4892 33.9412 22.9786 33.8508 22.4716 33.6702C22.0947 33.5358 21.8981 33.1215 22.0325 32.7448C22.1668 32.368 22.5813 32.1713 22.9579 32.3056C23.6591 32.5554 24.3404 32.5553 25.0416 32.3056C25.4181 32.1708 25.8327 32.3678 25.967 32.7448C26.1013 33.1215 25.9047 33.5359 25.5279 33.6702C25.021 33.8508 24.5103 33.9412 23.9997 33.9412Z" fill="#FEF056"/>
</g>
</g>
<g id="Group_20">
<g id="Group_21">
<g id="Group_22">
<path id="Vector_25" d="M41.6953 4.99355H39.5681C39.1679 4.99355 38.8438 4.66927 38.8438 4.26923C38.8438 3.8692 39.168 3.54492 39.5681 3.54492H41.6953C42.0955 3.54492 42.4197 3.8692 42.4197 4.26923C42.4197 4.66927 42.0955 4.99355 41.6953 4.99355Z" fill="#FAF7F7"/>
</g>
<g id="Group_23">
<path id="Vector_26" d="M41.6953 7.67323H39.5681C39.1679 7.67323 38.8438 7.34895 38.8438 6.94892C38.8438 6.5488 39.168 6.22461 39.5681 6.22461H41.6953C42.0955 6.22461 42.4197 6.54889 42.4197 6.94892C42.4197 7.34895 42.0955 7.67323 41.6953 7.67323Z" fill="#FAF7F7"/>
</g>
<g id="Group_24">
<path id="Vector_27" d="M41.6953 10.3524H39.5681C39.1679 10.3524 38.8438 10.0282 38.8438 9.62812C38.8438 9.228 39.168 8.90381 39.5681 8.90381H41.6953C42.0955 8.90381 42.4197 9.22809 42.4197 9.62812C42.4197 10.0282 42.0955 10.3524 41.6953 10.3524Z" fill="#FAF7F7"/>
</g>
</g>
<g id="Group_25">
<g id="Group_26">
<path id="Vector_28" d="M8.43265 4.99355H6.30537C5.90524 4.99355 5.58105 4.66927 5.58105 4.26923C5.58105 3.8692 5.90534 3.54492 6.30537 3.54492H8.43265C8.83277 3.54492 9.15696 3.8692 9.15696 4.26923C9.15696 4.66927 8.83277 4.99355 8.43265 4.99355Z" fill="#FAF7F7"/>
</g>
<g id="Group_27">
<path id="Vector_29" d="M8.43265 7.67323H6.30537C5.90524 7.67323 5.58105 7.34895 5.58105 6.94892C5.58105 6.5488 5.90534 6.22461 6.30537 6.22461H8.43265C8.83277 6.22461 9.15696 6.54889 9.15696 6.94892C9.15705 7.34895 8.83277 7.67323 8.43265 7.67323Z" fill="#FAF7F7"/>
</g>
<g id="Group_28">
<path id="Vector_30" d="M8.43265 10.3524H6.30537C5.90524 10.3524 5.58105 10.0282 5.58105 9.62812C5.58105 9.228 5.90534 8.90381 6.30537 8.90381H8.43265C8.83277 8.90381 9.15696 9.22809 9.15696 9.62812C9.15705 10.0282 8.83277 10.3524 8.43265 10.3524Z" fill="#FAF7F7"/>
</g>
</g>
</g>
</g>
</g>
<defs>
<clipPath id="clip0_333_774">
<rect width="48" height="48" fill="white"/>
</clipPath>
</defs>
</svg>
