<svg width="48" height="48" viewBox="0 0 48 48" fill="none" xmlns="http://www.w3.org/2000/svg">
<g id="blackjack 1">
<g id="Group">
<path id="Vector" d="M17.7821 45.1208C16.9219 45.1208 16.222 44.4209 16.222 43.5607V12.2476C16.222 11.3873 16.9219 10.6875 17.7821 10.6875H39.5841C40.4443 10.6875 41.1442 11.3873 41.1442 12.2476V40.3147C44.7662 36.2544 46.9688 30.9005 46.9688 25.0312C46.9688 12.3459 36.6853 2.0625 24 2.0625C11.3147 2.0625 1.03125 12.3459 1.03125 25.0312C1.03125 37.7166 11.3147 48 24 48C28.0425 48 31.8401 46.9543 35.1398 45.1208H17.7821Z" fill="#0ED290"/>
<g id="Group_2">
<path id="Vector_2" d="M44.1567 15.033C44.1567 14.1196 43.4163 13.3792 42.5029 13.3792H41.1445V40.3146C42.3025 39.0167 43.3145 37.5859 44.1567 36.0488V15.033Z" fill="#00C285"/>
</g>
<path id="Vector_3" d="M19.0469 45.1208V46.3463C19.0469 46.8358 19.2608 47.2743 19.5988 47.5771C21.0235 47.8536 22.4946 48.0001 24.0002 48.0001C28.0427 48.0001 31.8403 46.9544 35.1399 45.1208H19.0469Z" fill="#00C285"/>
<g id="Group_3">
<path id="Vector_4" d="M9.88281 34.5271V36.088C9.88281 37.0014 10.6232 37.7419 11.5367 37.7419H16.2216V34.5271H9.88281Z" fill="#00C285"/>
<path id="Vector_5" d="M31.7773 3.41553V10.6876H34.9921V4.85965C33.9658 4.29912 32.8911 3.81631 31.7773 3.41553Z" fill="#00C285"/>
</g>
<g id="Group_4">
<g id="Group_5">
<g id="Group_6">
<path id="Vector_6" d="M16.2216 12.2476C16.2216 11.3873 16.9214 10.6875 17.7817 10.6875H31.8713V1.65384C31.8713 0.740438 31.1308 0 30.2174 0H8.41556C7.50216 0 6.76172 0.740438 6.76172 1.65384V32.9669C6.76172 33.8803 7.50216 34.6208 8.41556 34.6208H16.2216V12.2476Z" fill="#EFEDEF"/>
<path id="Vector_7" d="M27.937 1.65384V10.6875H31.8713V1.65384C31.8713 0.740438 31.1308 0 30.2174 0H26.2832C27.1966 0 27.937 0.740438 27.937 1.65384Z" fill="#E5E1E5"/>
<g id="Group_7">
<g id="Group_8">
<path id="Vector_8" d="M11.9671 9.97226L10.3778 8.32104L8.78842 9.97226C8.29023 10.4899 8.47239 11.369 9.13136 11.6279C9.47411 11.7625 9.82961 11.6823 10.0841 11.4691L9.60808 12.2936H11.1473L10.6712 11.4691C10.9258 11.6823 11.2813 11.7625 11.624 11.6279C12.2831 11.369 12.4653 10.4898 11.9671 9.97226Z" fill="#554E56"/>
</g>
<g id="Group_9">
<path id="Vector_9" d="M10.3775 7.69054C9.33902 7.69054 8.49414 6.84567 8.49414 5.8072V4.95276H9.43164V5.8072C9.43164 6.32873 9.85586 6.75304 10.3775 6.75304C10.8991 6.75304 11.3233 6.32873 11.3233 5.8072V1.8772H12.2608V5.8072C12.2608 6.84567 11.416 7.69054 10.3775 7.69054Z" fill="#554E56"/>
</g>
</g>
</g>
<g id="Group_10">
<g id="Group_11">
<path id="Vector_10" d="M16.2223 12.2476C16.2223 11.3874 16.9221 10.6875 17.7824 10.6875H26.3089L26.7314 9.4235C26.8328 9.11993 26.6069 8.80615 26.2868 8.80615H12.9106C12.5902 8.80615 12.3643 9.12031 12.4661 9.42397L13.6822 13.0503L14.1949 13.1441H16.2223V12.2476Z" fill="#FE646F"/>
</g>
<path id="Vector_11" d="M16.222 24.0491L16.0736 24.1556C15.6115 24.4872 15.0665 24.6624 14.4975 24.6624C13.8814 24.6624 13.313 24.4551 12.8574 24.1071L13.8918 27.1913C14.084 27.7643 14.6207 28.1504 15.2251 28.1504H16.2221L16.222 24.0491Z" fill="#FE646F"/>
<path id="Vector_12" d="M16.2219 15.5107H13.6818V19.2752C12.5327 19.6244 11.6963 20.692 11.6963 21.9552C11.6963 23.5022 12.9504 24.7562 14.4973 24.7562C15.148 24.7562 15.7463 24.5337 16.2218 24.1614V15.5107H16.2219Z" fill="#FEE97D"/>
<path id="Vector_13" d="M17.7817 10.6875H22.029L22.2568 8.80615H16.9385L17.1817 10.8079C17.3664 10.7306 17.569 10.6875 17.7817 10.6875Z" fill="#FD4755"/>
<path id="Vector_14" d="M13.6816 13.0503H16.2217V15.6045H13.6816V13.0503Z" fill="#FB2B3A"/>
<g id="Group_12">
<path id="Vector_15" d="M14.4972 23.4798C15.3392 23.4798 16.0218 22.7972 16.0218 21.9552C16.0218 21.1132 15.3392 20.4307 14.4972 20.4307C13.6552 20.4307 12.9727 21.1132 12.9727 21.9552C12.9727 22.7972 13.6552 23.4798 14.4972 23.4798Z" fill="#FEDF30"/>
</g>
</g>
</g>
<g id="Group_13">
<path id="Vector_16" d="M41.2375 40.209V12.2476C41.2375 11.3342 40.497 10.5938 39.5836 10.5938H17.7818C16.8684 10.5938 16.1279 11.3342 16.1279 12.2476V43.5607C16.1279 44.4741 16.8684 45.2145 17.7818 45.2145H34.9717C37.3451 43.9215 39.4643 42.2213 41.2375 40.209Z" fill="#F9F7F8"/>
<path id="Vector_17" d="M41.2375 40.209V12.2476C41.2375 11.3342 40.497 10.5938 39.5836 10.5938H17.7818C16.8684 10.5938 16.1279 11.3342 16.1279 12.2476V43.5607C16.1279 44.4741 16.8684 45.2145 17.7818 45.2145H34.9717C37.3451 43.9215 39.4643 42.2213 41.2375 40.209Z" fill="#F9F7F8"/>
<path id="Vector_18" d="M37.2857 43.7697C38.7375 42.7386 40.0632 41.5419 41.2378 40.209V12.2476C41.2378 11.3342 40.4974 10.5938 39.584 10.5938H35.6465C36.5599 10.5938 37.3003 11.3342 37.3003 12.2476V43.5607C37.3003 43.6316 37.2944 43.7011 37.2857 43.7697Z" fill="#EFEDEF"/>
<g id="Group_14">
<path id="Vector_19" d="M35.3015 25.9216L28.8853 19.2556C28.7747 19.1407 28.5906 19.1407 28.48 19.2556L22.0638 25.9216C19.9891 28.077 20.7476 31.7387 23.492 32.8167C24.9194 33.3773 26.3999 33.0433 27.46 32.1553L25.7211 35.1671C25.6129 35.3546 25.7482 35.5889 25.9647 35.5889H31.4004C31.6169 35.5889 31.7523 35.3546 31.644 35.1671L29.9051 32.1553C30.9653 33.0433 32.4458 33.3773 33.8731 32.8167C36.6176 31.7387 37.3761 28.077 35.3015 25.9216Z" fill="#554E56"/>
</g>
<g id="Group_15">
<path id="Vector_20" d="M35.3018 25.9216L28.8855 19.2556C28.7749 19.1407 28.5909 19.1407 28.4802 19.2556L27.6426 20.1258L33.2212 25.9216C35.2958 28.077 34.5373 31.7387 31.7929 32.8167C31.6624 32.8679 31.5313 32.9092 31.4003 32.9458C32.1792 33.1646 33.0352 33.1458 33.8734 32.8167C36.6179 31.7387 37.3764 28.077 35.3018 25.9216Z" fill="#433F43"/>
<path id="Vector_21" d="M31.6444 35.1671L29.9055 32.1553H29.0349C28.674 32.1553 28.4485 32.5459 28.629 32.8584L29.9619 35.1671C30.0702 35.3546 29.9348 35.589 29.7183 35.589H31.4009C31.6173 35.589 31.7527 35.3546 31.6444 35.1671Z" fill="#433F43"/>
</g>
<g id="Group_16">
<g id="Group_17">
<path id="Vector_22" d="M21.3333 20.566L19.744 18.9148L18.1546 20.566C17.6564 21.0836 17.8386 21.9628 18.4976 22.2216C18.8403 22.3563 19.1958 22.276 19.4504 22.0628L18.9743 22.8874H20.5135L20.0374 22.0628C20.292 22.276 20.6475 22.3563 20.9902 22.2216C21.6494 21.9628 21.8314 21.0835 21.3333 20.566Z" fill="#554E56"/>
</g>
<path id="Vector_23" d="M20.7636 18.1351H21.7398L20.1946 12.8091C20.1365 12.6088 19.953 12.4709 19.7444 12.4709C19.5358 12.4709 19.3523 12.6088 19.2942 12.8091L17.749 18.1351H18.7252L18.9379 17.4023H20.551L20.7636 18.1351ZM19.2097 16.4648L19.7443 14.6221L20.2789 16.4648H19.2097Z" fill="#554E56"/>
<g id="Group_18">
<g id="Group_19">
<path id="Vector_24" d="M36.0326 34.6548L37.6219 36.3061L39.2112 34.6548C39.7094 34.1372 39.5273 33.2581 38.8683 32.9992C38.5256 32.8646 38.1701 32.9448 37.9155 33.158L38.3916 32.3335H36.8524L37.3285 33.158C37.0738 32.9448 36.7183 32.8646 36.3757 32.9992C35.7165 33.2581 35.5344 34.1372 36.0326 34.6548Z" fill="#554E56"/>
</g>
<path id="Vector_25" d="M38.6415 37.0857L38.408 37.8907H36.8367L36.6032 37.0857H35.627L37.1721 42.4116C37.2303 42.612 37.4137 42.7498 37.6223 42.7498C37.8309 42.7498 38.0144 42.612 38.0725 42.4116L39.6177 37.0857H38.6415ZM37.6223 40.5987L37.1087 38.8282H38.136L37.6223 40.5987Z" fill="#554E56"/>
</g>
</g>
</g>
</g>
</g>
</g>
</svg>
