<svg width="48" height="48" viewBox="0 0 48 48" fill="none" xmlns="http://www.w3.org/2000/svg">
<g id="dice (1) 1" clip-path="url(#clip0_333_2119)">
<path id="Vector" d="M34.1403 9.04688L20.2048 0.564469C19.5866 0.188156 18.8894 0 18.1921 0C17.4948 0 16.7976 0.188156 16.1794 0.564469L2.24391 9.04688C1.665 9.39928 1.19934 9.89025 0.878906 10.4627L2.24906 25.8438H34.135L35.5053 10.463C35.1849 9.89044 34.7192 9.39928 34.1403 9.04688Z" fill="#FF8086"/>
<path id="Vector_2" d="M2.24921 32.9473C1.09224 32.2456 0.385742 30.9906 0.385742 29.6375V12.3534C0.385742 11.6803 0.560867 11.0311 0.879055 10.4626L18.1921 20.9783L18.6872 37.2499L18.1921 41.9609C17.4968 41.9609 16.8016 41.7738 16.1847 41.3997L2.24921 32.9473Z" fill="#DB4655"/>
<path id="Vector_3" d="M34.1353 32.9472C35.2923 32.2455 35.9988 30.9906 35.9988 29.6375V12.3534C35.9988 11.6802 35.8239 11.0314 35.5056 10.4629L18.1924 20.9783V41.9608C18.8877 41.9608 19.583 41.7738 20.1999 41.3996L34.1353 32.9472Z" fill="#E5646E"/>
<path id="Vector_4" d="M24.3884 21.6775H44.5173C46.2276 21.6775 47.6141 23.064 47.6141 24.7742V44.9032C47.6141 45.4673 47.4632 45.9961 47.1998 46.4516L44.5173 47.1563H25.0938C23.3835 47.1563 21.9971 45.7698 21.9971 44.0596V24.7742L22.8379 22.093C23.2938 21.8288 23.8234 21.6775 24.3884 21.6775Z" fill="#ECEAEC"/>
<path id="Vector_5" d="M9.91602 28.6645C10.6503 28.3516 10.7972 27.0459 10.2442 25.748C9.69119 24.4502 8.64768 23.6517 7.91344 23.9645C7.1792 24.2774 7.03228 25.5831 7.58527 26.881C8.13827 28.1788 9.18178 28.9773 9.91602 28.6645Z" fill="#FF9A9F"/>
<path id="Vector_6" d="M18.211 11.6408C19.6193 11.6408 20.7609 10.9206 20.7609 10.0323C20.7609 9.14396 19.6193 8.42383 18.211 8.42383C16.8028 8.42383 15.6611 9.14396 15.6611 10.0323C15.6611 10.9206 16.8028 11.6408 18.211 11.6408Z" fill="white"/>
<path id="Vector_7" d="M26.1319 11.6408C27.5402 11.6408 28.6818 10.9206 28.6818 10.0323C28.6818 9.14396 27.5402 8.42383 26.1319 8.42383C24.7237 8.42383 23.582 9.14396 23.582 10.0323C23.582 10.9206 24.7237 11.6408 26.1319 11.6408Z" fill="white"/>
<path id="Vector_8" d="M10.2901 11.6408C11.6984 11.6408 12.84 10.9206 12.84 10.0323C12.84 9.14396 11.6984 8.42383 10.2901 8.42383C8.88187 8.42383 7.74023 9.14396 7.74023 10.0323C7.74023 10.9206 8.88187 11.6408 10.2901 11.6408Z" fill="white"/>
<g id="Group">
<path id="Vector_9" d="M34.4524 37.1615C35.7352 37.1615 36.775 36.1216 36.775 34.8389C36.775 33.5562 35.7352 32.5164 34.4524 32.5164C33.1697 32.5164 32.1299 33.5562 32.1299 34.8389C32.1299 36.1216 33.1697 37.1615 34.4524 37.1615Z" fill="#E5646E"/>
<path id="Vector_10" d="M27.4847 30.1937C28.7674 30.1937 29.8072 29.1539 29.8072 27.8711C29.8072 26.5884 28.7674 25.5486 27.4847 25.5486C26.202 25.5486 25.1621 26.5884 25.1621 27.8711C25.1621 29.1539 26.202 30.1937 27.4847 30.1937Z" fill="#E5646E"/>
<path id="Vector_11" d="M41.4202 44.1293C42.7029 44.1293 43.7428 43.0894 43.7428 41.8067C43.7428 40.524 42.7029 39.4841 41.4202 39.4841C40.1375 39.4841 39.0977 40.524 39.0977 41.8067C39.0977 43.0894 40.1375 44.1293 41.4202 44.1293Z" fill="#E5646E"/>
</g>
<path id="Vector_12" d="M27.4831 46.4516C24.9177 46.4516 22.838 44.3719 22.838 41.8065L22.8383 22.093C21.9179 22.6298 21.292 23.6319 21.292 24.7743V44.9032C21.292 46.6135 22.6785 48 24.3887 48H44.5177C45.6611 48 46.6638 47.3734 47.2003 46.4516H27.4831Z" fill="#DAD8DB"/>
</g>
<defs>
<clipPath id="clip0_333_2119">
<rect width="48" height="48" fill="white"/>
</clipPath>
</defs>
</svg>
