<svg width="48" height="48" viewBox="0 0 48 48" fill="none" xmlns="http://www.w3.org/2000/svg">
<g id="mahjong 1" clip-path="url(#clip0_333_1034)">
<path id="Vector" d="M21.5128 8.20217C21.0463 8.65243 20.7559 9.28367 20.7559 9.98316V45.524C20.7559 46.8914 21.8644 47.9999 23.2317 47.9999H43.3368C44.0361 47.9999 44.6674 47.7095 45.1176 47.2431L46.589 45.7718C47.0553 45.3215 47.3459 44.6903 47.3459 43.9908V8.44998C47.3459 7.08254 46.2374 5.97412 44.8699 5.97412H24.7649C24.0654 5.97412 23.4342 6.26457 22.9839 6.73101L21.5128 8.20217Z" fill="url(#paint0_linear_333_1034)"/>
<path id="Vector_2" d="M45.3768 6.52393H25.2717C24.5722 6.52393 23.941 6.81447 23.4907 7.28082L22.0196 8.75207C21.5531 9.20233 21.2627 9.83357 21.2627 10.5331V46.0739C21.2627 46.586 21.4183 47.0619 21.6847 47.4568C22.1085 47.7964 22.646 48.0001 23.2314 48.0001H43.3365C44.0359 48.0001 44.6671 47.7096 45.1174 47.2433L46.5887 45.7719C47.0551 45.3217 47.3456 44.6904 47.3456 43.9909V8.45014C47.3456 7.93795 47.19 7.46209 46.9236 7.06717C46.4997 6.7275 45.9622 6.52393 45.3768 6.52393Z" fill="url(#paint1_linear_333_1034)"/>
<path id="Vector_3" d="M43.3359 48H23.2308C21.8634 48 20.7549 46.8915 20.7549 45.5241V9.98328C20.7549 8.61584 21.8634 7.50732 23.2308 7.50732H43.3359C44.7033 7.50732 45.8117 8.61584 45.8117 9.98328V45.5241C45.8117 46.8915 44.7032 48 43.3359 48Z" fill="url(#paint2_linear_333_1034)"/>
<path id="Vector_4" d="M33.0571 40.4186C31.8663 40.4186 30.8976 39.4499 30.8976 38.2591V31.5591H28.3683C26.5755 31.5591 25.0359 30.2798 24.7077 28.5173L23.7884 23.5819C23.5634 22.3741 23.9507 21.1345 24.8244 20.2661C25.5117 19.5829 26.4844 19.1911 27.4929 19.1911H30.8974V17.7016C30.8974 16.2606 32.0696 15.0884 33.5106 15.0884C34.7013 15.0884 35.6701 16.0571 35.6701 17.2479V19.1912H39.0748C40.0834 19.1912 41.056 19.583 41.7433 20.2664C42.6168 21.1348 43.004 22.3742 42.7791 23.582L41.8581 28.5273C41.5309 30.2841 39.9964 31.5592 38.2095 31.5592H35.6701V37.8055C35.6703 39.2464 34.4981 40.4186 33.0571 40.4186ZM37.3277 26.7865L37.8535 23.9639H35.6703V26.7865H37.3277ZM30.8976 26.7865V23.9639H28.7144L29.2402 26.7865H30.8976Z" fill="url(#paint3_linear_333_1034)"/>
<path id="Vector_5" d="M41.1313 20.8817C40.5882 20.3418 39.8404 20.0588 39.0746 20.0588H34.8021V17.2478C34.8021 16.5344 34.2237 15.9561 33.5103 15.9561C32.5464 15.9561 31.7649 16.7375 31.7649 17.7015V20.0587H27.4926C26.7268 20.0587 25.979 20.3417 25.4359 20.8815C24.7599 21.5534 24.4692 22.4996 24.6413 23.4231L25.5605 28.3584C25.8124 29.7107 26.9925 30.6913 28.368 30.6913H31.765V38.2591C31.765 38.9725 32.3434 39.5509 33.0568 39.5509C34.0207 39.5509 34.8022 38.7694 34.8022 37.8055V30.6914H38.2093C39.5785 30.6914 40.7542 29.7145 41.0048 28.3685L41.9259 23.4233C42.0978 22.4997 41.8072 21.5536 41.1313 20.8817ZM28.5287 27.6542C28.5229 27.6542 28.5179 27.6501 28.5168 27.6443L27.6724 23.1104C27.671 23.103 27.6767 23.0961 27.6843 23.0961H31.7649V27.6542H28.5287ZM38.0502 27.6443C38.0492 27.6501 38.0442 27.6542 38.0383 27.6542H34.8022V23.0961H38.883C38.8906 23.0961 38.8962 23.103 38.8948 23.1104L38.0502 27.6443Z" fill="url(#paint4_linear_333_1034)"/>
<path id="Vector_6" d="M47.345 26.0744V43.9906C47.345 44.6899 47.0552 45.3214 46.5883 45.7723L45.1173 47.2433C44.6674 47.7092 44.0359 48 43.3366 48H26.706L20.7559 42.049V9.98308C20.7559 9.28379 21.0457 8.65226 21.5126 8.20237L22.9836 6.73132C23.4335 6.26449 24.065 5.97461 24.7643 5.97461H27.2443L47.345 26.0744Z" fill="url(#paint5_linear_333_1034)"/>
<path id="Vector_7" d="M41.1313 20.8817C40.5882 20.3418 39.8404 20.0588 39.0746 20.0588H34.8021V17.2478C34.8021 16.5344 34.2237 15.9561 33.5103 15.9561C32.5464 15.9561 31.7649 16.7375 31.7649 17.7015V20.0587H27.4926C26.7268 20.0587 25.979 20.3417 25.4359 20.8815C24.7599 21.5534 24.4692 22.4996 24.6413 23.4231L25.5605 28.3584C25.8124 29.7107 26.9925 30.6913 28.368 30.6913H31.765V38.2591C31.765 38.9725 32.3434 39.5509 33.0568 39.5509C34.0207 39.5509 34.8022 38.7694 34.8022 37.8055V30.6914H38.2093C39.5785 30.6914 40.7542 29.7145 41.0048 28.3685L41.9259 23.4233C42.0978 22.4997 41.8072 21.5536 41.1313 20.8817ZM28.5287 27.6542C28.5229 27.6542 28.5179 27.6501 28.5168 27.6443L27.6724 23.1104C27.671 23.103 27.6767 23.0961 27.6843 23.0961H31.7649V27.6542H28.5287ZM38.0502 27.6443C38.0492 27.6501 38.0442 27.6542 38.0383 27.6542H34.8022V23.0961H38.883C38.8906 23.0961 38.8962 23.103 38.8948 23.1104L38.0502 27.6443Z" fill="url(#paint6_linear_333_1034)"/>
<path id="Vector_8" d="M24.5989 8.87509C23.2315 8.87509 22.123 9.98361 22.123 11.351V46.8918C22.123 47.22 22.1875 47.5331 22.3035 47.8198C22.5902 47.9358 22.9032 48.0003 23.2314 48.0003H43.3364C44.7038 48.0003 45.8123 46.8918 45.8123 45.5243V9.98342C45.8123 9.65514 45.7478 9.34211 45.6318 9.05542C45.3452 8.93938 45.0321 8.875 44.7038 8.875L24.5989 8.87509Z" fill="url(#paint7_linear_333_1034)"/>
<path id="Vector_9" d="M1.41119 2.22814C0.944744 2.6784 0.654297 3.30965 0.654297 4.00913V39.5499C0.654297 40.9174 1.76281 42.0259 3.13016 42.0259H23.2352C23.9346 42.0259 24.5658 41.7354 25.0161 41.2691L26.4874 39.7977C26.9538 39.3475 27.2443 38.7162 27.2443 38.0168V2.47586C27.2443 1.10852 26.1358 0 24.7684 0H4.66333C3.96394 0 3.3327 0.290447 2.88244 0.756894L1.41119 2.22814Z" fill="url(#paint8_linear_333_1034)"/>
<path id="Vector_10" d="M25.2762 0.549805H5.17124C4.47176 0.549805 3.84051 0.840346 3.39025 1.3067L1.919 2.77795C1.45256 3.2282 1.16211 3.85945 1.16211 4.55893V40.0997C1.16211 40.6119 1.31769 41.0878 1.58413 41.4827C2.00794 41.8223 2.54545 42.0259 3.13086 42.0259H23.2359C23.9353 42.0259 24.5665 41.7355 25.0168 41.2691L26.4881 39.7978C26.9545 39.3475 27.245 38.7163 27.245 38.0168V2.47592C27.245 1.96373 27.0895 1.48788 26.823 1.09296C26.3991 0.753381 25.8616 0.549805 25.2762 0.549805Z" fill="url(#paint9_linear_333_1034)"/>
<path id="Vector_11" d="M23.2353 42.0258H3.13025C1.76281 42.0258 0.654297 40.9173 0.654297 39.55V4.00906C0.654297 2.64163 1.76281 1.5332 3.13025 1.5332H23.2353C24.6027 1.5332 25.7111 2.64172 25.7111 4.00906V39.5499C25.7111 40.9173 24.6026 42.0258 23.2353 42.0258Z" fill="url(#paint10_linear_333_1034)"/>
<path id="Vector_12" d="M12.6469 34.4447C11.6264 34.4447 10.7962 33.6146 10.7962 32.5941V30.4889C9.87529 31.3332 8.89327 32.0936 7.86118 32.761C7.3279 33.1059 6.71237 33.2881 6.08122 33.2881C4.81515 33.2881 3.64979 32.549 3.11237 31.4052C2.80179 30.7437 3.07021 29.968 3.72348 29.6389C5.18899 28.9007 6.54663 27.9394 7.77741 26.7698C6.2015 26.5653 4.90579 25.3662 4.60828 23.7688L3.68725 18.8235C3.48461 17.7356 3.77402 16.6233 4.48132 15.7722C5.1887 14.9209 6.22917 14.4328 7.3359 14.4328H7.84339C7.77619 14.2655 7.7392 14.0831 7.7392 13.8921V13.3851C7.7392 11.8344 9.00085 10.5726 10.5517 10.5726H11.1872C11.6993 9.67981 12.6501 9.11426 13.7185 9.11426C14.6044 9.11426 15.3469 9.73995 15.5272 10.5726H17.173C17.9742 10.5726 18.6262 11.2246 18.6262 12.0258V12.5328C18.6262 13.2646 18.3453 13.932 17.8856 14.4328H19.0296C20.1363 14.4328 21.1767 14.9209 21.884 15.7722C22.5913 16.6234 22.8808 17.7356 22.6782 18.8236L21.7572 23.7689C21.4597 25.3663 20.1641 26.5656 18.588 26.7699C19.8186 27.9392 21.1765 28.9008 22.6418 29.639C23.2952 29.968 23.5637 30.7437 23.2531 31.4051C22.7155 32.5491 21.5502 33.2882 20.2843 33.2882C20.2843 33.2882 20.2841 33.2882 20.284 33.2882C19.6528 33.2882 19.0373 33.1059 18.504 32.7611C17.472 32.0937 16.4901 31.3332 15.5691 30.489V31.5226C15.569 33.1338 14.2582 34.4447 12.6469 34.4447Z" fill="url(#paint11_linear_333_1034)"/>
<path id="Vector_13" d="M22.2519 30.4138C19.7244 29.1407 17.8612 27.4057 16.6003 25.933H18.1089C19.4781 25.933 20.6538 24.9561 20.9044 23.61L21.8255 18.6647C21.9808 17.8311 21.7589 16.9789 21.217 16.3267C20.6751 15.6745 19.8779 15.3004 19.03 15.3004H14.7017V14.4775H15.8141C16.8881 14.4775 17.7588 13.6068 17.7588 12.5327V12.0257C17.7588 11.7024 17.4967 11.4403 17.1734 11.4403H14.7017V10.9648C14.7017 10.422 14.2617 9.98193 13.7188 9.98193C12.7916 9.98193 12.0081 10.5964 11.7526 11.4403H10.5521C9.47798 11.4403 8.6073 12.311 8.6073 13.385V13.8921C8.6073 14.2153 8.86942 14.4775 9.19271 14.4775H11.6644V15.3004H7.33643C6.48843 15.3004 5.69125 15.6745 5.14923 16.3268C4.6073 16.9789 4.38556 17.8312 4.54085 18.6647L5.46189 23.61C5.71262 24.9561 6.88824 25.933 8.25737 25.933H9.76598C8.50509 27.4057 6.64203 29.1408 4.11441 30.4138C3.88579 30.5289 3.78942 30.8044 3.89831 31.0361C4.51949 32.358 6.16401 32.8254 7.39055 32.0322C9.16297 30.8859 10.5769 29.5866 11.6645 28.3855V32.5939C11.6645 33.1367 12.1045 33.5768 12.6474 33.5768C13.782 33.5768 14.7017 32.657 14.7017 31.5225V28.3856C15.7893 29.5867 17.2033 30.8861 18.9757 32.0323C20.2022 32.8254 21.8467 32.3581 22.4679 31.0361L22.468 31.0361C22.5768 30.8043 22.4804 30.5289 22.2519 30.4138ZM17.4428 22.8957H15.3098C14.974 22.8957 14.7018 22.6235 14.7018 22.2877C14.7018 21.9519 14.974 21.6797 15.3098 21.6797H17.4428C17.8232 21.6797 18.1102 22.0251 18.0405 22.3991C17.9869 22.687 17.7357 22.8957 17.4428 22.8957ZM18.663 19.0569L18.6549 19.1003C18.6013 19.3882 18.3501 19.597 18.0572 19.597H15.3098C14.974 19.597 14.7018 19.3248 14.7018 18.989V18.9456C14.7018 18.6098 14.974 18.3376 15.3098 18.3376H18.0652C18.4456 18.3376 18.7327 18.683 18.663 19.0569ZM11.6646 18.9456V18.989C11.6646 19.3248 11.3924 19.597 11.0566 19.597H8.30913C8.01624 19.597 7.76504 19.3882 7.71139 19.1003L7.7033 19.0569C7.63365 18.683 7.92062 18.3376 8.30104 18.3376H11.0565C11.3923 18.3376 11.6646 18.6098 11.6646 18.9456ZM8.92353 21.6797H11.0565C11.3923 21.6797 11.6645 21.9519 11.6645 22.2877C11.6645 22.6235 11.3923 22.8957 11.0565 22.8957H8.92353C8.63064 22.8957 8.37944 22.687 8.32579 22.3991C8.25615 22.025 8.54311 21.6797 8.92353 21.6797Z" fill="url(#paint12_linear_333_1034)"/>
<path id="Vector_14" d="M4.49832 2.90088C3.13088 2.90088 2.02246 4.0094 2.02246 5.37674V40.9175C2.02246 41.2458 2.08693 41.5589 2.20288 41.8455C2.48957 41.9616 2.8026 42.0261 3.13088 42.0261H23.2359C24.6034 42.0261 25.7118 40.9175 25.7118 39.5501V4.0093C25.7118 3.68102 25.6473 3.36798 25.5314 3.0813C25.2447 2.96526 24.9316 2.90088 24.6035 2.90088H4.49832Z" fill="url(#paint13_linear_333_1034)"/>
</g>
<defs>
<linearGradient id="paint0_linear_333_1034" x1="27.6945" y1="16.1961" x2="33.9265" y2="26.776" gradientUnits="userSpaceOnUse">
<stop stop-color="#FFDECF"/>
<stop offset="1" stop-color="#FAA68E"/>
</linearGradient>
<linearGradient id="paint1_linear_333_1034" x1="32.425" y1="11.2344" x2="31.1808" y2="0.622843" gradientUnits="userSpaceOnUse">
<stop stop-color="white" stop-opacity="0"/>
<stop offset="1" stop-color="white"/>
</linearGradient>
<linearGradient id="paint2_linear_333_1034" x1="26.0784" y1="20.5487" x2="55.1169" y2="49.5872" gradientUnits="userSpaceOnUse">
<stop stop-color="#FFDECF"/>
<stop offset="1" stop-color="#FAA68E"/>
</linearGradient>
<linearGradient id="paint3_linear_333_1034" x1="43.3103" y1="27.7535" x2="13.4688" y2="27.7535" gradientUnits="userSpaceOnUse">
<stop stop-color="#FFDECF"/>
<stop offset="1" stop-color="#FAA68E"/>
</linearGradient>
<linearGradient id="paint4_linear_333_1034" x1="23.0392" y1="18.9791" x2="39.6415" y2="32.4628" gradientUnits="userSpaceOnUse">
<stop stop-color="#FF7044"/>
<stop offset="0.2892" stop-color="#FF6D42"/>
<stop offset="0.5055" stop-color="#FE633C"/>
<stop offset="0.698" stop-color="#FC5331"/>
<stop offset="0.8757" stop-color="#FA3D22"/>
<stop offset="1" stop-color="#F82814"/>
</linearGradient>
<linearGradient id="paint5_linear_333_1034" x1="33.3653" y1="27.6529" x2="21.3591" y2="26.4023" gradientUnits="userSpaceOnUse">
<stop stop-color="#FAA68E" stop-opacity="0"/>
<stop offset="1" stop-color="#FAA68E"/>
</linearGradient>
<linearGradient id="paint6_linear_333_1034" x1="33.6686" y1="27.8184" x2="25.2993" y2="26.4088" gradientUnits="userSpaceOnUse">
<stop stop-color="#F82814" stop-opacity="0"/>
<stop offset="1" stop-color="#C0272D"/>
</linearGradient>
<linearGradient id="paint7_linear_333_1034" x1="32.1454" y1="26.6152" x2="9.94704" y2="4.41693" gradientUnits="userSpaceOnUse">
<stop stop-color="white" stop-opacity="0"/>
<stop offset="1" stop-color="white"/>
</linearGradient>
<linearGradient id="paint8_linear_333_1034" x1="7.59293" y1="10.2219" x2="13.8249" y2="20.8019" gradientUnits="userSpaceOnUse">
<stop stop-color="#FFDECF"/>
<stop offset="1" stop-color="#FAA68E"/>
</linearGradient>
<linearGradient id="paint9_linear_333_1034" x1="12.3244" y1="5.2603" x2="11.0803" y2="-5.35128" gradientUnits="userSpaceOnUse">
<stop stop-color="white" stop-opacity="0"/>
<stop offset="1" stop-color="white"/>
</linearGradient>
<linearGradient id="paint10_linear_333_1034" x1="5.97778" y1="14.5745" x2="35.0163" y2="43.613" gradientUnits="userSpaceOnUse">
<stop stop-color="#FFDECF"/>
<stop offset="1" stop-color="#FAA68E"/>
</linearGradient>
<linearGradient id="paint11_linear_333_1034" x1="24.4327" y1="21.7796" x2="1.92198" y2="21.7796" gradientUnits="userSpaceOnUse">
<stop stop-color="#FFDECF"/>
<stop offset="1" stop-color="#FAA68E"/>
</linearGradient>
<linearGradient id="paint12_linear_333_1034" x1="7.03949" y1="19.1065" x2="25.1108" y2="30.9351" gradientUnits="userSpaceOnUse">
<stop stop-color="#00ADFB"/>
<stop offset="1" stop-color="#3F3CED"/>
</linearGradient>
<linearGradient id="paint13_linear_333_1034" x1="12.0448" y1="20.6411" x2="-10.1535" y2="-1.55729" gradientUnits="userSpaceOnUse">
<stop stop-color="white" stop-opacity="0"/>
<stop offset="1" stop-color="white"/>
</linearGradient>
<clipPath id="clip0_333_1034">
<rect width="48" height="48" fill="white"/>
</clipPath>
</defs>
</svg>
