<svg width="48" height="48" viewBox="0 0 48 48" fill="none" xmlns="http://www.w3.org/2000/svg">
<g id="poker-table (1) 1" clip-path="url(#clip0_333_1882)">
<path id="Vector" d="M22.969 1.03149C17.9709 1.03149 13.3464 2.62881 9.57617 5.33959V42.6606C13.3464 45.3714 17.9709 46.9687 22.969 46.9687C35.6542 46.9687 45.9376 36.6853 45.9376 24.0002C45.9376 11.315 35.6542 1.03149 22.969 1.03149Z" fill="#7255CE"/>
<path id="Vector_2" d="M29.3397 6.05957H8.62778C7.58922 6.89085 6.62575 7.81157 5.74609 8.80794V39.192C6.62584 40.1884 7.58922 41.1092 8.62778 41.9405H29.3397C39.2479 41.9405 47.2801 33.9083 47.2801 24C47.2801 14.0918 39.2478 6.05957 29.3397 6.05957Z" fill="#A05838"/>
<path id="Vector_3" d="M5.74609 8.80794V39.192C6.62584 40.1884 7.58922 41.1092 8.62778 41.9405H22.3741C22.3742 41.8116 22.411 41.6908 22.4612 41.5865C22.5683 41.3635 22.5082 41.0982 22.3322 40.9244C21.7895 40.3886 21.9991 39.7851 22.1605 39.4872C22.2325 39.3542 22.2536 39.1998 22.2152 39.0537L14.288 8.84507C14.2643 8.75451 14.2188 8.67051 14.1557 8.60123C13.5548 7.94132 13.6766 7.42391 13.8755 7.11173C14.0009 6.91513 13.9847 6.66107 13.8509 6.47029C13.7547 6.33304 13.7143 6.1927 13.7068 6.05957H8.62778C7.58922 6.89085 6.62575 7.81157 5.74609 8.80794Z" fill="#934A2E"/>
<path id="Vector_4" d="M48 23.9998C48 13.7104 39.6289 5.33936 29.3394 5.33936H9.5757C8.94983 5.78936 8.34795 6.27029 7.77148 6.77945H29.3395C38.8349 6.77945 46.56 14.5044 46.56 23.9999C46.56 33.4953 38.8349 41.2203 29.3395 41.2203H7.77148C8.34805 41.7294 8.94992 42.2104 9.5757 42.6604H29.3394C39.6289 42.6605 48 34.2894 48 23.9998Z" fill="#B76C4E"/>
<path id="Vector_5" d="M9.5757 42.6606H22.7225C22.6966 42.5831 22.6544 42.5109 22.5961 42.4497C22.3013 42.1407 22.3478 41.822 22.461 41.5865C22.5171 41.4696 22.5264 41.3413 22.4981 41.2205H7.77148C8.34795 41.7297 8.94983 42.2106 9.5757 42.6606Z" fill="#A05838"/>
<path id="Vector_6" d="M13.8676 5.33936H9.5758C8.94992 5.78936 8.34805 6.27029 7.77148 6.77945H13.9592C13.9525 6.6707 13.9159 6.56289 13.8508 6.47017C13.6175 6.13754 13.7093 5.78626 13.8144 5.56511C13.8485 5.49357 13.8652 5.4167 13.8676 5.33936Z" fill="#A05838"/>
<path id="Vector_7" d="M29.3397 8.69971H5.83993C4.62493 10.059 3.57015 11.5643 2.70315 13.1852L1.97265 14.6771C1.51084 15.7153 1.12487 16.7944 0.819336 17.9069L0.83218 30.1399C1.13565 31.2358 1.5173 32.2993 1.97265 33.3229L2.70362 34.8156C3.57062 36.436 4.62512 37.9411 5.84002 39.3002H29.3398C37.7764 39.3002 44.6401 32.4366 44.6401 23.9999C44.64 15.5633 37.7763 8.69971 29.3397 8.69971Z" fill="#49D88B"/>
<path id="Vector_8" d="M2.70315 13.1851L1.97265 14.677C1.51084 15.7152 1.12487 16.7943 0.819336 17.9068L0.83218 30.1398C1.13565 31.2357 1.5173 32.2992 1.97265 33.3228L2.70362 34.8155C3.57062 36.4359 4.62512 37.941 5.84002 39.3001H22.28C22.2265 39.1411 22.1281 38.9973 21.9887 38.8905C20.3524 37.636 20.7023 36.2295 21.0972 35.4539C21.2595 35.1351 21.2145 34.7589 20.9948 34.4766C20.8374 34.2743 20.8077 34.0708 20.8307 33.8971C20.8713 33.5885 20.7649 33.275 20.5235 33.0785C19.3568 32.129 19.6771 30.8728 19.8741 30.3669C19.9361 30.2078 19.9527 30.0348 19.9175 29.8678L17.4814 18.3062C17.4302 18.0632 17.2771 17.8567 17.0658 17.7261C15.8317 16.963 15.8254 15.7745 15.9452 15.0979C15.995 14.8171 15.9073 14.5257 15.7072 14.3226C15.4791 14.0909 15.4429 13.825 15.4711 13.6041C15.5094 13.3045 15.4075 13.0021 15.1779 12.8057C13.7702 11.6013 14.01 9.98118 14.2469 9.18402C14.2947 9.02305 14.2935 8.85571 14.2501 8.69971H5.84002C4.62493 10.059 3.57024 11.5643 2.70315 13.1851Z" fill="#38C674"/>
<path id="Vector_9" d="M29.34 13.8601H3.32134C2.99359 13.8601 2.66968 13.8763 2.3498 13.907L1.99374 14.6342C1.52293 15.6867 1.12927 16.7812 0.819336 17.9103L0.83218 30.1357C1.14024 31.2487 1.5294 32.3278 1.99393 33.3662L2.3499 34.093C2.66977 34.1236 2.99368 34.1399 3.32143 34.1399H29.34C34.931 34.1399 39.4798 29.5912 39.4798 24C39.4798 18.4089 34.931 13.8601 29.34 13.8601Z" fill="#38C674"/>
<path id="Vector_10" d="M2.3498 13.9069L1.99374 14.6342C1.52293 15.6867 1.12927 16.7811 0.819336 17.9103L0.83218 30.1356C1.14024 31.2486 1.5294 32.3278 1.99393 33.3662L2.3499 34.093C2.66977 34.1236 2.99368 34.1399 3.32143 34.1399H20.8382C20.8218 34.0551 20.8208 33.9732 20.8308 33.8973C20.8715 33.5886 20.7651 33.2751 20.5237 33.0786C19.357 32.1291 19.6773 30.873 19.8743 30.3671C19.9363 30.208 19.9529 30.035 19.9177 29.868L17.4816 18.3064C17.4304 18.0634 17.2772 17.8569 17.066 17.7263C15.8319 16.9632 15.8256 15.7746 15.9454 15.098C15.9952 14.8173 15.9075 14.5259 15.7074 14.3227C15.5626 14.1756 15.4954 14.0148 15.4727 13.8604H3.32134C2.99368 13.8601 2.66968 13.8764 2.3498 13.9069Z" fill="#21B75D"/>
<path id="Vector_11" d="M29.3398 13.1401H3.32134C3.11847 13.1401 2.91709 13.1462 2.71694 13.1572C2.45078 13.6532 2.20253 14.1601 1.97266 14.6772C2.41328 14.6137 2.86347 14.5802 3.32134 14.5802H29.3398C34.5339 14.5802 38.7596 18.8059 38.7596 23.9999C38.7596 29.1941 34.5339 33.4199 29.3398 33.4199H3.32134C2.86347 33.4199 2.41328 33.3864 1.97266 33.3229C2.20253 33.84 2.45078 34.3469 2.71694 34.8429C2.91709 34.854 3.11847 34.8599 3.32134 34.8599H29.3398C35.3281 34.8599 40.1997 29.9882 40.1997 24C40.1997 18.0119 35.3281 13.1401 29.3398 13.1401Z" fill="#E9EFFF"/>
<path id="Vector_12" d="M1.97266 33.3228C2.20253 33.8397 2.45087 34.3467 2.71694 34.8426C2.91709 34.8537 3.11847 34.8598 3.32134 34.8598H21.1728C21.1435 34.7234 21.0847 34.592 20.9949 34.4766C20.8375 34.2743 20.8078 34.0708 20.8307 33.8971C20.8524 33.733 20.8312 33.5682 20.7716 33.4197H3.32134C2.86337 33.4197 2.41328 33.3862 1.97266 33.3228Z" fill="#BEC8F7"/>
<path id="Vector_13" d="M2.71694 13.1574C2.45087 13.6534 2.20253 14.1603 1.97266 14.6773C2.41328 14.6139 2.86347 14.5804 3.32134 14.5804H15.8822C15.8402 14.4858 15.7816 14.3981 15.7073 14.3228C15.4792 14.0911 15.443 13.8252 15.4713 13.6044C15.4916 13.4448 15.471 13.285 15.4139 13.1404H3.32134C3.11847 13.1402 2.917 13.1463 2.71694 13.1574Z" fill="#BEC8F7"/>
<path id="Vector_14" d="M23.9203 17.9058H17.4714C17.0816 17.9058 16.7656 18.2217 16.7656 18.6115V29.4358C16.7656 29.8256 17.0816 30.1415 17.4714 30.1415H23.9203C24.3101 30.1415 24.6261 29.8256 24.6261 29.4358V18.6115C24.6261 18.2218 24.3101 17.9058 23.9203 17.9058Z" fill="#FCF9F0"/>
<path id="Vector_15" d="M19.3438 29.4358V18.6115C19.3438 18.2217 19.6597 17.9058 20.0495 17.9058H17.4714C17.0816 17.9058 16.7656 18.2217 16.7656 18.6115V29.4358C16.7656 29.8256 17.0816 30.1415 17.4714 30.1415H20.0495C19.6597 30.1415 19.3438 29.8256 19.3438 29.4358Z" fill="#F9EFDC"/>
<path id="Vector_16" d="M15.2601 17.9058H8.81122C8.42141 17.9058 8.10547 18.2217 8.10547 18.6115V29.4358C8.10547 29.8256 8.42141 30.1415 8.81122 30.1415H15.2601C15.6499 30.1415 15.9658 29.8256 15.9658 29.4358V18.6115C15.9658 18.2218 15.6499 17.9058 15.2601 17.9058Z" fill="#FCF9F0"/>
<path id="Vector_17" d="M10.6836 29.4358V18.6115C10.6836 18.2217 10.9995 17.9058 11.3893 17.9058H8.81122C8.42141 17.9058 8.10547 18.2217 8.10547 18.6115V29.4358C8.10547 29.8256 8.42141 30.1415 8.81122 30.1415H11.3893C10.9996 30.1415 10.6836 29.8256 10.6836 29.4358Z" fill="#F9EFDC"/>
<path id="Vector_18" d="M6.69338 17.9058H0.818906C0.286031 19.8467 0 21.8898 0 23.9999C0 26.1273 0.290531 28.1865 0.83175 30.1415H6.69328C7.08309 30.1415 7.39903 29.8256 7.39903 29.4358V18.6115C7.39912 18.2218 7.08309 17.9058 6.69338 17.9058Z" fill="#FCF9F0"/>
<path id="Vector_19" d="M2.57812 29.4358V18.6115C2.57812 18.2217 2.89416 17.9058 3.28387 17.9058H0.818906C0.286031 19.8467 0 21.8898 0 23.9999C0 26.1273 0.290531 28.1865 0.83175 30.1415H3.28387C2.89416 30.1415 2.57812 29.8256 2.57812 29.4358Z" fill="#F9EFDC"/>
<path id="Vector_20" d="M32.4164 17.8582H25.9675C25.5777 17.8582 25.2617 18.1741 25.2617 18.5639V29.3882C25.2617 29.778 25.5777 30.0939 25.9675 30.0939H32.4164C32.8062 30.0939 33.1222 29.778 33.1222 29.3882V18.5639C33.1222 18.1742 32.8062 17.8582 32.4164 17.8582Z" fill="#FCF9F0"/>
<path id="Vector_21" d="M27.8398 29.3882V18.5639C27.8398 18.1741 28.1558 17.8582 28.5456 17.8582H25.9675C25.5777 17.8582 25.2617 18.1741 25.2617 18.5639V29.3882C25.2617 29.778 25.5777 30.0939 25.9675 30.0939H28.5456C28.1558 30.0939 27.8398 29.778 27.8398 29.3882Z" fill="#F9EFDC"/>
<path id="Vector_22" d="M22.8512 22.1084C22.2771 21.5781 21.3768 21.6226 20.8263 22.1774L20.8262 22.1775C20.7543 22.2499 20.6373 22.2499 20.5654 22.1775C20.0149 21.6226 19.1147 21.578 18.5404 22.1084C17.9377 22.6653 17.9213 23.6058 18.4943 24.1834C18.9885 24.6815 20.2943 25.9978 20.3827 26.087C20.5552 26.2609 20.8364 26.2609 21.0088 26.087C21.2455 25.8483 22.3948 24.6899 22.8972 24.1834C23.4702 23.6058 23.4539 22.6653 22.8512 22.1084Z" fill="#FF4155"/>
<path id="Vector_23" d="M31.2877 23.7437C30.8936 23.5545 30.5243 23.2966 30.1976 22.97C29.8709 22.6433 29.613 22.274 29.4238 21.8798C29.331 21.6865 29.0518 21.6865 28.959 21.8798C28.7697 22.2739 28.5119 22.6433 28.1853 22.97C27.8587 23.2966 27.4893 23.5545 27.0952 23.7437C26.9019 23.8365 26.9019 24.1157 27.0952 24.2085C27.4893 24.3977 27.8587 24.6556 28.1853 24.9822C28.5119 25.3088 28.7698 25.6782 28.959 26.0723C29.0518 26.2657 29.331 26.2657 29.4238 26.0723C29.613 25.6783 29.8709 25.3089 30.1976 24.9822C30.5242 24.6555 30.8936 24.3978 31.2877 24.2085C31.481 24.1157 31.481 23.8365 31.2877 23.7437Z" fill="#FF4155"/>
<path id="Vector_24" d="M5.3046 23.4311C4.88563 23.0088 3.92723 22.0427 3.72979 21.8436C3.58598 21.6986 3.35151 21.6986 3.2077 21.8436C3.13401 21.9179 2.04501 23.0157 1.63288 23.4311C1.15504 23.9128 1.16873 24.6971 1.67132 25.1615C2.06226 25.5226 2.63423 25.5635 3.08085 25.3145C3.12238 25.2914 3.1717 25.3287 3.15895 25.3745C3.07673 25.6684 2.96667 25.8715 2.87217 26.0042C2.80851 26.0935 2.87338 26.2174 2.98317 26.2174H3.95432C4.06401 26.2174 4.12888 26.0936 4.06523 26.0042C3.97073 25.8715 3.86067 25.6684 3.77845 25.3745C3.7656 25.3287 3.81492 25.2914 3.85654 25.3145C4.30326 25.5635 4.87523 25.5227 5.26607 25.1615C5.76876 24.6971 5.78245 23.9128 5.3046 23.4311Z" fill="#3C5082"/>
<path id="Vector_25" d="M14.5458 24.263C14.5203 23.7985 14.1531 23.4115 13.6915 23.3628C13.3042 23.3218 12.9327 23.5154 12.7459 23.856C12.6722 23.9903 12.5272 24.0738 12.3675 24.0738H12.3556C12.3135 24.0738 12.2793 24.0396 12.2793 23.9976V23.9149C12.2793 23.7553 12.3628 23.6103 12.4972 23.5365C12.8376 23.3498 13.0312 22.9786 12.9903 22.591C12.9416 22.1295 12.5546 21.7622 12.0901 21.7366C11.8236 21.7218 11.5696 21.8146 11.3762 21.9977C11.1827 22.1809 11.076 22.4286 11.076 22.695C11.076 23.0458 11.2674 23.3685 11.5757 23.537C11.7094 23.6102 11.7925 23.755 11.7925 23.9149V23.9975C11.7925 24.0396 11.7583 24.0737 11.7162 24.0737C11.7112 24.0724 11.4543 24.09 11.3258 23.8559C11.1391 23.5155 10.7679 23.3221 10.3802 23.3628C9.91874 23.4115 9.55143 23.7986 9.52593 24.2631C9.51121 24.53 9.60393 24.7835 9.78703 24.9769C9.97021 25.1704 10.2179 25.2771 10.4842 25.2771C10.8351 25.2771 11.1577 25.0857 11.3263 24.7774C11.3995 24.6436 11.5444 24.5606 11.7042 24.5606C11.7487 24.5606 11.784 24.5987 11.7804 24.6433C11.7288 25.3124 11.5366 25.7073 11.3844 25.9209C11.2957 26.0456 11.3862 26.2174 11.5385 26.2174H12.5332C12.6858 26.2174 12.7756 26.045 12.6872 25.9209C12.5351 25.7072 12.3428 25.3123 12.2912 24.6433C12.2877 24.5988 12.323 24.5606 12.3674 24.5606C12.5273 24.5606 12.6721 24.6436 12.7453 24.7774C12.9139 25.0857 13.2366 25.2771 13.5874 25.2771C13.8538 25.2771 14.1014 25.1705 14.2846 24.9769C14.4678 24.7835 14.5605 24.53 14.5458 24.263Z" fill="#3C5082"/>
<g id="Group">
<path id="Vector_26" d="M1.71929 18.7407H0.967508C0.714195 18.7407 0.508789 18.9461 0.508789 19.1994C0.508789 19.4528 0.714195 19.6582 0.967508 19.6582H1.71929C1.9726 19.6582 2.17801 19.4528 2.17801 19.1994C2.17801 18.9461 1.9727 18.7407 1.71929 18.7407Z" fill="#EFE1CB"/>
<path id="Vector_27" d="M6.06695 28.3894H5.31516C5.06185 28.3894 4.85645 28.5948 4.85645 28.8481C4.85645 29.1014 5.06185 29.3068 5.31516 29.3068H6.06695C6.32026 29.3068 6.52566 29.1014 6.52566 28.8481C6.52576 28.5947 6.32035 28.3894 6.06695 28.3894Z" fill="#EFE1CB"/>
<path id="Vector_28" d="M10.189 18.7407H9.43723C9.18392 18.7407 8.97852 18.9461 8.97852 19.1994C8.97852 19.4528 9.18392 19.6582 9.43723 19.6582H10.189C10.4423 19.6582 10.6477 19.4528 10.6477 19.1994C10.6477 18.9461 10.4423 18.7407 10.189 18.7407Z" fill="#EFE1CB"/>
<path id="Vector_29" d="M14.6343 28.3894H13.8825C13.6292 28.3894 13.4238 28.5948 13.4238 28.8481C13.4238 29.1014 13.6292 29.3068 13.8825 29.3068H14.6343C14.8876 29.3068 15.093 29.1014 15.093 28.8481C15.093 28.5947 14.8876 28.3894 14.6343 28.3894Z" fill="#EFE1CB"/>
<path id="Vector_30" d="M18.8482 18.7407H18.0964C17.8431 18.7407 17.6377 18.9461 17.6377 19.1994C17.6377 19.4528 17.8431 19.6582 18.0964 19.6582H18.8482C19.1015 19.6582 19.3069 19.4528 19.3069 19.1994C19.3069 18.9461 19.1015 18.7407 18.8482 18.7407Z" fill="#EFE1CB"/>
<path id="Vector_31" d="M23.2935 28.3894H22.5417C22.2884 28.3894 22.083 28.5948 22.083 28.8481C22.083 29.1014 22.2884 29.3068 22.5417 29.3068H23.2935C23.5468 29.3068 23.7522 29.1014 23.7522 28.8481C23.7522 28.5947 23.5468 28.3894 23.2935 28.3894Z" fill="#EFE1CB"/>
<path id="Vector_32" d="M27.3443 18.7407H26.5925C26.3392 18.7407 26.1338 18.9461 26.1338 19.1994C26.1338 19.4528 26.3392 19.6582 26.5925 19.6582H27.3443C27.5976 19.6582 27.803 19.4528 27.803 19.1994C27.803 18.9461 27.5976 18.7407 27.3443 18.7407Z" fill="#EFE1CB"/>
<path id="Vector_33" d="M31.7896 28.3894H31.0378C30.7845 28.3894 30.5791 28.5948 30.5791 28.8481C30.5791 29.1014 30.7845 29.3068 31.0378 29.3068H31.7896C32.0429 29.3068 32.2483 29.1014 32.2483 28.8481C32.2483 28.5947 32.0429 28.3894 31.7896 28.3894Z" fill="#EFE1CB"/>
</g>
<path id="Vector_34" d="M3.85662 25.3146C4.30334 25.5635 4.87531 25.5227 5.26625 25.1615C5.36366 25.0715 5.44212 24.9694 5.50278 24.8599C2.57075 25.0019 2.73416 22.321 2.73416 22.321C2.36572 22.6924 1.87878 23.1833 1.63287 23.4311C1.15503 23.9128 1.16872 24.6971 1.67141 25.1615C2.06234 25.5226 2.63431 25.5635 3.08094 25.3146C3.12247 25.2914 3.17178 25.3287 3.15903 25.3745C3.07691 25.6684 2.96675 25.8715 2.87225 26.0042C2.80859 26.0935 2.87347 26.2174 2.98325 26.2174H3.95441C4.06419 26.2174 4.12897 26.0935 4.06531 26.0042C3.97081 25.8715 3.86075 25.6684 3.77853 25.3745C3.76578 25.3287 3.81509 25.2914 3.85662 25.3146Z" fill="#2D3C6B"/>
<path id="Vector_35" d="M12.2913 24.6431C12.2893 24.6188 12.2997 24.5969 12.3163 24.5816C12.316 24.5816 12.3157 24.5815 12.3155 24.5815C11.7344 24.5815 11.7701 24.0514 11.7701 24.0514C11.7563 24.0652 11.7372 24.0737 11.7162 24.0737C11.7112 24.0724 11.4543 24.0899 11.3258 23.8558C11.1391 23.5154 10.7679 23.3221 10.3802 23.3628C9.91874 23.4114 9.55152 23.7985 9.52593 24.2631C9.51121 24.53 9.60402 24.7835 9.78712 24.9769C9.97031 25.1705 10.218 25.2771 10.4844 25.2771C10.8351 25.2771 11.1579 25.0856 11.3265 24.7774C11.3997 24.6436 11.5445 24.5605 11.7044 24.5605C11.7488 24.5605 11.7842 24.5987 11.7806 24.6432C11.729 25.3123 11.5367 25.7073 11.3845 25.9208C11.2958 26.0455 11.3864 26.2175 11.5386 26.2175H12.5333C12.6859 26.2175 12.7757 26.0451 12.6873 25.9208C12.5351 25.7071 12.3429 25.3121 12.2913 24.6431Z" fill="#2D3C6B"/>
<path id="Vector_36" d="M19.3435 21.7454C19.0525 21.7776 18.7703 21.8962 18.5404 22.1085C17.9377 22.6653 17.9213 23.6058 18.4943 24.1834C18.9885 24.6815 20.2943 25.9979 20.3827 26.087C20.5552 26.2609 20.8363 26.2609 21.0088 26.087C21.173 25.9215 21.7762 25.3135 22.2981 24.7875C18.8986 24.5625 19.3341 21.802 19.3435 21.7454Z" fill="#E80054"/>
<path id="Vector_37" d="M30.5797 24.6458C28.0376 24.6458 28.5451 22.5569 28.5451 22.5569H28.5449C28.436 22.7006 28.3165 22.8389 28.1853 22.97C27.8587 23.2967 27.4893 23.5546 27.0952 23.7438C26.9019 23.8366 26.9019 24.1158 27.0952 24.2086C27.4893 24.3978 27.8586 24.6557 28.1853 24.9823C28.5119 25.3089 28.7698 25.6783 28.959 26.0724C29.0518 26.2657 29.3311 26.2657 29.4238 26.0724C29.6131 25.6784 29.8709 25.309 30.1976 24.9823C30.3193 24.8606 30.447 24.7485 30.5797 24.6458Z" fill="#E80054"/>
</g>
<defs>
<clipPath id="clip0_333_1882">
<rect width="48" height="48" fill="white"/>
</clipPath>
</defs>
</svg>
