<svg width="48" height="48" viewBox="0 0 48 48" fill="none" xmlns="http://www.w3.org/2000/svg">
<g id="roulette 1" clip-path="url(#clip0_333_850)">
<path id="Vector" d="M24 48C37.2548 48 48 37.2548 48 24C48 10.7452 37.2548 0 24 0C10.7452 0 0 10.7452 0 24C0 37.2548 10.7452 48 24 48Z" fill="#F7A16E"/>
<path id="Vector_2" d="M23.9997 47.9999C37.2546 47.9999 47.9997 37.2547 47.9997 23.9999C47.9997 16.3304 44.4022 9.50126 38.8026 5.10767C37.792 6.24551 37.8315 7.98795 38.9215 9.07807C42.9073 13.0639 45.1023 18.3633 45.1023 23.9999C45.1023 29.6365 42.9072 34.9358 38.9215 38.9217C34.9359 42.9076 29.6364 45.1025 23.9997 45.1025C18.3631 45.1025 13.0638 42.9075 9.07792 38.9218C7.9877 37.8316 6.24536 37.7923 5.10742 38.8028C9.50111 44.4023 16.3302 47.9999 23.9997 47.9999Z" fill="#B66652"/>
<path id="Vector_3" d="M40.3896 14.5374C38.7265 11.668 36.3319 9.27337 33.4624 7.61024L23.9998 5.07056C20.5552 5.07056 17.3227 5.99587 14.5372 7.61043L7.61 14.5376C5.99563 17.3229 5.07031 20.5554 5.07031 24.0001L7.61019 33.4627C9.27331 36.3321 11.6679 38.7268 14.5374 40.3899L23.9998 42.9296C27.4445 42.9296 30.677 42.0043 33.4625 40.3897L40.3897 33.4626C42.0042 30.6772 42.9296 27.4446 42.9296 23.9999L40.3896 14.5374Z" fill="#4D5967"/>
<g id="Group">
<path id="Vector_4" d="M5.07031 24C5.07031 27.4447 5.99563 30.6772 7.61019 33.4627L23.9998 24H5.07031Z" fill="#FF5368"/>
<path id="Vector_5" d="M14.5375 7.61035C11.6681 9.27348 9.27348 11.668 7.61035 14.5375L24.0002 24.0001L14.5375 7.61035Z" fill="#FF5368"/>
<path id="Vector_6" d="M33.4627 7.61034C30.6772 5.99587 27.4447 5.07056 24 5.07056V24.0001L33.4627 7.61034Z" fill="#FF5368"/>
</g>
<path id="SVGCleanerId_0" d="M14.5371 40.3897C17.3226 42.0043 20.5551 42.9296 23.9998 42.9296V24L14.5371 40.3897Z" fill="#FF5368"/>
<g id="Group_2">
<path id="SVGCleanerId_0_1_" d="M14.5371 40.3897C17.3226 42.0043 20.5551 42.9296 23.9998 42.9296V24L14.5371 40.3897Z" fill="#FF5368"/>
</g>
<path id="Vector_7" d="M24 24H42.9295C42.9295 20.5554 42.0042 17.3229 40.3897 14.5374L24 24Z" fill="#FF5368"/>
<path id="Vector_8" d="M33.4627 40.3898C36.3321 38.7266 38.7267 36.3321 40.3898 33.4626L24 24L33.4627 40.3898Z" fill="#4FE267"/>
<path id="Vector_9" d="M42.9294 24.0001L40.3895 14.5374C38.7264 11.668 36.3318 9.27338 33.4623 7.61026L30.6638 6.85913C30.3316 8.09382 30.8504 9.44532 32.0093 10.1169C36.958 12.9852 40.032 18.3048 40.032 24.0001C40.032 26.8143 39.2889 29.584 37.8827 32.0099C35.0148 36.9582 29.6952 40.0323 23.9998 40.0323C21.1857 40.0323 18.416 39.2891 15.9901 37.8831C14.6705 37.1183 12.999 37.5115 12.1504 38.7486C12.9016 39.3534 13.6984 39.9036 14.5372 40.3898L23.9998 42.9296C27.4445 42.9296 30.677 42.0043 33.4625 40.3898L40.3897 33.4626C42.004 30.6773 42.9294 27.4448 42.9294 24.0001Z" fill="#35404A"/>
<g id="Group_3">
<path id="Vector_10" d="M30.8517 6.35571C30.2008 7.70693 30.6905 9.35262 32.0096 10.1171C32.011 10.1179 32.0124 10.1188 32.0138 10.1196L33.4626 7.61037C32.6303 7.12803 31.7574 6.70868 30.8517 6.35571Z" fill="#D9435B"/>
<path id="Vector_11" d="M15.9857 37.8809L14.5371 40.3899C17.3226 42.0045 20.5551 42.9298 23.9998 42.9298V40.0323C21.1857 40.0323 18.4159 39.2892 15.99 37.8831C15.9887 37.8823 15.9871 37.8816 15.9857 37.8809Z" fill="#D9435B"/>
</g>
<path id="Vector_12" d="M33.4623 40.3898C36.3317 38.7267 38.7264 36.3321 40.3895 33.4626L37.8802 32.0139C36.4478 34.4837 34.4046 36.4862 32.0088 37.8723L33.4623 40.3898Z" fill="#00BD4F"/>
<path id="Vector_13" d="M37.8721 15.9909C39.2618 18.3931 40.0321 21.1494 40.0321 24H42.9294C42.9294 20.5554 42.0041 17.3229 40.3895 14.5374L37.8721 15.9909Z" fill="#D9435B"/>
<path id="Vector_14" d="M24.0002 31.34C20.012 31.34 16.6602 28.0798 16.6602 24C16.6602 19.9527 19.9529 16.6599 24.0002 16.6599C28.0475 16.6599 31.3403 19.9527 31.3403 24C31.3403 28.0913 27.9766 31.34 24.0002 31.34Z" fill="#F7A16E"/>
<path id="Vector_15" d="M31.3403 23.9999C31.3403 20.9349 29.4511 18.3038 26.7765 17.2068C26.0275 18.3323 26.1491 19.8658 27.1417 20.8584C28.8739 22.5907 28.8739 25.4092 27.1417 27.1414C25.4095 28.8736 22.591 28.8736 20.8588 27.1414C19.8668 26.1492 18.3343 26.0272 17.209 26.7747C18.3163 29.4623 20.9743 31.34 24.0001 31.34C27.9766 31.34 31.3403 28.0913 31.3403 23.9999Z" fill="#B66652"/>
<g id="Group_4">
<path id="Vector_16" d="M27.7672 22.6383C27.2817 22.6383 26.8567 22.8932 26.6156 23.2756H24.7249V21.3848C25.1073 21.1437 25.3622 20.7187 25.3622 20.2333C25.3622 19.4813 24.7524 18.8716 24.0005 18.8716C23.2485 18.8716 22.6388 19.4813 22.6388 20.2333C22.6388 20.7187 22.8937 21.1438 23.2761 21.3848V23.2756H21.3853C21.1442 22.8931 20.7192 22.6383 20.2338 22.6383C19.4818 22.6383 18.8721 23.248 18.8721 24C18.8721 24.752 19.4819 25.3617 20.2338 25.3617C20.7192 25.3617 21.1443 25.1068 21.3853 24.7244H23.2761V26.6151C22.8936 26.8563 22.6388 27.2812 22.6388 27.7667C22.6388 28.5186 23.2485 29.1284 24.0005 29.1284C24.7524 29.1284 25.3622 28.5186 25.3622 27.7667C25.3622 27.2812 25.1073 26.8562 24.7249 26.6151V24.7244H26.6156C26.8568 25.1068 27.2817 25.3617 27.7672 25.3617C28.5191 25.3617 29.1289 24.752 29.1289 24C29.1289 23.248 28.5191 22.6383 27.7672 22.6383Z" fill="#FFF9EB"/>
<path id="Vector_17" d="M13.5698 15.018C14.3699 15.018 15.0185 14.3694 15.0185 13.5693C15.0185 12.7692 14.3699 12.1206 13.5698 12.1206C12.7697 12.1206 12.1211 12.7692 12.1211 13.5693C12.1211 14.3694 12.7697 15.018 13.5698 15.018Z" fill="#FFF9EB"/>
</g>
</g>
<defs>
<clipPath id="clip0_333_850">
<rect width="48" height="48" fill="white"/>
</clipPath>
</defs>
</svg>
